<svg width="352" height="354" viewBox="0 0 352 354" fill="none" xmlns="http://www.w3.org/2000/svg">
<g clip-path="url(#clip0_626_5976)">
<path d="M200.401 300.68H133.279C132.965 300.68 132.663 300.806 132.44 301.029C132.219 301.251 132.094 301.553 132.094 301.867C132.094 302.181 132.219 302.483 132.44 302.706C132.663 302.928 132.965 303.054 133.279 303.054H200.401C200.717 303.054 201.018 302.928 201.24 302.706C201.462 302.483 201.588 302.181 201.588 301.867C201.588 301.553 201.462 301.251 201.24 301.029C201.018 300.806 200.717 300.68 200.401 300.68Z" fill="#161616"/>
<path d="M89.1397 300.68H47.4912C47.177 300.68 46.8754 300.806 46.6528 301.029C46.4301 301.251 46.3047 301.553 46.3047 301.867C46.3047 302.181 46.4301 302.483 46.6528 302.706C46.8754 302.928 47.177 303.054 47.4912 303.054H89.1397C89.4539 303.054 89.7555 302.928 89.9781 302.706C90.2008 302.483 90.3248 302.181 90.3248 301.867C90.3248 301.553 90.1994 301.251 89.9781 301.029C89.7569 300.806 89.4539 300.68 89.1397 300.68Z" fill="#161616"/>
<path d="M290.887 300.68H243.19C242.878 300.687 242.579 300.814 242.358 301.036C242.136 301.257 242.01 301.554 242.004 301.867C242.01 302.18 242.136 302.477 242.358 302.699C242.579 302.92 242.878 303.047 243.19 303.054H290.887C291.2 303.047 291.497 302.92 291.719 302.699C291.94 302.477 292.067 302.18 292.074 301.867C292.067 301.554 291.94 301.257 291.719 301.036C291.497 300.814 291.2 300.687 290.887 300.68Z" fill="#161616"/>
<path d="M245.276 51.6679C245.276 51.6679 249.213 62.5547 243.426 73.467C241.624 76.9057 251.822 79.4438 260.55 77.4046C269.279 75.3639 275.991 69.0319 273.24 66.4698C264.393 58.0971 260.741 47.8726 260.741 47.8726L245.276 51.6679Z" fill="white"/>
<path d="M254.005 79.5622C247.981 79.3254 240.391 78.2572 242.17 72.8018C247.861 60.8706 243.996 52.925 243.379 50.6715L261.666 46.1885C262.401 47.991 264.891 56.2227 274.237 65.4255C275.185 66.326 275.494 67.5606 275.138 68.9121C273.69 74.5578 261.547 80.1076 254.005 79.5622ZM247.055 52.7108C248.194 56.1734 249.072 65.5439 244.732 74.438C246.059 76.17 253.318 77.616 260.219 76.0277C267.121 74.438 272.624 70.406 272.268 67.4887C264.963 60.5859 261.144 52.5445 259.887 49.5567L247.055 52.7122V52.7108Z" fill="#161616"/>
<path d="M289.938 115.783L294.231 127.572C297.249 135.823 299.256 144.408 300.208 153.142C302.58 174.586 308.105 213.415 307.893 215.408C307.514 218.989 331.943 311.759 331.943 311.759L302.841 319.302C302.841 319.302 280.237 230.565 278.838 222.595C275.779 205.327 268.877 153.972 268.877 153.972L265.651 154.329C265.651 154.329 237.924 222.002 237.853 223.852C237.782 225.703 235.861 314.51 235.861 314.51L207.043 313.989L208.158 223.449C208.183 219.677 208.89 215.939 210.245 212.419C216.744 195.435 235.482 151.719 234.793 149.062L234.082 131.628L233.181 129.778L233.014 125.224L245.443 116.091L287.352 112.272C287.352 112.272 289.82 114.337 289.938 115.783Z" fill="white"/>
<path d="M233.607 149.18V149.323C233.631 149.276 233.607 149.252 233.607 149.18Z" fill="#161616"/>
<path d="M233.631 149.347C233.631 149.347 233.619 149.344 233.614 149.34C233.61 149.335 233.607 149.33 233.607 149.323C233.609 149.341 233.617 149.358 233.631 149.371V149.347Z" fill="#161616"/>
<path d="M333.104 311.45C327.301 289.391 321.601 267.315 316.004 245.223C314.438 239.009 312.896 232.818 311.426 226.579C310.501 222.381 309.173 218.183 308.983 213.842C307.014 196.431 304.452 179.115 302.389 161.729C301.227 149.94 299.52 138.127 295.274 126.98L291.076 115.474C290.886 114.004 289.581 112.699 288.539 111.727C288.112 111.372 287.731 111.087 287.163 111.111C281.542 111.584 275.921 112.154 270.299 112.629C262.068 113.387 253.791 114.004 245.561 114.882C244.517 115.001 243.593 115.973 242.787 116.59L236.358 121.31C235.054 122.258 233.655 123.16 232.421 124.179C231.567 124.891 231.851 126.006 231.899 127.002C231.947 127.999 231.781 129.137 232.041 130.086C232.302 131.036 232.635 131.272 232.871 131.89C233.18 137.654 233.346 143.416 233.607 149.18C233.607 149.165 233.615 149.165 233.631 149.18C233.655 149.204 233.607 149.323 233.631 149.347C232.895 153.047 231.306 156.606 229.978 160.093C223.337 177.55 215.747 194.629 209.083 212.086C206.568 218.728 206.948 225.821 206.876 232.77L206.521 261.376L205.88 313.016C205.88 313.347 205.857 313.656 205.857 313.965C205.863 314.277 205.99 314.575 206.211 314.796C206.432 315.017 206.73 315.144 207.043 315.15L235.86 315.673C236.173 315.666 236.471 315.539 236.692 315.319C236.913 315.098 237.04 314.799 237.046 314.486C237.117 311.996 237.165 309.529 237.212 307.038C237.814 279.334 238.414 251.635 239.014 223.947C247.624 200.891 257.277 178.237 266.481 155.395L267.88 155.253C271.129 178.309 273.928 201.484 278.008 224.398C281.849 241.239 286.189 257.986 290.341 274.755C294.088 289.588 297.835 304.414 301.583 319.23C301.678 319.989 302.341 320.653 303.149 320.416L328.645 313.822L332.274 312.874C332.564 312.781 332.808 312.583 332.962 312.321C333.115 312.058 333.166 311.748 333.104 311.45ZM233.631 149.347C233.631 149.419 233.678 149.395 233.631 149.347V149.347ZM306.136 317.214L303.694 317.854C295.962 287.207 288.064 256.609 280.758 225.868C276.276 202.314 273.383 176.958 270.061 153.972C269.991 153.403 269.588 152.715 268.876 152.787C268.165 152.857 260.645 153.332 258.203 153.427C257.889 153.427 257.587 153.552 257.365 153.775C257.142 153.996 257.016 154.299 257.016 154.613C257.016 154.928 257.142 155.229 257.365 155.452C257.587 155.674 257.889 155.798 258.203 155.798L263.871 155.562C255.214 176.862 246.415 198.14 238.09 219.558C237.378 221.409 236.454 223.259 236.619 225.298L236.334 238.155C235.797 263.203 235.259 288.252 234.722 313.301L208.252 312.826C208.617 283.033 208.98 253.249 209.344 223.472C209.378 220.746 209.759 218.036 210.482 215.408C217.479 196.099 226.16 177.407 233.251 158.148C234.295 155.229 235.6 152.336 236.003 149.276C235.931 148.35 235.931 147.496 235.884 146.596C235.718 142.848 235.576 139.124 235.409 135.376C235.362 134.19 235.339 133.027 235.267 131.842C235.197 130.655 234.722 130.252 234.343 129.494C234.437 128.283 234.295 127.002 234.224 125.793C238.066 122.922 242.003 120.123 245.846 117.254C259.539 115.973 273.247 114.723 286.973 113.505C287.779 114.217 288.609 115.047 288.799 116.091C288.81 116.269 288.868 116.441 288.965 116.59C291.241 122.804 293.685 128.995 295.511 135.352C298.737 146.666 299.591 158.408 301.062 170.031C303.101 186.113 305.306 202.219 307.133 218.325C314.129 249.375 322.549 280.092 330.496 310.905L306.136 317.214Z" fill="#161616"/>
<path d="M331.752 182.295C328.408 178.831 324.542 177.313 322.218 177.052C315.624 176.34 310.785 179.306 307.868 181.914C305.976 183.617 304.366 185.611 303.101 187.821C303.077 187.883 303.077 187.95 303.101 188.011C303.116 188.045 303.139 188.076 303.169 188.1C303.197 188.125 303.231 188.143 303.267 188.153L307.441 189.031C307.492 189.043 307.544 189.037 307.592 189.016C307.639 188.995 307.678 188.958 307.702 188.911C310.501 183.813 315.956 181.156 321.601 182.175C326.298 183.006 331.752 186.778 332.986 194.914C332.993 194.957 333.012 194.998 333.042 195.032C333.072 195.066 333.11 195.09 333.152 195.103L336.425 196.241H336.52L336.638 196.195C336.71 196.171 336.733 196.099 336.757 196.028C337.207 189.41 334.29 184.903 331.752 182.295Z" fill="#03A731"/>
<path d="M278.245 234.384L284.744 197.879C285.905 191.261 292.12 186.658 298.785 187.678L299.188 187.75C307.774 189.292 337.825 197.025 338.679 197.143C339.533 197.262 346.838 197.973 349.328 208.481C351.273 216.641 350.491 226.461 350.04 230.565C350.01 230.816 349.932 231.059 349.806 231.279C349.681 231.499 349.512 231.691 349.31 231.844C349.109 231.997 348.877 232.108 348.632 232.169C348.387 232.231 348.131 232.242 347.881 232.201L345.889 231.87C345.913 235.214 343.968 245.508 343.968 245.508C343.913 245.901 343.78 246.279 343.579 246.621C343.377 246.962 343.11 247.261 342.793 247.499C342.476 247.737 342.113 247.909 341.729 248.008C341.345 248.106 340.945 248.128 340.552 248.07L297.148 241.784C293.938 241.308 290.812 240.365 287.874 238.985L284.838 237.562C284.148 237.251 283.377 237.16 282.633 237.301L281.471 237.538C281.035 237.627 280.584 237.607 280.157 237.48C279.73 237.355 279.341 237.127 279.023 236.815C278.704 236.504 278.468 236.12 278.332 235.696C278.197 235.272 278.166 234.821 278.245 234.384Z" fill="white"/>
<path d="M350.727 208.148C348.331 198.092 341.69 196.123 338.939 195.744H338.891L332.748 194.226C323.308 191.877 305.709 187.466 299.424 186.351L298.997 186.279C297.43 186.038 295.833 186.07 294.278 186.375C294.106 186.38 293.935 186.42 293.779 186.493C292.006 186.912 290.335 187.685 288.869 188.769C285.938 190.894 283.948 194.075 283.32 197.641L276.821 234.123C276.709 234.79 276.762 235.476 276.972 236.119C277.182 236.763 277.545 237.346 278.03 237.82C278.515 238.292 279.106 238.642 279.755 238.836C280.403 239.03 281.089 239.066 281.754 238.937L282.917 238.701C283.365 238.601 283.834 238.66 284.244 238.867L287.257 240.29C290.324 241.724 293.584 242.699 296.934 243.184L340.338 249.469C340.557 249.509 340.779 249.524 341.002 249.517C342.069 249.521 343.1 249.139 343.908 248.442C344.714 247.744 345.241 246.777 345.39 245.722C345.485 245.105 346.86 237.704 347.241 233.53L347.644 233.6C348.082 233.672 348.531 233.655 348.964 233.55C349.395 233.444 349.801 233.251 350.158 232.985C350.511 232.714 350.807 232.374 351.027 231.987C351.247 231.601 351.386 231.172 351.439 230.731C351.889 226.746 352.719 216.593 350.727 208.148ZM342.568 245.247V245.295C342.541 245.506 342.473 245.711 342.366 245.895C342.259 246.081 342.117 246.242 341.946 246.37C341.776 246.498 341.581 246.591 341.374 246.644C341.167 246.694 340.951 246.704 340.741 246.67L297.361 240.361C296.203 240.193 295.056 239.963 293.921 239.673C294.941 233.719 299.448 206.584 297.503 196.692C297.398 196.358 297.172 196.076 296.872 195.897C296.571 195.72 296.215 195.658 295.872 195.725C295.529 195.793 295.222 195.985 295.012 196.264C294.801 196.543 294.699 196.89 294.729 197.238C296.483 206.346 292.285 232.343 291.17 238.819C290.246 238.486 289.344 238.107 288.466 237.704L285.501 236.305C286.213 232.913 288.396 222.048 288.442 213.415C288.442 213.037 288.293 212.675 288.027 212.409C287.759 212.142 287.397 211.992 287.02 211.992C286.644 211.992 286.281 212.142 286.013 212.409C285.747 212.675 285.597 213.037 285.597 213.415C285.549 221.788 283.344 232.746 282.679 235.854L282.348 235.902L281.185 236.139C280.975 236.185 280.758 236.179 280.551 236.122C280.344 236.064 280.155 235.955 280 235.807C279.845 235.655 279.731 235.466 279.669 235.259C279.607 235.052 279.598 234.832 279.643 234.621L286.143 198.14C286.51 196.047 287.471 194.105 288.909 192.542C290.346 190.977 292.201 189.858 294.254 189.316C295.132 189.98 297.431 192.873 299.448 198.779C301.132 203.785 302.888 211.849 301.583 221.906C301.432 223.118 301.759 224.34 302.495 225.314C303.229 226.288 304.314 226.937 305.52 227.125L344.418 233.079C344.109 237.065 342.592 245.152 342.568 245.247ZM348.616 230.399C348.612 230.459 348.595 230.517 348.565 230.57C348.537 230.624 348.498 230.671 348.45 230.707C348.405 230.745 348.351 230.773 348.293 230.789C348.237 230.806 348.176 230.81 348.117 230.802L346.126 230.47H346.102L305.947 224.302C305.477 224.226 305.054 223.972 304.766 223.592C304.48 223.211 304.351 222.736 304.406 222.263C305.805 211.47 303.86 202.811 301.986 197.428C300.919 194.415 299.4 191.189 297.764 189.007L298.57 189.078L298.927 189.15C305.117 190.264 322.645 194.629 332.061 197.001L338.464 198.567H338.559C340.717 198.875 345.96 200.464 347.952 208.814C349.943 217.162 349.043 226.579 348.616 230.399Z" fill="#161616"/>
<path d="M330.122 224.674L322.848 223.6C321.63 223.421 320.496 224.262 320.317 225.48L319.173 233.228C318.992 234.447 319.835 235.581 321.053 235.761L328.327 236.835C329.544 237.014 330.677 236.172 330.858 234.955L332.002 227.206C332.181 225.987 331.34 224.854 330.122 224.674Z" fill="#03A731"/>
<path d="M326.227 134.569C326.868 149.395 326.986 165.618 327.722 167.374C333.129 180.633 332.987 176.08 330.852 182.532C330.567 183.386 324.994 186.706 322.716 187.608C322.49 187.702 322.243 187.745 321.998 187.732C321.751 187.721 321.51 187.653 321.293 187.536L313.111 184.761C313.111 184.761 317.404 182.626 318.685 182.792C320.605 183.053 321.934 183.622 321.317 181.203C320.036 176.364 314.866 173.305 314.866 173.305L314.439 177.194C312.613 178.357 311.119 178.404 311.119 178.404C310.573 178.025 310.383 176.316 310.313 174.562C310.17 169.983 310.905 163.365 310.905 163.365C310.407 157.364 310.55 146.524 309.269 137.487C314.535 133.858 319.99 133.977 326.227 134.569Z" fill="white"/>
<path d="M333.319 177.455C332.939 175.961 332.132 174.632 331.539 173.233C330.947 171.834 330.211 170.316 329.594 168.868C329.287 167.99 328.788 167.184 328.67 166.26C327.886 156.724 327.982 147.141 327.531 137.606C327.507 136.585 327.461 135.565 327.413 134.569C327.399 134.315 327.317 134.07 327.176 133.858C327.074 133.701 326.932 133.575 326.766 133.491C326.598 133.407 326.412 133.371 326.226 133.384C321.625 132.933 316.81 132.72 312.446 134.474C311.118 134.996 309.854 135.664 308.675 136.467C308.035 136.87 308.059 137.558 308.177 138.222C308.723 142.349 308.983 146.548 309.15 150.722C309.316 154.517 309.386 158.337 309.625 162.132C309.734 162.975 309.726 163.83 309.601 164.67C309.268 168.181 308.983 171.691 309.15 175.202C309.22 176.222 309.268 177.313 309.647 178.261C310.028 179.211 310.335 179.59 311.118 179.59C312.446 179.518 313.703 178.997 314.841 178.333C315.316 178.049 315.577 177.74 315.625 177.171C315.671 176.601 315.767 176.032 315.814 175.462C316.747 176.209 317.598 177.052 318.352 177.977C318.935 178.749 319.428 179.585 319.823 180.468C319.993 180.915 320.127 181.375 320.226 181.844H320.131C319.586 181.772 319.039 181.606 318.494 181.63C317.756 181.68 317.028 181.841 316.336 182.105C315.032 182.579 313.751 183.149 312.494 183.741C311.616 184.24 311.806 185.663 312.778 185.924L320.913 188.699C322.076 189.268 323.333 188.747 324.4 188.177C324.993 187.893 325.562 187.584 326.132 187.251C327.341 186.588 328.527 185.876 329.666 185.118C330.805 184.358 331.563 183.907 331.99 182.887C332.417 181.868 332.535 181.322 332.844 180.539C333.152 179.757 333.555 178.546 333.319 177.455ZM311.924 177.55H311.948L311.9 177.503H311.878V177.407C311.9 177.431 311.9 177.479 311.924 177.503C311.948 177.527 311.996 177.716 311.924 177.55ZM320.25 181.962C320.266 181.962 320.274 181.97 320.274 181.986V182.033C320.274 182.105 320.25 182.152 320.25 181.962ZM327.437 183.717C327.152 181.345 326.559 179.045 325.895 176.744C325.812 176.443 325.613 176.187 325.341 176.032C325.071 175.875 324.749 175.833 324.448 175.913C324.145 176.002 323.888 176.205 323.733 176.48C323.578 176.755 323.537 177.079 323.618 177.385C324.265 179.438 324.748 181.539 325.065 183.67C325.135 184.121 325.159 184.595 325.23 185.046C324.329 185.543 323.404 186.018 322.455 186.445L322.17 186.54H322.028C321.958 186.493 321.673 186.397 321.886 186.493C320.06 185.805 318.187 185.236 316.36 184.595C317.003 184.321 317.67 184.107 318.352 183.955H318.636C319.286 184.087 319.944 184.175 320.605 184.216C323.57 184.097 322.669 180.776 321.767 179.021C320.44 176.222 318.091 173.921 315.482 172.261C315.301 172.159 315.096 172.104 314.888 172.106C314.679 172.106 314.475 172.159 314.293 172.262C314.111 172.365 313.961 172.513 313.852 172.69C313.745 172.869 313.686 173.072 313.68 173.281C313.584 174.348 313.466 175.392 313.348 176.435C312.854 176.731 312.319 176.948 311.758 177.076C311.707 176.865 311.668 176.651 311.64 176.435C311.237 172.19 311.664 167.896 312.067 163.674C311.616 155.135 311.64 146.548 310.549 138.057C311.318 137.578 312.119 137.151 312.945 136.776C316.787 135.162 321.032 135.258 325.088 135.613C325.562 145.505 325.538 155.395 326.202 165.263C326.25 165.996 326.345 166.725 326.487 167.445C326.69 168.037 326.928 168.615 327.198 169.177C328.291 171.834 329.5 174.444 330.709 177.052C330.855 177.388 330.967 177.737 331.041 178.096V178.404C331.022 178.525 330.989 178.645 330.947 178.76C330.59 177.344 330.09 175.97 329.452 174.656C329.287 174.063 328.622 173.612 328.006 173.826C327.704 173.909 327.448 174.108 327.293 174.379C327.138 174.649 327.096 174.971 327.176 175.274C327.341 175.795 327.603 176.269 327.816 176.767C327.649 176.364 327.864 176.886 327.886 176.98C328.329 178.05 328.656 179.163 328.86 180.302C328.86 180.396 328.954 180.705 328.86 180.42C328.954 181.064 328.978 181.717 328.93 182.365C328.906 182.437 328.86 182.864 328.906 182.555C328.909 182.612 328.901 182.668 328.882 182.722C328.433 183.077 327.934 183.386 327.437 183.717Z" fill="#161616"/>
<path d="M332.274 106.223C332.035 103.332 331.047 100.552 329.408 98.1566C327.771 95.7621 325.537 93.8328 322.93 92.5602L278.055 66.4444C275.304 64.9266 273.81 63.716 270.513 63.6216C266.884 69.8831 253.981 76.6196 244.517 67.6296C243.617 67.5592 241.364 68.3413 237.757 70.95C231.544 75.4569 213.163 99.4137 209.036 104.869C208.8 105.176 208.462 105.388 208.083 105.467C207.704 105.546 207.309 105.485 206.972 105.296L168.999 84.0424C168.999 84.0424 163.615 105.675 159.892 104.773L205.525 129.797C207.805 131.05 210.447 131.477 213.007 131.006C215.564 130.535 217.882 129.195 219.566 127.212C222.341 123.962 225.685 119.977 228.768 116.253L229.48 117.511C232.753 132.692 228.864 145.856 230.31 144.835C240.271 137.72 245.893 141.848 260.954 134.684C291.361 120.191 294.682 127.663 299.14 128.991C299.094 128.73 297.765 119.385 295.061 105.555L308.913 114.024C309.126 114.145 309.306 114.317 309.437 114.523C309.57 114.73 309.65 114.965 309.671 115.209L307.063 162.603C314.747 159.519 325.372 160.491 330.971 163.741C330.971 163.741 333.792 124.199 332.274 106.219V106.223Z" fill="#03A731"/>
<path d="M333.461 106.223C332.322 94.2683 323.119 91.6118 314.272 86.1563C302.438 79.3015 290.626 72.3283 278.766 65.472C276.206 63.9781 273.572 62.4364 270.513 62.4364C270.305 62.4364 270.103 62.4927 269.924 62.597C269.745 62.7013 269.597 62.8507 269.492 63.0297C265.128 70.1227 254.408 73.3246 247.364 68.3907C246.155 67.6311 245.205 65.9948 243.593 66.5402C238.114 68.1299 234.105 72.4946 230.358 76.5745C222.862 85.019 208.253 104.232 207.779 104.28H207.636C207.352 104.256 182.092 90.0249 169.901 83.1926C169.236 82.6472 168.097 82.7895 167.861 83.738C167.267 86.0394 166.628 88.3633 165.916 90.6407C164.422 94.9574 163.354 100.294 160.128 103.616C160.319 103.522 160.2 103.592 160.104 103.616C160.01 103.664 159.962 103.616 160.082 103.616C158.895 103.474 158.113 105.134 159.298 105.798L166.106 109.547L196.891 126.434C202.703 129.471 208.941 134.524 215.748 131.416C218.025 130.468 219.661 128.926 221.226 127.075C223.646 124.229 226.057 121.359 228.461 118.465C228.467 118.5 228.484 118.534 228.508 118.559C230.24 126.743 229.646 135.139 228.816 143.395C228.768 144.129 228.674 145.102 229.219 145.671L229.434 145.861L229.528 145.909L229.813 146.028C231.164 146.597 232.587 147.19 234.058 147.119C235.458 146.621 235.576 144.699 234.793 143.538C242.122 140.24 250.519 140.691 257.871 137.322C267.477 133.337 283.7 124.205 294.231 128.024C293.591 128.878 293.757 130.396 295.441 131.582C296.863 132.27 299.425 131.25 300.066 129.708C300.23 129.385 300.303 129.025 300.279 128.665C299.188 121.762 298.073 114.836 296.745 107.957C300.54 110.329 304.43 112.63 308.225 115.002C308.486 115.215 308.486 115.168 308.462 115.499C308.105 121.905 307.774 128.309 307.394 134.712C306.967 144.011 306.257 153.31 305.876 162.608C305.83 163.224 306.469 163.841 307.109 163.817C307.945 164.049 308.806 164.175 309.671 164.196C310.455 164.244 310.976 163.414 310.81 162.727C316.052 161.47 321.744 161.564 326.843 163.272C326.743 163.445 326.691 163.641 326.691 163.841C326.691 164.041 326.743 164.237 326.843 164.411C327.294 165.146 329.57 165.407 330.947 164.932C331.26 164.921 331.557 164.793 331.781 164.574C332.005 164.354 332.139 164.06 332.156 163.747C333.295 144.604 334.646 125.367 333.461 106.225V106.223ZM308.344 160.899C309.181 145.86 310.004 130.83 310.81 115.807C310.848 115.604 310.865 115.397 310.858 115.189C311.64 113.198 312.019 111.063 312.826 109.07C313.063 108.501 312.566 107.741 311.996 107.599C311.427 107.458 310.786 107.813 310.525 108.43C309.98 109.852 309.601 111.324 309.174 112.771L308.889 112.629L296.151 104.824C295.559 100.602 295.559 96.0947 293.567 92.229C292.761 90.9001 290.768 92.0627 291.526 93.4143C292.286 94.7658 292.879 97.6605 293.21 99.9605C293.21 99.8886 293.188 99.8181 293.21 99.9844V100.032C293.353 101.029 295.726 119.696 297.623 127.026C284.838 119.935 267.381 131.296 255.215 135.826C247.364 138.957 238.423 138.033 231.212 142.847C232.114 134.356 232.611 125.603 230.643 117.206C230.627 117.206 230.619 117.198 230.619 117.182C230.452 116.021 230.168 114.574 230.145 114.241C229.837 111.039 229.694 107.813 229.434 104.587C229.386 103.045 227.062 103.045 227.062 104.587C227.323 107.884 227.511 112.154 227.938 115.428L222.389 122.068C220.657 123.99 219.187 126.172 217.219 127.88C215.656 129.091 213.775 129.824 211.805 129.987C209.835 130.152 207.86 129.74 206.119 128.805C191.532 120.789 176.922 112.841 162.382 104.777C166.413 99.2741 167.814 92.2769 169.759 85.8491L198.813 102.121C200.924 103.284 204.932 105.513 207.47 106.652C209.533 107.245 211.621 107.767 213.708 108.194C215.226 108.574 215.842 106.345 214.348 105.916C212.854 105.489 211.74 105.323 210.459 104.992L210.648 104.707C218.191 94.9109 225.733 85.0909 234.129 75.9826C236.928 73.0174 240.107 70.0762 244.114 68.867C251.965 76.3152 265.27 73.35 271.154 64.8815C275.541 65.6172 279.265 68.7951 283.178 70.8118L320.89 92.7533C325.302 94.8884 329.167 98.3045 330.496 103.167C332.37 113.129 331.396 123.494 331.302 133.577C331.017 143.016 330.52 152.457 329.903 161.874C323.167 159.075 315.316 158.814 308.344 160.902V160.899Z" fill="#161616"/>
<path d="M277.509 27.4025C277.201 24.1667 276.393 20.9972 275.114 18.0095C274.66 16.937 274.062 15.9308 273.335 15.0204C272.884 14.4919 272.316 14.0775 271.675 13.8112L265.152 10.87L257.729 7.5736L256.163 6.8619C255.832 6.71956 255.405 6.88586 255.048 6.98028L249.142 8.35576L240.961 10.3006L234.912 11.748L234.271 11.8903H234.129C234.06 11.9044 233.995 11.9326 233.937 11.9734C233.881 12.0143 233.833 12.0665 233.798 12.1271C233.774 12.151 233.678 12.3638 233.774 12.175C233.772 12.1933 233.764 12.2102 233.75 12.2229C233.551 12.5766 233.328 12.9177 233.086 13.2432C233.033 13.2883 232.993 13.3447 232.966 13.4095C232.944 13.4095 232.896 13.4814 232.896 13.5039C232.78 13.6195 232.677 13.7463 232.587 13.883L231.947 14.6892C229.622 17.6543 227.369 20.7619 226.018 24.3189C225.302 26.2046 224.957 28.21 224.997 30.2253C225.045 32.1222 225.258 34.091 225.946 35.871C226.635 37.6495 227.75 39.1688 229.456 40.0453L229.622 40.0933H229.718L232.114 40.4019L238.208 41.1841L246.32 42.2284L254.717 43.3192L261.784 44.2211L265.864 44.7426L266.148 44.7905H266.22C267.136 44.992 268.089 44.968 268.995 44.7186C270.964 44.2197 272.672 42.9401 274.071 41.4927C275.195 40.2962 276.068 38.8841 276.633 37.3423C277.794 34.2587 277.866 30.7242 277.509 27.4039V27.4025Z" fill="#161616"/>
<path d="M257.444 52.3317L246.534 63.5511C246.534 63.5511 246.297 53.5408 245.893 53.4943C245.49 53.4464 255.215 52.9968 256.329 52.6643L257.444 52.3317Z" fill="#161616"/>
<path d="M280.45 26.6668C279.948 24.5444 278.625 22.7081 276.771 21.5609C274.916 20.4138 272.683 20.0487 270.56 20.5476C269.656 20.7576 268.796 21.1269 268.022 21.6384C269.115 23.4719 269.915 25.4647 270.394 27.5448C271.087 30.503 271.144 33.5766 270.56 36.5587C271.799 36.8547 273.091 36.8547 274.331 36.5587C276.454 36.057 278.29 34.7337 279.437 32.879C280.584 31.0244 280.949 28.7907 280.45 26.6668Z" fill="white"/>
<path d="M272.457 38.1949C271.318 38.2428 269.991 37.8863 268.9 37.6256C269.608 34.838 269.723 31.9334 269.241 29.0979C268.759 26.2624 267.69 23.5607 266.102 21.1635C271.509 16.6805 280.308 19.337 281.827 26.3342C283.368 32.1927 278.481 38.3598 272.457 38.1949ZM272.196 35.3481C276.537 35.6328 280.189 31.1963 279.075 26.998C278.15 23.0125 273.762 20.7125 269.967 22.2304C271.996 26.2835 272.773 30.8511 272.196 35.3481Z" fill="#161616"/>
<path d="M254.138 53.3717C265.627 50.9083 272.945 39.5972 270.481 28.1071C268.018 16.6171 256.708 9.29999 245.219 11.7635C233.73 14.2269 226.413 25.538 228.877 37.028C231.338 48.5181 242.65 55.8352 254.138 53.3717Z" fill="white"/>
<path d="M249.687 55.1305C223.384 55.4152 218.545 16.2295 244.47 10.3231C277.177 3.82344 282.963 53.9918 249.687 55.1305ZM230.357 36.9618C236.784 62.2715 274.521 53.3759 268.994 27.8774C262.567 2.59171 224.83 11.4633 230.357 36.9618Z" fill="#161616"/>
<path d="M273.62 32.786C273.501 32.7846 273.384 32.7536 273.282 32.6958C273.177 32.6381 273.09 32.5549 273.027 32.4548C271.579 30.0351 272.624 28.8963 275.043 28.6835C275.043 28.4228 274.806 27.7816 274.213 27.2136C272.884 25.7198 271.414 27.356 270.892 26.2412C270.821 24.2485 274.379 25.1265 275.304 26.2891C276.228 27.4518 277.248 29.8716 275.185 30.1084C274.331 30.1323 273.928 30.3451 273.833 30.5114C273.738 30.6777 275.161 32.6225 273.62 32.7888V32.786Z" fill="#161616"/>
<path d="M245.921 31.6346C246.442 31.5064 246.576 30.2267 246.219 28.7766C245.864 27.3264 245.153 26.2539 244.631 26.3822C244.11 26.5104 243.975 27.79 244.331 29.2402C244.688 30.6904 245.399 31.7629 245.921 31.6346Z" fill="#161616"/>
<path d="M236.534 34.597C237.055 34.4687 237.189 33.1891 236.834 31.7389C236.478 30.2887 235.766 29.2163 235.244 29.3445C234.723 29.4728 234.588 30.7524 234.944 32.2026C235.301 33.6528 236.012 34.7252 236.534 34.597Z" fill="#161616"/>
<path d="M244.115 37.8384C244.093 37.7144 244.036 37.5988 243.948 37.5058C243.876 37.4367 243.786 37.3874 243.688 37.3634H243.521C243.261 37.3634 243.048 37.5537 242.834 37.696C242.731 37.7468 242.645 37.8243 242.581 37.9201C242.519 38.016 242.483 38.1273 242.479 38.2414C242.48 38.326 242.504 38.4077 242.549 38.4782C242.574 38.5501 242.615 38.6149 242.667 38.6685C242.721 38.722 242.786 38.7629 242.858 38.7868C242.977 38.8418 243.113 38.8503 243.237 38.8108C243.335 38.7868 243.425 38.7389 243.497 38.6685C243.497 38.6445 243.521 38.6445 243.521 38.6205C243.702 38.5459 243.864 38.4331 243.996 38.2879C244.046 38.2245 244.081 38.1527 244.102 38.0751C244.122 37.9976 244.126 37.9173 244.115 37.8384Z" fill="#161616"/>
<path d="M244.755 36.0598C242.478 33.4512 236.43 35.42 238.042 39.2153C238.293 39.6507 238.697 39.9763 239.177 40.1257C239.657 40.2751 240.174 40.2384 240.628 40.0228C241.292 39.6662 240.698 38.6234 240.035 39.0025C239.371 39.3816 238.944 38.5754 238.944 38.054C238.944 37.5326 239.513 36.749 240.129 36.4178C240.731 36.0979 241.416 35.9725 242.091 36.057C242.766 36.1416 243.398 36.4333 243.901 36.8927C244.471 37.4381 245.301 36.5841 244.755 36.0627V36.0598Z" fill="#161616"/>
<path d="M246.676 43.3896C249.238 42.7498 251.349 40.5668 251.229 37.8384C251.229 37.0562 250.044 37.0562 250.044 37.8384C250.138 40.1158 248.43 41.7041 246.367 42.2509C245.632 42.4651 245.94 43.6264 246.676 43.3896Z" fill="#161616"/>
<path d="M231.663 9.20839C229.219 9.01813 221.559 9.54098 220.751 17.5811C220.732 17.7699 220.724 17.9602 220.729 18.1504C222.435 46.8748 253.412 4.17859 258.654 18.6479C259.958 22.2304 271.509 31.8362 269.801 24.3175C268.923 19.6443 274.64 18.2209 273.405 13.146C272.695 9.84821 269.873 8.68695 267.453 8.33039C266.622 8.22329 265.854 7.8315 265.279 7.22127C264.704 6.61104 264.357 5.82183 264.298 4.98612C263.848 -1.32333 254.763 -0.872357 248.976 2.09282C248.505 2.33381 247.988 2.47192 247.458 2.49588C245.347 2.49588 245.443 0.527081 242.715 0.242402C237.118 -0.374873 233.535 3.8474 234.816 7.12121C235.315 8.33039 233.797 9.35073 231.663 9.20839Z" fill="#161616"/>
<path d="M235.908 312.21C239.308 320.233 240.543 329.01 239.489 337.661C239.323 339.06 239.062 340.507 238.28 341.694C236.406 344.515 232.42 344.848 229.006 344.896L212.924 345.109C206.9 345.205 200.733 345.251 194.946 343.52C191.436 341.979 188.519 340.317 186.644 337.021C177.988 322.006 203.035 327.652 206.782 311.569L235.908 312.21Z" fill="#03A731"/>
<path d="M186.076 330.972C186.053 331.02 186.053 331.09 186.029 331.138C186.05 331.085 186.066 331.028 186.076 330.972Z" fill="#161616"/>
<path d="M235.078 342.809H235.102C234.912 342.856 235.031 342.831 235.078 342.809Z" fill="#161616"/>
<path d="M238.28 337.828C238.276 337.794 238.285 337.759 238.305 337.732L238.28 337.828Z" fill="#161616"/>
<path d="M186.053 332.371C186.029 332.063 186.053 332.253 186.053 332.371V332.371Z" fill="#161616"/>
<path d="M238.468 315.625C236.76 311.545 237.995 310.763 233.013 310.951L210.362 310.454C201.872 309.552 208.75 313.158 199.809 319.492C191.199 325.018 177.181 326.014 186.858 339.417C195.611 349.64 215.272 345.512 227.582 346.105C232.159 346.153 238.35 345.844 240.058 340.698C242.003 332.466 241.006 323.618 238.468 315.625ZM238.422 336.64L238.279 337.851C238.232 339.298 237.211 341.646 236.381 342.073C235.985 342.368 235.556 342.614 235.1 342.809H235.148C234.218 343.172 233.246 343.419 232.255 343.543C225.85 344.018 219.375 343.757 212.924 343.946C207.09 344.018 201.112 344.136 195.468 342.452C191.674 341.029 188.115 338.42 186.668 334.483V334.529C186.383 333.841 186.169 333.127 186.028 332.395C186.052 332.419 186.052 332.442 186.052 332.49C185.989 332.05 185.973 331.605 186.004 331.161V331.257C186.055 330.893 186.142 330.535 186.265 330.188C186.359 329.904 187.309 328.6 187.949 328.22C194.234 324.235 205.288 322.171 207.659 312.802L235.1 313.395C238.084 320.757 239.224 328.737 238.422 336.64Z" fill="#161616"/>
<path d="M238.849 330.9L238.232 331.162C234.912 332.608 229.718 333.937 226.112 334.388C218.949 335.337 211.668 334.934 204.529 333.984C200.401 333.392 194.922 332.704 190.63 330.9C189.824 330.569 187.759 329.501 186.717 328.647C186.456 328.458 186.883 328.789 186.645 328.6C186.408 328.41 185.245 327.698 184.653 328.339C182.661 330.9 192.029 333.984 193.855 334.483C204.98 336.949 216.625 338.206 227.938 336.475C229.931 336.072 242.097 333.961 240.461 331.327C240.082 330.735 239.441 330.639 238.849 330.9Z" fill="white"/>
<path d="M219.447 316.124C217.17 312.186 211.715 312.471 208.798 315.53C208.442 312.232 205.122 307.964 201.635 307.37C201.055 307.269 200.457 307.377 199.951 307.679C196.321 309.742 201.421 314.273 203.793 315.743C204.931 316.549 204.765 318.424 206 319.23C206.188 319.919 207.09 320.18 207.683 319.847C210.98 321.01 215.841 323.903 219.044 321.365C220.444 320.013 220.348 317.712 219.447 316.124ZM205.619 314.201C204.386 313.134 202.796 312.209 201.778 310.905C201.493 310.524 199.025 307.964 202.632 310.288C204.292 311.378 205.952 313.49 206.331 315.055C206.142 314.734 205.902 314.445 205.619 314.201ZM217.621 319.325L217.431 319.634C215.771 320.843 211.383 318.684 209.51 318.068C210.909 316.787 212.593 315.198 214.656 315.53C218.237 315.625 217.906 318.542 217.621 319.325Z" fill="white"/>
<path d="M208.251 321.27C207.09 320.108 202.369 316.573 201.327 318.993C200.948 320.653 203.342 320.607 203.889 321.057C204.896 321.51 205.806 322.154 206.567 322.954C207.636 324.045 209.343 322.361 208.251 321.27Z" fill="white"/>
<path d="M203.414 324.781C201.948 323.166 199.92 322.172 197.744 322.006C195.8 322.195 196.583 324.615 197.983 324.402C199.022 324.568 200.006 324.982 200.852 325.611C202.583 327.864 204.504 326.417 203.414 324.781Z" fill="white"/>
<path d="M270.394 110.849C270.198 110.852 270.004 110.812 269.825 110.735C269.644 110.657 269.484 110.543 269.35 110.399C269.098 110.119 268.964 109.752 268.976 109.376C268.991 109 269.15 108.643 269.422 108.382C272.078 105.868 273.287 102.358 272.671 99.036C271.912 95.0744 268.616 91.8964 264.251 90.924C263.884 90.8437 263.562 90.6224 263.358 90.3067C263.154 89.9911 263.082 89.6077 263.159 89.2399C263.251 88.8735 263.478 88.5564 263.796 88.3534C264.113 88.1505 264.498 88.0772 264.867 88.1491C270.322 89.3583 274.474 93.4142 275.446 98.4906C276.276 102.783 274.758 107.244 271.366 110.47C271.238 110.594 271.085 110.692 270.918 110.757C270.752 110.822 270.573 110.853 270.394 110.849Z" fill="white"/>
<path d="M258.534 114.621H258.345C252.321 113.814 247.553 109.569 246.509 104.066C245.585 99.2741 247.576 94.3402 251.703 91.1143C252.006 90.8845 252.388 90.7817 252.765 90.831C253.142 90.8803 253.485 91.0748 253.72 91.375C253.948 91.6738 254.05 92.0514 254 92.4249C253.952 92.7984 253.757 93.1366 253.459 93.3677C250.186 95.9299 248.596 99.8195 249.284 103.52C250.114 107.837 253.909 111.157 258.724 111.799C259.1 111.851 259.44 112.049 259.671 112.352C259.902 112.654 260.005 113.035 259.957 113.411C259.906 113.75 259.733 114.059 259.472 114.282C259.21 114.504 258.878 114.624 258.534 114.621Z" fill="white"/>
<path d="M269.445 100.72C267.832 96.285 264.725 95.9284 260.906 98.0396C260.48 95.9284 258.273 94.126 256.116 95.0265C252.628 96.402 255.451 105.51 256.946 107.86C258.891 109.852 263.919 107.788 266.196 106.839C269.137 105.913 271.057 103.804 269.445 100.72ZM265.199 104.706C263.136 105.584 260.93 106.438 258.654 106.223C257.846 104.042 256.234 99.3446 257.04 97.1855H257.064C257.208 97.1574 257.356 97.1588 257.5 97.1912C257.642 97.2236 257.777 97.287 257.894 97.3744C257.887 97.3744 257.882 97.3716 257.877 97.3674C257.873 97.3631 257.87 97.3575 257.87 97.3504C257.894 97.3984 258.013 97.4688 257.894 97.3744C258.189 97.6224 258.404 97.9522 258.511 98.3229C259.127 103.732 262.187 98.9627 265.247 99.0825C266.362 99.3432 267.405 101.502 267.666 102.902C267.926 104.301 265.982 104.207 265.199 104.704V104.706ZM267.619 103.306C267.619 103.306 267.63 103.303 267.636 103.299C267.64 103.295 267.643 103.289 267.643 103.282L267.619 103.306Z" fill="white"/>
<path d="M292.618 141.922C290.507 142.017 287.685 142.159 285.905 142.207C285.882 142.207 285.716 142.183 285.716 142.159L285.787 142.207L285.62 142.113L285.692 142.159C285.644 142.183 285.265 141.732 285.408 141.899C284.127 140.12 284.032 137.534 284.387 134.925C284.862 133.739 282.846 132.435 282.11 134.214C281.565 137.748 281.518 144.485 286.38 144.579C287.922 144.176 293.97 145.148 293.803 143.109C293.78 142.492 293.282 141.875 292.618 141.922Z" fill="#03A731"/>
<path d="M240.771 144.485C240.889 144.982 241.103 146.263 241.126 146.429C241.336 148.049 241.391 149.685 241.292 151.315V151.197C241.268 151.245 241.268 151.315 241.246 151.387C241.222 151.458 241.34 151.245 241.222 151.411C241.103 151.576 241.34 151.245 241.222 151.387C241.103 151.53 241.434 151.269 241.246 151.387L241.055 151.482C237.711 152.193 238.778 154.922 240.676 154.186C240.935 154.055 241.206 153.945 241.482 153.854C245.277 152.739 243.355 146.762 243.024 143.867C242.645 142.373 240.344 143.013 240.747 144.485H240.771Z" fill="#03A731"/>
<path d="M330.922 309.933C336.75 316.411 340.781 324.302 342.615 332.822C342.9 334.222 343.137 335.668 342.78 337.045C341.95 340.317 338.274 341.931 335.072 343.093L319.94 348.549C314.271 350.588 308.461 352.675 302.437 352.913C298.594 352.605 295.32 351.988 292.451 349.497C279.359 338.112 304.879 335.289 303.171 318.851L330.922 309.933Z" fill="#03A731"/>
<path d="M290.198 344.848C290.198 344.872 290.222 344.918 290.222 344.942C290.222 344.966 290.15 344.754 290.198 344.848Z" fill="#161616"/>
<path d="M344.062 334.268C342.568 324.923 338.038 316.124 331.753 309.102C330.614 308.177 329.072 309.505 327.839 309.67L306.279 316.621C304.998 317.285 302.223 317.119 301.986 318.851C304.288 332.347 281.564 337.045 289.084 347.647C298.404 359.815 314.723 351.466 326.274 347.528C332.583 344.539 345.082 343.661 344.062 334.268ZM340.812 338.396C340.86 338.348 340.884 338.302 340.908 338.302L340.812 338.396ZM341.762 336.048C341.762 336.095 341.738 336.143 341.738 336.191C341.62 337.566 340.647 338.775 339.603 339.559C333.721 343.069 326.795 344.515 320.462 347.101C311.308 350.351 298.428 355.759 291.099 346.414H291.147C290.785 345.951 290.473 345.45 290.223 344.918C290.231 344.928 290.237 344.94 290.241 344.952C290.245 344.965 290.247 344.978 290.247 344.99C287.446 337.969 305.567 332.798 304.43 319.681C313.134 316.882 321.839 314.059 330.544 311.284C336.402 318.211 341.05 326.916 341.762 336.048Z" fill="#161616"/>
<path d="M291.146 346.438C291.194 346.532 291.337 346.698 291.146 346.438V346.438Z" fill="#161616"/>
<path d="M339.864 326.583C339.034 327.366 337.564 328.6 336.971 329.05C326.558 337.021 313.726 340.08 300.871 342.097C298.713 342.404 295.178 342.618 292.879 342.262C291.6 342.076 290.345 341.757 289.13 341.313C287.66 340.862 287.021 343.188 288.49 343.591C295.725 346.177 303.528 344.088 310.785 342.665C321.506 340.365 332.203 336.451 340.551 329.169C342.781 327.84 341.832 325.397 339.864 326.583Z" fill="white"/>
<path d="M316.55 318.969C313.111 316.076 308.13 318.092 306.375 321.934C304.786 318.614 299.828 315.649 296.2 316.739C292.073 319.514 297.671 322.67 300.421 323.382C302.983 323.714 302.959 325.517 304.928 326.347C305.307 326.916 306.279 326.892 306.754 326.393C310.122 326.417 315.886 327.485 317.925 324.164C318.827 322.385 318.045 320.18 316.55 318.969ZM302.651 321.603C300.896 321.01 298.928 320.511 297.457 319.302C297.101 319.017 297.693 318.803 298.05 318.827C299.971 318.993 303.196 320.962 303.861 322.267C303.496 321.981 303.088 321.757 302.651 321.603ZM315.814 323.097C315.649 323.572 314.866 323.737 314.795 323.761C312.542 324.33 310.17 324.188 307.893 324.117C309.102 321.365 311.451 319.041 314.178 320.25C315.222 320.653 316.337 321.958 315.814 323.097Z" fill="white"/>
<path d="M307.774 327.58C306.327 326.798 300.848 324.733 300.469 327.319C300.539 328.909 302.319 328.386 303.386 328.576H303.267C304.135 328.71 304.987 328.941 305.805 329.264C307.584 330.593 309.316 328.931 307.774 327.58Z" fill="white"/>
<path d="M304.145 332.324C302.28 331.175 300.045 330.793 297.906 331.257C295.938 332.205 297.67 334.08 298.855 333.486C299.327 333.419 299.805 333.411 300.278 333.462H300.42C301.007 333.54 301.58 333.691 302.128 333.913C303.907 335.361 305.709 333.747 304.145 332.324Z" fill="white"/>
<path d="M84.2062 23.2267C92.8868 36.3671 87.1712 51.4537 80.8383 59.1625C77.731 62.9578 73.3668 65.7327 67.7935 68.6035C54.2033 75.6246 47.7041 101.764 30.6516 99.914C6.60102 97.3279 -5.9224 76.9296 6.22195 62.3884C16.2314 50.4094 16.8712 36.5573 25.0064 26.0961C39.5449 7.4524 64.3311 -6.82666 84.2062 23.2267Z" fill="#161616"/>
<path d="M67.0112 54.1581C67.0112 54.1581 63.0979 65.0464 68.9319 75.9333C70.7822 79.3734 60.5825 81.9341 51.8554 79.9653C43.127 77.9965 36.3671 71.6631 39.0953 69.0544C47.8942 60.6578 51.5003 50.4108 51.5003 50.4108L67.0112 54.1581Z" fill="white"/>
<path d="M58.236 82.0764C50.7406 82.7402 33.0243 75.4583 38.0988 68.0341C48.2505 58.8539 48.9382 48.7732 51.8313 49.0339C52.2583 49.3425 68.671 52.5924 68.244 53.469C69.0036 55.2475 64.1884 63.7639 70.1887 75.2681C71.9911 80.7474 64.3307 81.8382 58.2346 82.075L58.236 82.0764ZM52.378 52.0949C51.121 55.108 47.3501 63.172 40.0688 70.0987C39.7137 72.992 45.4998 76.8352 52.1653 78.5672C58.8307 80.2993 66.3247 78.6391 67.6296 76.9071C63.2654 68.0355 64.0954 58.6665 65.2101 55.1799L52.378 52.0963V52.0949Z" fill="#161616"/>
<path d="M55.1768 54.5612L66.1825 65.6862C66.1825 65.6862 66.3488 55.6759 66.7518 55.6294C67.1548 55.5815 57.4061 55.2024 56.2914 54.8938L55.1768 54.5612Z" fill="#161616"/>
<path d="M37.1981 35.3242C37.1263 33.1806 37.3743 31.0385 37.9337 28.9668C36.6373 28.5609 35.2591 28.482 33.9246 28.7371C32.5901 28.9936 31.3387 29.5756 30.2847 30.4325C29.2292 31.2893 28.4034 32.3942 27.8792 33.6485C27.355 34.9028 27.1506 36.267 27.2817 37.6199C27.4127 38.9729 27.8778 40.2722 28.6345 41.4011C29.3912 42.5299 30.4143 43.4544 31.6149 44.0915C32.8156 44.7285 34.1557 45.0582 35.5141 45.0512C36.8726 45.0441 38.2099 44.7017 39.4035 44.052C38.0634 41.3292 37.3109 38.3556 37.1981 35.3228V35.3242Z" fill="white"/>
<path d="M35.4661 46.4732C27.2365 46.6634 22.658 36.1317 28.4216 30.2493C29.6617 28.9189 31.2526 27.9648 33.0113 27.4997C34.77 27.0347 36.623 27.0741 38.3606 27.6167C38.7086 27.7323 39.0003 27.9747 39.1765 28.296C39.3526 28.6173 39.4005 28.9936 39.3104 29.3487C38.7861 31.271 38.5536 33.2624 38.6227 35.2551C38.7058 38.0935 39.409 40.8782 40.6857 43.415C41.4453 46.0236 37.2459 46.3322 35.4675 46.4746L35.4661 46.4732ZM35.4661 30.0351C25.1255 30.51 27.4732 45.9278 37.5052 43.3177C35.7733 39.1223 35.3196 34.5096 36.2003 30.0576L35.4647 30.0337L35.4661 30.0351Z" fill="#161616"/>
<path d="M59.3066 55.7267C71.0494 55.2968 80.2189 45.4275 79.7877 33.6838C79.3579 21.9414 69.4894 12.7697 57.7467 13.2009C46.0039 13.6322 36.8344 23.5001 37.2656 35.2439C37.6968 46.9876 47.5639 56.1579 59.3066 55.7267Z" fill="white"/>
<path d="M58.4485 57.2656C28.943 56.4355 28.2313 13.7393 57.6664 11.8889C88.1203 11.6521 88.9024 56.4355 58.4485 57.2656ZM58.4724 14.7117C31.7656 15.5658 32.4532 54.4907 59.1601 54.4188C84.8707 52.901 84.183 15.305 58.4724 14.7117Z" fill="#161616"/>
<path d="M34.446 40.0214C33.0706 39.9495 34.3516 38.147 33.995 37.7919C33.6399 37.4367 33.4497 37.5072 32.5718 37.6016C30.5087 37.72 30.8878 35.0635 31.8601 33.8782C32.8325 32.6916 35.9876 31.1273 36.2004 33.0961C36.1807 33.1877 36.1426 33.2751 36.0891 33.354C36.0355 33.4315 35.9665 33.4977 35.8876 33.5485C35.8087 33.5992 35.7199 33.6344 35.6269 33.6499C35.5339 33.6654 35.4395 33.664 35.3464 33.6429C33.5441 33.3103 32.4759 35.1367 32.4759 36.181C34.9195 36.0147 36.1285 36.9632 35.1083 39.5972C35.0491 39.724 34.9561 39.8311 34.8377 39.9072C34.7208 39.9833 34.5841 40.0242 34.4432 40.0242L34.446 40.0214Z" fill="#161616"/>
<path d="M63.0216 31.9362C63.1329 30.4466 62.7904 29.2078 62.255 29.1669C61.7195 29.1261 61.1938 30.3014 61.0825 31.7911C60.9712 33.2807 61.3136 34.5195 61.8491 34.5603C62.3846 34.6012 62.9102 33.4259 63.0216 31.9362Z" fill="#161616"/>
<path d="M72.7608 33.299C72.8721 31.8094 72.5297 30.5692 71.9942 30.5297C71.4587 30.4889 70.9331 31.6642 70.8218 33.1539C70.7104 34.6435 71.0529 35.8837 71.5884 35.9231C72.1239 35.964 72.6495 34.7886 72.7608 33.299Z" fill="#161616"/>
<path d="M64.5916 39.1194C65.7303 37.5072 69.0264 37.3409 69.6436 39.476C69.738 40.0453 69.335 40.781 68.6712 40.5907C68.0075 40.4005 67.627 41.5153 68.3626 41.7295C70.4736 42.2988 71.6122 39.5 70.2368 38.0526C68.5529 35.9894 65.0426 36.4164 63.5489 38.5275C63.1698 39.1674 64.1886 39.7846 64.5931 39.1208L64.5916 39.1194Z" fill="#161616"/>
<path d="M59.2559 41.9423C59.3503 44.6228 62.2687 47.4696 64.9955 46.9002C65.9678 46.4492 65.0673 45.4063 64.498 45.8094C64.0753 45.8545 63.6483 45.7812 63.265 45.5952C62.2687 45.2161 61.0357 43.9815 60.6566 42.9866C60.5763 42.8132 60.5213 42.63 60.4903 42.4412C60.4664 42.3932 60.4424 42.1804 60.4663 42.3467C60.6805 41.3983 59.4461 40.8994 59.2573 41.9437L59.2559 41.9423Z" fill="#161616"/>
<path d="M66.2985 40.3765C66.2266 40.0679 65.8955 39.9256 65.6573 39.7367C65.5953 39.6902 65.5248 39.6564 65.4487 39.6366C65.3741 39.6169 65.2951 39.6127 65.2176 39.624C65.1401 39.6352 65.0669 39.6606 64.9992 39.7001C64.9316 39.7395 64.8738 39.7917 64.8273 39.8551C64.778 39.9185 64.7427 39.9904 64.7216 40.0679C64.7019 40.1454 64.6962 40.2257 64.7089 40.3047C64.723 40.4104 64.7667 40.5104 64.8329 40.5936C64.8992 40.6767 64.9879 40.7415 65.088 40.7782C65.2782 40.8966 65.4206 41.1108 65.6573 41.1108C65.8179 41.1319 65.9786 41.0896 66.1082 40.9924C66.2012 40.9233 66.2703 40.8261 66.3041 40.7148C66.3379 40.6034 66.3365 40.485 66.2985 40.3751V40.3765Z" fill="#161616"/>
<path d="M36.6745 26.1214C35.7261 26.5245 34.6819 25.5521 34.5875 24.5317C34.4931 23.5114 35.0624 22.5629 35.6317 21.7329C41.9166 12.6485 53.7284 7.78499 64.5679 9.77774C65.8728 10.0145 70.4977 12.9797 71.3982 14.1184C74.1968 17.6445 76.9405 21.203 79.6278 24.7925C78.3469 25.2434 79.7941 25.9312 78.5132 26.3582L77.9439 27.3067C74.6478 28.0888 70.5203 26.2863 67.3891 24.9827C64.341 23.7129 61.5071 21.9767 58.9931 19.8359C58.3999 19.3145 57.7601 18.7451 56.9541 18.6493C55.6026 18.483 54.5584 19.7162 53.6566 20.7365C51.6837 22.9449 49.2134 24.6529 46.45 25.717C43.6866 26.781 40.709 27.1714 37.7652 26.8557L36.6745 26.12V26.1214Z" fill="#161616"/>
<path d="M20.9972 129.588C20.9493 130.015 20.2856 129.921 20.1672 130.893C19.4795 136.088 14.2613 140.784 14.2853 146.002C14.3092 149.395 21.8512 221.551 22.8235 223.307C24.3173 226.01 7.47752 313.798 7.6438 313.063L36.5321 319.895L53.4663 228.572C54.2329 224.351 54.3132 220.033 53.703 215.787C50.6437 194.439 45.0224 156.867 45.4494 156.891L47.8929 157.009C47.8929 157.009 75.2635 230.873 76.0231 232.486C76.7826 234.099 98.129 306.895 101.543 317.333L128.7 308.509C128.7 308.509 107.141 226.248 100.167 207.841C93.8098 191.071 85.2955 166.733 78.7964 152.384C77.6112 149.75 80.741 135.731 81.2399 133.787C81.2878 133.55 73.8628 130.158 73.7444 129.943C72.796 128.355 68.4318 122.258 68.0753 121.998L66.3673 120.622C65.9685 120.292 65.6585 119.868 65.4655 119.389L64.6594 117.254C64.4988 116.819 64.2324 116.431 63.8844 116.125C63.5363 115.818 63.1178 115.604 62.6668 115.498L49.9067 112.438C49.3979 112.312 48.8653 112.328 48.365 112.486C48.365 112.486 19.6191 122.662 19.3104 123.469C19.0018 124.275 19.3104 126.671 19.4288 127.429C19.4767 127.619 21.0184 129.398 20.9944 129.588H20.9972Z" fill="white"/>
<path d="M19.8596 129.28C19.978 128.877 20.1442 128.9 19.8356 129.161C18.8633 129.897 18.9817 131.224 18.6265 132.293C18.1756 133.763 17.44 135.116 16.7058 136.467C14.1918 140.641 12.4135 144.318 13.3618 149.323C15.8998 173.945 18.0586 200.013 21.7338 223.852C21.6859 226.319 21.0701 230.778 20.5473 234.075C16.4677 260.239 11.4397 286.235 6.60057 312.256C6.07917 313.632 7.12197 314.819 8.49733 313.917C8.63966 313.77 8.74676 313.591 8.80594 313.395L7.33616 314.225L36.2244 321.056C36.7938 321.176 37.5519 320.867 37.6717 320.226C43.4113 288.869 49.4595 257.559 55.0089 226.176C55.9573 216.38 53.277 206.749 52.1863 197.049C50.3121 184.121 48.0348 169.153 46.589 157.222C45.5927 158.29 45.0473 158.052 46.0916 158.1L47.8939 158.194L46.7553 157.34C56.0291 182.199 65.7539 208.814 74.8854 232.818C83.4476 260.381 91.2742 288.157 99.7899 315.719C100.241 316.834 100.265 318.756 101.853 318.471L129.011 309.672C129.31 309.577 129.563 309.373 129.717 309.1C129.87 308.826 129.915 308.505 129.841 308.2C121.397 276.629 113.214 244.962 103.467 213.748C96.9913 195.625 90.3738 177.55 83.2109 159.666C82.2146 156.937 80.7674 154.353 79.819 151.624C79.5104 146.074 81.1239 140.357 82.1906 134.925C82.3809 134.071 82.5937 133.312 81.7876 132.696C80.3164 131.581 78.3478 130.916 76.6878 130.134C76.0001 129.801 75.218 129.209 74.4824 129.019C74.1498 128.924 74.6726 129.446 74.6487 129.161C74.6247 128.877 73.7947 127.88 73.3677 127.24C71.5654 124.773 70.0942 121.855 67.5337 120.053C64.9718 118.25 66.3711 114.882 62.245 114.17L50.6474 111.394C49.6047 111.133 48.5083 111.183 47.4923 111.536C38.3368 114.858 29.1109 118.012 20.0977 121.737C18.9352 122.234 18.1531 122.591 18.0347 124.014C17.9163 125.436 17.9403 126.695 18.3193 127.786C18.58 128.473 19.1733 128.995 19.6003 129.588C19.7187 129.755 19.9329 130.228 19.861 129.897C20.4782 131.89 23.5376 130.11 21.4266 128.117C21.2575 127.877 21.0757 127.649 20.8812 127.429C20.8333 127.335 20.5022 126.884 20.5487 127.026C20.5966 127.168 20.5247 126.695 20.5008 126.599C20.4134 125.892 20.3739 125.179 20.3824 124.464C20.3824 124.014 20.5487 123.8 20.1922 124.275C19.837 124.749 19.9794 124.394 20.2161 124.275C29.466 120.266 39.0724 117.136 48.559 113.672C49.5314 113.387 50.5995 113.814 51.5479 114.052C55.1287 114.905 58.8052 115.594 62.3395 116.637C64.2841 117.254 63.8571 120.266 65.589 121.523C66.9221 122.413 68.0396 123.587 68.8626 124.963C70.3338 126.813 71.471 128.924 72.8942 130.797C75.2659 132.317 78.0645 133.217 80.5081 134.689C80.3657 134.641 80.1755 133.36 80.0571 133.596C79.4639 136.064 78.9664 138.602 78.4915 141.116C77.9222 144.603 77.1401 148.185 77.4473 151.742C80.3178 159.381 83.8042 166.876 86.5549 174.586C104.082 218.088 115.539 263.583 127.54 308.84L128.37 307.37L101.237 316.194L102.684 317C93.8615 288.845 85.987 260.357 77.188 232.201C67.986 208.007 58.3317 181.63 49.0353 156.7C48.955 156.457 48.8042 156.242 48.6013 156.086C48.3984 155.93 48.1532 155.838 47.8981 155.822C46.2142 155.656 43.7946 155.135 44.2934 157.767C46.6411 176.791 49.7019 195.72 52.3807 214.696C53.184 219.915 53.0233 225.238 51.9058 230.398L46.7835 258.104C43.0125 278.598 39.1457 299.092 35.3987 319.586L36.8459 318.756L7.98157 311.924C6.51179 311.569 6.17922 313.774 6.81899 312.233L8.83553 313.087C11.8709 297.218 15.3812 278.289 18.394 261.376C19.6989 253.906 21.0024 246.434 22.189 238.937C22.9246 234.312 23.8025 229.616 24.0632 224.919C24.1111 224.183 24.1576 223.401 23.8504 222.714C21.5732 207.509 19.9131 189.743 18.1587 173.66C17.4231 166.711 16.7115 159.736 16.0477 152.787C15.1459 145.315 15.1698 143.559 19.131 136.965C19.8709 135.688 20.4754 134.336 20.9334 132.933C21.0997 132.363 21.0757 131.415 21.3843 130.94C21.6929 130.466 21.9776 130.418 22.1439 129.897C22.6188 128.45 20.3176 127.81 19.8666 129.28H19.8596Z" fill="#161616"/>
<path d="M79.6061 151.648C78.0884 148.374 82.6894 135.685 81.5987 131.154C76.1677 133.027 59.3039 122.757 53.7067 123.943C35.4676 127.619 33.1903 120.717 15.615 127.074C12.2949 153.308 10.7998 205.73 10.7998 205.73C11.2268 202.599 17.5597 200.297 22.1607 201.674C25.1735 202.599 27.9242 204.9 31.0554 204.567C36.2018 203.998 38.2183 197.737 41.7525 193.941C43.0603 192.553 44.6484 191.459 46.4099 190.732C48.1728 190.004 50.0681 189.658 51.9748 189.719C58.4021 189.956 64.8068 195.981 70.7832 193.561C75.3376 191.734 78.397 185.994 83.2826 186.493C85.464 186.73 87.3622 188.248 89.5436 188.414C92.4846 188.628 98.32 186.445 102.185 189.956C104.367 191.949 82.6654 158.1 79.6061 151.648Z" fill="#03A731"/>
<path d="M80.5538 150.557C80.5524 150.505 80.5355 150.456 80.5059 150.415C80.5298 150.437 80.5298 150.485 80.5538 150.557Z" fill="#161616"/>
<path d="M172.7 84.4962C172.7 84.4962 158.516 87.9588 156.547 87.9363L152.468 89.3836L153.108 88.8622C151.787 86.9709 150.644 84.9612 149.693 82.8614L141.771 89.6923L138.735 90.7352C138.782 95.9059 140.419 101.077 143.739 105.038C147.629 103.544 150.309 102.524 150.878 102.191C150.878 102.191 163.259 105.133 177.253 100.886C177.492 100.816 177.712 100.695 177.898 100.528C178.085 100.364 178.232 100.158 178.329 99.9295C178.426 99.6997 178.473 99.4517 178.463 99.2037C178.453 98.9542 178.388 98.7118 178.273 98.4906L177.894 97.7309H177.94C178.178 97.6576 178.395 97.5336 178.579 97.3673C178.763 97.201 178.907 96.9953 179.003 96.767C179.097 96.5387 179.141 96.2906 179.13 96.044C179.118 95.796 179.052 95.555 178.937 95.3351L176.707 91.041C176.817 90.9888 176.914 90.9141 176.993 90.8225C177.074 90.7309 177.133 90.6252 177.171 90.5097C177.209 90.3941 177.223 90.2729 177.212 90.1531C177.202 90.0319 177.168 89.9149 177.11 89.8078L174.787 85.3488C174.602 84.9767 174.288 84.685 173.904 84.5286C173.52 84.3722 173.091 84.3595 172.7 84.4948V84.4962Z" fill="white"/>
<path d="M179.815 94.4346C179.269 93.3438 178.7 92.2755 178.131 91.2087C178.842 89.9995 177.894 88.8129 177.371 87.746C176.234 85.7533 175.498 82.5993 172.509 83.3335L169.189 84.5187C169.853 84.9697 168.548 86.2268 168.666 86.9625C169.829 86.6778 172.461 85.8477 173.008 85.6574C174.145 85.4672 175.118 88.9552 175.853 90.0221L171.11 91.3736L164.825 93.1056C164.297 93.2761 163.758 93.4114 163.211 93.5087C162.596 93.6031 162.215 94.4106 162.405 94.9786C162.596 95.5479 163.188 95.8805 163.853 95.8087C164.516 95.7382 164.729 95.5719 165.156 95.4761L167.908 94.7164L174.526 92.866L176.02 92.439C176.85 93.9808 178.343 95.7368 177.68 96.5189C174.502 97.2306 171.276 97.8 168.121 98.5822C167.387 98.7724 166.675 98.9613 165.964 99.1994C165.252 99.4362 164.943 100.03 165.134 100.669C165.322 101.309 165.964 101.714 166.603 101.475C168.003 101.001 169.474 100.693 170.897 100.361L176.162 99.2699L177.182 99.0557C177.217 99.2008 177.202 99.353 177.137 99.4869C177.071 99.6208 176.962 99.7293 176.826 99.7913C169.45 101.997 161.599 102.496 153.962 101.523H153.938C150.403 100.29 147.416 102.544 144.118 103.611C141.51 100.17 140.135 95.8777 139.944 91.585C143.787 90.5886 146.205 87.078 149.289 84.778C149.957 86.1056 150.709 87.3895 151.542 88.6212C151.448 88.8819 151.756 89.0243 152.326 89.0722C152.895 89.1201 153.583 88.5268 154.056 88.1477C152.76 86.2959 151.641 84.3271 150.712 82.2652C150.357 81.6015 149.361 81.5056 148.839 82.0285L141.177 88.6466L138.403 89.595C138.156 89.6669 137.941 89.8163 137.786 90.0221C137.632 90.2278 137.549 90.4773 137.549 90.7338C137.621 96.1892 139.351 101.692 142.909 105.867C143.053 106.018 143.235 106.126 143.435 106.18C143.637 106.235 143.848 106.232 144.048 106.175C146.372 105.274 148.719 104.421 151.021 103.447C158.74 104.856 166.667 104.67 174.312 102.902C175.64 102.547 177.04 102.332 178.273 101.716C178.856 101.357 179.292 100.8 179.5 100.148C179.709 99.4954 179.678 98.7893 179.411 98.158C179.95 97.6591 180.274 96.9699 180.312 96.2371C180.36 95.5733 180.123 95.0039 179.815 94.4346Z" fill="#161616"/>
<path d="M15.448 299.685C16.7529 300.344 18.2481 300.521 19.67 300.183H19.7644C21.5695 299.742 23.4508 299.707 25.2715 300.08C27.0921 300.454 28.8085 301.226 30.2938 302.342C31.2464 303.071 32.3935 303.5 33.5913 303.575C35.536 303.694 37.5765 304.381 38.5714 306.065C38.9504 306.707 38.8081 307.773 38.6658 308.367L35.9615 320.084L6.76465 317.499L9.58725 303.1C10.0847 300.065 12.7424 298.333 15.4452 299.685H15.448Z" fill="#FCE700"/>
<path d="M33.4267 302.366C32.9251 302.312 32.4361 302.176 31.9795 301.961C28.6115 299.377 23.4173 297.693 18.8628 299.14C18.4837 299.175 18.1032 299.175 17.7242 299.14H17.5579C17.1943 299.092 16.8364 299.005 16.4911 298.878L16.3249 298.807C16.1797 298.705 16.0191 298.626 15.85 298.571C15.0904 298.072 13.7869 297.835 11.8648 298.38C9.3508 299.329 8.42638 301.985 8.14172 304.429C7.478 307.749 6.83682 311.047 6.17309 314.344C6.10122 315.719 4.63144 318.353 6.76636 318.684L32.3586 320.938C33.8058 320.771 36.3902 322.124 37.1019 320.392C37.884 317 38.6675 313.608 39.4735 310.217C41.4422 305.283 37.6233 302.412 33.4253 302.366H33.4267ZM37.5528 306.635C37.5049 306.516 37.5049 306.611 37.5528 306.635V306.635ZM37.6247 307.513C36.9849 310.763 35.8702 315.031 35.0388 318.78L8.18963 316.408C9.16197 311.663 9.92152 306.849 11.0827 302.176H11.0587C11.0954 302.145 11.1193 302.104 11.1306 302.057C11.1546 301.985 11.4153 301.606 11.4857 301.464C11.7408 301.131 12.0649 300.857 12.4341 300.658L12.6469 300.562L13.2402 300.397H13.9278C14.204 300.448 14.4746 300.528 14.7339 300.634H14.8058C14.8297 300.634 14.8297 300.658 14.8537 300.682C19.3363 302.887 21.684 299.447 27.1629 301.819C28.9892 302.627 31.3369 304.808 33.8509 304.714C34.5259 304.781 35.1882 304.941 35.8195 305.187H35.9139L36.4114 305.449C36.7721 305.661 37.0934 305.933 37.3598 306.256L37.526 306.54H37.55L37.6219 306.777V307.513H37.6247Z" fill="#161616"/>
<path d="M35.9179 305.283H35.8454C35.8454 305.276 35.8426 305.271 35.8383 305.266C35.8341 305.262 35.8284 305.259 35.8213 305.259L35.9165 305.283H35.9179Z" fill="#161616"/>
<path d="M102.588 302.224C104.047 302.153 105.429 301.554 106.478 300.54L106.55 300.468C107.904 299.195 109.522 298.238 111.289 297.665C113.056 297.09 114.929 296.913 116.772 297.147C117.96 297.287 119.162 297.081 120.234 296.554C121.99 295.7 122.915 295.486 124.599 296.436C125.24 296.791 125.737 297.739 125.927 298.309L128.797 310.121L102.114 319.777L98.8401 308.319C97.7494 305.472 99.5517 302.389 102.587 302.224H102.588Z" fill="#FCE700"/>
<path d="M129.935 309.813L127.515 299.828C126.828 294.798 123.081 293.494 118.859 295.818C112.241 295.985 110.06 295.77 104.723 300.397C102.945 301.392 100.62 300.847 99.1019 302.484C95.0463 306.374 99.5049 312.92 100.241 317.546C100.762 318.708 100.644 321.27 102.446 320.914L125.831 312.471C127.136 311.687 130.125 311.806 129.935 309.813ZM119.452 312.256C113.925 314.225 108.446 316.266 102.897 318.211L100.05 308.248C99.6938 307.323 99.5528 306.302 99.9319 305.378C99.9559 305.33 99.9559 305.259 99.9798 305.235C100.217 304.722 100.575 304.274 101.024 303.93H101C101.402 303.661 101.853 303.475 102.329 303.385C108.496 302.911 108.638 297.123 117.248 298.309C119.05 298.499 120.592 297.526 122.252 296.981C122.776 296.901 123.312 297.006 123.767 297.28C124.221 297.552 124.566 297.975 124.742 298.475C124.734 298.465 124.728 298.454 124.724 298.442C124.719 298.43 124.718 298.417 124.718 298.404C125.668 302.033 126.498 305.686 127.376 309.339L119.453 312.256H119.452Z" fill="#161616"/>
<path d="M100.999 303.978L100.927 304.051C100.903 304.073 100.975 304.027 100.999 303.978Z" fill="#161616"/>
<path d="M99.9806 305.259C99.9806 305.307 99.9566 305.33 99.9326 305.378C99.9087 305.426 100.003 305.235 99.9806 305.259Z" fill="#161616"/>
<path d="M100.999 316.787C99.7742 325.412 100.845 334.208 104.106 342.286C104.651 343.615 105.269 344.942 106.335 345.892C108.849 348.122 112.787 347.41 116.108 346.58L131.691 342.642C137.549 341.147 143.525 339.629 148.649 336.451C151.662 334.032 154.033 331.708 155.006 328.031C159.488 311.284 136.743 323.215 128.963 308.628L100.999 316.787Z" fill="white"/>
<path d="M156.76 323.761C156.12 313.443 139.778 318.115 133.564 312.28C133.588 312.328 133.445 312.186 133.421 312.186C132.496 311.446 131.674 310.584 130.979 309.624C130.292 308.84 130.007 307.156 128.654 307.489L111.127 312.589L104.13 314.628C102.803 315.27 100.549 315.031 99.8616 316.455C98.699 324.757 99.5065 333.32 102.424 341.195C105.294 351.821 114.141 348.311 122.039 346.295C134.846 342.476 156.431 341.171 156.762 323.761H156.76ZM154.341 325.326C152.941 339.914 129.081 341.243 117.792 344.92C114.376 345.678 110.084 347.457 107.023 344.92C103.917 340.792 103.063 335.265 102.137 330.284C102.137 330.331 102.113 330.236 102.113 330.188C101.564 326.049 101.548 321.857 102.066 317.712C110.841 315.151 119.617 312.565 128.416 310.051C133.255 318.471 143.596 317.427 151.636 319.919C151.613 319.919 151.589 319.919 151.589 319.895C152.073 320.125 152.534 320.404 152.964 320.725L152.917 320.677C153.389 321.048 153.764 321.528 154.008 322.076V322.03C154.008 322.1 154.103 322.243 154.103 322.291C154.207 322.608 154.286 322.933 154.339 323.263V323.167C154.422 323.885 154.422 324.609 154.339 325.326H154.341Z" fill="#161616"/>
<path d="M152.919 320.677L152.823 320.607C152.753 320.559 152.729 320.559 152.919 320.677Z" fill="#161616"/>
<path d="M154.341 323.263C154.365 323.358 154.365 323.572 154.341 323.263V323.263Z" fill="#161616"/>
<path d="M154.103 322.291C154.082 322.215 154.05 322.143 154.009 322.076C154.055 322.219 154.079 322.291 154.103 322.291Z" fill="#161616"/>
<path d="M102.113 330.188C102.113 330.237 102.137 330.261 102.137 330.285C102.133 330.252 102.126 330.22 102.113 330.188Z" fill="#161616"/>
<path d="M102.374 337.899C117.695 340.247 132.947 334.649 146.489 327.912C149.786 326.132 152.94 323.856 155.099 320.749C155.905 318.969 153.391 318.305 152.727 320.013C151.745 321.231 150.622 322.33 149.383 323.287C146.204 325.753 140.892 328.055 137.097 329.643C126.423 334.08 115.205 337.21 103.678 335.716C101.709 335.004 100.571 337.067 102.373 337.899H102.374Z" fill="#161616"/>
<path d="M136.552 315.34C131.904 317.878 129.959 324.448 131.264 329.406C131.667 330.878 133.968 330.26 133.541 328.789C133.423 328.4 133.328 328.004 133.256 327.604C132.994 325.541 133.611 323.073 134.205 321.649C134.577 320.77 135.046 319.934 135.604 319.159C135.937 318.732 136.647 317.688 137.763 317.381C139.09 316.645 137.905 314.582 136.552 315.34Z" fill="#03A731"/>
<path d="M135.13 303.243C130.908 301.582 127.327 309.6 128.015 312.992C114.306 306.564 113.617 331.612 130.244 316.858C132.331 317.072 132.213 313.846 132.592 312.471C134.111 309.979 138.593 305.853 135.13 303.243ZM120.14 317.997C120.092 317.83 120.116 317.902 120.14 317.997V317.997ZM127.848 315.767C126.212 316.763 122.56 320.061 120.685 319.111C119.096 317.57 121.018 314.486 123.295 314.225C124.979 314.012 126.567 314.889 128.015 315.625L127.848 315.767ZM132.972 311.853C132.995 311.805 133.043 311.735 132.972 311.853V311.853ZM133.849 306.256C133.019 308.343 131.216 309.837 130.316 311.829C130.296 311.552 130.312 311.273 130.362 310.999C130.362 310.857 130.338 311.094 130.338 311.094C130.671 309.078 131.81 307.228 133.209 305.757C133.279 305.686 134.253 305.235 133.849 306.256Z" fill="#03A731"/>
<path d="M109.277 327.319C109.008 326.008 108.457 324.771 107.662 323.694C106.867 322.618 105.848 321.726 104.676 321.08C103.347 320.322 102.138 322.361 103.467 323.145C103.808 323.322 104.133 323.528 104.439 323.761C104.91 324.124 105.333 324.547 105.696 325.018C106.047 325.488 106.342 325.997 106.574 326.536H106.597C106.798 327.099 106.949 327.678 107.048 328.268C107.18 329.468 107.01 330.685 106.55 331.802C106.432 331.92 106.194 333.059 106.977 333.414C109.657 334.364 109.562 328.931 109.277 327.319Z" fill="#03A731"/>
<path d="M7.52561 312.944C3.51789 320.653 1.47739 329.43 1.90438 338.064C1.95229 339.487 2.11857 340.958 2.80625 342.191C4.44232 345.133 8.40353 345.773 11.7954 346.081L27.8291 347.481C33.8295 348.026 39.9735 348.549 45.8554 347.244C49.4841 345.963 52.5209 344.539 54.6544 341.409C64.4031 327.058 38.9997 330.83 36.4632 314.51L7.52702 312.944H7.52561Z" fill="white"/>
<path d="M57.524 333.296C54.8437 328.528 49.0323 327.225 44.6455 324.306C44.0762 323.927 42.1794 322.456 41.7285 322.03C40.8505 321.152 40.1629 320.25 40.1629 320.274C39.471 319.371 38.8974 318.381 38.4549 317.333C38.4789 317.381 38.5028 317.403 38.5028 317.427C37.6249 316.194 38.2901 313.561 36.4637 313.325L18.2951 312.328C14.5242 312.328 10.6108 311.545 6.91033 311.924C1.90631 320.488 -0.370929 331.399 1.14676 341.267C2.61654 346.462 8.78454 347.054 13.3376 347.386L27.2364 348.619C35.49 349.261 44.7159 350.564 51.9746 345.678C55.6512 342.998 59.3278 337.993 57.5254 333.296H57.524ZM55.6498 336.261C53.4205 346.722 40.897 347.552 32.1446 346.65C24.6731 346.035 17.1551 345.441 9.6836 344.635C6.79055 344.279 3.39864 342.879 3.18444 339.535C2.49676 331.85 3.96654 324.021 6.95542 316.93C7.33449 316.004 7.76148 315.079 8.23637 314.177C17.32 314.676 26.405 315.127 35.4886 315.649C37.1726 324.781 46.779 327.65 53.5614 332.157L53.3951 332.015C53.9574 332.452 54.4675 332.953 54.9128 333.51L54.7705 333.344C55.1143 333.741 55.3694 334.206 55.5216 334.708C55.6723 335.211 55.716 335.741 55.6484 336.261H55.6498Z" fill="#161616"/>
<path d="M1.76283 333.392C5.04482 335.108 8.50437 336.461 12.0795 337.424C15.718 338.368 19.4326 338.995 23.1796 339.298C27.1169 339.61 31.0696 339.673 35.0154 339.487C38.7624 339.321 42.5573 339.084 46.2578 338.539C49.9584 337.993 53.0177 337.139 55.9347 335.361L56.955 334.695C57.4764 334.34 57.761 333.629 57.3819 333.059C57.0029 332.49 56.3152 332.253 55.7684 332.632C55.0962 333.109 54.3902 333.537 53.6575 333.913C53.3207 334.104 52.9726 334.27 52.6133 334.411C52.5653 334.435 52.2581 334.553 52.5188 334.459L52.2581 334.553L51.6184 334.814C50.0598 335.363 48.4576 335.776 46.8271 336.048L45.6406 336.237L45.0473 336.333C45.332 336.285 44.9994 336.333 44.9529 336.333L44.5499 336.38C43.7439 336.498 42.9138 336.57 42.0824 336.64C40.1857 336.807 38.2635 336.949 36.3668 337.045C32.4802 337.269 28.5838 337.269 24.6973 337.045C23.725 336.973 22.7526 336.902 21.7803 336.783L20.4754 336.64L20.1428 336.594C20.1189 336.594 19.7638 336.546 20.0484 336.594L19.2889 336.475C17.5105 336.213 15.7546 335.882 14.0227 335.455C12.0696 334.989 10.1461 334.411 8.25917 333.723L6.85985 333.178L6.55124 333.059L6.361 332.965L5.67332 332.656C4.74889 332.253 3.84701 331.802 2.96909 331.327C2.09117 330.854 1.64023 331.185 1.33303 331.754C1.18788 332.032 1.15124 332.353 1.23016 332.655C1.30907 332.958 1.4979 333.22 1.76001 333.392H1.76283Z" fill="#161616"/>
<path d="M41.6567 323.31C36.2482 324.069 32.1461 329.715 31.7656 334.956C32.1207 336.997 34.4699 336.191 34.1612 334.34C34.2881 333.567 34.5023 332.811 34.801 332.087C35.3943 330.331 38.3113 326.702 40.3278 326.038C40.7168 325.88 41.1226 325.769 41.5369 325.705C41.5848 325.681 41.7272 325.659 41.5369 325.681C41.3467 325.705 41.6088 325.681 41.6553 325.681C43.173 325.681 43.173 323.287 41.6553 323.31H41.6567Z" fill="#03A731"/>
<path d="M44.0997 311.497C40.7557 308.343 34.5652 314.889 34.1382 318.305C23.4411 307.679 14.2856 331.09 34.9442 322.694C35.0866 322.788 35.2486 322.85 35.4177 322.876C35.5868 322.901 35.7602 322.89 35.925 322.843C36.0899 322.795 36.2421 322.713 36.3717 322.601C36.5014 322.489 36.6057 322.351 36.6761 322.195C37.8147 321.555 37.9331 320.108 38.7392 319.207C41.0164 317.427 46.329 315.055 44.0997 311.497ZM27.8279 322.124C25.0053 322.243 24.6262 319.729 26.9978 318.187L27.0923 318.139C27.4375 318.016 27.7954 317.929 28.159 317.878H28.1351C30.2939 317.593 31.906 319.349 33.2349 320.795C31.4678 321.372 29.6598 321.816 27.8279 322.124ZM42.0353 313.632C40.588 315.482 38.2403 316.312 36.6508 317.973C37.4329 315.743 39.5917 314.155 41.5364 313.11C42.2001 312.755 42.1297 313.466 42.0353 313.632Z" fill="#03A731"/>
<path d="M7.66902 319.847L8.04809 320.274C8.37784 320.745 8.6639 321.245 8.90205 321.768C8.8781 321.697 8.85414 321.673 8.85414 321.697C9.11766 322.312 9.30085 322.957 9.39949 323.618C9.38822 323.58 9.37977 323.539 9.37554 323.5C9.44741 324.107 9.44741 324.719 9.37554 325.326C9.42345 324.971 9.32763 325.587 9.30367 325.681C9.20221 326.124 9.07538 326.559 8.9246 326.987C8.85273 327.105 8.87669 327.105 8.9246 326.963C8.66108 327.55 8.33556 328.107 7.95226 328.624C5.55665 331.066 9.9688 333.392 11.6288 326.086C11.8839 324.678 11.8106 323.232 11.416 321.858C11.0215 320.484 10.3155 319.22 9.35158 318.163C8.28483 317.072 6.60085 318.756 7.66761 319.847H7.66902Z" fill="#03A731"/>
<path d="M173.624 203.429C174.881 202.528 177.064 202.148 179.151 201.839C181.233 201.551 183.157 200.565 184.606 199.04L192.362 190.88C192.576 190.658 192.744 190.395 192.856 190.107C192.968 189.818 193.021 189.51 193.011 189.2C193.003 188.892 192.932 188.587 192.804 188.305C192.676 188.024 192.494 187.77 192.266 187.56L167.03 163.555C166.571 163.131 165.963 162.904 165.339 162.922C164.714 162.939 164.12 163.202 163.686 163.65L128.323 200.891C127.89 201.344 127.655 201.952 127.667 202.577C127.682 203.205 127.942 203.801 128.393 204.235L150.57 225.298C150.909 225.624 151.363 225.803 151.832 225.797C152.301 225.793 152.751 225.605 153.084 225.276L173.624 203.429Z" fill="#FCE700"/>
<path d="M151.826 227.221C150.989 227.215 150.185 226.892 149.573 226.319L127.421 205.255C127.058 204.915 126.765 204.508 126.562 204.056C126.358 203.602 126.247 203.113 126.233 202.617C126.22 202.119 126.306 201.626 126.485 201.163C126.664 200.699 126.934 200.276 127.278 199.918L162.642 162.677C162.983 162.314 163.393 162.022 163.848 161.818C164.303 161.613 164.794 161.5 165.292 161.488C165.791 161.475 166.287 161.56 166.752 161.74C167.217 161.92 167.643 162.19 168.002 162.535L193.262 186.517C193.983 187.215 194.402 188.169 194.425 189.174C194.439 189.671 194.354 190.166 194.175 190.629C193.996 191.094 193.726 191.519 193.38 191.877L185.648 200.013C183.975 201.781 181.75 202.927 179.339 203.262C178.06 203.429 175.711 203.761 174.549 204.519L154.127 226.248C153.827 226.554 153.469 226.796 153.075 226.964C152.679 227.13 152.256 227.218 151.826 227.221ZM165.394 164.337C165.266 164.336 165.139 164.361 165.02 164.411C164.902 164.459 164.795 164.532 164.706 164.622L129.341 201.887C129.172 202.063 129.081 202.3 129.085 202.544C129.089 202.789 129.191 203.021 129.365 203.192L151.542 224.255C151.616 224.322 151.711 224.361 151.811 224.365C151.911 224.37 152.008 224.339 152.087 224.279C152.277 224.089 172.581 202.408 172.794 202.29C174.335 201.151 176.779 200.748 178.96 200.44C180.723 200.187 182.351 199.352 183.585 198.068L191.317 189.908C191.403 189.822 191.471 189.718 191.516 189.603C191.561 189.489 191.582 189.367 191.578 189.244C191.582 189.12 191.558 188.995 191.51 188.88C191.461 188.766 191.386 188.663 191.293 188.58L166.034 164.6C165.862 164.432 165.632 164.339 165.394 164.337Z" fill="#161616"/>
<path d="M181.721 161.875L196.279 193.533C196.54 194.099 196.565 194.745 196.348 195.329C196.133 195.913 195.693 196.388 195.128 196.647L148.907 217.908C148.342 218.169 147.695 218.194 147.111 217.977C146.527 217.761 146.053 217.322 145.792 216.756L138.637 201.198C136.41 196.357 136.199 190.829 138.046 185.832C139.895 180.835 143.653 176.776 148.494 174.549L178.597 160.703C179.162 160.442 179.809 160.417 180.392 160.634C180.976 160.849 181.45 161.289 181.711 161.854L181.721 161.875Z" fill="white"/>
<path d="M148.104 219.582C147.667 219.572 147.235 219.492 146.823 219.345C146.362 219.178 145.941 218.918 145.582 218.584C145.224 218.25 144.936 217.847 144.736 217.401L137.573 201.863C135.196 196.695 134.966 190.794 136.936 185.457C138.906 180.12 142.916 175.782 148.08 173.399L178.179 159.547C178.621 159.34 179.102 159.223 179.591 159.203C180.08 159.184 180.568 159.261 181.027 159.43C181.485 159.601 181.906 159.859 182.264 160.193C182.622 160.527 182.91 160.927 183.113 161.374L197.699 193.015C198.109 193.912 198.149 194.935 197.806 195.861C197.464 196.785 196.768 197.536 195.873 197.949L149.67 219.227C149.181 219.461 148.645 219.582 148.104 219.582ZM179.721 161.943C179.58 161.942 179.442 161.975 179.318 162.037L149.219 175.889C144.721 177.978 141.232 181.763 139.517 186.417C137.8 191.072 137.997 196.216 140.063 200.724L147.226 216.262C147.273 216.382 147.346 216.489 147.44 216.575C147.535 216.661 147.649 216.724 147.772 216.759C147.889 216.809 148.015 216.833 148.142 216.828C148.269 216.824 148.393 216.793 148.507 216.735L194.71 195.459C194.945 195.355 195.13 195.162 195.224 194.922C195.317 194.681 195.312 194.413 195.208 194.178L180.621 162.512C180.508 162.283 180.314 162.105 180.076 162.013C179.963 161.967 179.842 161.943 179.721 161.943Z" fill="#161616"/>
<path d="M194.092 175.877L165.275 156.292C164.202 155.563 162.742 155.841 162.012 156.915L133.419 198.992C132.69 200.065 132.969 201.525 134.041 202.253L162.859 221.84C163.932 222.568 165.392 222.289 166.12 221.217L194.714 179.139C195.442 178.067 195.165 176.607 194.092 175.877Z" fill="white"/>
<path d="M169.356 199.23C170.635 198.306 172.818 197.925 174.881 197.641C176.974 197.345 178.904 196.35 180.36 194.818L188.092 186.682C188.519 186.225 188.75 185.621 188.738 184.996C188.724 184.371 188.467 183.776 188.022 183.338L162.761 159.357C162.304 158.93 161.7 158.699 161.075 158.711C160.45 158.726 159.855 158.982 159.417 159.427L124.053 196.692C123.84 196.915 123.673 197.177 123.56 197.465C123.449 197.752 123.395 198.059 123.401 198.368C123.408 198.677 123.475 198.98 123.599 199.263C123.724 199.545 123.902 199.8 124.125 200.013L146.301 221.076C146.641 221.399 147.091 221.578 147.558 221.578C148.026 221.578 148.476 221.399 148.815 221.076L169.356 199.23Z" fill="#FCE700"/>
<path d="M147.557 222.998C147.145 223.004 146.735 222.926 146.351 222.771C145.969 222.616 145.621 222.388 145.328 222.096L123.152 201.057C122.433 200.358 122.017 199.407 121.991 198.406C121.964 197.404 122.329 196.431 123.009 195.696L158.397 158.455C159.748 156.961 162.31 156.891 163.733 158.313L188.993 182.295C190.487 183.67 190.559 186.208 189.135 187.654L181.379 195.814C177.608 199.824 174.359 198.352 170.303 200.297L149.857 222.05C149.244 222.654 148.418 222.994 147.557 222.998ZM161.124 160.117C160.998 160.119 160.874 160.149 160.76 160.201C160.646 160.255 160.543 160.331 160.46 160.424C160.199 161.089 124.574 197.452 124.836 198.328C124.832 198.454 124.854 198.578 124.903 198.692C124.953 198.808 125.026 198.91 125.12 198.994L147.273 220.033C147.343 220.105 147.439 220.147 147.541 220.151C147.642 220.156 147.741 220.122 147.818 220.057C148.031 219.891 168.311 198.186 168.523 198.068C170.089 196.953 172.532 196.526 174.691 196.217C176.456 195.973 178.087 195.138 179.316 193.845C179.411 193.538 187.831 185.401 187.309 185.022C187.309 184.898 187.285 184.775 187.236 184.66C187.187 184.545 187.115 184.443 187.025 184.358L161.787 160.377C161.607 160.208 161.37 160.115 161.124 160.117Z" fill="#161616"/>
<path d="M155.859 161.183L155.693 161.089L155.575 161.017C155.337 160.827 150.427 157.934 149.503 157.246C143.407 157.625 141.462 162.085 138.023 167.256L140.537 168.56L145.541 181.844C145.687 182.233 145.97 182.554 146.338 182.747C146.705 182.939 147.131 182.99 147.534 182.887L150.972 182.081C151.215 182.026 151.442 181.917 151.638 181.763C151.832 181.61 151.991 181.415 152.103 181.193C152.214 180.97 152.275 180.726 152.28 180.478C152.286 180.23 152.236 179.984 152.135 179.757L148.861 172.142L148.909 172.094L149.693 172.142C151.898 168.56 153.867 164.742 156.499 161.563L155.859 161.183Z" fill="white"/>
<path d="M157.093 160.542C154.768 159.12 152.372 157.791 150.143 156.249C148.341 155.728 146.302 156.606 144.688 157.388C141.107 159.475 139.233 163.342 136.98 166.663C136.174 168.299 138.593 168.726 139.612 169.414C141.274 173.802 142.862 178.237 144.594 182.602C145.472 184.406 147.583 184.264 149.219 183.717C150.855 183.171 152.302 183.267 153.084 181.89C154.341 179.211 151.258 175.677 150.524 172.996C152.302 170.292 153.749 167.398 155.598 164.742C156.145 163.461 158.777 161.847 157.093 160.542ZM149.052 170.909C146.775 170.933 148.08 173.423 148.649 174.584L150.997 180.041C151.021 180.112 151.258 180.729 150.712 180.895C149.574 181.227 148.413 181.487 147.25 181.725C147.105 181.732 146.963 181.693 146.843 181.611C146.722 181.53 146.633 181.411 146.586 181.274C145.091 177.289 143.597 173.281 142.08 169.295C141.819 167.968 140.941 167.256 139.732 166.805C141.937 163.365 144.237 159 148.768 158.503H148.72L149.171 158.455C150.973 159.666 152.895 160.732 154.746 161.895C152.611 164.742 150.903 167.872 149.052 170.909Z" fill="#161616"/>
<path d="M148.768 158.503C148.84 158.479 148.984 158.479 148.768 158.503V158.503Z" fill="#161616"/>
<path d="M103.442 189.529C96.4689 176.198 87.1471 164.054 80.5536 150.557C80.5296 150.676 80.5296 150.437 80.5057 150.415C79.6038 147.093 85.8662 129.683 81.2878 129.991C77.9677 130.655 74.6223 128.971 71.5165 127.999C64.5199 125.579 57.4274 121.073 49.8376 123.397C39.1644 125.081 28.1587 121.049 17.7476 125.081C16.609 125.627 14.6164 125.556 14.4276 127.074C11.6529 150.96 10.775 175.011 9.8266 199.018C9.73218 200.251 9.3517 203.286 9.58985 205.231C9.61804 205.541 9.73359 205.837 9.92242 206.085C10.3973 206.773 10.8003 206.915 10.8468 206.915C13.7174 207.533 21.8286 208.79 20.714 204.355C20.8013 203.739 20.7027 203.11 20.4293 202.551C27.2371 203.785 32.3115 211.683 40.9217 196.882C43.0087 193.396 46.5189 191.427 50.2674 191.023C49.5557 191.972 49.6036 193.609 50.7888 196.313C49.3895 196.574 51.3581 196.764 51.7372 197.57C52.1162 198.376 50.4083 198.898 51.0495 198.709C52.2726 198.313 53.5705 198.2 54.8444 198.376C57.0498 198.613 63.4545 202.101 63.2403 197.713C63.074 196.431 62.9317 195.293 62.6006 194.344C68.1513 196.171 72.2295 195.483 77.614 190.098C80.958 187.038 83.4015 187.181 87.3627 189.126C89.4977 189.885 91.703 189.505 93.9084 189.268C93.0544 190.667 94.0507 193.206 95.498 193.751C96.9452 194.296 101.546 192.66 103.016 190.952C103.236 190.796 103.396 190.572 103.474 190.314C103.551 190.056 103.54 189.78 103.443 189.529H103.442ZM80.5296 131.818C80.5296 131.912 80.5296 132.032 80.5057 131.794C80.5113 131.794 80.5183 131.797 80.5226 131.801C80.5268 131.805 80.5296 131.812 80.5296 131.818ZM85.7478 185.924C75.0042 182.199 74.4109 197.997 61.2703 191.261C49.8376 185.639 42.2956 189.007 36.129 199.681C28.8717 209.857 23.5351 194.771 12.1024 202.124C13.0283 177.361 13.9048 152.573 16.6795 127.952C21.3523 126.29 26.2859 125.2 31.2659 125.46C38.9502 126.126 46.7064 126.86 54.3202 125.033C63.4757 125.579 71.3262 132.411 80.5761 132.529C80.7889 139.124 76.9235 145.742 78.5835 152.241C85.0108 164.195 92.6486 175.486 99.5268 187.181L98.6968 186.991C94.3086 186.113 89.85 188.438 85.7464 185.924H85.7478Z" fill="#161616"/>
<path d="M114.897 122.876C114.732 122.733 113.119 120.574 110.557 117.206C126.781 113.102 144.569 108.074 144.379 108.074C144.188 108.074 141.794 100.032 140.726 94.4585C139.659 88.8847 140.419 86.6073 140.419 86.6073C140.419 86.6073 107.64 94.6009 95.2123 97.6605C85.1084 85.2544 73.7236 72.5411 67.9361 70.5004C67.557 79.0154 54.322 84.4722 39.9243 67.4408C38.4066 67.4408 33.6394 70.9274 30.5561 74.2012C24.5557 80.5586 19.9773 91.0664 18.9585 99.7477C16.2542 123.018 11.1784 129.943 11.9379 129.278C15.8512 125.91 30.7942 128.069 32.5726 128.709C49.9577 135.066 78.9658 126.052 84.5391 137.913C86.8403 138.956 84.5151 127.073 83.8993 121.878L84.8717 122.281C85.3381 122.388 85.82 122.412 86.2949 122.351C88.2157 124.938 90.9678 128.757 94.9051 132.125C97.8221 134.591 138.879 171.523 138.879 171.523C142.838 164.693 145.591 160.138 151.709 155.347C151.212 155.109 132.285 136.299 114.899 122.874L114.897 122.876Z" fill="white"/>
<path d="M152.871 155.61C152.895 154.66 152.349 154.353 151.85 153.902C143.787 146.239 135.652 138.626 127.208 131.391C123.459 128.189 119.642 125.057 115.751 122.046C114.566 120.741 113.688 119.269 112.574 117.918C123.152 115.23 133.683 112.383 144.166 109.379C144.663 109.236 145.257 109.118 145.517 108.619C145.92 107.48 146.728 105.892 145.92 104.801C145.729 104.604 145.471 104.483 145.196 104.462C144.921 104.441 144.648 104.518 144.427 104.683C143.17 99.9154 141.652 95.0998 141.343 90.1418C143.549 89.9051 142.34 86.6313 141.177 85.7068C140.608 85.1853 139.826 85.5405 139.185 85.6828C124.67 89.1694 110.154 92.7758 95.6379 96.309C88.096 87.6981 78.4431 74.3436 68.2434 69.3631C66.2508 68.9361 66.892 71.7589 66.2268 72.8497C64.6612 76.4082 60.7 77.8076 56.9769 77.2848C50.692 76.4787 45.3794 71.8533 41.3223 67.228C40.1132 65.2592 37.86 66.8954 36.4367 67.7494C26.3089 74.3436 20.3086 85.8237 18.1032 97.4942C16.656 108.192 15.2341 119.104 10.7036 128.995C10.4668 130.206 11.7478 130.893 12.5059 131.509C14.9494 133.193 16.8462 131.818 15.8034 128.971C20.9976 128.165 26.4766 128.71 31.5524 129.659C34.6597 130.633 37.7909 131.533 41.0391 131.842C52.2097 133.977 73.6983 129.564 81.8575 136.23C81.098 136.491 80.7668 137.582 81.4066 138.175C82.0463 138.768 84.7506 139.172 84.845 139.172C88.7583 139.076 85.3903 126.268 85.3199 123.54L85.7469 123.587C91.3681 131.628 99.4089 137.392 106.5 144.034C117.315 153.451 127.68 163.579 138.662 172.688C139.848 172.878 142.623 173.612 140.654 170.837C143.429 165.951 146.584 161.135 150.948 157.507C153.178 159.405 152.964 156.867 152.869 155.61H152.871ZM67.8178 71.711C67.8418 71.7349 68.008 71.8294 67.8178 71.711V71.711ZM84.0643 131.675C84.2306 132.918 84.325 134.17 84.349 135.423C76.3561 126.717 54.8914 131.463 43.4826 129.731C39.1423 129.516 35.0388 128.189 30.8648 127.122C25.3858 126.244 19.5983 125.699 14.1434 126.932C18.5316 116.542 18.9586 105.157 21.2358 94.2457C24.0584 84.0466 29.8685 73.8461 39.4988 68.7472C43.6728 73.5628 49.0334 78.1881 55.4367 79.4452C60.9156 80.7023 67.6276 78.1881 68.8606 72.2338C78.5135 78.6856 85.582 88.2689 93.1 96.9502L90.6339 97.5435C86.3176 94.9109 81.9998 92.2304 77.6596 89.5499C76.3307 88.7903 75.1456 90.807 76.473 91.6132C80.8049 94.2852 85.1536 96.9587 89.5178 99.6307C90.0632 100.082 90.7748 100.034 91.4386 99.797C107.283 95.9313 123.127 91.9937 138.994 88.1745C138.852 94.7207 141.009 101.054 142.693 107.34C124.55 112.298 106.429 117.682 87.8818 121.003C85.9611 121.359 84.9648 121.263 83.1145 120.054C68.3857 111.42 54.1078 102.027 39.7342 92.8477C38.4053 92.0881 37.1962 94.0808 38.5251 94.887C53.206 104.28 67.7699 113.839 82.8073 122.639C83.2103 125.652 83.7317 128.641 84.0643 131.677V131.675ZM143.525 161.99C141.676 164.433 140.11 167.042 138.593 169.674C128.726 160.804 118.851 151.94 108.969 143.085C102.091 136.561 94.1682 130.94 88.4765 123.279C95.7817 122.211 102.921 120.314 110.083 118.535C111.483 120.242 112.644 122.211 114.186 123.8C126.733 133.55 138.379 144.366 149.882 155.301C147.514 157.28 145.382 159.525 143.525 161.99Z" fill="#161616"/>
<path d="M167.505 82.7881C166.559 81.7523 165.358 80.9814 164.023 80.553C162.687 80.1245 161.262 80.0526 159.891 80.3444L149.953 82.4555C149.547 82.5457 149.188 82.7811 148.944 83.1179C148.699 83.4547 148.586 83.8676 148.624 84.282L148.981 87.8165C149.002 88.0631 149.078 88.3013 149.204 88.5155C149.328 88.7297 149.498 88.9129 149.702 89.0539C149.907 89.1948 150.138 89.2878 150.383 89.3287C150.627 89.3695 150.876 89.3555 151.114 89.2878L159.203 87.0343L158.135 88.2675C160.911 87.1767 169.377 86.0859 169.307 85.2783C169.235 84.4722 168.429 83.7605 167.505 82.7881Z" fill="white"/>
<path d="M170.208 84.3059C167.836 80.1781 163.283 78.0444 158.635 79.3959L151.211 80.9856C150.451 81.128 149.573 81.2224 148.886 81.6029C146.656 82.836 147.701 85.6109 147.771 87.6516C147.781 88.1054 147.895 88.5507 148.107 88.9538C148.316 89.3555 148.618 89.7036 148.986 89.9699C149.354 90.2363 149.778 90.4138 150.224 90.49C150.673 90.5646 151.132 90.535 151.566 90.404L157.093 88.8622C157.378 89.2653 157.947 89.5979 158.444 89.4076C160.437 88.6719 162.548 88.3633 164.635 87.9137C166.722 87.4628 171.774 87.2739 170.208 84.3087V84.3059ZM160.674 86.3226L160.224 86.4171C160.083 86.2028 159.88 86.038 159.642 85.945C159.404 85.8519 159.143 85.8336 158.895 85.8956C156.144 86.6313 151.069 88.1251 150.642 88.1731C150.215 88.221 149.978 88.2914 149.812 84.0692C149.812 83.9508 149.93 83.6901 150.096 83.6661C152.871 82.9544 155.718 82.4795 158.516 81.8396C160.413 81.3647 162.429 81.0575 164.28 81.8876H164.326C165.726 82.4809 166.77 83.5956 167.694 84.7583L160.674 86.3241V86.3226Z" fill="#161616"/>
<path d="M163.52 102.594C163.658 102.386 163.746 102.149 163.782 101.901C163.816 101.653 163.794 101.401 163.72 101.163C163.645 100.924 163.518 100.705 163.348 100.521C163.177 100.338 162.969 100.194 162.738 100.103L161.954 99.7702V99.7223C162.086 99.5109 162.171 99.2727 162.202 99.0247C162.233 98.7766 162.209 98.5258 162.132 98.2876C162.055 98.0508 161.927 97.8324 161.757 97.6492C161.588 97.466 161.379 97.3236 161.148 97.2292L156.665 95.4267C156.712 95.3182 156.737 95.2012 156.739 95.0814C156.739 94.9631 156.719 94.8447 156.674 94.7348C156.63 94.6248 156.565 94.5248 156.482 94.4388C156.399 94.3542 156.3 94.2866 156.19 94.2401L151.519 92.3418C151.137 92.1895 150.713 92.1811 150.325 92.3164C149.938 92.4517 149.612 92.7223 149.408 93.0774L145.423 100.051C148.957 103.324 153.249 108.044 159.939 107.547C161.218 105.958 162.413 104.303 163.52 102.589V102.594Z" fill="white"/>
<path d="M164.231 99.7251C163.992 99.4728 163.711 99.2643 163.401 99.1078C163.614 97.6844 162.571 96.4034 161.242 96.0003L157.898 94.6488C157.807 94.2373 157.601 93.8582 157.305 93.558C156.593 92.9886 155.669 92.8224 154.863 92.4193C154.056 92.0162 152.87 91.5892 151.85 91.2101C150.83 90.831 149.075 91.3285 148.388 92.4912L147.985 93.2268L145.968 96.7614C145.447 97.6633 144.948 98.5638 144.427 99.4418C144.304 99.673 144.256 99.9365 144.29 100.196C144.324 100.455 144.438 100.698 144.617 100.889C146.656 102.788 148.648 104.779 150.996 106.298C153.345 107.816 156.926 109.097 160.104 108.718C160.839 108.622 161.314 107.745 161.717 107.223C162.714 105.918 163.662 104.566 164.54 103.191C164.863 102.655 165.008 102.031 164.951 101.408C164.896 100.785 164.644 100.196 164.231 99.7265V99.7251ZM146.941 99.8195C148.103 97.7803 149.242 95.7156 150.451 93.7003C150.493 93.6003 150.566 93.5185 150.662 93.4664C150.757 93.4143 150.867 93.3973 150.972 93.4157C152.229 93.8666 153.44 94.412 154.673 94.887C153.013 97.3772 151.353 99.8675 149.715 102.359C148.767 101.553 147.866 100.675 146.941 99.8209V99.8195ZM154.482 105.465H154.46C153.445 105.013 152.476 104.465 151.565 103.829L156.405 96.5936L160.673 98.3017C158.871 100.792 156.808 103.164 155.076 105.702L154.482 105.465ZM162.571 101.883C161.693 103.258 160.745 104.611 159.749 105.915C159.654 106.057 159.488 106.247 159.37 106.39C158.744 106.412 158.117 106.39 157.495 106.319L161.645 100.91L162.215 101.147C162.974 101.432 162.595 101.835 162.571 101.883Z" fill="#161616"/>
</g>
<defs>
<clipPath id="clip0_626_5976">
<rect width="351.318" height="354" fill="white" transform="translate(0.681641)"/>
</clipPath>
</defs>
</svg>
