<svg width="379" height="500" viewBox="0 0 379 500" fill="none" xmlns="http://www.w3.org/2000/svg">
<g clip-path="url(#clip0_543_10206)">
<g clip-path="url(#clip1_543_10206)">
<path d="M-31.1289 360.307C-21.7842 358.587 -12.1387 359.952 -2.90231 361.671C8.13734 363.719 18.192 368.932 28.63 372.889C37.7564 376.711 47.1286 379.985 56.0641 384.244C63.4423 387.656 68.7713 395.134 77.0502 396.526C80.2751 396.99 83.5533 396.416 86.7782 396.717C94.3746 397.536 101.069 401.685 107.599 405.342C112.901 408.398 118.228 411.73 124.212 413.23C125.934 413.666 125.197 416.287 123.502 415.878C118.747 414.704 114.321 412.301 110.087 409.928C103.501 406.271 97.0787 401.903 89.7023 399.966C84.1549 398.573 78.2243 400.429 72.842 398.218C67.4597 396.008 63.8256 392.433 59.4249 389.402C51.3093 384.134 41.8838 381.323 33.029 377.583C17.7004 371.606 2.67253 363.937 -14.0245 362.735C-19.4343 362.217 -25.0091 361.889 -30.3914 362.954C-32.1122 363.309 -32.8514 360.661 -31.1289 360.307Z" fill="#121212"/>
<path d="M183.509 424.258C186.431 426.031 191.542 427.151 194.602 427.532C204.821 428.842 215.177 427.996 225.369 429.498C228.677 430.017 231.955 430.807 235.016 432.254C236 432.61 237.148 433.401 236.464 434.601C235.78 435.802 233.976 434.656 232.83 434.246L232.966 434.301C230.041 433.101 226.954 432.445 223.839 432.036C214.439 430.781 202.745 431.598 192.663 429.989C190.777 429.689 179.82 427.505 181.651 424.749C181.833 424.438 182.13 424.213 182.477 424.12C182.826 424.029 183.196 424.077 183.509 424.258Z" fill="#121212"/>
<path d="M297.343 418.28C314.72 410.528 336.772 415.114 349.615 429.143C350.844 430.425 348.986 432.282 347.674 431.054C346.127 429.373 344.446 427.821 342.646 426.413C339.714 424.187 336.52 422.326 333.137 420.873C329.666 419.343 324.529 418.033 321.497 417.652C313.71 416.67 306.332 417.489 299.118 420.463L299.229 420.408C298.464 420.818 297.37 421.064 296.851 420.135C296.332 419.208 296.66 418.579 297.343 418.28Z" fill="#121212"/>
<path d="M-94.168 142.282C-93.4031 150.496 -86.9 158.958 -80.041 161.659C-75.0678 163.816 -69.3297 163.653 -64.384 161.551H-64.4115C-61.9515 160.541 -59.22 158.74 -57.6076 157.457C-56.7876 153.472 -54.711 149.815 -51.9244 146.894C-50.6661 145.639 -48.727 147.55 -49.9836 148.805C-50.5027 149.269 -51.0494 150.088 -51.486 150.551C-62.4982 164.717 -48.8095 187.18 -31.43 185.843C-20.9095 185.242 -10.6898 173.942 -15.1714 163.024C-16.0738 161.523 -13.6964 160.131 -12.7939 161.659C-11.0989 164.382 -8.59776 166.51 -5.63585 167.746H-5.71664C-4.43596 168.263 -3.09684 168.62 -1.72848 168.811H-1.51016C0.0627594 168.984 1.64943 168.965 3.21719 168.756C3.81886 168.728 6.90626 167.992 8.3004 167.338H8.24538C9.58451 166.847 12.2353 165.153 12.6444 164.798C15.1594 163.052 17.9459 159.149 18.6834 157.102C20.0947 153.685 20.5486 149.948 19.995 146.293C19.6942 143.427 17.9734 138.514 16.0877 135.375C14.721 130.844 22.2899 135.976 29.2314 130.107H29.2039C48.3316 113.213 26.1165 86.6285 4.63884 95.1986L4.72135 95.1437C1.12685 96.6581 -1.92789 99.2166 -4.0509 102.486C-4.43253 103.06 -5.28003 103.387 -5.90919 102.95C-8.39492 101.203 -2.38344 96.4813 -0.963516 95.2793C0.0679054 92.829 0.595657 90.1967 0.59222 87.5386C0.587063 84.8805 0.0490112 82.2499 -0.989285 79.803L-1.04431 79.7206C-1.03571 79.7326 -1.0271 79.7447 -1.02194 79.7584C-1.0185 79.7721 -1.01678 79.7876 -1.01678 79.803C-1.84363 77.8936 -2.90947 76.0958 -4.18671 74.4525C-5.74588 72.4899 -7.5354 70.7213 -9.51573 69.1845C-17.5213 63.0973 -28.7518 60.1233 -38.344 64.107C-43.8896 66.3993 -47.9895 71.2313 -50.2569 76.7174C-52.1427 80.9758 -53.3718 88.2357 -53.3168 93.7768C-53.3237 94.1374 -53.4698 94.4791 -53.726 94.735C-53.9804 94.9891 -54.3242 95.1351 -54.6835 95.1419C-57.2792 95.0063 -55.5584 89.3553 -55.6942 87.5541C-64.1932 73.8258 -87.3366 79.257 -89.1674 95.1969C-89.1857 95.3606 -89.1949 95.415 -89.1949 95.36C-89.408 97.2471 -89.3908 99.1548 -89.1399 101.037C-87.7199 110.263 -82.0351 118.204 -75.8603 124.973C-75.3961 125.492 -75.3136 126.393 -75.8603 126.884C-77.7461 128.795 -81.1618 122.545 -82.5284 121.316C-85.5385 122.895 -88.1823 125.09 -90.2882 127.757C-90.2882 127.75 -90.2847 127.743 -90.2796 127.738C-90.2744 127.733 -90.2676 127.729 -90.2607 127.729C-93.4306 131.823 -94.7697 137.173 -94.168 142.276V142.282Z" fill="white"/>
<path d="M-95.9985 133.028C-94.1402 127.051 -89.6037 122.192 -84.1388 119.217C-107.693 87.1746 -72.9084 65.0926 -55.1198 83.9258C-48.0425 42.0027 9.61235 60.9716 2.61758 93.2325C19.4762 84.8531 42.9755 100.41 38.6589 119.599C36.9365 128.552 29.0134 136.493 19.5312 136.165C23.9577 144.572 24.5319 155.545 18.2471 163.16C11.4981 171.921 -2.73896 175.032 -11.4545 167.417C-10.7995 175.387 -16.0735 182.865 -23.0408 186.305C-39.4628 194.985 -59.438 178.772 -58.0988 161.249C-77.6907 175.633 -102.283 154.944 -95.9985 133.026V133.028ZM0.430973 85.1003C0.430973 84.9904 0.403465 84.9097 0.430973 85.1003V85.1003ZM-94.1677 142.39C-93.4027 150.606 -86.9271 159.039 -80.0407 161.742C-75.095 163.898 -69.3293 163.761 -64.3837 161.633H-64.4111C-61.9787 160.649 -59.2472 158.821 -57.6347 157.538C-56.7872 153.58 -54.7106 149.923 -51.9241 146.976C-50.6657 145.748 -48.7542 147.658 -49.9833 148.915C-50.5024 149.351 -51.0491 150.17 -51.4857 150.663C-62.4979 164.827 -48.8092 187.29 -31.4572 185.927C-20.9092 185.353 -10.6895 174.053 -15.171 163.136C-16.101 161.608 -13.6961 160.215 -12.8211 161.743C-11.1124 164.455 -8.6146 166.579 -5.66301 167.83H-5.71631C-4.43563 168.347 -3.0965 168.704 -1.72815 168.895H-1.50983C0.0613708 169.077 1.64976 169.067 3.21753 168.868C3.79168 168.813 6.87909 168.103 8.30073 167.42H8.24571C9.798 166.721 11.273 165.861 12.6447 164.855C15.1597 163.136 17.9462 159.205 18.6837 157.159C20.1002 153.742 20.5523 150.005 19.9954 146.349C19.6945 143.484 17.9738 138.571 16.088 135.432C14.7213 130.901 22.2902 136.033 29.2317 130.164H29.2042C48.332 113.269 26.1169 86.6852 4.61168 95.2553H4.72168C1.12889 96.7612 -1.92584 99.3094 -4.05057 102.57C-4.23795 102.883 -4.54049 103.108 -4.89289 103.2C-5.24529 103.293 -5.62005 103.243 -5.93636 103.063C-8.39458 101.289 -2.38311 96.5946 -0.963188 95.3669C0.0665169 92.92 0.595989 90.2929 0.590832 87.6399C0.585674 84.987 0.0493431 82.3616 -0.988956 79.9181H-1.01645C-1.01645 79.9027 -1.01817 79.8889 -1.02161 79.8735C-1.02676 79.8597 -1.03538 79.846 -1.04398 79.8357V79.8906C-1.88115 77.995 -2.94522 76.2074 -4.21387 74.5676C-5.76617 72.5998 -7.55569 70.8295 -9.5429 69.2995C-17.5485 63.1849 -28.8064 60.2384 -38.3694 64.1946C-43.9168 66.5144 -48.0425 71.3463 -50.2841 76.8325C-52.1699 81.0909 -53.399 88.3508 -53.344 93.8919C-53.3509 94.2508 -53.497 94.5942 -53.7514 94.8483C-54.0075 95.1025 -54.3496 95.2484 -54.7106 95.2553C-57.3064 95.0922 -55.5856 89.4412 -55.7214 87.6399C-64.2204 73.9374 -87.3913 79.3429 -89.1945 95.2828V95.3102C-89.2129 95.4739 -89.222 95.5375 -89.222 95.5008C-89.4352 97.3879 -89.418 99.2956 -89.167 101.178C-87.7471 110.431 -82.0623 118.345 -75.915 125.114C-75.786 125.241 -75.6846 125.392 -75.6159 125.559C-75.5471 125.725 -75.511 125.904 -75.511 126.084C-75.511 126.264 -75.5471 126.443 -75.6159 126.61C-75.6846 126.776 -75.786 126.927 -75.915 127.054C-77.7733 128.938 -81.189 122.688 -82.5539 121.46C-85.5605 123.048 -88.2027 125.241 -90.3154 127.901H-90.2878C-93.4302 131.94 -94.7694 137.263 -94.1677 142.393V142.39Z" fill="#121212"/>
<path d="M99.1015 141.408L102.543 151.453C102.543 151.453 96.8873 155.055 92.7616 156.01C88.6359 156.965 90.5475 156.42 87.3776 155.601C84.2094 154.782 76.0663 138.624 76.0663 138.624L99.1015 141.408Z" fill="white"/>
<path d="M74.7003 137.695C74.427 136.194 101.287 139.361 100.66 140.862C100.577 142.307 105.796 151.916 103.446 152.844C95.1672 157.566 86.7233 163.38 79.0994 147.63C76.2303 141.763 73.9079 140.206 74.7003 137.695ZM81.8051 145.774C89.1007 159.231 91.9973 154.755 100.577 150.742L97.8988 142.908L78.9361 140.616C79.701 142.062 80.7118 143.891 81.8051 145.774Z" fill="#121212"/>
<path d="M288.545 198.779C295.622 191.875 298.136 173.969 272.451 141.926C236.082 96.5637 126.046 88.4298 126.046 88.4298L166.896 18.365C363.334 5.81129 354.671 160.241 294.747 200.009C369.017 206.996 408.446 260.41 347.757 296.002C328.93 302.688 296.496 291.661 306.442 270.563C306.442 270.563 324.695 287.622 334.204 273.103C333.685 241.278 243.267 252.331 288.545 198.779Z" fill="#03A731"/>
<path d="M124.622 87.6107L165.473 17.546C165.609 17.3159 165.8 17.1236 166.029 16.9845C166.257 16.8472 166.517 16.7665 166.785 16.7544C238.512 12.9614 304.911 26.6347 328.985 90.3942C341.527 126.723 330.379 174.68 299.201 198.833C319.229 201.235 337.183 207.049 351.363 215.755C387.46 237.591 389.373 273.374 350.134 296.519C349.017 297.183 347.824 297.716 346.583 298.102C343.112 299.139 339.342 299.575 335.515 299.603C318.82 299.548 296.168 289.858 304.966 269.852C305.078 269.62 305.242 269.418 305.446 269.262C305.651 269.105 305.888 268.999 306.141 268.951C306.393 268.903 306.653 268.915 306.9 268.987C307.148 269.057 307.375 269.186 307.562 269.361C307.672 269.444 317.153 278.232 325.378 277.222C328.275 276.894 330.625 275.366 332.538 272.608C332.507 271.987 332.435 271.367 332.32 270.754C332.21 270.544 332.162 270.307 332.184 270.07C329.889 260.491 317.455 255.468 304.394 250.172C291.333 244.879 277.452 239.283 274.692 228.147C272.707 220.123 276.869 210.023 287.18 197.851C287.31 197.682 287.458 197.528 287.616 197.387C294.884 189.935 294.31 171.838 271.167 142.962C245.426 107.479 153.834 91.4571 125.908 90.0662C125.631 90.0439 125.366 89.9529 125.134 89.7983C124.904 89.6455 124.715 89.436 124.588 89.1905C124.459 88.9449 124.395 88.6719 124.402 88.3938C124.407 88.1173 124.485 87.846 124.624 87.6073L124.622 87.6107ZM325.76 280.498C318.683 281.455 310.457 276.022 307.096 273.266C303.244 284.729 313.053 291.799 323.874 294.774C325.841 294.396 327.763 293.82 329.612 293.054C330.35 292.808 333.246 291.143 333.683 290.734C335.378 289.506 336.935 287.349 337.372 286.23C339.067 282.136 337.891 278.178 335.295 274.385C332.836 277.96 329.64 280.007 325.758 280.498H325.76ZM277.642 221.653C276.14 233.28 286.932 240.076 305.623 247.145C319.314 252.686 333.468 258.418 335.57 270.263C344.915 280.498 341.118 291.553 329.887 295.947C335.325 296.629 340.736 296.33 345.326 295.047C346.416 294.745 347.456 294.285 348.413 293.682C409.702 255.334 358.36 206.585 294.583 201.645C294.501 201.618 291.933 202.82 291.441 203.229C285.512 208.06 280.539 215.43 277.67 221.543L277.642 221.653ZM273.733 140.917C288.708 159.722 303.136 184.886 289.746 199.899C288.352 201.537 287.068 203.12 285.949 204.649C287.286 203.258 288.72 201.963 290.239 200.773C291.195 200.035 293.71 198.725 293.846 198.644C324.558 178.255 338.931 130.162 325.87 91.4313C314.394 52.3191 264.634 12.496 167.877 19.9482L128.748 87.0372C165.09 89.9306 247.257 105.706 273.733 140.917Z" fill="#121212"/>
<path d="M-56.8217 359.816L161.67 6.44494C163.836 2.94376 168.431 1.85684 171.934 4.01867C175.438 6.18051 176.522 10.7703 174.356 14.2715L-44.1351 367.643C-46.3011 371.144 -50.8961 372.231 -54.3995 370.069C-57.9012 367.909 -58.9877 363.318 -56.8217 359.816Z" fill="white"/>
<path d="M-52.1702 372.753C-50.6179 372.758 -49.0897 372.368 -47.7317 371.618C-46.3736 370.868 -45.2305 369.784 -44.4088 368.467L174.217 15.173C174.903 14.1582 175.375 13.0163 175.607 11.8143C175.841 10.6123 175.828 9.37602 175.57 8.1792C175.314 6.98238 174.817 5.85081 174.11 4.84974C173.404 3.84866 172.501 3.00213 171.459 2.35822C170.418 1.7143 169.256 1.28674 168.045 1.10301C166.834 0.919283 165.598 0.981099 164.41 1.28503C163.224 1.58895 162.111 2.12984 161.138 2.87507C160.165 3.62029 159.354 4.55268 158.751 5.619L-59.875 358.915C-63.674 364.674 -59.0825 372.944 -52.1702 372.753ZM166.485 4.58187C169.08 4.52692 172.687 8.10193 172.687 11.1051C172.659 16.6188 -46.4596 362.382 -47.1971 366.748C-51.2402 373.081 -61.0233 367.267 -57.0884 360.634L161.539 7.33954C162.06 6.49815 162.787 5.80273 163.653 5.32022C164.518 4.83772 165.493 4.58358 166.485 4.58358V4.58187Z" fill="#121212"/>
<path d="M147.466 109.856C137.657 125.114 144.461 142.39 151.894 151.18C155.528 155.464 160.582 158.603 167.058 161.824C182.825 169.685 190.722 199.681 210.342 197.306C237.994 193.949 252.121 170.312 237.884 153.745C226.189 140.097 225.261 124.185 215.724 112.286C198.7 91.0501 169.901 74.9746 147.466 109.856Z" fill="#121212"/>
<path d="M167.877 142.69C167.877 142.69 169.135 155.955 159.543 166.436C156.511 169.766 167.167 175.497 177.497 175.77C187.825 176.043 197.144 170.885 194.819 167.228C187.36 155.356 186.24 142.908 186.24 142.908L167.877 142.69Z" fill="white"/>
<path d="M178.152 177.408C186.405 177.3 199.329 173.505 196.214 166.354C189.054 155 187.88 142.881 187.88 142.773C187.845 142.367 187.662 141.988 187.364 141.712C187.065 141.433 186.675 141.277 186.267 141.272L167.877 141.054C167.648 141.054 167.42 141.1 167.21 141.193C167 141.286 166.811 141.421 166.657 141.591C166.502 141.761 166.385 141.962 166.313 142.18C166.241 142.398 166.215 142.628 166.239 142.857C166.239 142.967 167.305 155.548 158.342 165.347C153.724 172.417 169.409 177.384 178.152 177.412V177.408ZM184.792 144.519C185.312 148.231 187.278 158.302 193.427 168.102C193.209 171.268 185.257 174.161 177.524 174.134C169.354 173.916 161.702 170.203 160.719 167.911C168.097 159.231 169.845 148.559 169.572 144.356L184.792 144.519Z" fill="#121212"/>
<path d="M181.267 146.949L165.855 156.283C165.855 156.283 168.479 145.065 168.042 144.902C167.604 144.739 178.588 147.031 179.927 146.976L181.267 146.949Z" fill="#121212"/>
<path d="M202.855 123.04C202.91 120.588 202.597 118.139 201.925 115.78C202.937 115.445 204.002 115.289 205.067 115.316C206.351 115.28 207.629 115.507 208.823 115.979C210.016 116.451 211.103 117.162 212.014 118.067C212.923 118.972 213.642 120.052 214.121 121.242C214.603 122.432 214.835 123.706 214.807 124.989C214.78 126.271 214.491 127.535 213.96 128.703C213.429 129.87 212.665 130.918 211.717 131.783C210.766 132.647 209.652 133.31 208.438 133.73C207.225 134.151 205.939 134.321 204.658 134.23C203.19 134.185 201.753 133.813 200.45 133.138C201.966 129.982 202.786 126.539 202.855 123.04Z" fill="white"/>
<path d="M204.848 135.867C214.358 136.167 219.658 123.747 212.882 117.088C211.436 115.576 209.591 114.502 207.559 113.996C205.527 113.488 203.394 113.568 201.405 114.222C201.001 114.348 200.664 114.628 200.465 115C200.265 115.373 200.221 115.809 200.339 116.214C200.972 118.422 201.268 120.715 201.214 123.011C201.149 126.273 200.386 129.484 198.973 132.427C198.099 135.375 202.854 135.703 204.848 135.867ZM204.848 116.925C216.708 117.471 214.138 135.102 202.609 132.264C204.553 127.422 205.01 122.109 203.92 117.006C204.226 116.951 204.537 116.923 204.848 116.923V116.925Z" fill="#121212"/>
<path d="M178.342 147.004C164.806 147.004 153.832 136.042 153.832 122.521C153.832 109.001 164.806 98.0387 178.342 98.0387C191.877 98.0387 202.854 109.001 202.854 122.521C202.854 136.042 191.879 147.004 178.342 147.004Z" fill="white"/>
<path d="M178.343 148.64C192.498 148.64 204.192 137.285 204.493 123.093C205.669 100.439 176.131 87.5283 160.256 103.631C143.232 119.163 155.31 149.212 178.343 148.64ZM178.316 99.6751C208.729 100.249 208.21 145.448 177.852 145.366C165.555 145.338 154.954 134.283 155.473 122.001C155.501 109.909 166.239 99.4279 178.316 99.6751Z" fill="#121212"/>
<path d="M206.078 128.416C206.193 128.416 206.305 128.387 206.406 128.334C206.506 128.289 206.595 128.225 206.669 128.146C206.743 128.067 206.801 127.975 206.839 127.873C206.877 127.772 206.896 127.664 206.891 127.556C206.887 127.448 206.862 127.341 206.815 127.243C206.461 126.479 206.461 126.015 206.569 125.851C206.679 125.687 207.199 125.523 208.209 125.605C208.498 125.65 208.794 125.605 209.057 125.478C209.32 125.351 209.54 125.148 209.684 124.894C210.258 123.885 209.739 122.329 208.974 121.292C207.908 119.818 206.27 119.135 204.603 119.518C204.498 119.537 204.396 119.578 204.309 119.636C204.219 119.695 204.144 119.772 204.084 119.861C204.025 119.951 203.986 120.05 203.967 120.155C203.948 120.26 203.95 120.368 203.974 120.473C203.996 120.579 204.041 120.679 204.103 120.768C204.164 120.857 204.243 120.933 204.335 120.991C204.426 121.05 204.529 121.089 204.635 121.108C204.742 121.127 204.852 121.123 204.959 121.099C205.454 121.007 205.966 121.062 206.432 121.256C206.898 121.45 207.297 121.774 207.58 122.191C208.01 122.686 208.261 123.311 208.292 123.965C206.815 123.83 205.777 124.156 205.258 124.892C204.739 125.629 204.603 126.34 205.313 127.921C205.38 128.067 205.488 128.191 205.624 128.279C205.76 128.366 205.918 128.413 206.078 128.413V128.416Z" fill="#121212"/>
<path d="M169.409 129.317C169.49 128.962 169.873 128.826 170.147 128.581C170.219 128.528 170.303 128.492 170.391 128.471C170.478 128.45 170.569 128.449 170.659 128.464C170.748 128.48 170.832 128.512 170.908 128.56C170.985 128.608 171.051 128.672 171.102 128.746C171.159 128.813 171.2 128.892 171.223 128.977C171.247 129.062 171.252 129.151 171.24 129.238C171.233 129.364 171.187 129.484 171.107 129.582C171.03 129.68 170.924 129.75 170.801 129.785C170.611 129.922 170.42 130.167 170.147 130.167C170.061 130.195 169.968 130.197 169.88 130.173C169.792 130.149 169.713 130.099 169.655 130.03C169.538 129.958 169.452 129.848 169.407 129.718C169.363 129.589 169.363 129.448 169.409 129.319V129.317Z" fill="#121212"/>
<path d="M173.199 119.43C173.05 117.718 173.428 116.286 174.043 116.233C174.66 116.18 175.281 117.523 175.432 119.235C175.582 120.947 175.204 122.379 174.586 122.432C173.971 122.485 173.349 121.142 173.199 119.43Z" fill="#121212"/>
<path d="M160.639 120.639C160.484 118.92 160.86 117.483 161.479 117.426C162.098 117.372 162.726 118.719 162.88 120.438C163.035 122.157 162.659 123.594 162.04 123.651C161.421 123.706 160.793 122.358 160.639 120.641V120.639Z" fill="#121212"/>
<path d="M171.457 127.952C167.932 123.831 163.204 129.208 166.675 129.59C167.523 129.317 167.877 130.655 167.031 130.901C164.681 131.557 163.287 128.443 164.762 126.752C168.889 121.975 175.31 128.826 171.457 127.952Z" fill="#121212"/>
<path d="M177.522 131.036C177.469 134.093 174.162 137.424 170.992 136.768C169.873 136.277 170.911 135.077 171.566 135.513C171.765 135.54 171.968 135.54 172.168 135.513H172.113C172.408 135.485 172.695 135.403 172.96 135.267C174.354 134.639 175.857 133.138 176.158 131.447C175.884 130.6 177.168 129.645 177.522 131.038V131.036Z" fill="#121212"/>
<path d="M202.28 112.476C212.527 110.702 187.496 88.7852 169.9 94.0791C162.003 96.835 157.659 105.407 152.766 111.602C154.269 112.093 152.603 112.885 154.078 113.376L154.735 114.468C162.331 115.177 170.665 110.264 176.458 105.57C178.535 103.195 180.912 104.26 182.633 106.552C186.814 111.219 196.377 115.723 202.28 112.474V112.476Z" fill="#121212"/>
<path d="M216.515 237.947C216.487 238.438 216.487 239.011 216.434 240.158C216.216 246.163 218.647 337.844 217.227 339.646C217.227 339.646 269.307 400.046 281.111 415.933C282.559 417.87 255.836 438.422 255.836 438.422L187.606 358.068C183.521 353.24 181.251 347.141 181.185 340.818L180.501 268.489C180.857 267.835 181.02 264.859 180.283 264.751L169.681 264.478C169.542 264.452 169.401 264.457 169.264 264.49C169.128 264.522 169.001 264.582 168.889 264.668C163.615 268.707 111.724 311.423 110.55 313.087C109.374 314.753 163.177 384.244 163.587 387.846C163.833 390.031 137.41 408.481 137.164 407.061L73.0044 318.956C70.835 315.974 69.7503 312.34 69.9291 308.657C70.1078 304.974 71.5398 301.462 73.9894 298.705C90.4114 280.198 130.415 249.029 139.65 242.095C139.65 242.095 140.497 231.588 140.334 229.268C140.307 228.995 142.93 228.257 143.093 228.039C144.487 226.401 150.581 220.343 151.018 220.097L153.258 218.84C153.768 218.559 154.193 218.143 154.489 217.64L155.8 215.375C156.068 214.907 156.448 214.513 156.906 214.228C157.363 213.942 157.884 213.773 158.423 213.737L173.506 212.673C174.101 212.637 174.696 212.758 175.227 213.028L216.407 234.044C216.817 234.279 217.173 234.602 217.447 234.988C217.72 235.374 217.906 235.816 217.992 236.283C218.237 237.292 221.024 238.903 220.723 239.72C220.668 239.94 216.515 237.701 216.515 237.947Z" fill="white"/>
<path d="M69.4807 303.808C70.9024 299.714 73.9072 296.656 76.8863 293.6C95.8766 274.548 117.053 257.79 138.339 241.386C138.667 237.511 138.995 233.58 138.995 229.677C138.913 227.766 140.853 227.575 142.248 226.947C144.297 224.71 146.428 222.553 148.613 220.451C149.141 219.884 149.717 219.362 150.336 218.895C151.046 218.432 151.866 218.131 152.548 217.668C153.231 217.204 153.887 215.921 154.434 215.02C155.199 213.682 156.32 212.7 157.905 212.427C161.702 212.046 165.527 211.936 169.326 211.608C170.72 211.5 172.112 211.362 173.479 211.308C174.846 211.254 175.666 211.718 176.704 212.236L216.899 232.761C217.438 233.041 217.921 233.42 218.319 233.881C218.812 234.482 219.003 235.381 219.304 235.872C219.604 236.363 220.204 236.801 220.615 237.183C221.516 238.029 222.965 239.695 221.571 240.785C220.177 241.877 218.92 240.376 217.827 239.968C217.992 269.09 219.058 298.186 219.03 327.308C219.03 329.983 219.03 332.684 218.948 335.387C218.92 336.615 218.975 338.035 218.729 339.29C239.851 364.073 261.356 388.611 281.495 414.185C281.932 414.759 282.533 415.332 282.533 416.096C282.495 416.668 282.296 417.216 281.959 417.679C281.003 419.098 279.719 420.3 278.488 421.472C271.602 427.968 264.007 433.81 256.519 439.597C256.082 439.924 255.235 439.787 254.879 439.378L219.001 397.127L188.397 361.099C185.909 358.151 183.56 355.175 182.057 351.545C180.171 347.069 179.845 342.484 179.79 337.734C179.735 332.985 179.707 328.508 179.652 323.896L179.161 271.465C179.133 270.536 179.08 269.581 179.133 268.626C179.188 267.67 179.406 267.589 179.434 266.77C179.434 266.607 179.379 266.36 179.353 266.114C176.101 265.978 172.822 265.896 169.57 265.841C150.279 281.508 130.96 297.175 112.161 313.443C114.073 316.745 116.395 319.803 118.582 322.914C129.84 338.581 141.507 353.975 152.82 369.587C156.619 374.827 160.526 380.04 163.968 385.527C164.434 386.318 165.116 387.3 164.898 388.257C164.569 389.758 162.739 391.068 161.645 391.995C159.323 394.014 156.837 395.898 154.35 397.727C149.677 401.193 144.867 404.741 139.731 407.554C139.138 407.94 138.495 408.244 137.818 408.453C137.481 408.56 137.116 408.551 136.785 408.428C136.453 408.304 136.173 408.074 135.987 407.772C135.414 407.116 135.987 407.772 135.987 407.744L86.2018 339.373L72.4031 320.43C68.8773 315.599 67.4849 309.595 69.479 303.808H69.4807ZM141.154 230.331C141.044 230.441 140.989 230.579 141.154 230.331V230.331ZM141.727 229.322C141.864 229.076 141.754 229.186 141.727 229.322V229.322ZM279.8 415.959C279.91 415.796 279.827 415.823 279.8 415.933V415.959ZM162.221 387.628C162.276 387.491 162.221 387.491 162.221 387.628V387.628ZM162.221 387.656C162.203 387.638 162.194 387.638 162.194 387.656H162.221ZM71.284 309.948C71.394 313.142 72.5681 316.035 74.4264 318.601L79.7554 325.888C99.1015 352.436 118.437 378.984 137.766 405.533C144.733 401.63 151.291 396.827 157.549 391.887C159.134 390.604 160.746 389.32 162.113 387.792C155.309 376.792 147.111 366.611 139.569 356.104C129.896 342.812 119.812 329.791 110.605 316.145C108.828 313.525 108.419 312.761 111.178 310.632C129.731 294.802 148.586 279.325 167.55 263.987C168.506 263.248 169.326 263.085 170.474 263.113C173.67 263.221 176.867 263.221 180.037 263.386C182.633 263.549 182.36 266.878 181.868 268.734C182.031 283.829 182.141 298.923 182.305 314.016C182.36 320.622 182.423 327.226 182.497 333.831C182.523 337.68 182.277 341.801 183.042 345.595C184.055 350.863 186.924 355.476 190.503 359.379C212.362 385.091 234.204 410.809 256.027 436.54C262.094 431.818 268.105 427.041 273.871 421.964C275.812 420.245 277.778 418.526 279.418 416.532L279.609 416.287C277.56 413.421 275.21 410.555 272.968 407.772C254.525 385.118 235.425 363.009 216.434 340.818C215.996 340.355 215.669 339.673 215.969 339.072C215.975 339.026 215.984 338.981 215.996 338.935C216.297 335.688 216.269 332.439 216.297 329.164C216.324 303.944 215.642 278.697 215.231 253.478C215.15 249.111 214.985 244.743 215.068 240.404L215.15 237.947C215.142 237.693 215.219 237.444 215.369 237.238C215.494 236.995 215.695 236.8 215.941 236.681C216.189 236.563 216.467 236.528 216.735 236.583C216.488 236.037 216.216 235.519 215.695 235.218L214.822 234.755L188.78 221.488C184.135 219.113 179.546 216.631 174.873 214.366C173.369 213.655 171.129 214.201 169.517 214.311L159.27 215.047C158.996 215.075 158.697 215.047 158.424 215.102C157.494 215.265 157.085 215.894 156.646 216.631C156.261 217.365 155.833 218.076 155.362 218.76C154.434 219.933 153.067 220.506 151.783 221.215C149.679 223.154 147.657 225.201 145.662 227.275C145.142 227.821 144.651 228.422 144.104 228.968C143.559 229.514 142.547 229.732 141.754 230.033C141.646 233.225 141.455 236.364 141.235 239.53C141.127 240.704 141.318 242.478 140.362 243.27C134.978 247.446 129.54 251.512 124.266 255.798C108.309 268.707 92.27 281.673 77.9521 296.438C73.9622 300.341 71.1207 304.053 71.284 309.948ZM216.024 338.827V338.935C216.051 338.854 216.079 338.526 216.024 338.827Z" fill="#121212"/>
<path d="M139.897 239.394C143.039 236.664 141.702 228.394 142.166 223.044C148.669 224.246 154.106 216.467 160.664 216.821C182.087 217.886 189.274 211.936 210.396 216.139C221.9 238.984 223.676 302.525 223.676 302.525C222.637 299.031 215.014 297.475 210.013 299.85C206.735 301.406 204.001 304.49 200.367 304.654C194.411 304.927 191.05 298.131 186.378 294.419C184.65 293.059 182.653 292.084 180.518 291.556C178.384 291.029 176.162 290.964 173.999 291.362C166.703 292.753 160.255 299.359 153.041 297.64C147.548 296.357 143.039 290.353 137.574 291.744C135.144 292.399 133.23 294.446 130.77 295.02C127.465 295.756 113.994 294.692 107.381 288.687C99.4839 281.455 98.0089 277.359 84.0452 279.707C103.255 260.683 97.4072 276.132 139.897 239.394Z" fill="#03A731"/>
<path d="M83.0887 278.752C85.9303 275.848 88.9919 273.166 92.2426 270.728C96.4508 267.589 101.424 265.76 105.986 263.221C116.835 257.053 126.453 249.001 135.963 240.977C137.601 239.394 139.815 238.41 140.224 235.927C141.154 231.696 140.417 227.33 140.799 223.044C140.854 222.089 141.591 221.571 142.519 221.734C149.624 222.225 154.79 214.065 162.249 215.538C178.179 216.248 194.027 210.954 209.821 214.639C212.472 214.611 213.292 220.097 214.33 222.089C220.861 242.533 222.473 264.15 224.167 285.411C224.523 290.979 224.849 296.548 225.014 302.115C225.093 302.458 225.043 302.819 224.872 303.128C224.7 303.435 224.419 303.667 224.084 303.78H224.031C221.626 304.462 215.888 306.729 216.899 302.062C216.845 301.371 217.038 300.684 217.445 300.123C215.228 299.836 212.972 300.109 210.887 300.915C208.126 302.142 205.969 304.354 203.127 305.419C194.192 308.666 190.092 297.886 183.616 294.201C182.836 293.732 182.012 293.339 181.158 293.026C181.189 293.124 181.206 293.225 181.211 293.327C183.207 302.633 180.611 293.437 164.27 300.096C151.974 305.091 147.467 297.613 140.144 296.057C133.639 294.692 132.655 299.522 128.42 296.493C121.917 296.794 115.113 294.937 109.485 291.881C103.855 288.823 101.151 282.737 95.1942 280.936L93.9908 280.636C93.9633 280.943 93.8172 281.226 93.5817 281.427C92.2976 283.228 85.9303 282.765 83.6628 280.936C82.7878 280.663 82.2687 279.571 83.0887 278.752ZM98.3365 279.27C102.024 281.072 104.785 284.401 107.736 287.131C113.447 292.427 123.12 294.146 129.896 293.79L130.716 293.572C131.486 292.994 132.372 292.585 133.312 292.372C135.552 291.117 137.739 289.669 140.498 290.27C145.935 291.034 149.652 296.383 155.254 296.575C160.855 296.766 166.02 292.207 171.593 290.571C182.086 287.349 188.07 293.6 194.52 300.697C204.166 309.595 207.581 291.881 222.173 298.923C220.314 271.6 219.713 243.107 209.466 217.34C193.234 213.574 177.005 219.306 160.664 218.186C154.351 218.159 149.762 224.627 143.449 224.491C143.013 229.677 144.733 236.173 140.881 240.349C130.606 249.111 120.251 257.954 108.61 264.859C101.451 268.762 93.745 271.792 88.0069 277.825C91.5326 277.497 95.1116 277.687 98.3365 279.27Z" fill="#121212"/>
<path d="M148.613 375.592C147.54 376.884 146.036 377.748 144.377 378.021H144.269C142.165 378.389 140.169 379.218 138.426 380.451C136.681 381.682 135.233 383.286 134.185 385.144C133.497 386.356 132.473 387.342 131.235 387.984C129.267 388.993 127.955 390.549 127.682 392.759C127.573 393.606 133.42 401.166 133.831 401.74L136.344 406.462L165.117 390.93L155.8 376C153.914 373.081 150.854 372.889 148.613 375.592Z" fill="#BEE1FF"/>
<path d="M127.383 389.62C128.641 387.3 131.673 386.892 132.93 384.598C134.79 381.28 137.774 378.735 141.346 377.42C143.067 376.738 145.254 376.738 146.648 375.591C150.801 370.433 155.528 371.716 158.26 377.393C160.364 380.75 162.468 384.107 164.545 387.491C165.146 388.856 167.605 390.822 165.801 392.132L140.581 405.751C138.941 406.269 136.646 408.999 135.171 407.171C133.477 403.486 131.099 400.292 128.667 397.072C126.836 394.753 125.333 392.378 127.383 389.62ZM129.213 392.95C131.618 396.963 134.979 400.347 136.92 404.633C145.663 399.883 154.435 395.216 163.178 390.439C159.872 385.554 157.277 380.068 153.56 375.536C153.151 375.209 152.03 374.827 151.21 375.236H151.155C150.916 375.342 150.688 375.471 150.473 375.619C147.413 379.903 142.658 378.84 138.859 381.814C135.716 384.189 134.625 388.283 130.771 389.866C130.453 390.139 130.161 390.441 129.897 390.767C129.499 391.332 129.22 391.973 129.078 392.651L129.213 392.95Z" fill="#121212"/>
<path d="M264.444 404.768C263.416 406.091 261.955 407.009 260.319 407.361H260.209C258.115 407.809 256.148 408.714 254.446 410.012C252.746 411.311 251.354 412.968 250.37 414.868C249.731 416.089 248.755 417.102 247.556 417.788C245.588 418.88 243.84 420.628 243.622 422.838C243.567 423.684 244.66 424.857 245.096 425.403L254.852 434.737L281.411 415.713L271.874 404.523C269.852 401.657 266.6 401.985 264.441 404.768H264.444Z" fill="#BEE1FF"/>
<path d="M243.267 419.862C244.496 417.679 247.066 416.943 248.624 415.114C250.891 410.638 254.909 407.035 259.937 406.051C261.217 405.794 262.373 405.11 263.217 404.114C263.299 404.032 263.598 403.651 263.272 404.059C266.196 399.883 271.25 400.512 273.82 404.714L280.46 412.521C281.308 413.776 283.986 415.468 282.128 416.943L258.819 433.592C257.289 434.301 255.65 437.031 253.901 435.749L245.021 427.232C242.753 425.43 241.251 422.455 243.272 419.862H243.267ZM245.016 423.001C245.175 423.387 245.407 423.739 245.698 424.038C248.677 427.149 251.928 430.017 254.988 433.018C263.131 427.177 271.301 421.392 279.415 415.523C276.41 412.028 272.584 407.471 270.016 404.523C269.826 404.365 269.615 404.236 269.386 404.142H269.414C269.251 404.087 269.223 404.059 269.304 404.114C266.407 403.022 265.233 406.843 262.992 407.825C261.216 408.781 259.139 408.864 257.391 409.819C253.073 411.62 252.28 415.66 249.193 418.389C247.472 419.536 245.285 420.653 245.012 422.893H244.985V422.973L245.012 423.001H245.016ZM244.988 422.865C244.988 422.847 244.979 422.828 244.961 422.81C244.933 422.783 244.988 422.838 244.988 422.865Z" fill="#121212"/>
<path d="M245.015 422.865V422.976C245.015 422.948 244.987 422.92 245.015 422.865Z" fill="#121212"/>
<path d="M280.564 414.513C288.814 420.226 295.419 427.999 299.72 437.059C300.43 438.532 301.059 440.088 301.031 441.753C300.949 445.629 297.287 448.385 293.982 450.541L278.46 460.64C272.64 464.462 266.683 468.31 259.962 470.166C255.59 470.82 251.764 471.013 247.884 468.964C230.205 459.685 258.076 449.777 251.819 431.818L280.564 414.513Z" fill="#03A731"/>
<path d="M240.862 459.602C243.787 451.196 252.913 444.645 251.192 434.902C251.192 433.509 249.607 431.653 251.11 430.643C260.838 424.857 270.428 418.852 280.211 413.203C288.763 416.996 296.771 427.941 300.896 436.375C305.76 444.755 297.782 450.05 291.359 453.871L282.506 459.63C274.418 464.652 266.275 471.284 256.411 471.94C249.525 472.594 238.733 467.9 240.862 459.602ZM243.295 462.223C243.377 462.98 243.649 463.703 244.087 464.325C244.17 464.434 244.524 464.871 244.17 464.434C244.637 465.037 245.179 465.578 245.782 466.045C245.775 466.045 245.769 466.042 245.763 466.036C245.758 466.031 245.755 466.024 245.755 466.018C250.838 470.221 258.106 469.974 263.898 467.353C271.411 464.134 278.052 459.166 284.964 454.8C289.391 451.633 294.61 449.286 298.299 445.191C298.928 444.319 299.556 443.254 299.638 442.162C299.638 437.577 294.938 431.244 292.232 427.45C288.903 423.128 284.954 419.319 280.51 416.151C271.492 421.582 262.421 426.986 253.432 432.472C257.176 446.473 244.469 452.506 243.295 462.223Z" fill="#121212"/>
<path d="M297.316 432.199C287.779 446.393 272.041 454.69 256.547 460.885C251.93 462.686 246.929 464.051 241.929 463.397C240.18 463.397 240.18 460.64 241.929 460.667C243.698 460.901 245.489 460.901 247.258 460.667C250.892 460.176 255.072 458.62 258.079 457.365C266.551 453.79 275.484 449.286 282.481 443.855C286.466 440.829 290.048 437.306 293.137 433.374C293.957 432.745 294.995 429.361 296.826 430.343C297.428 430.726 297.754 431.572 297.318 432.199H297.316Z" fill="#121212"/>
<path d="M264.689 450.487C264.689 450.487 264.689 450.473 264.686 450.466C264.683 450.459 264.679 450.454 264.674 450.449C264.669 450.443 264.662 450.438 264.657 450.437C264.664 450.437 264.669 450.443 264.674 450.449C264.679 450.454 264.683 450.459 264.686 450.466C264.689 450.473 264.689 450.48 264.689 450.487Z" fill="white"/>
<path d="M251.273 443.608C257.147 441.425 264.389 444.918 267.612 449.995C268.405 452.48 265.481 452.698 264.688 450.486C264.771 450.569 264.661 450.431 264.606 450.378C264.551 450.323 264.633 450.404 264.633 450.431C264.105 449.796 263.521 449.212 262.885 448.685C260.535 446.774 256.218 445.273 253.949 445.656C253.559 445.697 253.176 445.78 252.801 445.902L252.555 445.982C251.08 446.774 249.741 444.427 251.271 443.608H251.273Z" fill="white"/>
<path d="M243.458 431.353C246.601 428.76 254.225 431.573 256.219 434.411C261.41 417.843 283.325 436.731 257.804 439.323C257.706 439.492 257.575 439.639 257.417 439.754C257.259 439.868 257.08 439.949 256.889 439.99C256.698 440.031 256.501 440.033 256.31 439.993C256.119 439.954 255.939 439.873 255.78 439.76C254.14 439.679 253.267 438.096 251.791 437.768H251.681C248.894 437.412 243.592 437.495 242.554 434.464C242.365 433.916 242.35 433.324 242.511 432.766C242.673 432.21 243.003 431.715 243.455 431.353H243.458ZM260.181 436.157C262.449 435.448 265.428 435.311 267.04 433.401C266.985 433.509 267.095 433.264 267.123 433.181C267.16 433.003 267.169 432.819 267.15 432.635H267.123C266.99 432.033 266.641 431.497 266.139 431.135L266.057 431.08C264.582 430.043 262.505 430.262 261.084 431.272C259.664 432.282 259.007 434.601 258.488 436.43L260.181 436.157ZM253.487 435.448C251.957 433.92 247.257 432.472 245.208 433.427C244.963 433.537 245.153 433.619 245.181 433.619C245.208 433.619 251.029 434.629 253.487 435.448Z" fill="white"/>
<path d="M267.123 432.663H267.151C267.178 432.829 267.095 432.856 267.123 432.663Z" fill="white"/>
<path d="M281.358 420.926C281.822 419.208 284.473 419.944 283.981 421.637C283.577 423.27 283.701 424.991 284.337 426.55C285.116 428.432 286.594 429.938 288.463 430.753C292.069 431.871 289.2 436.621 283.517 430.398C282.429 429.105 281.666 427.572 281.289 425.923C280.915 424.277 280.937 422.563 281.358 420.926Z" fill="white"/>
<path d="M162.385 385.636C170.461 391.595 176.831 399.566 180.857 408.754C181.512 410.255 182.114 411.838 182.031 413.476C181.813 417.351 178.069 420.027 174.708 422.073L158.888 431.708C152.959 435.311 146.893 438.995 140.116 440.634C135.717 441.18 131.891 441.235 128.066 439.078C110.686 429.278 138.832 420.217 133.12 402.067L162.385 385.636Z" fill="#03A731"/>
<path d="M179.408 416.587L179.299 416.67C179.324 416.629 179.363 416.599 179.408 416.587Z" fill="#121212"/>
<path d="M162.603 387.491C162.631 387.519 162.631 387.546 162.658 387.546L162.603 387.491Z" fill="#121212"/>
<path d="M121.398 429.388C123.612 423.439 128.858 419.125 131.236 413.203H131.208C132.305 410.689 132.73 407.933 132.437 405.206L132.355 404.769C132.241 403.972 132.059 403.187 131.808 402.421C131.482 400.512 134.186 400.184 135.334 399.227L150.773 390.577L161.647 384.462C162.086 384.216 162.631 384.107 163.069 384.435C170.22 389.694 176.096 396.496 180.256 404.332C187.142 415.222 181.377 420.245 171.676 425.485C160.255 431.653 149.489 441.643 136.016 442.298C129.212 442.571 118.884 437.495 121.398 429.388ZM123.72 432.445C123.779 432.867 123.889 433.279 124.048 433.674C126.316 438.259 134.213 440.579 139.896 439.324C141.794 438.815 143.656 438.185 145.471 437.44L145.827 437.277C152.631 434.274 158.806 430.07 165.173 426.277C169.873 423.083 175.446 420.899 179.3 416.67C179.3 416.723 179.381 416.587 179.408 416.587C181.048 414.649 180.885 412.003 179.847 409.819C176.089 401.036 170.157 393.352 162.605 387.491C153.396 391.504 143.969 397.917 134.732 402.777C138.286 416.151 125.415 422.046 123.72 432.445Z" fill="#121212"/>
<path d="M178.643 403.814C168.669 417.734 152.631 425.568 136.919 431.327C132.164 432.991 127.027 434.193 121.971 433.291C120.058 432.637 121.206 430.017 123.092 430.726C129.786 431.626 137.383 428.324 143.805 425.703C155.608 420.708 167.304 414.077 175.31 403.731C175.719 403.268 176.812 401.03 178.151 401.93C178.726 402.313 179.081 403.185 178.643 403.814Z" fill="#121212"/>
<path d="M132.52 413.721C138.366 411.92 145.335 415.633 148.368 420.681C149.243 422.211 146.893 423.602 146.018 422.073C145.143 420.545 144.598 419.972 143.204 418.907C141.373 417.296 136.7 415.55 134.651 415.986C134.163 416.04 133.685 416.16 133.23 416.342C131.562 416.86 130.825 414.185 132.52 413.721Z" fill="white"/>
<path d="M148.367 403.977L148.312 404.032C148.34 404.032 148.34 404.004 148.367 403.977Z" fill="white"/>
<path d="M123.72 402.804C125.688 398 135.251 401.494 137.466 404.796C143.121 388.392 164.489 407.907 138.858 409.736C137.356 411.62 134.787 408.944 133.366 408.125C130.088 407.361 123.12 407.744 123.72 402.804ZM145.662 401.084C145.581 401.084 145.471 401.056 145.662 401.084V401.084ZM140.335 406.815C142.607 406.484 144.84 405.926 147.001 405.151C147.427 404.957 147.818 404.69 148.149 404.36L148.232 404.25H148.204L148.313 404.004V404.087C148.313 404.114 148.34 403.949 148.368 403.949C148.559 403.403 148.285 402.832 147.986 402.394H148.012L147.904 402.286C147.579 401.887 147.168 401.57 146.7 401.357H146.675C145.968 401.09 145.21 400.998 144.46 401.084C144.433 401.084 144.27 401.084 144.35 401.111C143.762 401.185 143.193 401.379 142.681 401.679C142.171 401.978 141.724 402.38 141.373 402.859C140.854 403.458 139.979 405.67 139.651 406.925L140.335 406.815ZM127.191 404.142C129.568 405.179 132.274 404.878 134.677 405.751C132.656 403.814 129.678 403.24 127 403.24C126.945 403.24 126.426 403.378 126.343 403.568C126.581 403.819 126.869 404.015 127.191 404.142Z" fill="white"/>
<path d="M147.903 402.313L147.986 402.422C147.947 402.396 147.919 402.356 147.903 402.313Z" fill="white"/>
<path d="M148.205 404.277L148.15 404.36C148.122 404.36 148.15 404.305 148.205 404.277Z" fill="white"/>
<path d="M162.986 392.105C163.45 390.412 166.101 391.121 165.61 392.841C164.709 396.116 166.184 398.273 168.288 401.193C169.244 402.148 171.676 402.23 171.265 404.004C170.036 406.734 166.046 402.967 164.9 401.629C163.849 400.307 163.127 398.753 162.796 397.096C162.462 395.441 162.527 393.729 162.986 392.105Z" fill="white"/>
<path d="M118.884 81.2248C116.008 86.2199 115.011 92.0735 116.07 97.7382C117.026 102.761 119.213 106.992 120.906 109.938C124.595 116.326 130.77 110.457 136.345 115.016C144.269 107.728 132.738 92.6899 134.651 89.2231L137.109 84.7466C139.678 80.7063 140.144 75.7936 142.494 71.6726C144.242 68.3964 146.838 63.4305 148.067 61.1364C149.024 59.3077 145.827 58.4887 144.706 58.408C143.585 58.3255 142.985 59.227 140.934 57.6988L140.799 57.6439L136.044 56.2788C134.213 55.8426 132.52 56.9347 132.52 56.9347L126.917 56.3062C126.596 56.2599 126.268 56.3423 126.006 56.5363C125.745 56.7304 125.571 57.0205 125.523 57.3434C123.885 68.1251 123.557 73.0102 118.884 81.2266V81.2248Z" fill="white"/>
<path d="M117.435 80.4332C121.48 73.3639 122.109 68.9973 123.393 60.3173C123.556 59.3077 123.692 58.2431 123.885 57.0961C124 56.3611 124.399 55.7 124.997 55.2553C125.595 54.8106 126.343 54.62 127.082 54.7213L132.163 55.2673C132.983 54.8844 134.623 54.2851 136.399 54.7213L141.207 56.0864C141.453 56.1534 141.685 56.265 141.891 56.4144C142.792 57.0961 143.066 57.0428 143.557 56.9329C143.958 56.8213 144.374 56.7835 144.788 56.823C144.843 56.823 148.367 57.0961 149.515 59.1703C149.746 59.5944 149.864 60.0701 149.859 60.5526C149.854 61.0351 149.727 61.5073 149.488 61.928L143.941 72.4641V72.5191C142.902 74.3203 142.247 76.3139 141.563 78.4414C140.881 80.5706 139.951 83.3265 138.531 85.6189L136.098 90.0129C135.825 90.7496 136.946 93.7253 137.766 95.882C140.143 102.187 143.366 110.812 137.465 116.243L136.399 117.226L135.306 116.324C133.229 114.605 130.989 114.713 128.612 114.796C125.66 114.932 121.971 115.096 119.486 110.811C117.818 107.917 115.496 103.441 114.457 98.0919C113.335 92.0391 114.39 85.7837 117.435 80.4332ZM117.655 97.4652C118.583 102.35 120.77 106.471 122.3 109.174C123.83 111.877 125.387 111.659 128.447 111.521C130.688 111.439 133.42 111.331 136.071 112.886C139.105 108.82 136.645 102.325 134.677 97.029C133.202 93.1535 132.163 90.3701 133.202 88.459L135.634 83.9825L135.689 83.9001C136.946 81.9632 137.656 79.7515 138.421 77.4317C139.186 75.1119 139.842 73.0102 141.044 70.9084L146.454 60.6453C146.045 60.3998 144.241 60.0168 144.051 59.9894C144.008 59.9911 143.968 60.0065 143.934 60.0306C143.901 60.0546 143.874 60.0872 143.858 60.1267C143.831 60.2298 143.794 60.3311 143.75 60.4272C142.902 62.3384 142.055 64.2478 141.182 66.1589C140.307 68.0701 139.158 70.7178 138.175 73.0376C138.067 73.2282 137.984 73.4463 137.874 73.6661C137.862 73.7108 137.853 73.7571 137.847 73.8018C137.819 73.8327 137.8 73.8704 137.793 73.9117C137.707 74.0988 137.635 74.2894 137.573 74.4852C137.467 74.8303 137.231 75.1205 136.917 75.2974C136.602 75.4742 136.231 75.5257 135.88 75.4399C135.536 75.3386 135.246 75.1085 135.069 74.7977C134.89 74.4886 134.838 74.1211 134.924 73.7743C135.115 73.1836 135.352 72.6084 135.634 72.0555C136.181 70.7814 136.727 69.5262 137.274 68.2899C138.23 66.1057 139.213 63.9233 140.196 61.7391L140.771 60.4015C140.822 60.2847 140.848 60.1576 140.848 60.0289C140.846 59.9001 140.817 59.773 140.762 59.658C140.709 59.5412 140.63 59.4382 140.532 59.3558C140.435 59.2716 140.32 59.2098 140.196 59.1755L135.579 57.9203C135.34 57.8396 135.093 57.7932 134.842 57.7829C134.727 57.7726 134.613 57.8018 134.517 57.867C134.422 57.9323 134.353 58.0284 134.323 58.1383C134.268 58.274 134.24 58.4388 134.213 58.5212C134.077 59.3128 133.858 60.1319 133.638 60.9235C133.42 61.7151 132.956 63.2708 132.6 64.4453C131.89 66.7925 131.125 69.0849 130.388 71.4047C130.197 72.0057 129.977 72.5775 129.841 73.1785C129.74 73.527 129.504 73.8224 129.188 74.0009C128.871 74.1795 128.498 74.2276 128.146 74.1349C127.807 74.0267 127.522 73.7966 127.343 73.4875C127.166 73.1784 127.113 72.8161 127.19 72.4693C127.328 71.9782 127.491 71.4871 127.654 70.996L128.639 67.967C129.404 65.5099 130.197 63.0819 130.879 60.5972C131.015 60.1886 131.125 59.7782 131.235 59.342C131.263 59.239 131.268 59.1325 131.251 59.0261C131.233 58.9213 131.194 58.8217 131.134 58.7325C131.075 58.6449 130.996 58.5693 130.905 58.5144C130.814 58.4594 130.713 58.4251 130.606 58.4131L127.792 58.0851C127.594 58.0679 127.397 58.1263 127.24 58.2482C127.084 58.3701 126.979 58.5453 126.944 58.741C126.834 59.4502 126.754 60.1336 126.644 60.8153C125.332 69.6034 124.622 74.4628 120.278 82.0782C117.608 86.7384 116.678 92.192 117.655 97.472V97.4652Z" fill="#121212"/>
<path d="M105.031 150.496C105.633 150.333 111.918 190.51 111.918 193.376C111.918 194.222 125.333 184.342 127.766 182.622C138.587 174.898 146.974 170.203 153.479 167.393L141.92 159.722C137.048 156.491 133.253 151.882 131.018 146.485L111.07 92.4427C124.322 92.4427 135.826 88.6221 135.826 88.6221C141.674 110.84 153.642 138.298 153.642 138.298C153.642 138.298 194.22 163.599 197.197 165.183C201.27 167.339 208.127 171.678 213.839 182.896C221.436 197.881 213.566 228.451 224.085 242.725C189.465 232.109 169.136 246.683 136.674 237.457C136.674 236.448 138.449 235.356 138.449 234.483C141.783 228.805 139.269 207.489 138.996 207.326C138.723 207.161 123.53 217.424 110.469 225.666C101.751 231.152 90.7942 224.739 89.2367 217.396L80.2479 167.039L86.9693 156.176C92.1058 155.684 98.009 154.373 105.031 150.498V150.496Z" fill="white"/>
<path d="M80.7122 140.971C80.9718 141.093 81.2537 141.157 81.5408 141.159C81.8261 141.159 82.1098 141.099 82.3711 140.978C82.6306 140.858 82.861 140.683 83.0467 140.467C83.2323 140.249 83.3681 139.993 83.4438 139.716L83.7171 138.762H83.7721C84.0317 138.883 84.3153 138.947 84.6007 138.949C84.8878 138.949 85.1714 138.889 85.431 138.768C85.6905 138.648 85.9226 138.473 86.1083 138.255C86.2922 138.037 86.428 137.781 86.5054 137.506L87.9253 132.13C88.0594 132.168 88.1969 132.178 88.3344 132.161C88.4702 132.144 88.6026 132.099 88.7229 132.03C88.8415 131.962 88.9464 131.871 89.0306 131.761C89.1149 131.651 89.175 131.526 89.2094 131.393L90.7136 125.797C90.8425 125.341 90.8012 124.853 90.595 124.425C90.3887 123.998 90.0311 123.661 89.5928 123.478L81.068 119.93C77.8156 124.434 73.0333 130.003 74.5374 137.561C76.5349 138.804 78.5961 139.945 80.7122 140.973V140.971Z" fill="white"/>
<path d="M72.9788 133.111C73.5237 127.815 76.7761 123.421 79.8635 119.272C80.1919 118.836 80.8211 118.398 81.421 118.644L88.6358 121.645C90.1932 122.246 91.7782 122.82 92.0773 124.702C92.3781 126.586 91.5582 127.65 91.2591 129.123C91.039 129.888 90.8207 130.679 90.6299 131.443C90.5525 131.886 90.36 132.3 90.0729 132.645C89.7858 132.99 89.4111 133.253 88.9899 133.409C88.6633 134.72 88.3075 136.057 87.9516 137.395C87.5975 138.732 86.3134 140.371 84.6459 140.343C83.9892 142.282 81.8043 142.991 80.0286 142.144C77.854 141.109 75.7464 139.943 73.7163 138.65C73.3845 138.356 73.1782 137.946 73.1421 137.503C72.8825 136.054 72.8275 134.574 72.9788 133.109V133.111ZM88.9899 124.731C86.5042 123.667 84.0167 122.657 81.531 121.62C80.656 122.794 79.8085 123.94 79.0161 125.141L79.4269 125.36L81.8319 126.56L87.6783 129.481L88.2525 129.754C88.6358 128.308 89.0174 126.833 89.4283 125.36C89.4231 125.224 89.3784 125.093 89.3011 124.982C89.2237 124.87 89.1154 124.784 88.9899 124.731ZM86.5592 131.964L78.1978 127.788L77.5961 127.515C77.3228 128.061 77.0495 128.607 76.8037 129.153C76.4685 129.989 76.1848 130.846 75.9562 131.718L76.147 131.8L83.7434 136.249L85.1926 137.096C85.6292 135.676 85.9575 134.258 86.3117 132.838L86.5592 131.964ZM75.7103 136.495C75.7413 136.574 75.7602 136.656 75.7654 136.741C77.5411 137.805 79.3719 138.815 81.2577 139.716C81.2577 139.716 81.8594 139.852 82.1052 139.416L82.351 138.597L75.7654 134.749L75.6278 134.666C75.6158 135.278 75.6433 135.887 75.7103 136.495Z" fill="#121212"/>
<path d="M90.8766 137.014L91.5865 132.975C91.6381 132.695 91.7498 132.429 91.9131 132.195C92.0782 131.962 92.2896 131.768 92.5371 131.624C92.7847 131.481 93.0597 131.393 93.3434 131.368C93.627 131.342 93.9141 131.378 94.1823 131.474L101.588 134.149C100.878 136.607 100.933 139.199 100.66 141.82L92.2432 139.199C91.7877 139.065 91.3957 138.77 91.1447 138.367C90.892 137.965 90.7975 137.484 90.8766 137.015V137.014Z" fill="white"/>
<path d="M89.5642 136.631C89.7825 135.293 90.0283 133.955 90.2466 132.618C90.3893 132.008 90.6953 131.448 91.1337 131C91.572 130.552 92.1255 130.234 92.7341 130.08C93.8549 129.834 94.7832 130.243 95.794 130.626L99.428 131.936L101.943 132.836C102.625 133.081 103.117 133.737 102.899 134.501C102.694 135.236 102.539 135.983 102.435 136.739C102.244 138.404 102.189 140.123 102.024 141.816C101.943 142.663 101.206 143.399 100.303 143.126L91.9966 140.561C90.2208 140.097 89.2358 138.432 89.5642 136.631ZM92.5708 137.887L99.428 140.017C99.5655 138.324 99.6481 136.66 99.9747 135.022C97.8173 134.258 95.7132 133.438 93.5541 132.729C93.4956 132.704 93.4303 132.692 93.3667 132.695C93.3031 132.698 93.2395 132.716 93.1845 132.748C93.1277 132.781 93.0796 132.825 93.0452 132.879C93.0091 132.932 92.9868 132.994 92.9799 133.057C92.6791 134.422 92.4883 135.813 92.2149 137.178C92.2424 137.178 91.9966 137.779 92.5708 137.887Z" fill="#121212"/>
<path d="M80.3556 165.564C80.7939 165.481 80.6564 163.625 80.9297 163.843C82.2414 164.798 82.4046 170.557 82.9513 171.895C83.6355 176.126 84.3455 180.384 85.0554 184.615C87.187 195.587 88.1978 206.913 90.9036 217.75C93.7451 223.645 101.477 226.756 107.571 224.301C111.424 222.445 114.839 219.714 118.474 217.505C124.322 213.737 130.087 209.834 135.963 206.094C136.443 205.718 136.965 205.397 137.52 205.14C137.328 201.237 137.165 197.306 137.493 193.431C137.794 191.793 137.52 188.135 139.951 188.408C140.58 188.626 141.182 189.39 140.909 190.101C140.611 190.901 140.41 191.736 140.307 192.584C139.896 195.778 140.034 201.673 140.28 205.794C140.28 206.177 140.362 206.668 140.362 207.186C140.493 208.064 140.575 208.948 140.608 209.834C140.962 217.367 142.985 229.049 138.339 235.381C165.391 242.969 193.781 230.987 220.806 239.257C210.996 219.033 222.664 193.13 207.662 174.843C202.062 167.12 192.989 163.708 185.311 158.548C174.636 151.944 163.952 145.311 153.258 138.652C152.676 138.363 152.211 137.881 151.947 137.287C149.779 132.264 147.702 127.197 145.717 122.083C141.701 111.712 137.957 101.203 134.978 90.4491C128.721 93.7511 121.37 94.5427 114.403 93.6961C119.685 108.963 124.951 124.238 130.197 139.524C132.327 148.094 137.52 154.837 145.17 159.259L152.712 164.254L152.985 164.362L182.059 183.659C183.561 184.533 182.197 186.907 180.665 186.006L159.488 171.95L153.095 167.719C138.612 173.969 126.562 184.395 113.42 192.885C113.801 194.33 114.185 195.805 114.539 197.279C114.894 198.752 112.354 199.708 111.89 197.988C111.697 196.788 110.112 191.138 110.086 190.264C109.786 187.945 109.43 185.652 109.101 183.331C107.489 172.741 105.851 162.124 104.047 151.561C101.828 153.218 99.3423 154.482 96.6967 155.301C93.8552 156.175 89.0453 156.556 86.0937 156.829C85.3562 156.911 86.5596 156.12 86.5596 155.436C86.5596 154.753 87.187 154.154 87.9245 154.073C90.5752 153.826 93.1985 153.499 95.7667 152.735C97.7402 152.14 99.6174 151.267 101.342 150.143C101.204 150.067 101.075 149.976 100.958 149.869C100.834 149.744 100.736 149.595 100.669 149.432C100.604 149.267 100.573 149.092 100.577 148.915C100.57 148.738 100.599 148.561 100.666 148.396C100.731 148.231 100.831 148.082 100.958 147.96C101.085 147.828 101.238 147.723 101.409 147.653C101.577 147.582 101.759 147.548 101.943 147.55C102.954 147.605 103.992 147.632 105.003 147.632H105.058C105.356 147.599 105.656 147.678 105.899 147.855C106.143 148.032 106.31 148.293 106.37 148.587C107.107 153.254 107.872 157.894 108.61 162.533C110.059 171.704 111.561 180.875 112.79 190.074C125.169 181.802 136.781 172.195 150.389 165.945C140.881 159.995 130.935 153.8 128.202 142.089L111.125 92.4684C110.987 92.2778 110.987 90.3667 112.545 89.9838C113.646 89.7399 114.779 89.6575 115.905 89.7382C116.78 89.7657 117.217 90.4749 117.217 91.184C123.447 91.5395 129.869 90.5556 135.143 87.0904C135.853 86.5444 136.946 87.1454 137.137 87.9095C141.564 104.423 147.738 120.418 154.434 136.138C169.654 145.527 184.71 155.217 200.148 164.252C213.32 172.522 219.03 187.314 218.702 202.408C219.577 215.181 217.526 229.62 224.987 240.811C225.102 240.96 225.176 241.139 225.198 241.326C225.222 241.511 225.197 241.702 225.123 241.875C225.133 241.989 225.105 242.104 225.047 242.202C224.989 242.299 224.901 242.377 224.796 242.421C224.057 243.404 216.598 244.578 217.8 242.421C217.794 242.265 217.775 242.111 217.746 241.958C217.671 241.729 217.652 241.486 217.691 241.249C213.411 240.236 209.065 239.533 204.685 239.147C183.097 237.454 161.101 243.895 139.815 238.628C139.934 238.723 140.017 238.855 140.053 239.004C140.087 239.152 140.07 239.308 140.006 239.447C139.078 240.402 137.656 238.709 136.7 238.328C136.212 238.06 135.793 237.687 135.47 237.236C135.334 237.11 135.226 236.958 135.15 236.789C135.076 236.621 135.035 236.437 135.033 236.254C135.088 234.48 136.645 233.523 137.3 231.995C139.515 224.299 138.366 216.055 137.684 208.194C130.115 213.026 122.654 218.102 115.085 222.934C112.409 224.653 109.758 226.646 106.616 227.438C98.9366 229.347 89.4544 224.462 87.6512 216.519C85.6021 204.947 83.8263 193.319 81.8322 181.748C81.0397 176.971 80.2198 172.221 79.4548 167.444C79.2623 166.68 79.5081 165.808 80.3556 165.562V165.564Z" fill="#121212"/>
<path d="M171.811 219.524L171.702 219.469C171.811 219.469 171.867 219.552 171.811 219.524Z" fill="#03A731"/>
<path d="M177.851 207.87H177.769C177.878 207.787 177.934 207.815 177.851 207.87Z" fill="#03A731"/>
<path d="M174.874 208.006L174.736 207.923C174.736 207.923 174.791 207.923 174.874 208.006Z" fill="#03A731"/>
<path d="M179.654 206.477C179.601 206.505 179.601 206.56 179.573 206.586C179.545 206.614 179.627 206.477 179.654 206.477Z" fill="#03A731"/>
<path d="M176.512 196.898C176.494 196.898 176.467 196.923 176.431 196.979C176.458 196.951 176.486 196.898 176.512 196.898Z" fill="#03A731"/>
<path d="M180.283 204.048C180.311 204.075 180.283 204.103 180.311 204.158C180.338 204.213 180.283 204.267 180.283 204.048Z" fill="#03A731"/>
<path d="M157.359 219.988C157.352 219.942 157.343 219.897 157.331 219.852C157.386 219.961 157.386 220.016 157.359 219.988Z" fill="#03A731"/>
<path d="M145.117 207.487C145.717 206.711 146.482 206.077 147.357 205.631C142.739 201.592 142.985 190.755 150.8 191.492C150.855 182.541 163.45 178.801 166.813 187.945C173.452 184.723 183.481 190.728 178.862 198.288C185.256 201.154 183.862 210.162 176.895 210.899C181.048 216.33 175.939 226.13 169.244 221.08C166.02 226.238 155.417 227.44 154.597 219.96C148.122 221.052 140.362 213.547 145.117 207.487ZM146.373 211.227C146.392 211.184 146.403 211.137 146.401 211.089C146.394 211.136 146.386 211.18 146.373 211.227ZM151.237 194.495C151.182 194.44 151.101 194.385 151.237 194.495V194.495ZM175.365 217.668C175.338 217.695 175.338 217.75 175.31 217.778C175.338 217.747 175.356 217.709 175.365 217.668ZM146.728 213.191C147.766 215.511 150.253 216.904 152.686 217.285C152.167 217.231 153.232 217.34 153.368 217.312C153.504 217.285 154.57 217.231 154.051 217.285C154.898 217.231 155.527 216.74 156.074 216.139C157.14 215.047 159.051 216.467 158.204 217.778C157.905 218.241 157.413 218.569 157.358 219.141V219.088C157.358 219.141 157.303 219.278 157.331 219.306C157.317 219.488 157.317 219.67 157.331 219.852C157.377 220.139 157.451 220.422 157.549 220.697C157.542 220.697 157.535 220.695 157.53 220.69C157.525 220.685 157.521 220.678 157.521 220.669C157.604 220.807 157.604 220.861 157.576 220.779C158.151 222.472 160.719 222.771 161.865 222.58C162.548 222.453 163.215 222.261 163.861 222.007H163.806C165.364 221.27 166.921 220.151 167.55 218.487C167.769 216.139 170.419 215.949 170.555 218.404C170.583 218.432 170.61 218.595 170.638 218.569C170.873 218.993 171.25 219.321 171.703 219.496H171.676C171.905 219.594 172.142 219.666 172.386 219.714H172.358C172.577 219.742 172.797 219.742 173.015 219.714C172.905 219.769 173.151 219.714 173.178 219.742C173.206 219.769 173.178 219.714 173.151 219.714C175.939 219.196 176.048 214.992 175.174 213.464C174.583 212.195 173.801 211.026 172.85 209.997C171.676 208.742 173.369 206.968 174.736 207.951L174.901 208.033H174.873C175.427 208.218 176.013 208.284 176.594 208.224H176.539L176.757 208.169C177.101 208.103 177.44 208.012 177.77 207.896H177.742C178.129 207.739 178.495 207.538 178.836 207.296C179.107 207.089 179.355 206.85 179.573 206.585C179.573 206.594 179.57 206.601 179.565 206.606C179.56 206.611 179.553 206.613 179.546 206.613C179.573 206.585 179.682 206.477 179.654 206.477C179.917 206.13 180.108 205.734 180.216 205.311C180.324 204.891 180.347 204.451 180.283 204.02C180.311 203.857 179.9 202.737 180.065 203.174C179.491 201.783 178.207 200.636 176.677 200.418H176.704C174.791 200.881 173.452 198.644 175.448 197.742H175.338C175.771 197.564 176.149 197.272 176.431 196.898C176.376 197.006 176.486 196.898 176.512 196.815C177.442 195.805 177.304 193.539 177.031 193.075C176.697 192.27 176.149 191.573 175.448 191.056C174.628 190.264 171.839 189.418 170.119 189.801H170.009C167.332 190.237 164.872 191.602 162.713 193.185C161.527 194.119 160.446 195.182 159.49 196.352C159.516 196.352 159.516 196.324 159.543 196.297C158.843 197.229 158.247 198.235 157.767 199.298C156.866 201.074 156.566 204.867 157.74 207.241C158.916 209.616 161.511 211.991 164.27 210.816H164.19C165.855 210.08 167.086 208.579 167.851 206.968C167.851 206.968 167.987 206.668 167.987 206.64C168.889 204.703 168.343 201.7 165.938 201.237H165.255C164.571 201.264 164.08 201.755 163.834 202.384L163.889 202.301C163.777 202.59 163.703 202.894 163.67 203.201C163.665 203.155 163.676 203.107 163.696 203.065C163.648 203.409 163.638 203.757 163.67 204.102V204.048C163.751 204.539 163.834 205.057 164.162 205.44H163.997C164.052 205.44 164.107 205.468 164.162 205.44H164.19C164.19 205.44 164.191 205.454 164.196 205.459C164.202 205.464 164.209 205.468 164.215 205.468C164.27 205.548 164.435 205.631 164.298 205.495C164.353 205.468 164.38 205.44 164.215 205.44L164.38 205.385L164.516 205.303C164.501 205.317 164.49 205.337 164.489 205.358L164.599 205.275H164.626C164.752 205.059 164.826 204.817 164.845 204.566C164.845 204.621 164.817 204.649 164.817 204.676C164.353 202.602 167.277 201.918 167.55 204.102C167.358 210.681 159.736 208.77 161.02 202.464C161.374 198.889 165.8 197.416 168.534 199.49C174.954 204.185 168.178 215.676 160.937 213.627C155.335 211.936 153.177 205.03 154.707 199.817C156.102 195.014 159.981 191.301 164.298 188.982C164.298 188.927 164.298 188.817 164.27 188.844C163.916 187.699 163.041 186.825 162.166 186.033C162.085 185.978 161.647 185.678 162.058 185.951C161.802 185.738 161.516 185.563 161.21 185.432L161.374 185.487L161.155 185.407C159.856 185.108 158.493 185.242 157.276 185.788L157.358 185.733C156.875 185.965 156.409 186.229 155.964 186.525C155.909 186.579 155.608 186.717 155.909 186.579C153.887 188.108 153.04 190.974 153.805 193.403C154.243 194.686 152.466 195.723 151.537 194.713C151.364 194.514 151.151 194.356 150.908 194.25C150.991 194.25 150.8 194.222 150.772 194.167H150.8C145.744 193.293 146.428 200.473 148.778 203.01C149.506 203.92 150.394 204.688 151.402 205.275C152.767 206.014 151.838 208.224 150.362 207.76C149.956 207.657 149.53 207.652 149.12 207.746C148.711 207.842 148.331 208.033 148.012 208.306C147.903 208.388 147.931 208.361 148.067 208.251C146.619 209.451 145.935 211.472 146.728 213.191Z" fill="#03A731"/>
<path d="M157.331 219.307C157.353 219.255 157.362 219.198 157.359 219.141C157.359 219.251 157.359 219.307 157.331 219.307Z" fill="#03A731"/>
<path d="M170.638 218.542L170.555 218.404C170.591 218.444 170.619 218.491 170.638 218.542Z" fill="#03A731"/>
<path d="M157.577 220.752C157.577 220.738 157.577 220.723 157.572 220.709C157.577 220.723 157.579 220.738 157.577 220.752Z" fill="#03A731"/>
<path d="M164.189 205.548H164.27C164.289 205.548 164.298 205.557 164.298 205.576H164.243C164.243 205.604 164.27 205.604 164.298 205.604H164.243C164.215 205.604 164.189 205.604 164.189 205.576V205.548Z" fill="#03A731"/>
<path d="M161.182 185.515H161.21C161.182 185.515 161.155 185.515 161.155 185.487C161.155 185.494 161.158 185.503 161.163 185.508C161.169 185.513 161.175 185.515 161.182 185.515Z" fill="#03A731"/>
<path d="M150.799 194.277L150.908 194.331C150.887 194.334 150.865 194.331 150.846 194.32C150.825 194.31 150.81 194.296 150.799 194.277Z" fill="#03A731"/>
<path d="M164.271 205.576H164.216C164.327 205.548 164.327 205.576 164.271 205.576Z" fill="#03A731"/>
<path d="M164.27 188.927C164.292 188.968 164.303 189.017 164.298 189.065C164.282 189.046 164.27 189.023 164.265 188.999C164.259 188.975 164.263 188.949 164.27 188.927Z" fill="#03A731"/>
<path d="M163.696 203.174C163.723 202.955 163.696 203.065 163.696 203.174V203.174Z" fill="#03A731"/>
<path d="M163.889 202.41C164.025 202.136 163.916 202.302 163.889 202.41V202.41Z" fill="#03A731"/>
<path d="M165.938 201.372C165.828 201.372 165.664 201.345 165.938 201.372V201.372Z" fill="#03A731"/>
<path d="M164.817 204.757C164.817 204.895 164.762 205.059 164.817 204.757V204.757Z" fill="#03A731"/>
<path d="M163.725 204.432C163.697 204.349 163.697 204.294 163.671 204.211C163.643 204.13 163.725 204.459 163.725 204.432Z" fill="#03A731"/>
<path d="M164.627 205.358L164.516 205.413C164.53 205.396 164.546 205.382 164.565 205.372C164.584 205.363 164.606 205.358 164.627 205.358Z" fill="#03A731"/>
</g>
</g>
<defs>
<clipPath id="clip0_543_10206">
<rect width="378.515" height="499" fill="white" transform="translate(0.485352 0.716522)"/>
</clipPath>
<clipPath id="clip1_543_10206">
<rect width="476" height="471" fill="white" transform="matrix(-1 0 0 1 379 1)"/>
</clipPath>
</defs>
</svg>
