<svg width="379" height="500" viewBox="0 0 379 500" fill="none" xmlns="http://www.w3.org/2000/svg">
<g clip-path="url(#clip0_626_7342)">
<path d="M-20.24 200.238C-20.24 200.238 -31.606 204.944 -39.6885 215.821C-39.6885 215.821 -20.4198 205.258 -1.45956 212.713C17.5007 220.171 -2.34748 195.22 -20.24 200.238Z" fill="#222430"/>
<path d="M168.847 339.939L183.972 328.263L176.906 326.469L159.051 336.536L168.847 339.939Z" fill="#222430"/>
<path d="M300.577 405.296H269.802L260.821 369.386H300.577V405.296Z" fill="white"/>
<path d="M152.285 404.004H113.091V353.256H145.678L152.285 404.004Z" fill="white"/>
<path d="M174.899 205.21H17.1895V261.712H174.899V205.21Z" fill="white"/>
<path d="M421.902 111.7H239.438V215.303H421.902V111.7Z" fill="#54BFB3"/>
<path d="M379.493 184.227C390.944 172.78 390.944 154.222 379.493 142.776C368.043 131.329 349.479 131.329 338.028 142.776C326.578 154.222 326.578 172.78 338.028 184.227C349.479 195.673 368.043 195.673 379.493 184.227Z" fill="white"/>
<path d="M350.782 87.5945H213.294V285.643H350.782V87.5945Z" fill="white"/>
<path d="M359.836 300.878H230.036V93.5933H359.836V111.7H358.763V94.6659H231.109V299.805H358.763V215.303H359.836V300.878Z" fill="#03A731"/>
<path d="M273.021 199.178C254.114 199.178 238.732 183.802 238.732 164.901C238.732 146.001 254.114 130.624 273.021 130.624C291.927 130.624 307.309 146.001 307.309 164.901C307.309 183.802 291.927 199.178 273.021 199.178ZM273.021 144.301C261.657 144.301 252.413 153.542 252.413 164.901C252.413 176.261 261.657 185.502 273.021 185.502C284.384 185.502 293.628 176.261 293.628 164.901C293.628 153.542 284.384 144.301 273.021 144.301Z" fill="white"/>
<path d="M286.026 240.444C262.597 240.444 243.537 221.391 243.537 197.969C243.537 174.547 262.597 155.494 286.026 155.494C309.455 155.494 328.515 174.547 328.515 197.969C328.515 221.391 309.455 240.444 286.026 240.444ZM286.026 169.171C270.14 169.171 257.218 182.091 257.218 197.969C257.218 213.847 270.143 226.767 286.026 226.767C301.909 226.767 314.834 213.847 314.834 197.969C314.834 182.091 301.909 169.171 286.026 169.171Z" fill="white"/>
<path d="M274.813 425.433C274.516 425.433 274.242 425.232 274.164 424.929L261.707 376.538C261.615 376.179 261.83 375.814 262.189 375.723C262.549 375.632 262.914 375.846 263.005 376.206L275.463 424.596C275.554 424.956 275.339 425.32 274.98 425.412C274.923 425.425 274.867 425.433 274.813 425.433Z" fill="#54BFB3"/>
<path d="M196.866 321.889C196.866 321.889 235.036 334.385 252.585 318.094C270.134 301.8 245.426 293.527 245.426 293.527L196.866 321.889Z" fill="#222430"/>
<path d="M69.3875 135.939C79.368 125.962 79.368 109.786 69.3875 99.8083C59.4071 89.8312 43.2255 89.8312 33.2451 99.8084C23.2646 109.786 23.2646 125.962 33.2451 135.939C43.2255 145.916 59.4071 145.916 69.3875 135.939Z" fill="white"/>
<path d="M51.3176 95.5429C63.6332 95.5429 73.6552 105.559 73.6552 117.873C73.6552 130.187 63.6359 140.203 51.3176 140.203C38.9994 140.203 28.9801 130.187 28.9801 117.873C28.9801 105.559 38.9994 95.5429 51.3176 95.5429ZM51.3176 89.1069C35.4262 89.1069 22.542 101.987 22.542 117.873C22.542 133.759 35.4262 146.639 51.3176 146.639C67.209 146.639 80.0933 133.759 80.0933 117.873C80.0933 101.987 67.209 89.1069 51.3176 89.1069Z" fill="white"/>
<path d="M44.5787 240.734H-37.1289V257.706H44.5787V240.734Z" fill="#03A731"/>
<path d="M358.945 345.308H320.438V362.28H358.945V345.308Z" fill="#03A731"/>
<path d="M43.9104 262.115H-9.53125V279.087H43.9104V262.115Z" fill="#FDC0AE"/>
<path d="M375.24 325.672H293.532V342.645H375.24V325.672Z" fill="#FDC0AE"/>
<path d="M248.634 235.094C248.31 234.316 256.553 217.888 260.802 209.508C261.975 207.197 265.113 206.811 266.814 208.768L285.388 230.136C286.338 231.227 286.552 232.777 285.935 234.086L260.346 288.336C259 291.189 254.912 291.106 253.683 288.202C250.349 280.323 245.705 268.685 246.325 266.322C247.277 262.683 248.637 235.094 248.637 235.094H248.634Z" fill="#54BFB3"/>
<path d="M251.394 238.097C251.07 237.32 259.313 220.892 263.562 212.512C264.734 210.2 267.873 209.814 269.574 211.772L288.148 233.139C289.097 234.23 289.312 235.78 288.695 237.089L263.106 291.339C261.759 294.192 257.671 294.109 256.443 291.205C253.108 283.326 248.465 271.688 249.084 269.325C250.037 265.686 251.397 238.097 251.397 238.097H251.394Z" fill="#222430"/>
<path d="M262.358 330.382C262.358 330.382 264.614 334.198 260.539 340.51C257.929 344.554 261.003 351.599 262.095 355.67C264.504 364.637 266.374 373.79 265.982 383.13C265.91 384.83 265.746 386.525 265.617 388.222C262.661 383.999 259.619 379.692 255.421 376.699C252.28 374.46 248.57 372.864 246.582 369.384C244.94 366.506 243.591 363.302 242.797 360.078L241.303 337.703L262.358 330.379V330.382Z" fill="#222430"/>
<path d="M258.069 324.739C258.099 325.066 258.361 325.319 258.689 325.34C261.53 325.52 274.129 325.538 275.865 312.034C277.708 297.708 274.953 277.035 274.615 274.606C274.594 274.453 274.626 274.297 274.709 274.166L282.362 261.849C282.818 261.114 283.121 260.296 283.253 259.444L283.376 258.65C283.484 257.95 283.4 257.236 283.132 256.582L272.614 230.825C272.421 230.35 271.782 230.264 271.471 230.675C271.061 231.214 270.876 231.892 270.953 232.565L272.482 245.48C272.552 246.073 271.865 246.448 271.404 246.07L269 244.104C268.102 243.37 264.183 241.884 263.064 242.195L262.568 244.11C261.747 244.338 261.202 244.74 261.167 245.59L260.001 252.723C259.971 253.42 260.153 254.11 260.526 254.702L262.348 257.601C262.766 258.269 263.359 258.811 264.062 259.17L267.128 260.736C267.128 260.736 260.497 265.182 262.962 271.736C262.978 271.782 263 271.825 263.026 271.865L264.872 274.777C264.982 274.952 265.006 275.166 264.934 275.359L255.864 300.258C255.832 300.35 255.818 300.449 255.827 300.545L258.069 324.734V324.739Z" fill="#FDC0AE"/>
<path d="M155.488 411.609C155.488 411.609 127.858 403.91 135.774 371.322C143.688 338.735 132.568 319.628 132.568 319.628L163.045 354.189L147.963 369.663L155.488 411.609Z" fill="#03A731"/>
<path d="M228.898 141.557C228.898 141.557 225.784 160.613 238.081 191.592C250.377 222.571 208.736 181.635 208.736 181.635L207.336 155.328L228.896 141.56L228.898 141.557Z" fill="#222430"/>
<path d="M235.103 112.936C235.103 130.769 221.626 145.226 205 145.226C188.373 145.226 166.285 130.769 166.285 112.936C166.285 95.1031 188.373 80.6462 205 80.6462C221.626 80.6462 235.103 95.1031 235.103 112.936Z" fill="#222430"/>
<path d="M251.241 215.512C250.721 219.168 249.471 223.268 247.277 227.864L238.212 206.336L223.145 178.661C223.145 178.661 254.455 193.059 251.241 215.512Z" fill="#03A731"/>
<path d="M185.318 158.688C185.318 158.688 203.675 166.661 216.17 167.881L219.204 189.613L238.822 241.401L241.303 308.105C241.303 308.105 225.291 330.427 192.352 322.358C159.413 314.289 189.398 224.737 189.398 224.737L185.318 158.688Z" fill="white"/>
<path d="M185.318 158.688L185.433 160.552L183.797 160.007L191.319 131.563L212.235 149.57L213.297 167.503C201.048 165.518 185.318 158.688 185.318 158.688Z" fill="#FDC0AE"/>
<path d="M203.811 280.991L220.371 250.851C221.412 248.955 224.29 249.647 224.354 251.809C224.749 265.011 223.077 292.999 203.811 308.934C177.978 330.301 203.811 280.991 203.811 280.991Z" fill="white"/>
<path d="M135.498 329.11C135.498 329.11 124.894 326.262 120.64 312.031C116.385 297.799 126.552 293.195 127.239 280.358C127.925 267.521 123.711 214.303 131.906 204.271C140.101 194.239 161.658 190.986 161.658 190.986L183.046 218.701C183.046 218.701 187.845 248.183 194.882 258.29C201.124 267.255 216.071 294.643 203.104 316.08C200.3 320.714 195.928 324.195 190.799 325.941L165.392 334.584L135.498 329.113V329.11Z" fill="#03A731"/>
<path d="M169.408 101.394C169.408 101.394 157.229 119.375 163.81 150.96C163.81 150.96 142.14 182.289 147.894 194.719C153.645 207.146 162.659 214.14 162.659 214.14C162.659 214.14 158.691 235.298 192.706 247.979C192.706 247.979 198.548 251.171 202.61 241.114C206.671 231.058 215.475 209.034 196.869 182.853C178.26 156.672 194.726 128.176 194.726 128.176L169.411 101.392L169.408 101.394Z" fill="#222430"/>
<path d="M200.694 148.031C200.694 148.031 200.831 161.874 215.749 164.475C230.666 167.079 217.133 153.947 217.133 153.947L200.697 148.031H200.694Z" fill="#222430"/>
<path d="M214.139 160.007C224.71 160.007 233.279 147.52 233.279 132.115C233.279 116.711 224.71 104.223 214.139 104.223C203.568 104.223 194.999 116.711 194.999 132.115C194.999 147.52 203.568 160.007 214.139 160.007Z" fill="#FDC0AE"/>
<path d="M213.101 139.89C224.736 139.89 234.167 129.86 234.167 117.487C234.167 105.114 224.736 95.0844 213.101 95.0844C201.467 95.0844 192.035 105.114 192.035 117.487C192.035 129.86 201.467 139.89 213.101 139.89Z" fill="#FDC0AE"/>
<path d="M190.24 125.899C190.24 125.899 198.626 127.162 200.694 116.961C202.762 106.76 213.71 96.2321 219.515 94.5534C225.323 92.8747 208.736 90.0455 208.736 90.0455L192.032 95.3472L190.24 125.902V125.899Z" fill="#222430"/>
<path d="M194.063 142.294C198.156 141.248 200.247 135.598 198.732 129.674C197.217 123.751 192.671 119.798 188.577 120.844C184.484 121.89 182.393 127.54 183.908 133.463C185.422 139.386 189.969 143.34 194.063 142.294Z" fill="#FDC0AE"/>
<path d="M217.131 174.448C217.131 174.448 230.959 178.205 238.224 198.476C245.488 218.747 243.699 213.381 249.029 220.774C254.359 228.167 262.359 330.379 262.359 330.379C262.359 330.379 242.036 339.553 242.797 360.078C242.797 360.078 232.185 321.87 236.976 288.51C241.767 255.15 233.409 233.994 219.204 189.61L217.131 174.448Z" fill="#03A731"/>
<path d="M88.5129 307.496C88.5129 307.496 73.4612 288.102 88.5129 254.402C98.449 232.155 98.2049 215.03 96.979 206.21C96.8932 205.585 97.7838 205.37 97.993 205.966C102.478 218.757 110.789 248.293 101.644 271.165C89.6342 301.205 88.5129 307.499 88.5129 307.499V307.496Z" fill="#54BFB3"/>
<path d="M51.3162 155.746C30.4272 155.746 13.4307 138.755 13.4307 117.873C13.4307 96.991 30.4272 80 51.3162 80C72.2052 80 89.2018 96.991 89.2018 117.873C89.2018 138.755 72.2052 155.746 51.3162 155.746ZM51.3162 81.0727C31.0174 81.0727 14.5037 97.581 14.5037 117.873C14.5037 138.165 31.0174 154.674 51.3162 154.674C71.615 154.674 88.1287 138.165 88.1287 117.873C88.1287 97.581 71.615 81.0727 51.3162 81.0727Z" fill="#FDC0AE"/>
<path d="M51.3166 119.418C52.17 119.418 52.8618 118.726 52.8618 117.873C52.8618 117.02 52.17 116.328 51.3166 116.328C50.4633 116.328 49.7715 117.02 49.7715 117.873C49.7715 118.726 50.4633 119.418 51.3166 119.418Z" fill="#FDC0AE"/>
<path d="M50.8014 118.967L50.2783 90.5846L51.3513 90.5658L51.8342 116.779L64.5602 106.696L65.2281 107.535L50.8014 118.967Z" fill="#FDC0AE"/>
<path d="M177.691 245.888C178.209 247.169 178.738 248.432 179.293 249.674C179.561 250.296 179.862 250.91 180.13 251.527L180.996 253.353C182.169 255.775 183.437 258.124 184.746 260.433C185.084 261.004 185.422 261.575 185.75 262.152L185.994 262.584L186.257 263.007C186.434 263.289 186.603 263.573 186.774 263.857L187.281 264.713L187.531 265.145C187.614 265.287 187.708 265.423 187.796 265.566L188.848 267.258C189.022 267.539 189.181 267.834 189.371 268.108L189.929 268.934L191.05 270.591C191.842 271.664 192.665 272.715 193.508 273.753L194.844 275.249L195.511 276L195.847 276.375L196.204 276.764C196.676 277.287 197.167 277.789 197.617 278.333L198.304 279.135C198.535 279.4 198.747 279.685 198.969 279.958C199.852 281.055 200.657 282.221 201.435 283.399C202.186 284.597 202.902 285.815 203.519 287.091C204.739 289.642 205.67 292.353 206.03 295.158C206.207 296.558 206.268 297.974 206.142 299.376C206.016 300.779 205.753 302.157 205.19 303.471L204.82 303.313C205.018 302.693 205.134 302.015 205.209 301.352C205.281 300.685 205.305 300.014 205.289 299.344C205.273 298.006 205.083 296.676 204.788 295.378C204.192 292.779 203.106 290.32 201.746 288.041C201.072 286.896 200.305 285.804 199.511 284.74C198.688 283.691 197.848 282.661 196.928 281.69C196.7 281.446 196.485 281.194 196.249 280.956L195.549 280.24C195.09 279.757 194.594 279.306 194.114 278.843L193.752 278.497L193.376 278.129L192.625 277.392L191.12 275.914C190.627 275.413 190.168 274.882 189.688 274.367C189.216 273.844 188.719 273.342 188.258 272.809L186.901 271.186L186.219 270.374C185.988 270.103 185.79 269.813 185.575 269.532L184.328 267.816C184.119 267.529 183.923 267.234 183.74 266.931L183.185 266.027L182.641 265.115L182.372 264.657L182.128 264.185C181.804 263.554 181.49 262.922 181.179 262.286C179.998 259.714 179.017 257.054 178.324 254.319C178.163 253.63 178.003 252.946 177.863 252.254C177.742 251.557 177.611 250.867 177.522 250.168L177.399 249.119C177.364 248.77 177.34 248.416 177.318 248.065C177.273 247.362 177.257 246.657 177.294 245.944L177.694 245.888H177.691Z" fill="#222430"/>
<path d="M199.812 437.042C199.777 437.042 199.739 437.042 199.705 437.034C199.34 436.975 199.09 436.632 199.149 436.264L215.628 334.053C215.687 333.688 216.03 333.436 216.398 333.498C216.763 333.557 217.012 333.9 216.953 334.267L200.474 436.479C200.421 436.809 200.136 437.042 199.812 437.042Z" fill="#54BFB3"/>
<path d="M224.046 419.418C223.772 419.418 223.515 419.249 223.415 418.976L208.608 378.112C208.482 377.764 208.661 377.38 209.01 377.254C209.359 377.128 209.742 377.308 209.868 377.657L224.676 418.52C224.802 418.868 224.622 419.252 224.274 419.378C224.199 419.405 224.121 419.418 224.046 419.418Z" fill="#54BFB3"/>
<path d="M171.154 368.102C171.071 368.102 170.985 368.086 170.902 368.053C170.559 367.914 170.392 367.522 170.532 367.179L176.283 353.007C176.423 352.663 176.814 352.497 177.158 352.637C177.501 352.776 177.667 353.167 177.528 353.511L171.776 367.683C171.672 367.943 171.42 368.102 171.154 368.102Z" fill="#54BFB3"/>
<path d="M155.979 186.382C155.915 186.382 155.848 186.365 155.789 186.333C155.593 186.229 155.52 185.985 155.625 185.789C155.74 185.574 167.2 164.156 163.423 151.072C159.598 137.819 157.707 130.008 157.688 129.93C157.637 129.713 157.768 129.495 157.986 129.444C158.2 129.391 158.42 129.525 158.471 129.742C158.49 129.82 160.378 137.615 164.198 150.849C168.067 164.25 156.816 185.282 156.336 186.172C156.263 186.306 156.124 186.384 155.982 186.384L155.979 186.382Z" fill="white"/>
<path d="M220.29 137.865C220.225 137.865 220.161 137.862 220.097 137.854C219.877 137.83 219.716 137.634 219.737 137.412C219.761 137.192 219.957 137.028 220.18 137.052C220.762 137.111 221.4 136.672 221.813 135.929C222.315 135.028 222.5 133.617 221.524 132.36C219.616 129.906 219.415 119.994 219.407 119.573C219.405 119.351 219.579 119.168 219.802 119.163C220.022 119.152 220.207 119.335 220.212 119.557C220.263 122.349 220.711 130 222.157 131.863C223.375 133.429 223.141 135.191 222.516 136.318C221.98 137.286 221.14 137.86 220.29 137.86V137.865Z" fill="#222430"/>
<path d="M211.001 125.899C211.681 125.899 212.232 124.75 212.232 123.333C212.232 121.916 211.681 120.767 211.001 120.767C210.321 120.767 209.77 121.916 209.77 123.333C209.77 124.75 210.321 125.899 211.001 125.899Z" fill="#222430"/>
<path d="M227.302 123.95C227.302 125.21 226.75 126.232 226.071 126.232C225.392 126.232 224.84 125.21 224.84 123.95C224.84 122.689 225.392 121.668 226.071 121.668C226.75 121.668 227.302 122.689 227.302 123.95Z" fill="#222430"/>
<path d="M204.999 116.283C204.932 116.283 204.862 116.267 204.801 116.229C204.608 116.119 204.541 115.875 204.651 115.682C204.672 115.645 206.821 111.979 211.255 112.88C211.472 112.925 211.614 113.137 211.569 113.355C211.526 113.572 211.311 113.711 211.094 113.668C207.239 112.883 205.426 115.95 205.351 116.082C205.276 116.211 205.141 116.283 205.002 116.283H204.999Z" fill="#222430"/>
<path d="M231.05 117.889C230.907 117.889 230.771 117.814 230.696 117.68C229.223 115.004 226.86 115.35 226.758 115.366C226.538 115.403 226.331 115.253 226.296 115.033C226.261 114.816 226.406 114.61 226.626 114.572C226.656 114.567 229.644 114.103 231.401 117.291C231.508 117.487 231.436 117.731 231.243 117.838C231.181 117.873 231.114 117.889 231.05 117.889Z" fill="#222430"/>
<path d="M216.975 146.47C216.953 146.47 216.935 146.47 216.913 146.465C212.643 145.803 211.846 141.67 211.838 141.627C211.798 141.407 211.942 141.198 212.162 141.161C212.382 141.12 212.589 141.265 212.629 141.485C212.659 141.638 213.345 145.097 217.034 145.671C217.254 145.706 217.404 145.91 217.369 146.13C217.337 146.328 217.168 146.47 216.972 146.47H216.975Z" fill="#222430"/>
<path d="M159.217 158.948C153.841 165.505 146.775 171.262 144.047 179.57C141.177 188.31 143.655 199.031 151.48 204.349C153.701 205.858 156.159 207.001 158.554 208.202C161.687 209.776 164.823 211.353 167.956 212.927C168.418 213.158 168.825 212.466 168.361 212.233C163.624 209.851 158.771 207.612 154.141 205.027C150.179 202.815 147.185 199.862 145.434 195.625C143.516 190.986 143.164 185.735 144.492 180.89C145.611 176.805 147.915 173.212 150.576 169.964C153.522 166.371 156.843 163.107 159.788 159.514C160.113 159.117 159.547 158.543 159.219 158.945L159.217 158.948Z" fill="#222430"/>
<path d="M214.399 94.3818C218.855 96.2831 223.067 98.887 226.658 102.145C230.385 105.519 233.66 109.801 234.07 114.972C234.111 115.484 234.915 115.489 234.875 114.972C234.467 109.863 231.468 105.591 227.844 102.151C224.075 98.5733 219.574 95.728 214.804 93.6899C214.332 93.4888 213.922 94.1807 214.399 94.3845V94.3818Z" fill="#222430"/>
<path d="M193.092 178.768C193.787 183.488 197.159 186.87 200.316 190.168C203.908 193.922 206.669 198.379 208.38 203.287C211.521 212.3 211.124 222.386 207.747 231.278C205.861 236.239 202.937 240.932 198.672 244.182C198.264 244.491 198.667 245.191 199.077 244.877C206.315 239.363 209.92 230.12 211.009 221.326C212.251 211.302 209.815 200.884 203.648 192.81C200.145 188.224 194.769 184.647 193.87 178.554C193.795 178.044 193.02 178.262 193.095 178.768H193.092Z" fill="#222430"/>
<path d="M189.629 136.629L183.856 144.239L194.034 143.966L189.629 136.629Z" fill="white"/>
<path d="M90.4388 393.449C90.1035 393.449 89.8111 393.197 89.7735 392.853C86.3747 363.033 75.3951 329.041 66.7788 305.775C57.4382 280.551 48.7896 262.149 48.7038 261.967C48.5455 261.632 48.6904 261.232 49.0257 261.074C49.361 260.916 49.7607 261.06 49.919 261.396C50.0048 261.578 58.6748 280.023 68.0342 305.3C76.6773 328.638 87.6946 362.746 91.1094 392.706C91.1524 393.073 90.8868 393.406 90.5193 393.449C90.4924 393.451 90.4683 393.454 90.4415 393.454L90.4388 393.449Z" fill="#54BFB3"/>
<path d="M89.7868 283.047L86.4902 329.248L87.8281 329.343L91.1247 283.143L89.7868 283.047Z" fill="#54BFB3"/>
<path d="M44.5762 360.727C44.5762 360.727 101.226 383.358 93.4467 326.12L55.4834 332.782L44.5762 360.725V360.727Z" fill="#222430"/>
<path d="M44.5759 360.727C32.8988 364.347 38.7736 391.298 38.7736 391.298C11.6209 370.116 5.02449 350.164 5.04595 335.747C11.13 333.272 20.6583 328.561 17.1898 324.458C14.9848 321.851 10.7893 322.095 6.80034 323.179C7.22686 321.677 7.6963 320.325 8.16306 319.143C9.59554 315.506 12.6644 312.763 16.4199 311.682C72.3429 295.603 93.4464 326.12 93.4464 326.12C96.1344 349.086 56.253 357.107 44.5759 360.727Z" fill="#54BFB3"/>
<path d="M135.63 330.816C135.63 330.816 138.245 297.933 152.06 303.039L157.364 310.465C157.364 310.465 164.716 295.396 148.723 289.971C132.73 284.546 117.429 308.161 130.106 324.114L135.627 330.816H135.63Z" fill="white"/>
<path d="M174.464 342.35L167.675 365.651L143.69 338.738C143.69 338.738 124.469 324.525 131.755 311.409C131.755 311.409 131.755 311.406 131.755 311.403C131.774 311.366 131.796 311.328 131.814 311.293L131.82 311.288C132.042 310.894 132.289 310.502 132.563 310.111C140.637 298.539 150.039 301.315 152.518 302.321C152.912 302.482 153.234 302.777 153.436 303.152L155.764 307.494H155.767L174.459 342.35H174.464Z" fill="#FDC0AE"/>
<path d="M165.405 371.725C165.335 371.725 165.263 371.714 165.193 371.69C164.842 371.572 164.651 371.194 164.769 370.842L176.272 336.327C176.39 335.975 176.768 335.785 177.12 335.903C177.471 336.021 177.662 336.399 177.544 336.75L166.041 371.266C165.947 371.548 165.687 371.725 165.405 371.725Z" fill="#54BFB3"/>
<path d="M358.76 110.397H350.782V220.323H358.76V110.397Z" fill="white"/>
<path d="M427.377 206.129H354.771V210.516H427.377V206.129Z" fill="white"/>
<path d="M171.65 235.909C171.556 235.909 171.465 235.877 171.387 235.813C167.124 232.147 162.36 225.158 161.974 218.47C161.735 214.357 162.98 210.045 164.182 205.872C164.724 203.992 165.236 202.214 165.614 200.468C166.381 196.945 167.103 193.442 167.76 190.061C167.803 189.844 168.012 189.699 168.232 189.742C168.45 189.785 168.592 189.996 168.552 190.214C167.892 193.601 167.17 197.108 166.403 200.637C166.017 202.41 165.502 204.199 164.957 206.092C163.774 210.197 162.548 214.445 162.779 218.422C163.152 224.874 167.776 231.643 171.913 235.201C172.082 235.346 172.101 235.601 171.956 235.77C171.875 235.864 171.763 235.909 171.65 235.909Z" fill="white"/>
<path d="M191.786 132.649H191.78C191.558 132.649 191.381 132.464 191.383 132.241C191.429 128.122 188.046 126.414 187.904 126.345C187.706 126.245 187.622 126.007 187.719 125.805C187.816 125.607 188.057 125.524 188.255 125.62C188.419 125.698 192.239 127.61 192.188 132.25C192.188 132.469 192.006 132.646 191.786 132.646V132.649Z" fill="#222430"/>
<path d="M175.076 415.704C175.014 415.704 174.953 415.691 174.894 415.661C174.695 415.559 174.617 415.318 174.719 415.119L178.869 407.005L171.53 411.081C171.355 411.177 171.138 411.132 171.017 410.976C170.897 410.821 170.905 410.598 171.042 410.453L198.487 381.057C198.64 380.896 198.892 380.885 199.055 381.038C199.219 381.191 199.227 381.443 199.074 381.607L173.37 409.139L179.634 405.661C179.789 405.575 179.983 405.599 180.109 405.723C180.235 405.846 180.267 406.037 180.186 406.195L175.433 415.487C175.361 415.626 175.221 415.707 175.074 415.707L175.076 415.704Z" fill="#54BFB3"/>
<path d="M241.045 411.467C240.902 411.467 240.766 411.392 240.693 411.258C240.586 411.062 240.656 410.818 240.851 410.711L249.709 405.833L235.486 402.588C235.339 402.553 235.221 402.438 235.186 402.29C235.151 402.143 235.199 401.987 235.317 401.888L245.903 392.921C246.072 392.778 246.327 392.797 246.469 392.966C246.614 393.135 246.592 393.39 246.423 393.532L236.452 401.979L250.919 405.28C251.083 405.318 251.203 405.452 251.228 405.616C251.252 405.779 251.169 405.943 251.024 406.023L241.24 411.411C241.179 411.445 241.112 411.462 241.047 411.462L241.045 411.467Z" fill="#54BFB3"/>
<path d="M427.377 159.503C427.082 159.503 426.841 159.262 426.841 158.967V107.49L378.585 107.272C378.29 107.272 378.048 107.031 378.051 106.733C378.051 106.438 378.292 106.2 378.587 106.2L427.911 106.42V158.964C427.911 159.259 427.67 159.501 427.375 159.501L427.377 159.503Z" fill="#03A731"/>
<path d="M398.307 362.293H334.132C333.837 362.293 333.596 362.052 333.596 361.757C333.596 361.462 333.837 361.221 334.132 361.221H398.307C398.602 361.221 398.843 361.462 398.843 361.757C398.843 362.052 398.602 362.293 398.307 362.293Z" fill="#03A731"/>
<path d="M13.0346 257.789H-55.8102C-56.1053 257.789 -56.3467 257.548 -56.3467 257.253C-56.3467 256.958 -56.1053 256.716 -55.8102 256.716H13.0319C13.327 256.716 13.5684 256.958 13.5684 257.253C13.5684 257.548 13.327 257.789 13.0319 257.789H13.0346Z" fill="#03A731"/>
<path d="M155.488 411.609L147.963 369.662C147.963 369.662 130.331 386.793 155.488 411.609Z" fill="#222430"/>
<path d="M160.091 437.889L147.395 370.282C147.716 369.904 148.108 369.499 148.532 369.078L161.408 437.643C161.475 438.007 161.236 438.356 160.872 438.426C160.507 438.493 160.158 438.254 160.088 437.889H160.091Z" fill="#54BFB3"/>
<path d="M338.016 265.096H297.874V278.88H338.016V265.096Z" fill="white"/>
<path d="M326.984 260.328H319.649V280.991H326.984V260.328Z" fill="white"/>
<path d="M55.2868 273.67C1.33278 256.917 -6.03349 227.502 -5.4943 212.581C-4.95511 197.661 -20.2402 200.238 -20.2402 200.238C-9.27132 192.748 6.0916 200.425 6.0916 200.425C27.1737 199.254 40.6106 203.657 48.9586 210.812C47.5825 214.322 46.1876 220.238 49.3101 225.62C52.0194 230.288 54.3666 224.826 55.9064 219.122C68.6887 240.878 55.2868 273.67 55.2868 273.67Z" fill="#54BFB3"/>
<path d="M88.5124 307.496C88.5124 307.496 112.647 307.341 111.083 285.512C109.517 263.681 105.517 240.734 105.517 240.734C105.517 240.734 107.701 265.373 93.7917 284.56C79.8827 303.747 88.5124 307.496 88.5124 307.496Z" fill="#222430"/>
<path d="M63.0286 307.349C50.6675 307.287 40.0795 314.656 33.7326 324.935C30.4599 330.234 28.2575 336.22 27.2838 342.369C26.1866 349.303 26.7446 356.619 28.0214 363.489C29.8536 373.334 33.6575 382.851 38.1507 391.762C38.3841 392.223 39.0789 391.818 38.8455 391.357C34.9666 383.664 31.6778 375.57 29.6363 367.185C28.6197 363.007 27.9651 358.74 27.7451 354.444C27.5869 351.363 27.4259 348.33 27.721 345.249C28.853 333.423 34.701 321.521 44.342 314.353C49.7635 310.323 56.2633 308.118 63.0259 308.153C63.5437 308.153 63.5437 307.351 63.0259 307.349H63.0286Z" fill="white"/>
<path d="M1.11114 347.11C9.80258 344.688 18.6898 343.06 27.6764 342.259C27.6093 342.009 27.5422 341.76 27.4725 341.508C19.7682 345.747 12.064 349.99 4.35971 354.23C3.90636 354.479 4.31142 355.173 4.76477 354.924C12.469 350.684 20.1733 346.442 27.8776 342.202C28.2129 342.017 28.0787 341.417 27.6737 341.451C18.6147 342.261 9.65504 343.892 0.893859 346.332C0.394906 346.471 0.606832 347.246 1.10847 347.107L1.11114 347.11Z" fill="white"/>
<path d="M4.81005 199.02C7.0929 203.037 8.44759 207.516 10.2637 211.75C12.0181 215.842 13.9817 219.849 16.1357 223.745C20.4278 231.503 25.4898 238.838 31.217 245.606C34.4843 249.47 37.9743 253.139 41.6548 256.609C42.0303 256.963 42.6017 256.397 42.2235 256.04C29.2775 243.825 18.8049 229.071 11.5915 212.796C9.51255 208.106 8.0452 203.083 5.50483 198.613C5.24999 198.162 4.55253 198.567 4.81005 199.018V199.02Z" fill="white"/>
<path d="M26.6451 198.318C23.6916 204.29 22.1465 210.817 22.125 217.478C22.125 217.811 22.5784 218.031 22.8117 217.762C24.7459 215.545 26.8463 213.491 29.2633 211.798C29.0621 211.683 28.8609 211.568 28.657 211.45C28.5416 214.03 28.2734 216.725 28.9923 219.253C29.7783 222.018 32.4635 219.237 33.4775 218.229C33.845 217.864 33.2763 217.296 32.9088 217.661C32.4796 218.087 30.5643 220.272 29.7998 219.184C29.4376 218.669 29.4376 217.113 29.3786 216.545C29.1989 214.858 29.3866 213.142 29.4618 211.452C29.4752 211.163 29.105 210.932 28.8555 211.104C26.3822 212.836 24.2227 214.923 22.243 217.191C22.471 217.285 22.7017 217.382 22.9298 217.475C22.9512 210.959 24.4508 204.563 27.3399 198.72C27.5679 198.259 26.8758 197.848 26.6451 198.315V198.318Z" fill="white"/>
<path d="M274.368 248.17C274.298 248.17 274.225 248.151 274.158 248.111L264.823 242.468C264.488 242.265 264.075 242.251 263.742 242.434C263.495 242.57 263.055 243.029 262.9 243.587C262.792 243.976 262.838 244.343 263.034 244.683C263.147 244.877 263.079 245.121 262.889 245.233C262.696 245.343 262.452 245.279 262.339 245.088C262.033 244.56 261.958 243.967 262.124 243.372C262.334 242.621 262.902 241.978 263.356 241.728C263.938 241.409 264.659 241.431 265.239 241.782L274.574 247.424C274.765 247.539 274.826 247.786 274.711 247.977C274.636 248.103 274.502 248.17 274.368 248.17Z" fill="#222430"/>
<path d="M269.034 249.371C268.965 249.371 268.895 249.352 268.83 249.315L261.306 244.901C261.115 244.788 261.051 244.542 261.161 244.351C261.274 244.158 261.521 244.096 261.711 244.206L269.236 248.62C269.426 248.733 269.49 248.98 269.38 249.17C269.305 249.299 269.171 249.369 269.032 249.369L269.034 249.371Z" fill="#222430"/>
<path d="M269.201 261.575L264.397 260.519C264.179 260.471 264.042 260.256 264.091 260.039C264.139 259.822 264.351 259.685 264.571 259.733L268.852 260.674C269.027 260.369 269.29 259.779 269.102 259.234C268.911 258.687 268.294 258.274 267.27 258.009L267.111 257.969L266.087 256.26C265.971 256.07 266.033 255.823 266.223 255.708C266.414 255.593 266.661 255.654 266.776 255.845L267.632 257.271C268.842 257.615 269.593 258.186 269.864 258.972C270.271 260.157 269.397 261.321 269.359 261.369L269.204 261.573L269.201 261.575Z" fill="#222430"/>
<path d="M266.277 276.633C266.169 276.633 266.062 276.59 265.982 276.504L262.062 272.286C261.912 272.122 261.92 271.868 262.084 271.717C262.247 271.567 262.502 271.575 262.652 271.739L266.572 275.957C266.722 276.121 266.714 276.375 266.55 276.526C266.472 276.598 266.373 276.633 266.277 276.633Z" fill="#222430"/>
<path d="M213.359 191.394C213.286 191.394 213.227 191.388 213.182 191.375C212.97 191.311 212.846 191.088 212.911 190.873C212.972 190.667 213.187 190.546 213.394 190.597C213.925 190.64 217.691 189.468 221.028 188.299C221.237 188.227 221.468 188.337 221.54 188.546C221.613 188.755 221.503 188.985 221.294 189.058C218.737 189.954 214.464 191.394 213.356 191.394H213.359ZM213.402 190.6C213.402 190.6 213.407 190.6 213.412 190.603C213.41 190.603 213.407 190.603 213.402 190.6Z" fill="#03A731"/>
<path d="M158.425 301.693C158.208 301.693 158.028 301.519 158.023 301.302L157.307 274.099L157.312 274.067L159.89 255.998C159.922 255.778 160.126 255.628 160.346 255.657C160.566 255.689 160.719 255.893 160.687 256.113L158.114 274.15L158.83 301.285C158.836 301.508 158.661 301.693 158.439 301.698C158.436 301.698 158.431 301.698 158.428 301.698L158.425 301.693Z" fill="white"/>
<path d="M251.239 227.239C251.052 227.239 250.883 227.105 250.845 226.915C248.989 217.408 238.371 197.73 238.267 197.532C238.162 197.336 238.234 197.092 238.43 196.988C238.626 196.883 238.87 196.955 238.975 197.151C239.082 197.35 249.756 217.138 251.636 226.762C251.679 226.979 251.537 227.191 251.317 227.234C251.29 227.239 251.266 227.242 251.239 227.242V227.239Z" fill="white"/>
<path d="M247.947 343.047C247.853 343.047 247.759 343.015 247.681 342.948C247.515 342.803 247.496 342.548 247.644 342.379C248.942 340.896 260.461 327.963 264.528 330.473C264.716 330.591 264.775 330.837 264.659 331.025C264.541 331.216 264.294 331.272 264.107 331.157C262.704 330.29 259.447 332.052 254.94 336.123C251.394 339.328 248.28 342.87 248.25 342.908C248.17 342.999 248.06 343.044 247.947 343.044V343.047Z" fill="white"/>
<path d="M158.997 263.187C158.825 263.187 158.667 263.077 158.613 262.905L154.541 249.867C154.474 249.655 154.592 249.43 154.804 249.363C155.016 249.296 155.241 249.414 155.308 249.626L159.381 262.664C159.448 262.876 159.33 263.101 159.118 263.168C159.077 263.182 159.037 263.187 158.997 263.187Z" fill="white"/>
<path d="M158.774 311.945C158.726 311.945 158.675 311.937 158.624 311.924C158.339 311.84 158.176 311.543 158.256 311.259C158.278 311.181 160.429 303.444 154.933 299.03C147.18 292.803 137.762 300.73 137.668 300.811C137.442 301.004 137.104 300.977 136.911 300.752C136.718 300.527 136.745 300.189 136.97 299.996C137.072 299.91 147.167 291.414 155.606 298.191C161.666 303.058 159.313 311.468 159.289 311.554C159.222 311.79 159.007 311.94 158.774 311.94V311.945Z" fill="#03A731"/>
<path d="M155.77 307.494C147.529 300.843 132.126 311.159 131.761 311.403L131.822 311.291L131.828 311.285C132.05 310.891 132.297 310.5 132.571 310.108C140.645 298.537 150.048 301.312 152.526 302.318C152.921 302.479 153.243 302.774 153.444 303.149L155.772 307.491L155.77 307.494Z" fill="#222430"/>
<path d="M210.569 325.01C210.391 325.01 210.231 324.892 210.18 324.715C210.121 324.501 210.247 324.281 210.461 324.222C215.298 322.897 223.949 319.818 227.53 314.053C227.648 313.865 227.895 313.806 228.086 313.924C228.273 314.042 228.332 314.289 228.214 314.479C224.488 320.475 215.625 323.645 210.673 324.999C210.638 325.01 210.601 325.013 210.566 325.013L210.569 325.01Z" fill="#222430"/>
<path d="M372.242 235.03V277.078L431.5 235.03H372.242Z" fill="white"/>
</g>
<defs>
<clipPath id="clip0_626_7342">
<rect width="378.515" height="499" fill="white" transform="translate(0 0.433105)"/>
</clipPath>
</defs>
</svg>
