<svg width="113" height="46" viewBox="0 0 113 46" fill="none" xmlns="http://www.w3.org/2000/svg">
<g clip-path="url(#clip0_107_493)">
<path d="M82.0808 0.319122H66.1133L66.1364 7.7385C59.3801 -0.188934 50.3737 0.281163 50.3737 0.281163H27.0354L0.945068 45.4719H18.4992L23.891 35.921L34.1379 35.9093V45.5186L50.0217 45.5449C50.0217 45.5449 59.1983 45.7259 66.0787 38.0175L66.0671 45.4748H81.0365L81.048 35.9619H82.5972C88.6668 36.432 99.1128 30.0784 99.0666 17.7711C99.0349 7.56622 91.3267 0.319122 82.0808 0.319122ZM81.0711 30.5047L75.2293 30.5193L75.2178 40.0497L71.5223 40.0585V30.4959H64.9853C64.9853 30.4959 61.4456 39.6876 49.5976 40.0117L39.971 40.0614V30.455L20.7004 30.4521L15.0634 40.0439H10.6525L30.1308 6.16761H49.5169C61.7283 6.23769 65.8248 16.6645 66.3758 20.5509H71.5252L71.531 6.06833L81.4692 6.07125C89.0072 6.44208 93.4037 12.8307 93.5335 17.1492C93.7441 23.9583 89.0274 30.1893 81.0711 30.5047Z" fill="#CF4037"/>
<path d="M43.7761 10.031L43.7819 15.6342H48.7582C58.5609 15.6079 58.5666 30.4321 48.4957 30.4029H43.779V36.0148H48.5303C56.152 36.0557 62.1121 30.7883 62.1005 22.5572C62.0948 17.4387 57.7848 10.0281 49.416 10.0281L43.7761 10.031ZM75.4371 10.0719V15.6897H80.8173C84.2877 15.8619 84.357 20.9425 80.8519 20.9221H75.4659V26.5924C75.4659 26.5924 80.1307 26.6216 80.5605 26.5924C85.0955 26.5778 89.1631 23.401 89.1631 18.008C89.1631 12.6676 84.9888 10.0748 80.5605 10.0748C81.3308 10.0719 75.4371 10.0719 75.4371 10.0719ZM34.386 9.9609L39.9653 9.94922V26.6187H23.1006L26.3402 20.9016L34.3716 20.9337L34.386 9.9609ZM89.1977 40.456C89.447 40.7015 89.6441 40.9959 89.7771 41.3213C89.91 41.6466 89.976 41.996 89.9708 42.348C89.9708 43.0984 89.7112 43.732 89.1977 44.2547C88.9569 44.51 88.6665 44.7121 88.3448 44.8483C88.0231 44.9845 87.677 45.0518 87.3283 45.046C86.9795 45.0528 86.6331 44.986 86.3113 44.8498C85.9894 44.7135 85.6991 44.5109 85.459 44.2547C85.2096 44.0065 85.013 43.7093 84.881 43.3815C84.7491 43.0536 84.6846 42.702 84.6916 42.348C84.6916 41.6064 84.9512 40.9757 85.4647 40.456C85.7044 40.2008 85.9938 39.9988 86.3146 39.8626C86.6353 39.7264 86.9805 39.659 87.3283 39.6647C88.0524 39.6647 88.6842 39.9275 89.1977 40.456ZM89.5006 40.1523C88.9035 39.545 88.1765 39.2442 87.3255 39.2442C86.4744 39.2442 85.7532 39.545 85.1561 40.1523C84.867 40.4374 84.6384 40.7792 84.4842 41.1567C84.3299 41.5342 84.2533 41.9396 84.2589 42.348C84.2589 43.2182 84.5531 43.951 85.1503 44.5613C85.7475 45.1715 86.4744 45.4723 87.3255 45.4723C88.1765 45.4723 88.9035 45.1686 89.5006 44.5613C90.1035 43.9481 90.4007 43.2152 90.4007 42.348C90.4089 41.9389 90.3331 41.5326 90.1782 41.1546C90.0233 40.7767 89.7925 40.4354 89.5006 40.1523ZM87.7841 42.205C87.6028 42.2649 87.4121 42.2906 87.2216 42.2809H86.685V41.0429H87.187C87.8476 41.0429 88.1274 41.1684 88.1274 41.6706C88.1274 41.9363 88.0149 42.1144 87.7841 42.205ZM86.0879 44.0474H86.685V42.6984H87.1524C87.4668 42.6984 87.6832 42.7422 87.813 42.8094C88.0265 42.9378 88.1274 43.2036 88.1274 43.5977V43.8693L88.1447 43.9802L88.1505 44.0182C88.1563 44.027 88.1563 44.0386 88.1563 44.0503H88.7188L88.6957 44.0094C88.6783 43.9516 88.6686 43.8917 88.6669 43.8313C88.6554 43.7408 88.6554 43.6532 88.6554 43.5773V43.3233C88.651 43.1098 88.5711 42.9049 88.4304 42.7458C88.2896 42.5867 88.0972 42.4839 87.888 42.4561C88.4852 42.3714 88.7102 42.0911 88.7102 41.6181C88.7102 41.1918 88.5342 40.9056 88.1851 40.7567C87.8894 40.6588 87.5786 40.6162 87.2678 40.6312H86.085L86.0879 44.0474Z" fill="#CF4037"/>
</g>
<defs>
<clipPath id="clip0_107_493">
<rect width="112.023" height="45.2694" fill="white" transform="translate(0.945068 0.275879)"/>
</clipPath>
</defs>
</svg>
