<svg width="24" height="25" viewBox="0 0 24 25" fill="none" xmlns="http://www.w3.org/2000/svg">
<path fill-rule="evenodd" clip-rule="evenodd" d="M2.25 12.381C2.25 17.7649 6.6139 22.1297 11.9976 22.131H12C17.3848 22.131 21.75 17.7658 21.75 12.381C21.75 6.99621 17.3848 2.63098 12 2.63098C6.61522 2.63098 2.25 6.99621 2.25 12.381ZM12 4.13098C7.44365 4.13098 3.75 7.82463 3.75 12.381C3.75 16.6845 7.04512 20.2184 11.25 20.5973V14.631H9C8.58579 14.631 8.25 14.2952 8.25 13.881C8.25 13.4668 8.58579 13.131 9 13.131H11.25V10.8724C11.2542 10.5058 11.3262 10.0943 11.475 9.73292C11.6254 9.36781 11.8465 9.03609 12.1257 8.75689C12.4049 8.47769 12.7366 8.25655 13.1017 8.10621C13.4663 7.95609 13.857 7.87955 14.2513 7.88098H15.7498C16.164 7.88098 16.4998 8.21676 16.4998 8.63098C16.4998 9.04519 16.164 9.38098 15.7498 9.38098H14.2467C14.0499 9.38015 13.8548 9.4183 13.6729 9.49323C13.4909 9.56816 13.3255 9.67839 13.1864 9.81755C13.0472 9.95671 12.937 10.1221 12.8621 10.304C12.795 10.467 12.7528 10.6856 12.75 10.8857V13.131H15C15.4142 13.131 15.75 13.4668 15.75 13.881C15.75 14.2952 15.4142 14.631 15 14.631H12.75V20.5974C16.9549 20.2184 20.25 16.6845 20.25 12.381C20.25 7.82463 16.5563 4.13098 12 4.13098Z" fill="black"/>
</svg>
