<svg width="160" height="60" viewBox="0 0 160 60" fill="none" xmlns="http://www.w3.org/2000/svg">
<path d="M1.22897 0.212371H2.20194C6.19114 0.212371 10.1803 0.212371 14.1749 0.212371C14.3857 0.212371 14.602 0.223182 14.8128 0.212371C15.1371 0.196155 15.3857 0.32048 15.5695 0.585345C15.8885 1.0394 16.2074 1.48264 16.5263 1.9367C26.2993 15.9205 36.0723 29.9043 45.8399 43.8881C46.0074 44.1314 46.1696 44.38 46.3209 44.6341C46.4128 44.7854 46.3101 44.9962 46.1371 45.007C45.8399 45.0233 45.5426 45.0341 45.2453 45.0341C41.4236 45.0341 37.602 45.007 33.7858 45.0557C32.9263 45.0665 32.3966 44.807 31.9155 44.0827C29.5587 40.5043 27.1479 36.9584 24.7533 33.4016C24.4939 33.0124 24.229 32.6286 23.9533 32.2557C23.8236 32.0881 23.6452 32.1313 23.5317 32.2773C23.3263 32.5476 23.1425 32.834 22.9533 33.1151C20.5695 36.6773 18.1912 40.2449 15.8128 43.807C15.6939 43.9854 15.5533 44.1476 15.4614 44.3368C15.1857 44.9151 14.7263 45.0449 14.1155 45.0449C9.78574 45.0233 5.456 45.0341 1.12627 45.0341C0.958698 45.0341 0.785724 45.0341 0.618156 45.0178C0.428967 45.0016 0.320859 44.8178 0.423562 44.6665C0.607346 44.38 0.801941 44.1043 0.996535 43.8287C5.99114 36.8611 10.9857 29.8935 15.9803 22.9259C16.7695 21.8286 16.7587 22.0989 15.9641 20.9962C11.2506 14.4556 6.54249 7.90968 1.83978 1.35832C1.62356 1.05562 1.34248 0.785345 1.22897 0.212371Z" fill="#6364AD"/>
<path d="M105.543 32.4717C105.851 32.1906 105.916 31.8609 106.046 31.5582C108.5 25.7366 110.954 19.9149 113.408 14.0933C113.44 14.0176 113.478 13.9365 113.5 13.8555C113.667 13.2284 114.062 13.0122 114.716 13.023C117.813 13.0501 120.91 13.0338 124.013 13.0338C124.181 13.0338 124.354 13.0338 124.521 13.0501C124.819 13.0771 124.937 13.2825 124.835 13.5906C124.764 13.7906 124.683 13.9852 124.597 14.1798C120.391 24.142 116.191 34.1041 111.986 44.0663C109.927 48.9474 107.867 53.8339 105.802 58.715C105.294 59.9258 105.505 59.7907 104.143 59.7961C101.256 59.8015 98.3698 59.7961 95.4833 59.7961C95.2293 59.7961 94.9752 59.7961 94.7212 59.7853C94.3806 59.7691 94.2455 59.5961 94.3482 59.3096C94.4509 59.0285 94.5752 58.7582 94.6887 58.488C96.386 54.4609 98.0779 50.4393 99.7752 46.4123C99.8563 46.2177 99.932 46.0177 100.029 45.8285C100.175 45.5366 100.143 45.2663 100.002 44.9798C99.559 44.0609 99.1374 43.1366 98.705 42.2123C94.3536 32.9204 89.9968 23.623 85.6455 14.3311C85.4995 14.023 85.359 13.7149 85.2401 13.4014C85.1644 13.2068 85.2833 13.0717 85.4779 13.0501C85.732 13.023 85.986 13.0284 86.2401 13.0284C89.2509 13.0284 92.2671 13.0284 95.2779 13.0284C95.532 13.0284 95.786 13.0284 96.0401 13.0446C96.2671 13.0555 96.4455 13.1798 96.5428 13.3798C96.7698 13.8338 96.9806 14.2987 97.1968 14.7582C99.7698 20.2933 102.348 25.8339 104.921 31.369C105.094 31.742 105.224 32.1474 105.543 32.4609V32.4717Z" fill="#6364AD"/>
<path d="M36.5373 0.211915C39.3751 0.211915 42.2183 0.211915 45.0562 0.211915C45.3102 0.211915 45.5643 0.211915 45.8183 0.228131C46.067 0.244347 46.1643 0.444348 46.0346 0.682186C45.9319 0.86597 45.8184 1.04435 45.7048 1.22273C43.0292 5.34706 40.3481 9.46598 37.6724 13.5849C37.5319 13.7957 37.3967 14.0119 37.2346 14.2065C36.1967 15.4768 34.3535 15.5795 33.1913 14.4282C32.9805 14.2227 32.8021 13.9795 32.6345 13.7363C30.3751 10.5092 28.1156 7.27679 25.8616 4.04976C25.5426 3.5957 25.2508 3.14165 25.2291 2.55246C25.1859 1.37948 25.9643 0.395699 27.1318 0.233536C27.467 0.184888 27.8075 0.206509 28.1481 0.206509C30.9481 0.206509 33.7427 0.206509 36.5427 0.206509L36.5373 0.211915Z" fill="#39BA91"/>
<path d="M141.84 52.1797C139.375 52.2662 136.748 52.0932 134.126 51.8878C132.44 51.7527 130.748 51.5635 129.099 51.1364C128.57 51.0013 128.024 50.877 127.591 50.4986C127.386 50.3202 127.386 50.0121 127.597 49.8391C127.899 49.5959 128.256 49.4716 128.624 49.3527C129.721 48.9959 130.856 48.8608 131.986 48.6824C132.824 48.5526 133.672 48.477 134.516 48.4121C138.197 48.1418 141.889 48.0229 145.58 48.1905C148.207 48.3094 150.835 48.4283 153.429 48.8932C154.218 49.0337 155.002 49.2391 155.775 49.4608C156.051 49.5364 156.294 49.731 156.537 49.8986C156.699 50.0121 156.678 50.3202 156.532 50.4608C156.18 50.8013 155.726 50.9527 155.283 51.05C154.251 51.2824 153.213 51.5148 152.164 51.6445C148.791 52.0554 145.408 52.2445 141.84 52.1797Z" fill="#6364AD"/>
<path d="M80.7373 43.7796C80.7373 33.9742 80.7373 24.1742 80.7373 14.3688C80.7373 14.0715 80.7373 13.7742 80.7157 13.4769C80.694 13.239 80.5427 13.0877 80.3049 13.0661C79.9697 13.039 79.6292 13.0336 79.2886 13.0336C76.6994 13.0336 74.1103 13.0228 71.5211 13.039C71.067 13.039 70.5319 12.8444 70.1805 13.2012C69.867 13.5147 70.1319 14.0228 70.0021 14.4282C69.9913 14.4607 69.9589 14.4877 69.9319 14.5147C69.8886 14.5255 69.84 14.558 69.8075 14.5417C69.4994 14.4066 69.1859 14.2715 68.8886 14.1147C65.7697 12.4715 62.4237 12.0228 58.9967 12.5093C54.5318 13.1471 50.9481 15.3958 48.4129 19.1309C45.121 23.985 44.494 29.2769 46.3643 34.8012C47.948 39.4715 51.067 42.8391 55.6994 44.6121C60.121 46.304 64.5156 45.9958 68.7859 43.9526C69.1589 43.7742 69.4724 43.4499 69.9319 43.4661C70.1211 43.8499 70.0021 44.2337 70.0508 44.6012C70.0832 44.8391 70.1913 44.9958 70.44 45.0067C70.694 45.0175 70.9481 45.0229 71.2021 45.0229C73.9589 45.0229 76.7211 45.0229 79.4778 45.0229C80.7805 45.0229 80.7211 45.0553 80.7211 43.7634L80.7373 43.7796ZM70.0454 29.1039C70.0454 30.5039 70.0346 31.9039 70.0508 33.3039C70.0562 33.7634 69.894 34.1039 69.5805 34.4337C67.0292 37.1202 62.9859 37.4391 60.4075 36.2985C58.3048 35.3688 56.921 33.7742 56.2724 31.5742C55.3318 28.3796 55.9535 25.5201 58.2778 23.1093C59.5697 21.7742 61.2129 21.1363 63.0778 21.0661C65.44 20.9742 67.4994 21.6715 69.267 23.2661C69.8075 23.7526 70.094 24.2661 70.0616 25.0282C70.0021 26.385 70.0454 27.7418 70.0454 29.1039Z" fill="#6364AD"/>
<path d="M159.186 26.3041C158.024 19.7366 154.278 15.3636 147.954 13.223C145.71 12.4609 143.391 12.3149 141.04 12.3852C139.11 12.4446 137.245 12.796 135.44 13.4609C130.748 15.1906 127.445 18.3636 125.721 23.0663C124.57 26.2014 124.397 29.4447 125.083 32.715C126.197 38.0014 129.143 41.915 134.013 44.2501C138.148 46.2339 142.489 46.5258 146.927 45.396C150.224 44.5528 153.035 42.8988 155.283 40.3258C158.121 37.0771 159.348 33.2339 159.375 28.7041C159.332 28.0771 159.343 27.1744 159.186 26.2987V26.3041ZM148.229 33.2122C145.683 37.8393 139.116 37.8771 136.364 33.8879C134.532 31.2285 134.31 28.342 135.727 25.4393C137.002 22.823 139.245 21.6501 142.105 21.5744C145.002 21.5203 147.818 23.2879 148.851 26.4447C149.618 28.7906 149.408 31.0609 148.224 33.2068L148.229 33.2122Z" fill="#39BA91"/>
</svg>
