<svg width="225" height="56" viewBox="0 0 225 56" fill="none" xmlns="http://www.w3.org/2000/svg">
<path d="M42.4079 27.058C42.4231 29.0522 42.1491 30.9854 41.2662 32.8045C40.0484 35.301 38.2369 37.1658 35.6948 38.3379C33.8985 39.1675 32.0414 39.5557 30.0701 39.4491C27.8095 39.3273 25.7469 38.6043 23.943 37.2723C20.5103 34.7225 18.9196 31.2518 19.1555 27.0047C19.2849 24.7061 20.1146 22.6207 21.5303 20.794C23.5472 18.1833 26.234 16.7067 29.5068 16.3414C32.8482 15.9761 35.8013 16.9351 38.3663 19.1043C38.4653 19.188 38.5794 19.2413 38.686 19.3098C39.1427 19.3783 39.3025 19.8045 39.5613 20.0937C41.1977 21.8976 42.1263 24.0364 42.4536 26.4415C42.484 26.647 42.5373 26.8677 42.4155 27.0656L42.4079 27.058Z" fill="#1F7EC0"/>
<path d="M26.2713 55.3488C19.8398 54.9377 14.238 52.5783 9.45049 48.2627C7.78363 46.7633 6.33749 45.0812 5.09686 43.2164C2.63843 39.5326 4.54885 34.4559 8.79592 33.2381C11.947 32.3324 15.2503 33.9536 16.5746 36.686C17.7467 39.0988 19.1853 41.3441 21.1566 43.1936C24.8328 46.6491 29.1332 48.765 34.2251 49.1989C40.0172 49.6936 45.1548 48.08 49.714 44.5332C49.7368 44.5103 49.7825 44.5103 49.9575 44.4647C49.4552 45.0888 49.0518 45.6368 48.5951 46.1468C45.2385 49.8839 41.1818 52.563 36.4019 54.1233C34.2403 54.8236 32.0178 55.2879 29.7268 55.3411C29.6659 55.3411 29.6051 55.3792 29.5442 55.3944C28.4481 55.3792 27.3521 55.4477 26.2561 55.3564L26.2713 55.3488Z" fill="#682C8B"/>
<path d="M49.471 10.8459C47.7813 9.79556 46.1144 8.74521 44.2649 8.01453C39.348 6.08888 34.3779 5.88338 29.3773 7.58069C23.646 9.52916 19.4522 13.2739 16.8188 18.7083C15.7151 20.9841 14.0102 22.4454 11.4757 22.7651C8.80412 23.1 6.61969 22.1182 5.15072 19.8805C3.63608 17.5666 3.48386 15.093 5.08222 12.7487C9.66419 6.02799 15.9967 1.84942 24.0647 0.799069C34.1952 -0.525287 42.6741 2.83888 49.334 10.6404C49.3873 10.7013 49.4253 10.7774 49.471 10.8459Z" fill="#F5AD1D"/>
<path d="M74.4888 24.4247C74.8769 23.3895 75.2499 22.4077 75.6152 21.4182C76.8406 18.0921 78.0813 14.766 79.4437 11.4856C79.5426 11.2572 79.5883 11.0289 79.8927 10.9223C81.316 10.42 82.7469 10.2602 84.2235 10.6636C85.2739 10.9528 85.8676 11.5921 86.0274 12.711C86.5602 16.4253 86.8798 20.1548 87.1615 23.8843C87.4126 27.1723 87.641 30.468 87.8845 33.7561C87.9606 34.776 87.9302 34.8216 86.9407 35.1337C86.0654 35.4077 85.1749 35.4153 84.2844 35.225C83.2036 34.9967 82.7241 34.3269 82.648 33.0939C82.4197 29.3568 82.237 25.612 82.1076 21.8673C82.0543 20.2309 81.9706 18.5945 81.9021 16.958C81.9021 16.8363 81.8869 16.7221 81.864 16.4862C81.4835 16.8743 81.4378 17.2853 81.3084 17.6354C79.9232 21.266 78.5608 24.9118 77.1603 28.5424C76.8254 29.4024 75.9349 29.4557 75.1814 29.5851C74.6638 29.6764 74.1158 29.6155 73.583 29.5623C72.5555 29.4633 71.9085 28.9381 71.528 27.9335C70.1123 24.2192 68.5368 20.5658 67.2581 16.8058C67.2124 16.684 67.2124 16.5014 66.9384 16.4633C66.8851 17.331 66.8242 18.1835 66.7862 19.0435C66.5578 24.1887 66.3295 29.3339 66.1164 34.4867C66.1012 34.913 65.9489 35.0804 65.5379 35.1413C64.6779 35.2783 63.8254 35.4381 62.9349 35.2859C61.5725 35.0424 61.0245 34.4487 61.0549 33.0939C61.1539 29.1969 61.4355 25.3152 61.7095 21.4258C61.9226 18.3433 62.1509 15.2684 62.3412 12.1858C62.3717 11.7215 62.5924 11.478 62.9577 11.2344C64.48 10.2449 66.1012 10.2754 67.7528 10.7321C68.7118 10.9984 69.3359 11.6911 69.7241 12.6044C71.2616 16.2502 72.6088 19.9645 74.0549 23.6407C74.1539 23.8843 74.1919 24.1659 74.4735 24.4323L74.4888 24.4247Z" fill="#F5AD1D"/>
<path d="M42.4075 27.0582C42.202 26.2819 42.1487 25.4751 41.9128 24.6911C41.4028 22.9938 40.6037 21.4716 39.4087 20.1625C39.1575 19.8808 38.914 19.5916 38.6704 19.31C38.64 18.389 38.1833 17.6051 37.8408 16.7907C36.6458 13.9441 34.9942 11.3715 32.962 9.05004C32.8706 8.94348 32.7793 8.82931 32.6271 8.65425C34.5832 8.33458 36.4555 8.2128 38.3431 8.50203C42.4456 9.13376 46.2588 10.519 49.6991 12.8404C52.0129 14.4084 53.6722 16.5471 54.4333 19.2339C55.9708 24.6911 50.856 29.7526 45.2541 28.4207C44.2038 28.1695 43.26 27.6976 42.3923 27.0582H42.4075Z" fill="#F38821"/>
<path d="M144.338 9.92517C145.898 9.97845 147.702 10.1154 149.422 10.7929C150.244 11.1201 150.998 11.554 151.515 12.2999C152.284 13.3959 151.926 15.078 150.8 15.7934C150.533 15.9685 150.419 15.7934 150.244 15.6945C147.961 14.4539 145.533 13.982 142.96 14.3854C142.214 14.4995 141.522 14.7583 140.966 15.3139C139.855 16.4252 140.045 18.092 141.4 18.8836C142.678 19.6371 144.132 19.9492 145.525 20.4058C147.329 20.9995 149.072 21.6921 150.602 22.8795C152.451 24.3256 153.136 26.2361 153.053 28.489C152.931 31.7238 151.195 33.8321 148.235 34.8824C144.604 36.1611 140.951 35.9937 137.373 34.5932C136.696 34.3268 136.095 33.9234 135.577 33.3906C134.291 32.0587 134.687 29.9656 136.354 29.1512C136.673 28.9989 136.81 29.1664 137.016 29.3186C139.467 31.1073 142.176 31.8151 145.167 31.1453C146.948 30.7495 147.915 29.3186 147.633 27.6213C147.428 26.3959 146.515 25.7794 145.479 25.3912C143.866 24.7823 142.207 24.3028 140.585 23.7243C138.987 23.1611 137.488 22.4304 136.308 21.1441C134.215 18.876 134.108 13.5557 138.127 11.2952C139.695 10.4123 141.758 9.89472 144.353 9.90233L144.338 9.92517Z" fill="#F5AD1D"/>
<path d="M108.61 27.6974C108.61 29.9732 108.595 32.2565 108.625 34.5323C108.625 34.9433 108.511 35.0803 108.115 35.1412C107.164 35.2858 106.22 35.4304 105.254 35.2554C104.158 35.0575 103.602 34.4866 103.533 33.3678C103.495 32.7969 103.503 32.2185 103.503 31.64C103.503 27.804 103.518 23.9679 103.488 20.1318C103.48 19.0358 103.884 18.2214 104.751 17.5669C106.403 16.311 108.329 15.7554 110.323 15.5042C112.682 15.215 115.057 15.2378 117.31 16.2044C119.723 17.2472 121.131 19.1119 121.207 21.7226C121.321 26.0001 121.26 30.2852 121.283 34.5704C121.283 34.8596 121.222 35.0651 120.887 35.1108C119.936 35.2554 118.999 35.4228 118.025 35.2554C116.838 35.0499 116.244 34.5171 116.229 33.3221C116.191 29.996 116.199 26.6699 116.183 23.3514C116.183 22.9708 116.16 22.5827 116.122 22.2021C115.993 20.8092 115.24 19.9035 113.892 19.5914C112.134 19.188 110.467 19.5077 108.861 20.2688C108.564 20.4058 108.625 20.619 108.625 20.8473C108.625 23.1231 108.625 25.4064 108.625 27.6822H108.61V27.6974Z" fill="#F5AD1D"/>
<path d="M216.279 35.6516C214.582 35.6744 212.915 35.4917 211.324 34.8676C210.274 34.449 209.322 33.901 208.98 32.706C208.706 31.7622 209.132 30.6129 209.916 30.0345C210.152 29.8594 210.281 29.9583 210.479 30.0649C211.758 30.7956 213.09 31.4273 214.574 31.6024C215.777 31.747 216.994 31.8383 218.174 31.4121C218.935 31.1381 219.468 30.6281 219.514 29.7909C219.559 28.9232 219.125 28.3067 218.326 27.9261C217.352 27.4542 216.294 27.3172 215.267 27.0585C213.919 26.7236 212.587 26.3658 211.392 25.6352C208.356 23.778 208.127 19.3254 210.943 17.0801C212.154 16.1211 213.546 15.6264 215.046 15.4665C217.245 15.223 219.422 15.2763 221.523 16.0983C222.002 16.2809 222.452 16.5245 222.847 16.8594C223.966 17.7956 224.042 19.295 223.038 20.3606C222.794 20.6193 222.596 20.6726 222.223 20.4976C220.282 19.6071 218.258 19.0667 216.089 19.4092C215.579 19.4929 215.099 19.6375 214.68 19.9572C213.661 20.7411 213.775 22.1035 214.939 22.6439C216.051 23.1615 217.268 23.3061 218.44 23.6182C219.925 24.0216 221.363 24.5087 222.634 25.4297C225.306 27.3781 225.496 32.8049 221.508 34.6697C220.046 35.3547 218.562 35.6516 216.286 35.6516H216.279Z" fill="#F5AD1D"/>
<path d="M194.039 20.619C194.039 17.6583 194.054 14.6975 194.024 11.7367C194.024 11.1278 194.13 10.831 194.808 10.7549C195.66 10.6559 196.505 10.5798 197.357 10.7016C198.415 10.8538 198.925 11.4094 199.047 12.475C199.1 12.9393 199.108 13.4112 199.131 13.8755C199.176 14.6747 198.788 15.7402 199.275 16.2045C199.762 16.6612 200.82 16.3111 201.627 16.3263C202.609 16.3415 203.591 16.3491 204.573 16.3263C204.961 16.3111 205.159 16.4557 205.281 16.8058C205.486 17.3995 205.6 17.9932 205.562 18.6249C205.494 19.6753 204.923 20.2841 203.872 20.3146C202.51 20.3526 201.14 20.3526 199.778 20.3222C199.291 20.3146 199.123 20.4288 199.131 20.9463C199.161 23.6103 199.192 26.2742 199.131 28.9305C199.093 30.7648 200.09 31.3966 201.658 31.5336C202.563 31.6097 203.454 31.4879 204.291 31.153C204.748 30.9703 204.953 31.1378 205.159 31.4803C205.897 32.7133 205.539 34.1671 204.299 34.913C203.127 35.6208 201.825 35.6512 200.524 35.6208C199.017 35.5827 197.563 35.2935 196.269 34.4563C194.952 33.6038 194.374 32.3327 194.153 30.8333C194.039 30.0494 194.046 29.2654 194.046 28.4738C194.046 25.8556 194.046 23.2373 194.046 20.6114L194.039 20.619Z" fill="#F5AD1D"/>
<path d="M157.238 20.7561C157.238 17.6659 157.246 14.5757 157.223 11.4856C157.223 11.0213 157.368 10.8691 157.809 10.7929C158.677 10.6407 159.544 10.5951 160.42 10.6864C161.577 10.8082 162.193 11.4399 162.239 12.6044C162.284 13.67 162.284 14.7356 162.269 15.8011C162.269 16.2122 162.368 16.3492 162.802 16.3415C164.446 16.3187 166.09 16.3415 167.734 16.3187C168.115 16.3187 168.32 16.4329 168.449 16.783C168.708 17.4908 168.86 18.2063 168.685 18.9674C168.48 19.8351 168.031 20.2689 167.133 20.2918C165.725 20.3374 164.317 20.3374 162.908 20.307C162.383 20.2918 162.269 20.4744 162.269 20.9616C162.292 23.5798 162.269 26.2057 162.284 28.824C162.284 30.6202 163.137 31.4727 164.933 31.5336C165.824 31.564 166.684 31.4499 167.506 31.1302C167.894 30.978 168.077 31.0921 168.282 31.4042C169.188 32.759 168.625 34.6237 166.988 35.1641C164.545 35.9709 162.102 35.8492 159.795 34.6542C157.938 33.6952 157.307 31.9674 157.269 30.0266C157.208 26.9364 157.253 23.8462 157.253 20.7561C157.253 20.7561 157.246 20.7561 157.238 20.7561Z" fill="#F5AD1D"/>
<path d="M0.408289 27.9107C0.583347 27.3322 0.469179 26.7386 0.499624 26.1525C0.636626 23.4809 1.26075 20.916 2.12843 18.3966C2.13604 18.3662 2.19693 18.3434 2.25021 18.3053C2.67644 19.7971 3.36906 21.1443 4.46508 22.2403C6.74084 24.4932 9.50372 25.1935 12.6167 24.6074C12.9897 24.5389 13.0506 24.5237 12.9668 24.9347C12.5558 27.0202 12.5939 29.1133 13.0658 31.252C7.70747 30.3158 4.04646 32.3024 2.15887 37.5541C1.08569 34.6542 0.469179 31.7467 0.47679 28.7175C0.377844 28.4511 0.492013 28.1695 0.393066 27.9107H0.408289Z" fill="#1F7EC0"/>
<path d="M126.611 24.8279C126.611 22.1031 126.626 19.3706 126.595 16.6458C126.595 16.212 126.732 16.0598 127.136 15.9836C128.171 15.7858 129.206 15.6944 130.241 15.938C131.033 16.1283 131.505 16.623 131.619 17.4222C131.672 17.818 131.71 18.229 131.71 18.6324C131.71 23.8765 131.71 29.1206 131.725 34.3648C131.725 34.8976 131.588 35.1259 131.048 35.1792C130.287 35.2553 129.533 35.4228 128.757 35.3238C127.151 35.1107 126.611 34.5094 126.603 32.8882C126.595 30.8636 126.603 28.839 126.603 26.8144C126.603 26.1523 126.603 25.4901 126.603 24.8355L126.611 24.8279Z" fill="#F5AD1D"/>
<path d="M98.1831 26.1672C98.1831 28.9376 98.1831 31.7081 98.1907 34.4786C98.1907 34.882 98.107 35.0723 97.6579 35.1484C96.7293 35.3006 95.8084 35.4224 94.8646 35.2626C93.7914 35.0875 93.251 34.5395 93.1368 33.4511C93.0988 33.0477 93.0759 32.6443 93.0683 32.2409C93.0683 27.0881 93.0683 21.9277 93.0531 16.7749C93.0531 16.2878 93.1673 16.067 93.6696 15.9757C94.5601 15.8082 95.443 15.7245 96.3412 15.8691C97.6122 16.0746 98.1374 16.6455 98.1526 17.9318C98.1831 20.6794 98.1602 23.4271 98.1602 26.1748C98.1602 26.1748 98.1679 26.1748 98.1755 26.1748L98.1831 26.1672Z" fill="#F5AD1D"/>
<path d="M80.4637 45.2642C75.7066 45.2642 70.942 45.2642 66.185 45.2642C65.8577 45.2642 65.5685 45.3023 65.5761 44.7923C65.5837 44.328 65.8272 44.3509 66.1469 44.3509C75.7142 44.3509 85.2816 44.3509 94.8489 44.3509C95.199 44.3509 95.4502 44.3509 95.4578 44.838C95.4578 45.3936 95.0925 45.2642 94.8109 45.2642C90.031 45.2642 85.2511 45.2642 80.4713 45.2642H80.4637Z" fill="#F5AE1F"/>
<path d="M205.144 45.264C200.425 45.264 195.706 45.264 190.987 45.264C190.667 45.264 190.18 45.5 190.195 44.7997C190.211 44.1452 190.675 44.3735 190.972 44.3659C198.195 44.3583 205.418 44.3659 212.641 44.3659C214.924 44.3659 217.2 44.3659 219.483 44.3583C219.849 44.3583 220.07 44.3811 220.07 44.853C220.07 45.3554 219.78 45.2716 219.491 45.2716C214.711 45.2716 209.931 45.2716 205.144 45.2716V45.264Z" fill="#F5AE1F"/>
<path d="M129.153 7.45193C130.804 7.4367 132.053 8.63167 132.083 10.2605C132.114 11.8208 130.789 13.1223 129.176 13.1223C127.532 13.1223 126.222 11.8893 126.215 10.3138C126.207 8.66972 127.44 7.45954 129.153 7.45193Z" fill="#F5AD1D"/>
<path d="M95.5799 7.45171C97.2468 7.41366 98.495 8.57818 98.5407 10.2146C98.5863 11.7901 97.3305 13.0764 95.6941 13.1145C94.0424 13.1525 92.7105 11.9043 92.6724 10.2983C92.642 8.74562 93.9207 7.49738 95.5799 7.45171Z" fill="#F5AD1D"/>
<path d="M176.19 43.1937C176.206 44.7464 176.213 46.2991 176.228 47.8518C176.228 48.1182 176.244 48.3389 175.848 48.3465C175.429 48.3541 175.422 48.141 175.422 47.829C175.422 45.8272 175.422 43.8254 175.437 41.8237C175.437 41.6182 175.254 41.2528 175.711 41.2604C176.069 41.2604 176.449 41.1311 176.624 41.6715C177.081 43.0643 177.606 44.4343 178.108 45.812C178.177 46.0099 178.253 46.2078 178.375 46.5427C178.74 45.5304 179.075 44.6322 179.395 43.7341C179.638 43.0567 179.905 42.3793 180.103 41.6867C180.27 41.1006 180.704 41.2604 181.077 41.2604C181.526 41.2604 181.328 41.641 181.328 41.8389C181.343 43.8178 181.336 45.7968 181.336 47.7757C181.336 48.0801 181.381 48.3465 180.902 48.3465C180.445 48.3465 180.445 48.1106 180.453 47.7833C180.468 46.0708 180.399 44.3582 180.46 42.6229C179.95 44.0081 179.44 45.3857 178.93 46.771C178.87 46.9308 178.824 47.0907 178.755 47.2505C178.672 47.4408 178.634 47.6539 178.337 47.6463C178.032 47.6387 178.009 47.4103 177.941 47.2201C177.401 45.7435 176.86 44.2669 176.32 42.7903C175.962 42.8131 176.198 43.0339 176.19 43.1709V43.1937Z" fill="#F5AD1D"/>
<path d="M109.972 47.0372C109.888 45.2638 109.972 43.5208 109.949 41.7703C109.949 41.481 109.911 41.2451 110.353 41.2451C110.771 41.2451 110.84 41.3973 110.84 41.7703C110.825 43.772 110.84 45.7738 110.825 47.7831C110.825 47.981 110.969 48.3159 110.589 48.3312C110.277 48.3464 109.927 48.4834 109.698 48.0648C108.777 46.4055 107.833 44.7691 106.89 43.1251C106.798 42.9652 106.76 42.7597 106.616 42.676C106.616 43.4447 106.616 44.2287 106.616 45.0203C106.616 45.9793 106.608 46.9383 106.616 47.8973C106.616 48.2018 106.578 48.3692 106.205 48.3616C105.862 48.3616 105.717 48.2779 105.717 47.8973C105.733 45.8727 105.717 43.8481 105.733 41.8235C105.733 41.6257 105.573 41.2908 105.969 41.2831C106.281 41.2831 106.616 41.1385 106.852 41.5648C107.719 43.1479 108.633 44.7082 109.531 46.2761C109.675 46.5273 109.812 46.7861 109.957 47.0449L109.972 47.0372Z" fill="#F5AD1D"/>
<path d="M122.615 48.461C121.839 48.5142 121.146 48.2326 120.514 47.7531C120.324 47.6085 120.111 47.4867 120.37 47.2127C120.567 46.9996 120.689 46.7865 121.024 47.0833C121.633 47.6161 122.364 47.814 123.163 47.6542C123.696 47.5476 124.061 47.2508 124.152 46.7028C124.236 46.1776 123.985 45.797 123.521 45.5687C123.003 45.3175 122.478 45.0892 121.96 44.8456C120.788 44.2976 120.347 43.5593 120.598 42.5546C120.811 41.7022 121.747 41.1085 122.851 41.1313C123.467 41.1466 124.023 41.3521 124.518 41.7022C124.7 41.8316 124.929 41.9686 124.678 42.2578C124.487 42.4709 124.365 42.6003 124.061 42.3644C123.513 41.9381 122.874 41.7935 122.196 42.0142C121.808 42.1436 121.526 42.3796 121.473 42.8134C121.42 43.2397 121.557 43.5517 121.93 43.7877C122.546 44.1834 123.254 44.3737 123.894 44.701C125.127 45.3327 125.484 46.6723 124.662 47.677C124.152 48.2935 123.445 48.5066 122.622 48.4534L122.615 48.461Z" fill="#F5AD1D"/>
<path d="M183.269 44.7541C183.269 43.7342 183.284 42.7067 183.269 41.6868C183.269 41.3519 183.368 41.2453 183.703 41.2529C184.791 41.2682 185.879 41.2682 186.968 41.2529C187.257 41.2529 187.386 41.3138 187.386 41.6411C187.386 41.9532 187.272 42.0369 186.975 42.0293C186.184 42.0141 185.392 42.0369 184.608 42.0217C184.281 42.0141 184.152 42.113 184.167 42.4555C184.19 42.9046 184.197 43.3536 184.167 43.7951C184.137 44.2137 184.327 44.305 184.692 44.2898C185.271 44.267 185.841 44.2898 186.42 44.2822C186.717 44.2822 186.899 44.3127 186.899 44.6856C186.899 45.0509 186.709 45.0281 186.45 45.0205C185.857 45.0053 185.263 45.0357 184.669 45.0129C184.274 44.9977 184.137 45.1423 184.167 45.5305C184.197 45.9947 184.22 46.4743 184.167 46.9309C184.098 47.5322 184.357 47.654 184.89 47.6235C185.613 47.5855 186.344 47.6235 187.067 47.6083C187.341 47.6083 187.493 47.6388 187.501 47.9813C187.501 48.339 187.318 48.3542 187.059 48.3542C185.933 48.3542 184.814 48.339 183.687 48.3542C183.337 48.3542 183.261 48.2096 183.269 47.8976C183.284 46.8548 183.269 45.8121 183.269 44.7693V44.7541Z" fill="#F5AD1D"/>
<path d="M112.773 44.7693C112.773 43.7723 112.789 42.7676 112.773 41.7705C112.773 41.4128 112.811 41.2377 113.245 41.2453C114.311 41.2758 115.376 41.2682 116.442 41.2453C116.762 41.2453 116.891 41.3062 116.891 41.6639C116.891 42.0141 116.716 42.0293 116.45 42.0217C115.726 42.0141 114.996 42.0597 114.273 42.0064C113.74 41.9684 113.611 42.1739 113.664 42.6458C113.702 42.9807 113.709 43.3308 113.664 43.6657C113.595 44.2061 113.831 44.3127 114.311 44.2822C114.866 44.2442 115.422 44.2822 115.97 44.2746C116.206 44.2746 116.381 44.2898 116.381 44.6019C116.381 44.9063 116.29 45.0205 115.985 45.0129C115.369 44.9977 114.76 45.0281 114.143 45.0053C113.801 44.9901 113.641 45.0662 113.656 45.4543C113.687 46.0252 113.679 46.6036 113.656 47.1745C113.641 47.517 113.77 47.6159 114.098 47.6083C114.904 47.5931 115.719 47.6083 116.526 47.6007C116.807 47.6007 117.005 47.6007 117.005 47.9965C117.005 48.3694 116.777 48.3466 116.548 48.3466C115.43 48.3466 114.303 48.3314 113.184 48.3466C112.834 48.3466 112.758 48.2172 112.758 47.8976C112.773 46.8548 112.758 45.8121 112.758 44.7693H112.773Z" fill="#F5AD1D"/>
<path d="M127.767 45.1344C127.767 44.2439 127.752 43.3458 127.767 42.4553C127.775 42.1204 127.676 42.0062 127.333 42.0214C126.869 42.0443 126.397 42.0138 125.925 42.029C125.636 42.0443 125.568 41.9149 125.575 41.6485C125.575 41.4125 125.583 41.2451 125.903 41.2451C127.44 41.2603 128.97 41.2527 130.507 41.2451C130.842 41.2451 130.812 41.443 130.819 41.6637C130.827 41.892 130.766 42.0214 130.5 42.0138C130.119 41.9986 129.723 42.0519 129.35 41.9986C128.734 41.9149 128.627 42.1813 128.635 42.7369C128.665 44.419 128.643 46.1011 128.65 47.7755C128.65 48.0876 128.681 48.3388 128.209 48.3388C127.76 48.3388 127.744 48.1333 127.744 47.7908C127.76 46.9002 127.744 46.0021 127.744 45.1116L127.767 45.1344Z" fill="#F5AD1D"/>
<path d="M152.101 45.1573C152.101 44.3276 152.063 43.4904 152.116 42.6608C152.147 42.1052 151.949 41.9529 151.431 42.0138C151.073 42.0519 150.708 42.0138 150.343 42.029C150.053 42.0443 149.924 41.9682 149.932 41.6409C149.932 41.3288 150.038 41.2451 150.343 41.2451C151.819 41.2603 153.288 41.2527 154.765 41.2451C155.046 41.2451 155.199 41.2908 155.191 41.6256C155.191 41.9377 155.085 42.0367 154.78 42.0214C154.354 42.0062 153.92 42.0443 153.501 42.0062C153.09 41.9682 153.007 42.128 153.014 42.5086C153.037 44.2591 153.014 46.0021 153.029 47.7527C153.029 48.1028 153.045 48.354 152.55 48.3388C152.078 48.3312 152.109 48.0724 152.116 47.7603C152.116 46.885 152.116 46.0097 152.116 45.142L152.101 45.1573Z" fill="#F5AD1D"/>
<path d="M138.613 45.1804C138.613 44.2823 138.598 43.3918 138.613 42.4937C138.621 42.1435 138.53 41.9913 138.149 42.0141C137.7 42.0446 137.251 42.0141 136.802 42.0294C136.513 42.0446 136.444 41.9076 136.444 41.6488C136.444 41.4052 136.467 41.253 136.779 41.253C138.294 41.2682 139.808 41.2606 141.323 41.253C141.658 41.253 141.627 41.4585 141.635 41.6793C141.643 41.9152 141.574 42.037 141.315 42.0294C140.912 42.0141 140.501 42.0674 140.098 42.0141C139.588 41.9533 139.504 42.1664 139.512 42.623C139.534 44.328 139.519 46.0329 139.527 47.7378C139.527 48.0651 139.588 48.3543 139.062 48.3543C138.553 48.3543 138.591 48.0727 138.598 47.7378C138.598 46.8853 138.598 46.0329 138.598 45.1804H138.613Z" fill="#F5AD1D"/>
<path d="M168.655 41.2607C169.378 41.2607 170.109 41.2683 170.832 41.2607C171.106 41.2607 171.265 41.3064 171.258 41.6413C171.258 41.9533 171.151 42.0523 170.847 42.0371C170.443 42.0142 170.032 42.0599 169.629 42.0218C169.18 41.9838 169.051 42.136 169.058 42.5851C169.081 44.328 169.066 46.0786 169.066 47.8216C169.066 48.0728 169.127 48.3316 168.716 48.3468C168.328 48.362 168.198 48.2402 168.206 47.8444C168.221 46.1167 168.191 44.3965 168.229 42.6688C168.244 42.1208 168.061 41.9609 167.544 42.0218C167.186 42.0599 166.82 42.0142 166.455 42.0371C166.151 42.0523 166.052 41.9457 166.052 41.6413C166.052 41.3064 166.196 41.2607 166.478 41.2607C167.201 41.2759 167.932 41.2607 168.655 41.2607Z" fill="#F5AD1D"/>
<path d="M172.506 44.7767C172.506 43.7568 172.522 42.7369 172.506 41.717C172.499 41.3516 172.621 41.2451 172.978 41.2451C173.336 41.2451 173.45 41.3516 173.45 41.717C173.435 43.7568 173.435 45.7966 173.45 47.844C173.45 48.2322 173.336 48.354 172.948 48.354C172.544 48.354 172.514 48.1561 172.514 47.844C172.529 46.8241 172.514 45.8042 172.514 44.7843L172.506 44.7767Z" fill="#F5AE1F"/>
<path d="M26.2715 55.3491C27.3675 55.3643 28.4635 55.3719 29.5595 55.3871C28.4635 55.4937 27.3675 55.547 26.2715 55.3491Z" fill="#FBE7CA"/>
<path d="M176.19 43.194C176.031 42.9733 176.069 42.7373 176.107 42.4938C176.312 42.5242 176.32 42.6612 176.32 42.8134C176.152 42.8972 176.244 43.0722 176.19 43.194Z" fill="#FCD69A"/>
<path d="M0.408376 27.9104C0.606268 28.1615 0.492099 28.4508 0.492099 28.7172C0.294207 28.466 0.408376 28.1768 0.408376 27.9104Z" fill="#FBE7CA"/>
<path d="M188.939 26.6698C188.939 25.2617 188.924 23.8612 188.939 22.4531C188.977 19.4924 187.813 17.2623 184.951 16.1967C181.465 14.9104 177.941 15.1159 174.508 16.3794C172.826 16.9959 172.461 18.6704 173.473 20.0937C173.77 20.5123 174.036 20.6036 174.531 20.3981C176.647 19.5228 178.839 19.0661 181.138 19.401C183.018 19.675 183.961 20.7102 183.984 22.476C183.984 22.8794 183.862 23.0468 183.459 23.0773C182.439 23.161 181.419 23.2523 180.407 23.3665C178.694 23.5644 176.967 23.6329 175.323 24.2418C172.05 25.4596 170.649 29.3185 172.4 32.3554C173.351 34.007 174.912 34.7986 176.67 35.24C178.938 35.8109 181.229 35.7804 183.528 35.4151C185.012 35.1791 186.435 34.7834 187.683 33.8776C188.543 33.2535 188.985 32.4771 188.954 31.3963C188.909 29.8208 188.947 28.2453 188.947 26.6698H188.939ZM183.261 31.3811C181.655 31.8378 180.042 31.9976 178.413 31.5257C177.309 31.2061 176.723 30.3917 176.723 29.3261C176.723 28.291 177.248 27.644 178.382 27.2634C179.692 26.822 181.069 26.8677 182.416 26.7002C182.607 26.6774 182.797 26.685 182.987 26.6698C183.642 26.614 183.969 26.9209 183.969 27.5907V28.8694C183.969 29.3565 183.923 29.8513 183.984 30.3384C184.06 30.9397 183.802 31.2289 183.254 31.3887L183.261 31.3811Z" fill="#F5AD1D"/>
<path d="M104.035 43.3612C103.716 42.151 102.65 41.2453 101.432 41.1387C100.154 41.0322 99.0425 41.6791 98.5173 42.8817C97.9541 44.1832 97.9769 45.5076 98.5478 46.7863C99.0501 47.9127 99.9559 48.4988 101.235 48.476C102.49 48.4531 103.305 47.8214 103.83 46.733C104.119 46.1241 104.241 45.4847 104.195 44.7997C104.241 44.3202 104.165 43.8331 104.035 43.3612ZM102.658 46.9613C101.783 48.1106 100.139 47.9203 99.4535 46.5884C99.1643 46.0251 99.0577 45.4239 99.0654 44.8606C99.0501 44.1071 99.1871 43.4449 99.5525 42.8513C100.306 41.6258 101.942 41.603 102.749 42.7904C103.495 43.894 103.449 45.9186 102.65 46.9689L102.658 46.9613Z" fill="#F5AD1D"/>
<path d="M149.818 47.7608C149.148 45.7438 148.455 43.742 147.793 41.725C147.672 41.3597 147.512 41.177 147.124 41.2684C146.743 41.1846 146.56 41.3293 146.438 41.7174C145.776 43.7572 145.091 45.7894 144.383 47.8064C144.231 48.2555 144.338 48.3697 144.779 48.3392C145.023 48.324 145.16 48.2631 145.236 48.0043C145.365 47.5324 145.54 47.0757 145.685 46.6115C145.746 46.4212 145.784 46.2309 146.035 46.2309C146.804 46.2309 147.633 46.0787 148.311 46.3222C148.745 46.4821 148.707 47.3345 148.912 47.8597C148.927 47.8978 148.943 47.9434 148.95 47.9815C149.049 48.5067 149.475 48.3697 149.765 48.3088C150.138 48.225 149.879 47.9358 149.818 47.7608ZM146.591 43.6887C146.751 43.1712 146.903 42.6536 147.101 41.999C147.474 43.2245 147.809 44.3281 148.143 45.4317C146.692 45.5839 146.175 45.0029 146.591 43.6887Z" fill="#F5AD1D"/>
<path d="M163.328 47.8214C162.65 45.7892 161.942 43.757 161.273 41.7248C161.151 41.3519 160.983 41.1768 160.595 41.2757C160.207 41.1768 160.04 41.3671 159.925 41.7248C159.256 43.7418 158.563 45.7435 157.893 47.7605C157.832 47.9356 157.566 48.2248 157.939 48.3161C158.236 48.3922 158.624 48.476 158.746 47.9736C158.852 47.517 159.027 47.0831 159.149 46.6341C159.225 46.3448 159.37 46.2154 159.689 46.2307C160.283 46.2535 160.884 46.2459 161.478 46.2307C161.783 46.223 161.942 46.3144 162.019 46.6264C162.14 47.1212 162.315 47.6007 162.468 48.0878C162.62 48.5597 163.023 48.3466 163.274 48.3161C163.624 48.2705 163.381 47.9812 163.335 47.829L163.328 47.8214ZM159.72 45.401C159.347 45.0509 159.933 44.2898 160.07 43.7037C160.192 43.1938 160.367 42.699 160.572 42.0064C160.953 43.2547 161.28 44.3202 161.63 45.4695C160.923 45.4695 160.047 45.7207 159.72 45.401Z" fill="#F5AD1D"/>
<path d="M136.338 47.7758C135.668 45.7359 134.968 43.7114 134.298 41.6715C134.184 41.3138 133.993 41.192 133.643 41.2758C133.202 41.1464 133.065 41.4052 132.943 41.7705C132.281 43.7646 131.603 45.7588 130.934 47.7529C130.873 47.928 130.713 48.1411 130.85 48.2781C130.994 48.4303 131.253 48.3314 131.466 48.3314C131.695 48.3314 131.718 48.1487 131.771 47.9889C131.915 47.5246 132.06 47.0527 132.212 46.5884C132.266 46.4133 132.296 46.2231 132.57 46.2307C133.339 46.2535 134.176 46.0708 134.846 46.3296C135.302 46.5047 135.249 47.38 135.462 47.928C135.462 47.9508 135.47 47.966 135.478 47.9889C135.584 48.5064 136.003 48.377 136.3 48.3162C136.703 48.24 136.414 47.9356 136.36 47.7758H136.338ZM132.768 45.4087C132.365 45.0281 132.989 44.2974 133.126 43.7037C133.247 43.171 133.415 42.6458 133.605 41.9836C133.986 43.2166 134.321 44.3203 134.678 45.4772C133.978 45.4772 133.103 45.7283 132.768 45.4087Z" fill="#F5AD1D"/>
</svg>
