<svg width="145" height="58" viewBox="0 0 145 58" fill="none" xmlns="http://www.w3.org/2000/svg">
<mask id="mask0_502_2172" style="mask-type:luminance" maskUnits="userSpaceOnUse" x="0" y="0" width="145" height="58">
<path d="M144.384 0.697479H0V57.3025H144.384V0.697479Z" fill="white"/>
</mask>
<g mask="url(#mask0_502_2172)">
<path fill-rule="evenodd" clip-rule="evenodd" d="M23.9005 26.8195C23.9155 25.8891 23.6562 24.9788 23.1577 24.1942C22.6591 23.4147 21.9362 22.8011 21.0887 22.434C20.2412 22.0668 19.3039 21.9612 18.4015 22.1372C17.4942 22.3082 16.6616 22.7508 16.0035 23.3996C15.3455 24.0534 14.8968 24.8883 14.7123 25.7986C14.5278 26.7089 14.6126 27.6544 14.9616 28.5144C15.3106 29.3744 15.9038 30.1138 16.6716 30.6318C17.4344 31.1498 18.3367 31.4264 19.259 31.4264C19.8623 31.4314 20.4655 31.3208 21.0239 31.0894C21.5873 30.8631 22.0958 30.5211 22.5295 30.0936C22.9632 29.6661 23.3023 29.1582 23.5416 28.5949C23.7759 28.0316 23.9005 27.4281 23.9055 26.8195H23.9005Z" fill="#EF3B53"/>
<path fill-rule="evenodd" clip-rule="evenodd" d="M1.43053 0.787897C0.0645116 6.47607 15.2652 34.6202 19.0192 40.59C19.797 41.8473 22.7633 46.3737 24.9021 48.7526C24.9619 48.1289 25.0317 47.4701 25.0766 46.7056C25.9889 29.4551 29.4189 5.97313 51.8634 7.63281C62.5323 8.39727 78.082 15.1265 89.0101 18.305C107.317 23.6412 121.316 24.3251 139.727 18.6018C141.891 17.9278 142.075 17.7418 144.369 17.5003C142.704 19.2204 142.579 19.2405 140.49 20.4174C122.687 30.5062 101.623 28.8264 82.5789 23.9429C73.9391 21.7401 56.0163 15.4182 47.6906 16.7962C37.3109 18.5515 34.7932 31.9798 33.3873 40.7409C32.8738 43.8641 32.5847 48.823 31.9814 51.4986C30.9794 55.9244 27.5444 58.9169 23.3466 56.3871C14.1385 50.8599 1.35076 17.0326 0.0844535 6.21454C0.0196425 5.7267 -0.434034 -0.0721173 1.42056 0.787897H1.43053ZM26.5473 50.1507C26.6171 50.1859 26.6919 50.2111 26.7666 50.2161C26.6968 50.1859 26.6221 50.1658 26.5473 50.1507Z" fill="#272727"/>
<path d="M66.6304 54.0084H61.5602L58.4643 46.2532L56.4352 40.6455L54.5158 46.2884L51.5345 54.0084H46.2549L39.7389 34.4242H37.306V29.7871H47.9749V34.4242H45.4672L49.2063 46.7058L54.7651 30.788H58.195L63.8685 46.7058L67.3982 34.4242H64.8606V29.7871H75.2902V34.4242H73.0966L66.6304 54.0084Z" fill="#272727"/>
<path d="M94.175 49.8187V54.0081H87.6889L87.3798 52.0668C85.4305 54.0081 83.3366 54.4557 81.1878 54.4557C76.3819 54.4557 73.1263 51.2721 73.1263 45.6644C73.1263 41.0274 76.2223 36.7022 81.3573 36.4256C83.7254 36.4256 85.7844 36.7022 87.3947 38.6083L87.5991 36.843H94.0503V41.133H91.8866V49.8187H94.17H94.175ZM77.8825 45.6544C77.8825 48.2897 79.6673 50.226 82.4791 50.226C85.4604 50.226 87.315 48.2193 87.315 45.6242C87.3499 42.9235 85.7695 41.0525 82.6735 41.0525C79.8418 41.0626 77.8875 43.0743 77.8875 45.6644V45.6544H77.8825Z" fill="#272727"/>
<path d="M96.7475 40.9572H94.2448V36.8382H103.917V40.9572H102.062L105.562 49.1902L108.807 40.9572H107.102V36.8382H116.809V40.9572H114.232L108.169 54.2095H102.75L96.7425 40.9572H96.7475Z" fill="#272727"/>
<path d="M132.832 51.7904C130.978 53.621 127.927 54.4911 125.424 54.4911C118.803 54.4911 116.021 50.4073 116.021 45.2824C116.021 40.1575 119.591 36.3554 125.18 36.3554C130.768 36.3554 134.408 39.3629 133.436 47.1181H120.892C121.136 48.8482 122.677 50.1257 125.534 50.1257C127.149 50.1106 128.719 49.5875 130.025 48.637L132.827 51.7853L132.832 51.7904ZM129.023 43.4618C129.093 41.3495 127.343 40.4845 125.214 40.4845C123.086 40.4845 121.266 41.4501 120.857 43.4618H129.018H129.023Z" fill="#272727"/>
</g>
</svg>
