<svg width="150" height="61" viewBox="0 0 150 61" fill="none" xmlns="http://www.w3.org/2000/svg">
<g clip-path="url(#clip0_309_1822)">
<path d="M12.5192 7.94732C15.6459 7.69719 19.0852 8.19745 21.0863 8.51012C22.0243 8.69772 22.5871 9.57319 22.3995 10.5112L17.5844 34.1489C17.3343 35.2745 16.3963 36.1499 15.2707 36.1499H11.3936L13.0195 28.2082C12.9569 28.2082 11.5812 29.0211 8.82971 29.0211C3.70197 29.0211 -0.86298 25.144 0.137556 18.8907C1.38823 11.2616 7.14131 8.32252 12.5192 7.94732ZM10.8308 25.3942C12.6443 25.3942 13.6448 25.0815 15.0831 24.1435L17.5219 12.1996C17.5219 12.1996 15.9585 11.074 13.3321 11.2616C10.7057 11.4492 8.26691 13.3877 7.14131 18.8907C6.45344 24.8314 9.26745 25.3942 10.8308 25.3942Z" fill="#488559"/>
<path d="M21.7115 21.0793L24.0878 9.4481C24.2754 8.57263 25.0258 7.9473 25.8387 7.9473H30.1535L27.4646 21.0793C26.5891 25.3316 27.4646 26.5823 29.4656 26.5823C31.4667 26.5823 34.5309 24.6437 34.5934 24.5812L37.9077 7.9473H41.4721C42.5977 7.9473 43.4732 9.0729 43.223 10.261L40.5966 23.2055C40.0338 25.8944 38.2203 28.1456 35.719 28.9586C32.7174 29.9591 30.2786 30.0842 28.8403 30.0842C23.4624 30.0842 20.3358 27.6454 21.7115 21.0793Z" fill="#488559"/>
<path d="M47.2879 7.9473H51.4151L47.4754 27.2702C47.2253 28.3958 46.2873 29.1462 45.2242 29.1462H41.3472L45.2242 9.69823C45.4744 8.6977 46.2873 7.9473 47.2879 7.9473Z" fill="#488559"/>
<path d="M67.9863 26.4572C68.1114 27.02 67.8612 27.6454 67.2984 27.958C65.0472 29.1462 62.671 30.0842 59.2316 30.0842C53.9163 30.0842 49.5389 25.7068 51.1023 18.0777C52.6031 10.6362 58.919 7.9473 63.8591 7.9473C65.7351 7.9473 67.9238 8.44756 69.7373 9.01037C70.6753 9.32303 71.1755 10.3861 70.8003 11.3866L69.9249 13.8254C69.7998 14.2006 69.362 14.2632 69.1119 14.013C66.7982 11.7618 64.9847 11.074 63.1087 11.199C61.2327 11.3241 58.106 12.4497 56.9179 18.0152C55.7297 23.5807 58.3562 26.082 60.1071 26.2696C62.796 26.5197 66.0478 24.4561 67.0483 23.7057C67.2359 23.5807 67.4235 23.7057 67.486 23.8933L67.9863 26.4572Z" fill="#488559"/>
<path d="M77.6792 18.3279L76.4285 19.4535L74.9277 26.6448C74.615 28.1456 73.3644 29.2087 71.9261 29.2087H68.6118L73.9897 2.75702C74.2398 1.63142 75.1778 0.818481 76.2409 0.818481H80.1805L77.6166 13.3877L82.5568 8.76024C83.1196 8.19744 83.87 7.9473 84.6204 7.9473H89.9983L81.9315 14.7635L85.9336 25.3941C86.6215 27.2702 85.3083 29.2712 83.4323 29.2712H81.3686L77.6792 18.3279Z" fill="#488559"/>
<path d="M94.4818 41.3777L92.4182 51.6332C92.168 52.8213 91.1675 53.6968 89.9794 53.6968H86.2274L88.7287 41.3152C89.6667 36.8127 88.7912 35.5621 86.7902 35.5621C84.9767 35.5621 82.4753 37.3755 82.4128 37.4381L79.5363 51.7583C79.2861 52.8839 78.3481 53.6968 77.2851 53.6968H73.3455L75.8468 41.3152C76.7223 36.8127 75.9093 35.5621 73.9083 35.5621C72.0323 35.5621 69.656 37.3755 69.656 37.2505L66.7169 51.6332C66.4668 52.8213 65.4662 53.6968 64.2781 53.6968H60.5886L63.8404 37.6882C64.153 36.1249 65.1536 34.8117 66.5293 34.1863C70.2188 32.4979 72.9077 32.3729 74.5336 32.3729C77.5977 32.3729 80.2241 33.7486 80.5993 34.499C82.4128 33.3109 85.5395 32.3729 87.353 32.3729C92.8559 32.4354 95.7325 35.4995 94.4818 41.3777Z" fill="#488559"/>
<path d="M111.923 32.498H116.675L102.918 55.01C101.292 57.2612 98.4153 62.0763 91.5992 60.3879C90.9739 60.2003 90.5987 59.5124 90.7863 58.8246L91.4741 56.5108C91.5992 56.1356 92.0369 55.948 92.4121 56.1356C95.1636 57.8866 95.4763 57.8866 99.1032 51.9459L96.1016 34.4365C95.914 33.3734 96.6644 32.4354 97.7275 32.4354H101.73L103.418 44.8171L110.297 33.436C110.547 32.8732 111.235 32.498 111.923 32.498Z" fill="#488559"/>
<path d="M134.003 41.3777L131.94 51.5081C131.689 52.8213 130.564 53.7593 129.313 53.7593H125.749L128.25 41.3777C129.188 36.9378 128.313 35.6872 126.312 35.6872C124.936 35.6872 123.185 36.4376 122.122 37.0004C121.559 37.2505 121.184 37.8133 121.059 38.3761L118.495 51.1329C118.182 52.6963 116.869 53.8219 115.306 53.8219H112.116L115.431 37.5006C115.681 36.1874 116.556 35.0618 117.744 34.499C121.747 32.623 125.061 32.5605 126.812 32.5605C132.252 32.4354 135.379 34.8117 134.003 41.3777Z" fill="#488559"/>
<path d="M145.572 52.3211C145.697 53.009 145.322 53.6343 144.696 53.8219C137.255 55.823 134.628 53.5718 135.816 48.444L138.38 35.9373H135.629C135.254 35.9373 134.941 35.5621 135.066 35.1869L135.379 33.561C135.504 32.9357 136.004 32.498 136.629 32.498H139.006L139.256 31.2473C139.506 30.0592 140.194 28.9961 141.194 28.3708L145.759 25.4317C145.947 25.3066 146.26 25.4942 146.197 25.7444L144.821 32.498H148.323C148.886 32.498 149.386 33.0608 149.261 33.6861L149.011 35.0618C148.886 35.5621 148.448 35.9373 147.948 35.9373H144.196L141.757 48.0063C141.069 51.4456 142.007 51.5082 144.321 50.1324C144.759 49.8823 145.259 50.1324 145.322 50.6327L145.572 52.3211Z" fill="#488559"/>
<path d="M51.1024 1.06861H46.7876C46.6 1.06861 46.4124 0.881011 46.4124 0.693411V0.630877C46.4124 0.443277 46.6 0.255676 46.7876 0.255676H51.1024C51.29 0.255676 51.4776 0.443277 51.4776 0.630877V0.693411C51.4776 0.943545 51.29 1.06861 51.1024 1.06861Z" fill="#488559"/>
<path d="M51.1024 5.75861H46.7876C46.6 5.75861 46.4124 5.57101 46.4124 5.38341V5.32088C46.4124 5.13328 46.6 4.94568 46.7876 4.94568H51.1024C51.29 4.94568 51.4776 5.13328 51.4776 5.32088V5.38341C51.4776 5.57101 51.29 5.75861 51.1024 5.75861Z" fill="#488559"/>
<path d="M53.6036 3.38236H49.2888C49.1012 3.38236 48.9136 3.19476 48.9136 3.00716V2.94463C48.9136 2.75703 49.1012 2.56943 49.2888 2.56943H53.6036C53.7912 2.56943 53.9788 2.75703 53.9788 2.94463V3.00716C53.9788 3.2573 53.8537 3.38236 53.6036 3.38236Z" fill="#488559"/>
</g>
<defs>
<clipPath id="clip0_309_1822">
<rect width="149.28" height="60.4887" fill="white" transform="translate(0 0.255676)"/>
</clipPath>
</defs>
</svg>
