<svg width="150" height="61" viewBox="0 0 150 61" fill="none" xmlns="http://www.w3.org/2000/svg">
<g clip-path="url(#clip0_650_2471)">
<path d="M12.5192 7.69164C15.6459 7.44151 19.0852 7.94178 21.0863 8.25445C22.0243 8.44205 22.5871 9.31752 22.3995 10.2555L17.5844 33.8932C17.3343 35.0188 16.3963 35.8943 15.2707 35.8943H11.3936L13.0195 27.9525C12.9569 27.9525 11.5812 28.7654 8.82971 28.7654C3.70197 28.7654 -0.86298 24.8884 0.137556 18.635C1.38823 11.0059 7.14131 8.06685 12.5192 7.69164ZM10.8308 25.1385C12.6443 25.1385 13.6448 24.8258 15.0831 23.8878L17.5219 11.9439C17.5219 11.9439 15.9585 10.8183 13.3321 11.0059C10.7057 11.1935 8.26691 13.1321 7.14131 18.635C6.45344 24.5757 9.26745 25.1385 10.8308 25.1385Z" fill="white"/>
<path d="M21.7115 20.8237L24.0878 9.19242C24.2754 8.31695 25.0258 7.69162 25.8387 7.69162H30.1535L27.4646 20.8237C26.5891 25.0759 27.4646 26.3266 29.4656 26.3266C31.4667 26.3266 34.5309 24.3881 34.5934 24.3255L37.9077 7.69162H41.4721C42.5977 7.69162 43.4732 8.81722 43.223 10.0054L40.5966 22.9498C40.0338 25.6387 38.2203 27.8899 35.719 28.7029C32.7174 29.7034 30.2786 29.8285 28.8403 29.8285C23.4624 29.8285 20.3358 27.3897 21.7115 20.8237Z" fill="white"/>
<path d="M47.2879 7.69162H51.4151L47.4754 27.0145C47.2253 28.1401 46.2873 28.8905 45.2242 28.8905H41.3472L45.2242 9.44256C45.4744 8.44202 46.2873 7.69162 47.2879 7.69162Z" fill="white"/>
<path d="M67.9863 26.2015C68.1114 26.7643 67.8612 27.3897 67.2984 27.7023C65.0472 28.8905 62.671 29.8285 59.2316 29.8285C53.9163 29.8285 49.5389 25.4511 51.1023 17.822C52.6031 10.3806 58.919 7.69162 63.8591 7.69162C65.7351 7.69162 67.9238 8.19189 69.7373 8.75469C70.6753 9.06736 71.1755 10.1304 70.8003 11.131L69.9249 13.5698C69.7998 13.945 69.362 14.0075 69.1119 13.7574C66.7982 11.5062 64.9847 10.8183 63.1087 10.9434C61.2327 11.0684 58.106 12.194 56.9179 17.7595C55.7297 23.325 58.3562 25.8263 60.1071 26.0139C62.796 26.2641 66.0478 24.2005 67.0483 23.4501C67.2359 23.325 67.4235 23.4501 67.486 23.6377L67.9863 26.2015Z" fill="white"/>
<path d="M77.6792 18.0722L76.4285 19.1978L74.9277 26.3891C74.615 27.8899 73.3644 28.953 71.9261 28.953H68.6118L73.9897 2.50134C74.2398 1.37574 75.1778 0.562805 76.2409 0.562805H80.1805L77.6166 13.132L82.5568 8.50456C83.1196 7.94176 83.87 7.69163 84.6204 7.69163H89.9983L81.9315 14.5078L85.9336 25.1385C86.6215 27.0145 85.3083 29.0156 83.4323 29.0156H81.3686L77.6792 18.0722Z" fill="white"/>
<path d="M94.4818 41.122L92.4182 51.3775C92.168 52.5656 91.1675 53.4411 89.9794 53.4411H86.2274L88.7287 41.0595C89.6667 36.5571 88.7912 35.3064 86.7902 35.3064C84.9767 35.3064 82.4753 37.1199 82.4128 37.1824L79.5363 51.5026C79.2861 52.6282 78.3481 53.4411 77.2851 53.4411H73.3455L75.8468 41.0595C76.7223 36.5571 75.9093 35.3064 73.9083 35.3064C72.0323 35.3064 69.656 37.1199 69.656 36.9948L66.7169 51.3775C66.4668 52.5656 65.4662 53.4411 64.2781 53.4411H60.5886L63.8404 37.4325C64.153 35.8692 65.1536 34.556 66.5293 33.9307C70.2188 32.2423 72.9077 32.1172 74.5336 32.1172C77.5977 32.1172 80.2241 33.4929 80.5993 34.2433C82.4128 33.0552 85.5395 32.1172 87.353 32.1172C92.8559 32.1797 95.7325 35.2439 94.4818 41.122Z" fill="white"/>
<path d="M111.923 32.2423H116.675L102.918 54.7543C101.292 57.0056 98.4153 61.8206 91.5992 60.1322C90.9739 59.9446 90.5987 59.2568 90.7863 58.5689L91.4741 56.2551C91.5992 55.8799 92.0369 55.6923 92.4121 55.8799C95.1636 57.6309 95.4763 57.6309 99.1032 51.6902L96.1016 34.1808C95.914 33.1178 96.6644 32.1797 97.7275 32.1797H101.73L103.418 44.5614L110.297 33.1803C110.547 32.6175 111.235 32.2423 111.923 32.2423Z" fill="white"/>
<path d="M134.003 41.122L131.94 51.2525C131.689 52.5657 130.564 53.5037 129.313 53.5037H125.749L128.25 41.122C129.188 36.6822 128.313 35.4315 126.312 35.4315C124.936 35.4315 123.185 36.1819 122.122 36.7447C121.559 36.9948 121.184 37.5576 121.059 38.1204L118.495 50.8773C118.182 52.4406 116.869 53.5662 115.306 53.5662H112.116L115.431 37.245C115.681 35.9317 116.556 34.8061 117.744 34.2433C121.747 32.3673 125.061 32.3048 126.812 32.3048C132.252 32.1797 135.379 34.556 134.003 41.122Z" fill="white"/>
<path d="M145.572 52.0654C145.697 52.7533 145.322 53.3786 144.696 53.5662C137.255 55.5673 134.628 53.3161 135.816 48.1883L138.38 35.6816H135.629C135.254 35.6816 134.941 35.3064 135.066 34.9312L135.379 33.3054C135.504 32.68 136.004 32.2423 136.629 32.2423H139.006L139.256 30.9916C139.506 29.8035 140.194 28.7404 141.194 28.1151L145.759 25.176C145.947 25.0509 146.26 25.2385 146.197 25.4887L144.821 32.2423H148.323C148.886 32.2423 149.386 32.8051 149.261 33.4304L149.011 34.8062C148.886 35.3064 148.448 35.6816 147.948 35.6816H144.196L141.757 47.7506C141.069 51.19 142.007 51.2525 144.321 49.8767C144.759 49.6266 145.259 49.8767 145.322 50.377L145.572 52.0654Z" fill="white"/>
<path d="M51.1024 0.812936H46.7876C46.6 0.812936 46.4124 0.625335 46.4124 0.437735V0.375201C46.4124 0.187601 46.6 0 46.7876 0H51.1024C51.29 0 51.4776 0.187601 51.4776 0.375201V0.437735C51.4776 0.687869 51.29 0.812936 51.1024 0.812936Z" fill="white"/>
<path d="M51.1024 5.50294H46.7876C46.6 5.50294 46.4124 5.31534 46.4124 5.12774V5.0652C46.4124 4.8776 46.6 4.69 46.7876 4.69H51.1024C51.29 4.69 51.4776 4.8776 51.4776 5.0652V5.12774C51.4776 5.31534 51.29 5.50294 51.1024 5.50294Z" fill="white"/>
<path d="M53.6036 3.12669H49.2888C49.1012 3.12669 48.9136 2.93909 48.9136 2.75149V2.68895C48.9136 2.50135 49.1012 2.31375 49.2888 2.31375H53.6036C53.7912 2.31375 53.9788 2.50135 53.9788 2.68895V2.75149C53.9788 3.00162 53.8537 3.12669 53.6036 3.12669Z" fill="white"/>
</g>
<defs>
<clipPath id="clip0_650_2471">
<rect width="149.28" height="60.4887" fill="white"/>
</clipPath>
</defs>
</svg>
