<svg width="32" height="32" viewBox="0 0 32 32" fill="none" xmlns="http://www.w3.org/2000/svg">
<path d="M15.9994 17.8667L19.866 21.7334C20.1105 21.9779 20.4216 22.1001 20.7994 22.1001C21.1771 22.1001 21.4882 21.9779 21.7327 21.7334C21.9771 21.489 22.0994 21.1779 22.0994 20.8001C22.0994 20.4223 21.9771 20.1112 21.7327 19.8667L17.866 16.0001L21.7327 12.1334C21.9771 11.889 22.0994 11.5779 22.0994 11.2001C22.0994 10.8223 21.9771 10.5112 21.7327 10.2667C21.4882 10.0223 21.1771 9.90008 20.7994 9.90008C20.4216 9.90008 20.1105 10.0223 19.866 10.2667L15.9994 14.1334L12.1327 10.2667C11.8882 10.0223 11.5771 9.90008 11.1994 9.90008C10.8216 9.90008 10.5105 10.0223 10.266 10.2667C10.0216 10.5112 9.89935 10.8223 9.89935 11.2001C9.89935 11.5779 10.0216 11.889 10.266 12.1334L14.1327 16.0001L10.266 19.8667C10.0216 20.1112 9.89935 20.4223 9.89935 20.8001C9.89935 21.1779 10.0216 21.489 10.266 21.7334C10.5105 21.9779 10.8216 22.1001 11.1994 22.1001C11.5771 22.1001 11.8882 21.9779 12.1327 21.7334L15.9994 17.8667ZM15.9994 29.3334C14.1549 29.3334 12.4216 28.9832 10.7994 28.2827C9.17713 27.5823 7.76602 26.6325 6.56602 25.4334C5.36602 24.2343 4.41624 22.8232 3.71668 21.2001C3.01713 19.577 2.66691 17.8436 2.66602 16.0001C2.66513 14.1565 3.01535 12.4232 3.71668 10.8001C4.41802 9.17697 5.3678 7.76586 6.56602 6.56675C7.76424 5.36764 9.17535 4.41786 10.7994 3.71741C12.4234 3.01697 14.1567 2.66675 15.9994 2.66675C17.842 2.66675 19.5753 3.01697 21.1994 3.71741C22.8234 4.41786 24.2345 5.36764 25.4327 6.56675C26.6309 7.76586 27.5811 9.17697 28.2834 10.8001C28.9856 12.4232 29.3354 14.1565 29.3327 16.0001C29.33 17.8436 28.9798 19.577 28.282 21.2001C27.5842 22.8232 26.6345 24.2343 25.4327 25.4334C24.2309 26.6325 22.8198 27.5827 21.1994 28.2841C19.5789 28.9854 17.8456 29.3352 15.9994 29.3334Z" fill="black"/>
</svg>
