<svg width="231" height="38" viewBox="0 0 231 38" fill="none" xmlns="http://www.w3.org/2000/svg">
<path fill-rule="evenodd" clip-rule="evenodd" d="M15.593 17.3965L16.9833 9.69823H20.1969C22.6292 9.69823 26.1903 10.1304 25.5821 13.3314C25.0609 16.3581 22.9766 17.3965 20.284 17.3965H15.593ZM12.2928 36.2539L14.204 25.4414H19.9366C29.9257 25.4414 35.1373 20.7704 36.5267 13.3314C37.7426 6.15124 33.747 1.65332 23.7586 1.65332H6.99416L0.913574 36.2539H12.2928Z" fill="#3384CA"/>
<path fill-rule="evenodd" clip-rule="evenodd" d="M50.5987 24.4029H43.3887L49.1219 12.0336L50.5987 24.4029ZM37.8298 36.2539L39.9148 31.6691H51.2935L51.8145 36.2539H63.1932L56.8524 1.65332H45.3L26.7122 36.2539H37.8298Z" fill="#3384CA"/>
<path fill-rule="evenodd" clip-rule="evenodd" d="M80.3919 23.4518L97.1558 1.65332H84.6478L76.57 13.3314L72.661 1.65332H59.9792L69.0127 23.6248L66.7547 36.2539H78.1332L80.3919 23.4518Z" fill="#3384CA"/>
<path fill-rule="evenodd" clip-rule="evenodd" d="M124.43 14.8013C125.038 5.97891 120.087 0.70166 109.403 0.70166C99.7618 0.70166 90.902 7.70866 88.9043 18.8672C86.9058 30.1123 92.639 37.1188 104.105 37.1188C113.225 37.1188 120.608 31.756 123.214 22.8462H112.27C111.227 26.1333 109.055 28.6417 105.408 28.6417C99.5882 28.6417 99.3272 24.1438 100.196 19.2131C101.412 12.5527 104.366 9.17923 108.448 9.17923C112.009 9.17923 113.92 11.2551 113.573 14.8013H124.43Z" fill="#3384CA"/>
<path fill-rule="evenodd" clip-rule="evenodd" d="M133.812 36.2539L136.157 22.8462H146.928L144.582 36.2539H155.961L162.041 1.65332H150.663L148.577 13.3314H137.807L139.892 1.65332H128.512L122.432 36.2539H133.812Z" fill="#3384CA"/>
<path fill-rule="evenodd" clip-rule="evenodd" d="M188.707 36.2539L190.097 28.1228H172.552L173.508 22.6732H187.839L189.229 14.6283H174.896L175.765 9.69823H192.703L194.181 1.65332H165.863L159.695 36.2539H188.707Z" fill="#3384CA"/>
<path fill-rule="evenodd" clip-rule="evenodd" d="M208.165 26.4792L211.985 36.2539H224.842L216.156 18.2614L230.835 1.65332H218.067L211.552 10.4763L208.165 1.65332H195.395L203.56 18.2614L188.012 36.2539H200.867L208.165 26.4792Z" fill="#3384CA"/>
</svg>
