<svg width="299" height="60" viewBox="0 0 299 60" fill="none" xmlns="http://www.w3.org/2000/svg">
<path d="M297.001 44.755C297.001 44.1267 296.477 43.9172 295.953 43.9172H294.958V46.7449H295.482V45.5929H295.849L296.529 46.7449H297.158L296.372 45.4881C296.739 45.4358 297.001 45.174 297.001 44.755ZM295.43 45.174V44.3885H295.901C296.163 44.3885 296.477 44.4409 296.477 44.755C296.477 45.1216 296.163 45.174 295.849 45.174H295.43ZM295.953 42.8699C294.592 42.8699 293.44 43.9696 293.44 45.3834C293.44 46.7972 294.54 47.8445 295.953 47.8445C297.367 47.8445 298.467 46.7449 298.467 45.3834C298.467 44.0219 297.315 42.8699 295.953 42.8699ZM295.953 47.478C294.801 47.478 293.859 46.5354 293.859 45.3834C293.859 44.2314 294.801 43.2888 295.953 43.2888C297.105 43.2888 298.048 44.2314 298.048 45.3834C298.048 46.5354 297.105 47.478 295.953 47.478ZM134.462 43.2888C130.797 43.2888 128.964 39.9899 128.964 36.848C128.964 33.6538 130.954 30.512 134.305 30.512C135.876 30.512 137.866 31.2974 138.599 32.3971L142.474 28.5221C140.589 26.5323 137.604 25.3803 134.253 25.3803C127.498 25.3803 122.575 30.2501 122.575 36.9004C122.575 43.7078 127.445 48.4205 134.357 48.4205C137.656 48.4205 140.693 47.478 142.526 45.4881L138.756 41.4561C137.918 42.5034 136.085 43.2888 134.462 43.2888ZM112.678 47.8445H118.753V25.9563H112.731V47.8445H112.678ZM101.734 37.9477C101.734 40.5135 100.059 43.2888 96.9692 43.2888C94.5604 43.2888 93.3037 41.5608 93.3037 38.0524V26.0086H87.2818V39.571C87.2818 44.0743 89.5335 48.4729 95.5553 48.4729C98.383 48.4729 100.792 46.2212 101.944 44.5979H102.049V47.8445H107.809V25.9563H101.787V37.9477H101.734ZM76.3377 28.7316H76.1806C75.3427 27.789 73.0387 25.3279 69.2685 25.3279C63.1419 25.3279 58.3767 30.1454 58.3767 36.7957C58.3767 43.5507 62.7753 48.4205 68.9543 48.4205C71.782 48.4205 74.4525 46.902 75.9711 45.174H76.0758V58.5792H82.0977V25.9563H76.3377V28.7316ZM70.4729 43.2888C66.755 43.2888 64.6081 40.0423 64.6081 36.7957C64.6081 33.7062 66.5455 30.4072 70.4729 30.4072C74.086 30.4072 76.2853 33.7585 76.2853 36.9004C76.2853 40.0423 74.1384 43.2888 70.4729 43.2888ZM207.877 25.3803C201.017 25.3803 196.042 30.1978 196.042 36.848C196.042 43.7078 201.122 48.5253 207.877 48.5253C214.632 48.5253 219.711 43.6554 219.711 36.848C219.711 30.1978 214.736 25.3803 207.877 25.3803ZM207.877 43.2888C203.949 43.2888 202.169 39.9375 202.169 36.7957C202.169 33.7062 203.949 30.4072 207.877 30.4072C211.804 30.4072 213.584 33.7062 213.584 36.7957C213.584 39.9375 211.804 43.2888 207.877 43.2888ZM283.281 34.3869C280.192 33.6538 279.092 33.2349 279.092 31.9782C279.092 30.2501 281.291 29.8836 282.286 29.8836C284.171 29.8836 286.266 30.9832 287.051 32.0829L290.612 28.6792C288.989 26.637 285.742 25.4326 282.339 25.4326C277.992 25.4326 273.384 27.6319 273.384 32.5542C273.384 36.7433 276.683 38.0524 279.93 38.7855C283.334 39.571 284.538 40.147 284.538 41.5085C284.538 43.5507 282.234 43.8648 281.449 43.8648C279.459 43.8648 277.207 42.7128 275.95 41.2466L272.285 44.9645C274.275 47.1638 277.731 48.5253 281.239 48.5253C287.156 48.5253 290.612 45.6976 290.612 41.0895C290.612 36.5862 286.318 35.12 283.281 34.3869ZM271.866 25.9563H264.064L256.261 35.0153H256.104V13.9648H250.082V47.8445H256.104V37.0575H256.261L264.325 47.8445H272.285L262.912 35.9055L271.866 25.9563ZM182.428 25.3803C179.652 25.3803 177.663 26.5846 175.725 28.365H175.62V13.9648H169.598V47.8445H175.358V44.755H175.463C176.825 47.0067 179.548 48.4729 182.323 48.4729C188.554 48.4729 193.267 43.603 193.267 36.848C193.267 30.1978 188.607 25.3803 182.428 25.3803ZM181.223 43.2888C177.61 43.2888 175.411 40.0423 175.411 36.9004C175.411 33.8109 177.61 30.4072 181.223 30.4072C185.151 30.4072 187.088 33.7062 187.088 36.7957C187.088 40.0423 184.994 43.2888 181.223 43.2888ZM167.294 25.9563H159.492L151.742 35.0153H151.585V13.9648H145.563V47.8445H151.585V37.0575H151.742L159.806 47.8445H167.766L158.392 35.9055L167.294 25.9563ZM234.373 25.3803C227.513 25.3803 222.539 30.1978 222.539 36.848C222.539 43.7078 227.618 48.5253 234.373 48.5253C241.128 48.5253 246.207 43.6554 246.207 36.848C246.207 30.1978 241.233 25.3803 234.373 25.3803ZM234.373 43.2888C230.446 43.2888 228.665 39.9375 228.665 36.7957C228.665 33.7062 230.446 30.4072 234.373 30.4072C238.3 30.4072 240.081 33.7062 240.081 36.7957C240.081 39.9375 238.3 43.2888 234.373 43.2888Z" fill="black"/>
<path d="M26.225 52.0341C40.2512 52.0341 51.6217 40.6636 51.6217 26.6374C51.6217 12.6112 40.2512 1.24072 26.225 1.24072C12.1988 1.24072 0.828369 12.6112 0.828369 26.6374C0.828369 40.6636 12.1988 52.0341 26.225 52.0341Z" fill="#2CA01C"/>
<path d="M7.89746 26.6372C7.89746 32.0831 12.2961 36.534 17.7943 36.534H19.2081V32.8685H17.7943C14.3906 32.8685 11.563 30.0932 11.563 26.6372C11.563 23.2335 14.3383 20.4058 17.7943 20.4058H21.198V39.6235C21.198 41.6657 22.8213 43.289 24.8635 43.289V16.7927H17.7943C12.2961 16.7927 7.89746 21.1913 7.89746 26.6372ZM34.708 16.7927H33.2941V20.4582H34.708C38.1116 20.4582 40.9393 23.2335 40.9393 26.6896C40.9393 30.1456 38.1116 32.8685 34.708 32.8685H31.3043V13.6509C31.3043 11.6086 29.681 9.98535 27.6388 9.98535V36.534H34.708C40.1539 36.534 44.6048 32.1354 44.6048 26.6372C44.6048 21.1913 40.1539 16.7927 34.708 16.7927Z" fill="white"/>
<path d="M83.3021 7.05346C84.2447 7.05346 84.9778 6.32036 84.9778 5.37781C84.9778 4.43525 84.2447 3.70215 83.3021 3.70215C82.3595 3.70215 81.6264 4.43525 81.6264 5.37781C81.6264 6.32036 82.3595 7.05346 83.3021 7.05346ZM73.3005 8.15311C71.6772 8.15311 70.3158 9.14803 69.8445 10.2477H69.7921V8.4673H67.1739V19.5685H69.9492V13.4943C69.9492 12.0281 70.787 10.5095 72.5674 10.5095C74.3478 10.5095 74.662 12.1328 74.662 13.4943V19.6733H77.4373V12.6564C77.3849 10.4048 76.1806 8.15311 73.3005 8.15311ZM61.5186 19.6209H64.2939V8.4673H61.5186V19.6209ZM112.05 7.05346C112.993 7.05346 113.726 6.32036 113.726 5.37781C113.726 4.43525 112.993 3.70215 112.05 3.70215C111.108 3.70215 110.374 4.43525 110.374 5.37781C110.374 6.32036 111.108 7.05346 112.05 7.05346ZM107.547 8.4673V10.9284H110.636V19.5685H113.412V10.9284H116.501V8.4673H107.547ZM102.782 19.6209H105.557V8.4673H102.782V19.6209ZM78.7988 10.9284H81.8883V19.5685H84.6636V10.9284H87.7531V8.4673H78.7464V10.9284H78.7988ZM97.1786 14.5939C97.1786 16.0601 96.3408 17.5787 94.5604 17.5787C92.78 17.5787 92.4658 15.9554 92.4658 14.5939V8.4673H89.6905V15.4317C89.6905 17.6834 90.8949 19.9351 93.7749 19.9351C95.3982 19.9351 96.7597 18.9402 97.231 17.8405H97.2834V19.6209H99.9016V8.4673H97.1263V14.5939H97.1786Z" fill="black"/>
</svg>
