<svg width="319" height="405" viewBox="0 0 319 405" fill="none" xmlns="http://www.w3.org/2000/svg">
<g clip-path="url(#clip0_197_8239)">
<path d="M181 371C181 371 179 385.1 178.7 388.2C178.3 391.3 187.7 397.3 187.7 397.3L200.7 398L202 388.2C202 388.2 203.1 372.4 205.1 367C207.1 361.7 191.8 358.3 191.8 358.3L181 371Z" fill="#FBD0CA"/>
<path d="M56.7001 355L46.7001 358.3L43.7001 360.6C43.7001 360.6 38.3001 366.4 36.7001 368.2C35.1001 370 34.1001 380.6 34.1001 380.6C34.1001 380.6 39.8001 385.6 40.8001 386.6L52.4001 386.2C52.4001 386.2 59.4001 376.6 64.7001 370C70.0001 363.3 56.7001 355 56.7001 355Z" fill="#FBD0CA"/>
<path d="M225.3 313.4C225.3 313.1 225.3 312.8 225.2 312.5C225.1 311.7 225.1 310.9 225 310.1C225 309.8 224.9 309.5 224.9 309.2C224.2 302 223.2 294.5 221.7 287.1C221.7 286.8 221.6 286.6 221.5 286.3C221.3 285.5 221.2 284.7 221 283.8C220.9 283.5 220.9 283.3 220.8 283C219.7 278.1 218.4 273.1 216.8 268.3C216.5 267.3 216.1 266.2 215.7 265.2L214.6 262.2C214.5 261.9 214.4 261.7 214.3 261.4C214.1 260.9 213.9 260.3 213.7 259.8C213.6 259.5 213.4 259.2 213.3 258.9C213.2 258.7 213.1 258.4 213 258.2C212.7 257.5 212.4 256.9 212.2 256.2C211.9 255.4 211.5 254.7 211.2 253.9C208.6 247.8 206.1 241.8 203.5 236C203.4 235.8 203.3 235.5 203.2 235.3C202.8 234.4 202.4 233.5 202 232.7C201.9 232.5 201.8 232.3 201.7 232.1C198.1 223.9 194.6 216.2 191.3 209.2C191.2 209 191.1 208.8 191 208.6C190.6 207.7 190.2 206.8 189.8 206C189.7 205.8 189.6 205.6 189.5 205.3C186.8 199.6 184.4 194.4 182.2 190C182 189.7 181.9 189.3 181.7 189C180.6 186.8 179.7 184.8 178.8 183C178.7 182.8 178.6 182.6 178.5 182.4C178.4 182.2 178.3 181.9 178.2 181.7C178 181.3 177.8 181 177.7 180.6C177.6 180.3 177.4 180 177.2 179.7L176.9 179.1C174.9 175 173.7 172.7 173.7 172.7L153.1 173.7H152.3L149.8 173.8H149L126.6 174.9H125.8L123.3 175H122.5L105.5 175.8L101.9 178.9L101.2 179.5L99 181.4L98.4 182L97.8 182.5L94.3 185.4L93.7 185.9L87.7 191H85.2C85.2 191 85.2 198.2 84.5 208.9C84.5 209.1 84.5 209.3 84.5 209.4C84.4 210.3 84.4 211.3 84.3 212.2C84.3 212.4 84.3 212.6 84.3 212.7C83.8 219.7 83 227.8 81.9 236.1C81.9 236.3 81.8 236.4 81.8 236.6C81.7 237.5 81.5 238.5 81.4 239.4C81.4 239.5 81.4 239.6 81.4 239.8C81.4 239.9 81.4 239.9 81.4 240C81.3 240.9 81.1 241.7 81 242.6C80.5 245.6 79.9 248.7 79.3 251.7C79.1 252.4 79 253.1 78.8 253.8C78.2 256.8 77.4 259.8 76.6 262.7C76.5 262.9 76.5 263 76.5 263.2C76.2 264.2 76 265.1 75.7 266C75.6 266.2 75.6 266.3 75.6 266.5C73.8 272.3 71.7 277.6 69.1 282C67.9 284.1 66.7 286.1 65.6 288.2C65.5 288.3 65.5 288.4 65.4 288.5C64.8 289.5 64.3 290.5 63.7 291.5L63.5 291.8C61.7 295.1 59.9 298.5 58.1 301.7C57.9 302.1 57.7 302.5 57.5 302.9C56.7 304.3 56 305.7 55.3 307.1C55.1 307.5 54.9 307.9 54.7 308.3C53.5 310.6 52.3 312.9 51.2 315C51.2 315.1 51.1 315.1 51.1 315.2C50.5 316.3 50 317.3 49.5 318.4C49.5 318.5 49.4 318.5 49.4 318.6C42.6 331.9 37.9 341.4 37.9 341.4C37.9 341.4 37.8 342.9 38.1 345.3V345.5C38.2 346.4 38.3 347.5 38.6 348.6V348.8C39.8 355.2 43.3 364.6 52.6 371.5L53.2 372C54.6 373 56.1 373.9 57.7 374.7C58 374.9 58.3 375 58.7 375.2C59.9 375.8 61.1 376.3 62.4 376.8L63.7 377.3C64.4 377.5 65.2 377.8 66 378L67.3 378.4C70.4 379.2 73.8 379.9 77.5 380.2C77.7 380.2 79.6 378.1 82.6 374.4C82.7 374.2 82.9 374 83 373.9C83.7 373 84.5 372 85.3 371C85.4 370.8 85.6 370.7 85.7 370.5C87 368.8 88.5 366.9 90 364.8C90.3 364.4 90.6 364 90.9 363.6C91.6 362.7 92.2 361.8 92.9 360.8C93.2 360.4 93.5 360 93.8 359.6C96.4 355.8 99.3 351.7 102.1 347.1C102.2 346.9 102.3 346.7 102.4 346.6C103 345.7 103.6 344.7 104.2 343.7C104.3 343.5 104.4 343.3 104.5 343.2C107.4 338.5 110.3 333.4 113.2 328C113.4 327.6 113.6 327.2 113.9 326.8C114.6 325.4 115.4 323.9 116.1 322.5C116.3 322.1 116.5 321.7 116.7 321.3C117.4 319.8 118.1 318.4 118.8 316.9C118.9 316.7 119 316.5 119 316.4C119.5 315.5 119.9 314.5 120.3 313.5C120.4 313.3 120.5 313.2 120.5 313C123.8 305.7 126.9 297.9 129.5 289.9C129.6 289.7 129.6 289.5 129.7 289.4C130 288.5 130.3 287.5 130.6 286.6C130.7 286.4 130.7 286.2 130.8 286.1C131.7 283 132.6 280 133.3 276.8C133.5 276.1 133.6 275.5 133.8 274.8C134.4 272.1 135 269.3 135.5 266.5C135.6 265.8 135.7 265.2 135.8 264.6C135.8 264.4 135.9 264.2 135.9 264.1V264C136 263.1 136.2 262.2 136.3 261.3C136.3 261.1 136.4 260.9 136.4 260.8C137.2 255 137.7 249.1 137.8 243.2C137.8 243.2 141.3 249.2 146 260.4C146.1 260.6 146.1 260.8 146.2 260.9C146.6 261.8 146.9 262.7 147.3 263.6C147.4 263.8 147.4 264 147.5 264.1C149.8 270 152.3 277 154.7 285.2C154.7 285.4 154.8 285.6 154.8 285.7C155.1 286.6 155.3 287.5 155.6 288.5C155.7 288.7 155.7 288.9 155.8 289C157.7 295.8 159.5 303.3 161.1 311.5C161.1 311.7 161.2 311.9 161.2 312C161.4 312.9 161.6 313.8 161.7 314.8C161.7 315 161.8 315.2 161.8 315.3C163.3 323.3 164.6 332 165.5 341.2C165.5 341.4 165.5 341.6 165.5 341.8C165.6 342.7 165.7 343.6 165.8 344.6C165.8 344.8 165.8 345 165.9 345.2C166.1 345.5 166.4 346.8 166.4 348.8L167.4 367.9C167.4 368.1 167.6 368.9 167.9 369.4L168.6 370.2C168.9 370.4 169.3 370.5 169.7 370.7C170 370.8 169.7 370.8 170 371C170.4 371.2 171.6 371.6 172.1 371.8C172.5 372 172.8 372.1 173.2 372.3C178.9 374.6 187.9 377.4 197.6 377.4C198 377.4 198.4 377.4 198.8 377.4C199.5 377.4 200.2 377.4 201 377.3C201.4 377.3 201.8 377.3 202.2 377.2C209.3 376.6 216.5 374.3 223.1 369.2L223.2 369.1L224.1 368.4L224.6 368L225 365.6L225.1 364.6L225.3 361.3C225.4 359.7 225.5 357.9 225.7 355.8C225.9 352 226.1 347.5 226.2 342.4C226.2 342.1 226.2 341.8 226.2 341.4C226.2 340.6 226.2 339.8 226.2 339C226.2 338.7 226.2 338.4 226.2 338C226.2 330.6 226 322.2 225.3 313.4Z" fill="#37489E"/>
<path d="M90.2 364.1C89.9 364.5 89.6 364.9 89.3 365.3C88.7 359.6 88.1001 353.9 87.6001 348.2C87.6001 348 87.6001 347.9 87.6001 347.7C87.5001 346.8 87.4 345.8 87.4 344.9C87.4 344.7 87.4 344.6 87.4 344.4C86.6 335.7 85.9 327.1 85.2 318.6C85.2 318.4 85.2 318.3 85.2 318.1C85.1 317.2 85 316.2 84.9 315.3C84.9 315.1 84.9 314.9 84.9 314.8C84.8 314.3 84.8 313.8 84.7 313.3C84 306.3 83.3 299.2 82.5 292.2C82.5 292 82.5 291.9 82.4 291.7C82.3 290.8 82.2001 289.8 82.1001 288.9C82.1001 288.7 82.1001 288.5 82.1001 288.4C81.3001 281.3 80.6 274.2 79.8 267.1C79.8 266.9 79.8 266.7 79.7 266.6C79.6 265.7 79.5 264.7 79.4 263.8C79.4 263.6 79.4 263.4 79.3 263.3C79 260.4 78.7 257.4 78.3 254.5C78.5 253.8 78.6 253.1 78.8 252.4C79.2 256 79.6 259.7 80 263.3C80 263.5 80.0001 263.7 80.1001 263.8C80.2001 264.7 80.3 265.7 80.4 266.6C80.4 266.8 80.4 267 80.5 267.1C81.3 274.2 82.1 281.3 82.8 288.4C82.8 288.6 82.8 288.8 82.9 288.9C83 289.8 83.1 290.7 83.2 291.7C83.2 291.9 83.3 292.1 83.3 292.2C84.1 299.7 84.9001 307.3 85.6001 314.8C85.6001 315 85.6001 315.2 85.6001 315.3C85.7001 316.2 85.8 317.2 85.9 318.1C85.9 318.3 85.9 318.5 85.9 318.6C86 319.2 86.0001 319.8 86.1001 320.5C86.8001 328.5 87.5 336.5 88.3 344.4C88.3 344.6 88.3 344.7 88.4 344.9C88.5 345.8 88.6 346.8 88.7 347.7C88.7 347.9 88.7 348 88.7 348.2C89 353.5 89.6 358.8 90.2 364.1Z" fill="white"/>
<path d="M80.8002 240.3C80.7002 241.2 80.5001 242 80.4001 242.9C81.1001 249.6 81.8002 256.2 82.5002 262.9C82.5002 263.1 82.5002 263.3 82.6002 263.4C82.7002 264.3 82.8001 265.2 82.9001 266.2C82.9001 266.4 82.9002 266.6 83.0002 266.7C83.8002 273.8 84.5002 280.9 85.3002 288C85.3002 288.2 85.3001 288.4 85.4001 288.5C85.5001 289.4 85.6001 290.3 85.7001 291.3C85.7001 291.5 85.7002 291.6 85.8002 291.8C86.6002 298.9 87.3002 305.9 88.0002 313C88.1002 313.5 88.1002 313.9 88.1002 314.4C88.1002 314.6 88.1002 314.8 88.1002 314.9C88.2002 315.8 88.3001 316.8 88.4001 317.7C88.4001 317.9 88.4001 318.1 88.4001 318.2C89.2001 326.7 89.9002 335.3 90.6002 344C90.6002 344.2 90.6002 344.3 90.6002 344.5C90.7002 345.4 90.8002 346.4 90.8002 347.3C90.8002 347.5 90.8001 347.6 90.9001 347.8C91.3001 352.2 91.7001 356.7 92.2001 361.1C92.5001 360.7 92.8002 360.3 93.1002 359.9C92.6002 355.9 92.2002 351.8 91.8002 347.8C91.8002 347.6 91.8002 347.5 91.8002 347.3C91.7002 346.4 91.6002 345.4 91.5002 344.5C91.5002 344.3 91.5002 344.2 91.5002 344C90.7002 336.1 90.1002 328.1 89.3002 320.2C89.2002 319.5 89.2002 318.9 89.1002 318.2C89.1002 318 89.1002 317.8 89.0002 317.7C88.9002 316.8 88.8001 315.8 88.7001 314.9C88.7001 314.7 88.7001 314.5 88.7001 314.4C88.0001 306.9 87.2001 299.3 86.4001 291.8C86.4001 291.6 86.4002 291.5 86.3002 291.3C86.2002 290.4 86.1002 289.4 86.0002 288.5C86.0002 288.3 86.0001 288.1 85.9001 288C85.1001 280.9 84.4002 273.8 83.6002 266.7C83.6002 266.5 83.6002 266.4 83.5002 266.2C83.4002 265.3 83.3001 264.3 83.2001 263.4C83.2001 263.2 83.2002 263 83.1002 262.9C82.3002 255.9 81.6001 248.8 80.9001 241.8C81.0001 241.3 80.9002 240.8 80.8002 240.3C80.8002 240.2 80.8002 240.2 80.8002 240.1C80.8002 240 80.8002 239.9 80.8002 239.8V240.3Z" fill="white"/>
<path d="M113.2 327.2C113 327.6 112.8 328 112.5 328.4C112.2 324.7 111.9 321.1 111.5 317.5C111.5 317.3 111.5 317.2 111.5 317C111.4 316.1 111.3 315.1 111.2 314.2C111.2 314 111.2 313.9 111.2 313.7C111.2 313.5 111.2 313.3 111.1 313.2C110.4 305.8 109.6 298.5 108.8 291.1C108.8 290.9 108.8 290.8 108.7 290.6C108.6 289.7 108.5 288.7 108.4 287.8L108.3 287.3C107.5 280.2 106.8 273.1 106 266C106 265.8 106 265.7 105.9 265.5C105.8 264.6 105.7 263.6 105.6 262.7C105.6 262.5 105.6 262.4 105.5 262.2C104.7 254.7 103.9 247.1 103.1 239.6C103.1 239.4 103.1 239.3 103.1 239.1C103 238.2 102.9 237.2 102.8 236.3C102.8 236.1 102.8 236 102.8 235.8C102.6 233.4 102.3 231 102.1 228.5C101.6 223.2 101.2 217.8 100.8 212.4C100.8 212.2 100.8 212.1 100.8 211.9C100.7 211 100.7 210 100.6 209.1C100.6 208.9 100.6 208.8 100.6 208.6C100 201 99.4002 193.5 98.5002 186C98.5002 185.8 98.5001 185.7 98.4001 185.5C98.3001 185.1 98.3001 184.6 98.2001 184.2C98.1001 183.7 98.1002 183.2 98.0002 182.7C98.0002 182.5 97.9001 182.4 97.9001 182.2L98.5002 181.6C98.5002 181.8 98.6002 182 98.6002 182.1C98.6002 182.3 98.6001 182.4 98.7001 182.6C98.8001 183.5 98.9002 184.5 99.0002 185.4C99.0002 185.6 99.0002 185.7 99.1002 185.9C99.6002 190.4 99.8001 194.8 100.2 199.3C100.5 202.4 100.8 205.5 101 208.6C101 208.8 101 208.9 101.1 209.1C101.2 210 101.3 211 101.4 211.9C101.4 212.1 101.4 212.2 101.4 212.4C102.1 220.2 102.9 228 103.6 235.8C103.6 236 103.6 236.1 103.6 236.3C103.7 237.2 103.8 238.2 103.9 239.1C103.9 239.3 103.9 239.5 104 239.6C104.1 240.4 104.1 241.1 104.2 241.9C104.9 248.7 105.6 255.4 106.3 262.2L106.4 262.7C106.5 263.6 106.6 264.6 106.7 265.5C106.7 265.7 106.7 265.8 106.8 266C107.6 273.1 108.4 280.2 109.1 287.3C109.1 287.5 109.1 287.6 109.1 287.8C109.2 288.7 109.3 289.7 109.4 290.6C109.4 290.8 109.4 290.9 109.4 291.1C110.2 298.6 111 306.2 111.7 313.7C111.7 313.9 111.7 314 111.7 314.2C111.8 315.1 111.9 316.1 112 317C112 317.2 112 317.3 112 317.5C112.1 318.5 112.2 319.4 112.3 320.4C112.8 322.7 113 324.9 113.2 327.2Z" fill="white"/>
<path d="M115.9 320.4C115.9 320.8 116 321.3 116 321.7C115.8 322.1 115.6 322.5 115.4 322.9C115.2 321 115.1 319.2 114.9 317.4C114.9 317.2 114.9 317.1 114.9 316.9C114.8 316 114.7 315 114.6 314.1C114.6 313.9 114.6 313.8 114.5 313.6C114.5 313.5 114.5 313.3 114.5 313.2C113.8 305.8 113 298.4 112.2 291C112.2 290.8 112.2 290.7 112.1 290.5C112 289.6 111.9 288.6 111.8 287.7C111.8 287.5 111.8 287.4 111.8 287.2C111 280.1 110.3 273 109.5 265.9C109.5 265.7 109.5 265.6 109.4 265.4C109.3 264.5 109.2 263.5 109.1 262.6C109.1 262.4 109.1 262.3 109 262.1C108.2 254.6 107.4 247 106.6 239.5C106.6 239.3 106.6 239.2 106.6 239C106.5 238.1 106.4 237.1 106.3 236.2C106.3 236 106.3 235.9 106.3 235.7C106.1 233.3 105.8 230.9 105.6 228.6C105.1 223.2 104.7 217.8 104.3 212.4C104.3 212.2 104.3 212.1 104.3 211.9C104.2 211 104.2 210 104.1 209.1C104.1 208.9 104.1 208.8 104.1 208.6C103.5 201 102.9 193.5 102 186C102 185.8 102 185.7 101.9 185.5C101.9 185.1 101.8 184.7 101.7 184.3C101.6 183.8 101.6 183.2 101.5 182.7C101.5 182.5 101.4 182.4 101.4 182.2C101.3 181.4 101.1 180.7 101 179.9L101.7 179.3C101.7 179.6 101.8 179.9 101.8 180.2C101.9 180.8 102 181.5 102.1 182.2C102.1 182.4 102.2 182.5 102.2 182.7C102.3 183.6 102.4 184.6 102.5 185.5C102.5 185.7 102.5 185.8 102.5 186C103 190.5 103.2 195 103.6 199.5C103.9 202.5 104.1 205.6 104.4 208.6C104.4 208.8 104.4 208.9 104.4 209.1C104.5 210 104.6 211 104.7 211.9C104.7 212.1 104.7 212.2 104.7 212.4C105.4 220.2 106.2 228 106.9 235.8C106.9 236 106.9 236.1 106.9 236.3C107 237.2 107.1 238.2 107.2 239.1C107.2 239.3 107.2 239.4 107.2 239.6C107.3 240.4 107.4 241.2 107.4 242C108.1 248.7 108.8 255.4 109.5 262.2C109.5 262.4 109.5 262.5 109.6 262.7C109.7 263.6 109.8 264.6 109.9 265.5C109.9 265.7 109.9 265.8 109.9 266C110.7 273.1 111.5 280.2 112.2 287.3C112.2 287.5 112.2 287.6 112.2 287.8C112.3 288.7 112.4 289.7 112.5 290.6C112.5 290.8 112.5 290.9 112.6 291.1C113.4 298.6 114.2 306.2 114.9 313.7C114.9 313.9 114.9 314 115 314.2C115.1 315.1 115.2 316.1 115.3 317C115.3 317.2 115.3 317.3 115.3 317.5C115.8 318.4 115.9 319.4 115.9 320.4Z" fill="white"/>
<path d="M132.1 264.9C132.5 268.3 132.8 271.6 133.2 275C133 275.7 132.9 276.4 132.7 277C132.3 273 131.8 268.9 131.4 264.9C131.4 264.7 131.4 264.5 131.3 264.4C131.2 263.5 131.1 262.5 131 261.6C131 261.4 131 261.2 130.9 261.1C130.1 253.6 129.3 246.1 128.5 238.5C128.5 238.3 128.5 238.2 128.4 238C128.3 237.1 128.2 236.1 128.1 235.2C128.1 235 128.1 234.9 128.1 234.7C127.9 232.6 127.7 230.5 127.5 228.5C126.9 222.8 126.5 217.1 126.1 211.3C126.1 211.1 126.1 210.9 126.1 210.8C126 209.9 126 208.9 125.9 208C125.9 207.8 125.9 207.6 125.9 207.5C125.3 199.9 124.7 192.4 123.7 184.9C123.7 184.7 123.7 184.6 123.6 184.4C123.6 184.3 123.6 184.2 123.6 184.2C123.5 183.4 123.4 182.5 123.2 181.7C123.2 181.5 123.1 181.4 123.1 181.2C122.8 179.3 122.4 177.3 122.2 175.3H123C123.2 177 123.5 178.6 123.7 180.2C123.7 180.5 123.8 180.9 123.8 181.2C123.8 181.4 123.9 181.6 123.9 181.7C124 182.6 124.1 183.6 124.3 184.5C124.3 184.7 124.4 184.8 124.4 185C124.9 189.8 125.2 194.6 125.6 199.4C125.8 202.1 126.1 204.9 126.3 207.6C126.3 207.8 126.3 208 126.3 208.1C126.4 209 126.5 209.9 126.5 210.9C126.5 211.1 126.5 211.2 126.6 211.4C127.3 219.2 128 227 128.8 234.8C128.8 235 128.8 235.2 128.9 235.3C129 236.2 129.1 237.2 129.2 238.1C129.2 238.3 129.2 238.5 129.2 238.6C129.3 239.7 129.4 240.8 129.5 242C130.1 248.4 130.8 254.8 131.5 261.2C131.5 261.4 131.5 261.6 131.5 261.7C131.6 262.6 131.7 263.6 131.8 264.5C132.1 264.5 132.1 264.7 132.1 264.9Z" fill="white"/>
<path d="M135.4 264.2C135.4 264.4 135.4 264.5 135.5 264.7C135.4 264.7 135.4 264.7 135.3 264.7C135.2 265.4 135.1 266 135 266.6C134.9 266 134.9 265.3 134.8 264.7C134.8 264.5 134.8 264.4 134.7 264.2C134.6 263.3 134.5 262.3 134.4 261.4C134.4 261.2 134.4 261 134.4 260.9C133.6 253.4 132.8 245.8 132 238.3C132 238.1 132 238 131.9 237.8C131.8 236.9 131.7 236 131.6 235C131.6 234.8 131.6 234.7 131.5 234.5C131.3 232.5 131.1 230.5 130.9 228.4C130.3 222.7 129.9 216.9 129.5 211.1C129.5 210.9 129.5 210.7 129.5 210.6C129.4 209.7 129.4 208.7 129.3 207.8C129.3 207.6 129.3 207.4 129.3 207.3C128.7 199.7 128.1 192.2 127.1 184.7C127.1 184.5 127.1 184.3 127 184.2V184.1C126.9 183.2 126.7 182.3 126.6 181.4C126.6 181.2 126.5 181.1 126.5 180.9C126.2 179 125.8 177 125.6 175H126.4C126.6 176.7 126.9 178.4 127.1 180C127.1 180.3 127.2 180.6 127.2 180.9C127.2 181.1 127.3 181.3 127.3 181.4C127.4 182.3 127.6 183.3 127.7 184.2C127.7 184.4 127.7 184.6 127.8 184.7C128.3 189.6 128.6 194.4 129 199.3C129.2 202 129.5 204.7 129.7 207.3C129.7 207.5 129.7 207.7 129.7 207.8C129.8 208.7 129.9 209.7 129.9 210.6C129.9 210.8 129.9 211 130 211.1C130.7 218.9 131.5 226.7 132.2 234.5C132.2 234.7 132.2 234.9 132.2 235C132.3 235.9 132.4 236.9 132.5 237.8C132.5 238 132.5 238.2 132.5 238.3C132.6 239.5 132.7 240.6 132.9 241.8C133.5 248.2 134.2 254.5 134.9 260.9C134.9 261.1 134.9 261.2 135 261.4C135.1 262.3 135.2 263.2 135.4 264.2C135.4 264.1 135.4 264.1 135.4 264.2Z" fill="white"/>
<path d="M168.6 370.2L168.4 368.5C168.4 368.3 168.3 368.1 168.3 367.9C167.4 360.4 166.7 352.8 166 345.3C166 345.1 166 344.9 166 344.7C165.9 343.8 165.8 342.9 165.8 342C165.8 341.8 165.8 341.6 165.7 341.4C164.9 332.6 164.2 323.9 163.4 315.4C163.4 315.2 163.4 315 163.3 314.9C163.2 314.3 163.2 313.7 163.1 313.2C163.1 312.8 163 312.5 163 312.2C163 312 163 311.8 162.9 311.7C162.1 304.2 161.4 296.6 160.6 289.1C160.6 288.9 160.6 288.7 160.5 288.6C160.4 287.7 160.3 286.8 160.2 285.8C160.2 285.6 160.2 285.4 160.1 285.3C159.3 278.2 158.6 271.1 157.8 264C157.8 263.8 157.8 263.6 157.7 263.5C157.6 262.6 157.5 261.6 157.4 260.7C157.4 260.5 157.4 260.3 157.4 260.2C156.6 252.7 155.8 245.2 155 237.6C155 237.4 155 237.2 154.9 237.1C154.8 236.2 154.7 235.3 154.6 234.3C154.6 234.1 154.6 233.9 154.6 233.8C154.4 232.1 154.2 230.4 154.1 228.7C153.5 222.7 153.1 216.6 152.6 210.5C152.6 210.3 152.6 210.1 152.6 210C152.5 209.1 152.5 208.1 152.4 207.2C152.4 207 152.4 206.8 152.4 206.6C151.8 199.1 151.2 191.7 150.2 184.3C150.2 184.2 150.2 184.1 150.2 184C150.2 183.8 150.2 183.6 150.1 183.5C150 182.6 149.8 181.7 149.6 180.7C149.6 180.5 149.5 180.3 149.5 180.2C149.2 178.2 148.8 176.2 148.7 174.2H149.5C149.7 176.3 150 178.3 150.3 180.2C150.3 180.2 150.3 180.2 150.3 180.3C150.3 180.5 150.3 180.6 150.4 180.8C150.5 181.7 150.7 182.6 150.8 183.6C150.8 183.8 150.9 184 150.9 184.1C151.5 189.2 151.8 194.4 152.3 199.6C152.5 202 152.7 204.4 152.9 206.7C152.9 206.9 152.9 207.1 152.9 207.2C153 208.1 153.1 209 153.1 210C153.1 210.2 153.1 210.4 153.2 210.5C153.9 218.3 154.6 226 155.4 233.8C155.4 234 155.4 234.2 155.5 234.3C155.6 235.2 155.7 236.2 155.8 237.1C155.8 237.3 155.8 237.5 155.9 237.6C156 239.1 156.2 240.6 156.3 242.1C156.9 248.2 157.5 254.2 158.2 260.2C158.2 260.4 158.2 260.6 158.3 260.7C158.4 261.6 158.5 262.5 158.6 263.5C158.6 263.7 158.6 263.9 158.7 264C159.5 271.1 160.3 278.2 161 285.3C161 285.5 161 285.7 161.1 285.9C161.2 286.8 161.3 287.7 161.4 288.7C161.4 288.9 161.4 289.1 161.5 289.3C162.3 296.8 163.1 304.4 163.8 311.9C163.8 312.1 163.8 312.3 163.9 312.4C164 313.3 164.1 314.3 164.2 315.2C164.2 315.4 164.2 315.6 164.3 315.7C164.5 317.4 164.6 319 164.8 320.7C165.4 327.7 166.1 334.7 166.7 341.7C166.7 341.9 166.7 342.1 166.7 342.3C166.8 343.2 166.9 344.1 167 345C167 345.2 167 345.4 167 345.6C167.7 353.1 168.5 360.7 169.5 368.2C169.5 368.4 169.5 368.6 169.6 368.8C169.7 369.5 169.8 370.3 169.9 371" fill="white"/>
<path d="M172.1 371.8C172.1 371.6 172 371.4 172 371.2C171.9 370.3 171.8 369.4 171.7 368.5C171.7 368.3 171.7 368.1 171.6 367.9C170.7 360.4 170 352.8 169.3 345.3C169.3 345.1 169.3 344.9 169.2 344.7C169.1 343.8 169 342.9 169 342C169 341.8 169 341.6 168.9 341.4C168.1 332.6 167.4 323.9 166.6 315.4C166.6 315.2 166.6 315 166.5 314.9C166.5 314.4 166.4 313.8 166.3 313.3C166.3 312.9 166.2 312.5 166.2 312.1C166.2 311.9 166.2 311.8 166.1 311.6C165.3 304.1 164.6 296.5 163.8 289C163.8 288.8 163.8 288.6 163.7 288.5C163.6 287.6 163.5 286.7 163.4 285.7C163.4 285.5 163.4 285.3 163.3 285.2C162.5 278.1 161.8 271 161 263.9C161 263.7 161 263.5 160.9 263.4C160.8 262.5 160.7 261.5 160.6 260.6C160.6 260.4 160.6 260.2 160.5 260.1C159.7 252.6 158.9 245 158.1 237.5C158.1 237.3 158.1 237.1 158 237C157.9 236.1 157.8 235.2 157.7 234.2C157.7 234 157.7 233.8 157.6 233.7C157.4 232 157.3 230.4 157.1 228.7C156.5 222.6 156.1 216.5 155.6 210.4C155.6 210.2 155.6 210 155.6 209.9C155.5 209 155.5 208 155.4 207.1C155.4 206.9 155.4 206.7 155.4 206.6C154.8 199.2 154.2 191.7 153.2 184.4C153.2 184.3 153.2 184.1 153.1 184C153.1 183.8 153 183.6 153 183.5C152.9 182.6 152.7 181.7 152.5 180.7C152.5 180.5 152.4 180.3 152.4 180.2C152.1 178.2 151.7 176.2 151.6 174.1H152.4C152.6 176.2 152.9 178.3 153.2 180.2C153.2 180.3 153.2 180.3 153.2 180.4C153.2 180.5 153.2 180.6 153.2 180.8C153.4 181.7 153.5 182.6 153.6 183.6C153.6 183.8 153.6 184 153.7 184.1C154.3 189.3 154.6 194.5 155.1 199.7C155.3 202 155.5 204.4 155.7 206.7C155.7 206.9 155.7 207.1 155.7 207.2C155.8 208.1 155.9 209.1 155.9 210C155.9 210.2 155.9 210.4 155.9 210.5C156.6 218.3 157.4 226 158.1 233.8C158.1 234 158.1 234.2 158.2 234.3C158.3 235.2 158.4 236.2 158.5 237.1C158.5 237.3 158.5 237.5 158.6 237.6C158.7 239.1 158.9 240.7 159.1 242.2C159.7 248.2 160.3 254.2 161 260.2C161 260.4 161 260.6 161.1 260.7C161.2 261.6 161.3 262.5 161.4 263.5C161.4 263.7 161.4 263.9 161.5 264C162.3 271.1 163.1 278.2 163.8 285.3C163.8 285.5 163.8 285.6 163.9 285.8C164 286.7 164.1 287.7 164.2 288.6C164.2 288.8 164.2 289 164.3 289.1C165.1 296.6 165.9 304.2 166.7 311.7C166.7 311.9 166.7 312.1 166.8 312.2C166.9 313.1 167 314.1 167.1 315C167.1 315.2 167.1 315.4 167.2 315.5C167.4 317.2 167.5 318.9 167.7 320.6C168.3 327.6 168.9 334.5 169.6 341.5C169.6 341.7 169.6 341.9 169.6 342.1C169.7 343 169.8 343.9 169.9 344.8C169.9 345 169.9 345.2 170 345.4C170.7 352.9 171.5 360.5 172.4 368C172.4 368.2 172.4 368.4 172.5 368.6C172.6 369.5 172.7 370.4 172.9 371.3C172.9 371.5 173 371.7 173 371.9C173 372.1 173 372.2 173.1 372.4C172.8 372.1 172.5 371.9 172.1 371.8Z" fill="white"/>
<path d="M198.8 377.4C198.4 377.4 198 377.4 197.6 377.4C197.2 375.3 196.9 373.2 196.6 371.1C196.6 370.8 196.5 370.6 196.5 370.3C196.4 369.5 196.3 368.6 196.1 367.8C196.1 367.5 196 367.3 196 367C194.9 359.6 194 352.1 193.3 344.7C193.3 344.5 193.3 344.2 193.2 343.9C193.1 343 193 342.2 193 341.3C193 341.1 193 340.8 192.9 340.6C192.1 332 191.4 323.3 190.6 314.8C190.6 314.6 190.6 314.4 190.6 314.2C190.5 313.3 190.5 312.4 190.4 311.5L190.3 310.9C190 307.2 189.6 303.5 189.3 299.9C188.9 296 188.5 292.2 188.1 288.3C188.1 288.1 188.1 287.9 188 287.7C187.9 286.8 187.8 285.9 187.7 285C187.7 284.8 187.7 284.6 187.6 284.4C186.9 277.3 186.1 270.2 185.3 263.1L185.2 262.5C185.1 261.6 185 260.7 184.9 259.7C184.9 259.5 184.9 259.3 184.8 259.1C184 251.6 183.2 244 182.4 236.5C182.4 236.3 182.4 236.1 182.3 235.9C182.2 235 182.1 234.1 182 233.1C182 232.9 182 232.7 181.9 232.5C181.3 226.6 180.7 220.8 180.1 214.9C179.9 213 179.8 211.2 179.6 209.3C179.6 209.1 179.6 208.9 179.6 208.7C179.5 207.8 179.5 206.9 179.4 206C179.4 205.8 179.4 205.6 179.4 205.4C178.8 197.9 178.3 190.3 177.6 182.8C177.6 182.6 177.6 182.4 177.6 182.2C177.5 181.6 177.5 181 177.4 180.4C177.6 180.7 177.7 181.1 177.9 181.5L178 182.2C178 182.4 178 182.6 178 182.8C178.1 183.8 178.2 184.8 178.2 185.7C178.8 192.3 179.4 198.8 180 205.4C180 205.6 180 205.8 180.1 206C180.2 206.9 180.3 207.8 180.3 208.7C180.3 208.9 180.3 209.1 180.4 209.3C181 215.6 181.6 221.9 182.3 228.3C182.4 229.7 182.6 231.1 182.7 232.5C182.7 232.7 182.7 232.9 182.8 233C182.9 233.9 183 234.8 183.1 235.8C183.1 236 183.1 236.2 183.2 236.4C184 243.9 184.8 251.5 185.6 259C185.6 259.2 185.6 259.4 185.7 259.6C185.8 260.5 185.9 261.4 186 262.3C186 262.5 186 262.7 186.1 262.9C186.9 270 187.6 277.1 188.4 284.2C188.4 284.4 188.4 284.6 188.5 284.8C188.6 285.7 188.7 286.6 188.8 287.5C188.8 287.7 188.8 287.9 188.9 288.1C189.5 294.4 190.2 300.6 190.8 306.9C190.9 308.2 191 309.4 191.1 310.7L191.2 311.3C191.3 312.2 191.4 313.1 191.4 314C191.4 314.2 191.4 314.4 191.5 314.6C192.3 323.2 193.1 331.8 193.9 340.4C193.9 340.6 193.9 340.9 194 341.2C194.1 342.1 194.2 342.9 194.3 343.8C194.3 344 194.4 344.3 194.4 344.6C195.2 352.1 196.1 359.5 197.3 366.9C197.3 367.2 197.4 367.4 197.4 367.7C197.5 368.5 197.7 369.4 197.8 370.2C197.8 370.5 197.9 370.7 197.9 371C198 373.1 198.4 375.2 198.8 377.4Z" fill="white"/>
<path d="M202.1 377.2C201.7 377.2 201.3 377.3 200.9 377.3C200.5 375.2 200.2 373.1 199.8 370.9C199.8 370.6 199.7 370.4 199.7 370.1C199.6 369.3 199.4 368.4 199.3 367.6C199.2 367.3 199.2 367.1 199.2 366.8C198.1 359.4 197.3 351.9 196.5 344.5C196.5 344.2 196.4 344 196.4 343.7C196.3 342.9 196.2 342 196.2 341.2C196.2 341 196.2 340.7 196.1 340.4C195.3 331.8 194.6 323.2 193.8 314.7C193.8 314.5 193.8 314.3 193.7 314C193.6 313.1 193.6 312.2 193.5 311.3C193.5 311.1 193.5 310.9 193.4 310.7C193.1 307 192.8 303.4 192.4 299.8C192 295.9 191.6 292 191.2 288.2C191.2 288 191.2 287.8 191.1 287.6C191 286.7 190.9 285.8 190.8 284.9C190.8 284.7 190.8 284.5 190.7 284.3C190 277.2 189.2 270.1 188.4 263C188.4 262.8 188.4 262.6 188.3 262.4C188.2 261.5 188.1 260.6 188 259.7C188 259.5 188 259.3 187.9 259.1C187.1 251.6 186.3 244 185.5 236.5C185.5 236.3 185.5 236.1 185.4 235.9C185.3 235 185.2 234.1 185.1 233.1C185.1 232.9 185.1 232.7 185.1 232.5C184.5 226.7 183.9 220.9 183.3 215C183.1 213.1 182.9 211.2 182.8 209.4C182.8 209.2 182.8 209 182.8 208.8C182.7 207.9 182.7 207 182.6 206.1C182.6 205.9 182.6 205.7 182.6 205.5C182.2 200 181.8 194.5 181.3 189C181.5 189.3 181.6 189.7 181.8 190C182.3 195.2 182.7 200.3 183.2 205.5C183.2 205.7 183.2 205.9 183.3 206.1C183.4 207 183.5 207.9 183.6 208.8C183.6 209 183.6 209.2 183.7 209.4C184.3 215.8 184.9 222.1 185.6 228.4C185.7 229.8 185.9 231.1 186 232.5C186 232.7 186 232.9 186.1 233.1C186.2 234 186.3 234.9 186.4 235.8C186.4 236 186.4 236.2 186.5 236.4C187.3 243.9 188.1 251.5 188.9 259C188.9 259.2 188.9 259.4 189 259.6C189.1 260.5 189.2 261.4 189.3 262.3C189.3 262.5 189.3 262.7 189.4 262.9C190.2 270 191 277.1 191.7 284.2C191.7 284.4 191.7 284.6 191.8 284.8C191.9 285.7 192 286.6 192.1 287.5C192.1 287.7 192.1 287.9 192.2 288.1C192.8 294.4 193.5 300.7 194.1 307C194.2 308.2 194.3 309.4 194.4 310.7C194.4 310.9 194.4 311.1 194.5 311.3C194.6 312.2 194.7 313.1 194.7 314C194.7 314.2 194.8 314.4 194.8 314.7C195.6 323.3 196.4 331.8 197.2 340.4C197.2 340.7 197.2 340.9 197.3 341.2C197.4 342 197.5 342.9 197.6 343.7C197.6 344 197.6 344.2 197.7 344.5C198.5 351.9 199.4 359.4 200.6 366.8C200.6 367.1 200.7 367.3 200.7 367.6C200.8 368.4 200.9 369.3 201.1 370.1C201.1 370.4 201.2 370.6 201.2 370.9C201.3 373 201.7 375.1 202.1 377.2Z" fill="white"/>
<path d="M223.9 368.5C223.9 368.4 223.9 368.3 223.8 368.2C223.7 367.4 223.6 366.7 223.4 365.9C223.4 365.6 223.3 365.3 223.3 365C222.2 357.7 221.3 350.4 220.6 343.1C220.6 342.8 220.5 342.5 220.5 342.2C220.4 341.4 220.3 340.6 220.3 339.9C220.3 339.6 220.2 339.3 220.2 339C219.4 330.7 218.6 322.4 217.9 314.2C217.9 313.9 217.9 313.6 217.8 313.4C217.7 312.6 217.7 311.7 217.6 310.9C217.6 310.6 217.6 310.4 217.5 310.1C217.4 309.2 217.3 308.3 217.3 307.3C216.7 300.8 216.1 294.3 215.4 287.8C215.4 287.5 215.4 287.3 215.3 287C215.2 286.2 215.1 285.3 215 284.5C215 284.2 214.9 284 214.9 283.7C214.2 276.7 213.4 269.7 212.6 262.7C212.6 262.5 212.6 262.2 212.5 261.9C212.4 261 212.3 260.2 212.2 259.4C212.2 259.2 212.2 258.9 212.1 258.7C212 258 212 257.3 211.9 256.7C211.6 255.9 211.2 255.2 210.9 254.4C211 255.9 211.2 257.3 211.4 258.8C211.4 259 211.4 259.3 211.5 259.5C211.6 260.4 211.7 261.2 211.8 262.1C211.8 262.3 211.8 262.6 211.9 262.9C212.7 269.9 213.4 276.9 214.2 283.9C214.2 284.2 214.3 284.4 214.3 284.7C214.4 285.5 214.5 286.4 214.6 287.2C214.6 287.5 214.7 287.7 214.7 288C215.1 292.1 215.6 296.2 215.9 300.3C216.2 303.6 216.5 307 216.8 310.3C216.8 310.6 216.8 310.8 216.9 311.1C217 311.9 217.1 312.8 217.1 313.6C217.1 313.9 217.1 314.1 217.2 314.4C217.9 322.6 218.6 330.9 219.4 339.3C219.4 339.6 219.5 339.9 219.5 340.2C219.6 341 219.6 341.8 219.7 342.6C219.7 342.9 219.8 343.2 219.8 343.5C220.5 350.8 221.3 358.2 222.4 365.4C222.4 365.7 222.5 366 222.5 366.3C222.6 367.1 222.7 367.8 222.8 368.6C222.8 368.9 222.9 369.2 222.9 369.5V369.6L223 369.5L223.9 368.5Z" fill="white"/>
<path d="M225.5 355.9C225.4 358 225.3 359.8 225.1 361.4C224.3 355.2 223.6 349 223 342.8C223 342.5 222.9 342.2 222.9 341.9C222.8 341.1 222.7 340.3 222.7 339.6C222.7 339.3 222.6 339 222.6 338.7C221.8 330.4 221.2 322.1 220.4 314C220.4 313.7 220.3 313.4 220.3 313.2C220.2 312.4 220.2 311.6 220.1 310.7C220.1 310.4 220 310.1 220 309.9C219.7 306.6 219.4 303.3 219.1 300.1C218.7 296 218.3 291.8 217.8 287.7C217.8 287.4 217.7 287.2 217.7 286.9C217.6 286.1 217.5 285.2 217.4 284.4C217.4 284.1 217.3 283.9 217.3 283.6C216.7 277.6 216 271.6 215.4 265.7C215.8 266.7 216.1 267.8 216.5 268.8C217 273.7 217.6 278.7 218.1 283.6C218.1 283.9 218.2 284.1 218.2 284.4C218.3 285.2 218.4 286.1 218.5 286.9C218.5 287.2 218.6 287.4 218.6 287.7C219.3 294.3 219.9 300.8 220.6 307.4C220.7 308.3 220.8 309.1 220.8 309.9C220.8 310.2 220.8 310.5 220.9 310.7C221 311.5 221 312.3 221.1 313.2C221.1 313.5 221.2 313.8 221.2 314C221.9 322.2 222.7 330.5 223.5 338.7C223.5 339 223.6 339.3 223.6 339.6C223.7 340.4 223.7 341.2 223.8 341.9C223.8 342.2 223.9 342.5 223.9 342.8C224.4 347 224.9 351.5 225.5 355.9Z" fill="white"/>
<path d="M63.0002 377.9L61.7001 377.4C61.6001 376.8 61.5001 376.3 61.4001 375.7C61.4001 375.5 61.3002 375.3 61.3002 375.2C61.1002 374.3 61.0002 373.4 60.8002 372.4C60.8002 372.2 60.7001 372 60.7001 371.9C59.5001 364.4 58.5001 356.8 57.7001 349.3C57.7001 349.1 57.7002 348.9 57.6002 348.8C57.5002 347.9 57.4002 346.9 57.3002 346C57.3002 345.8 57.3001 345.7 57.2001 345.5C56.3001 336.7 55.5002 327.9 54.8002 319.2C54.8002 319.1 54.8002 319.1 54.8002 319C54.7002 318 54.6002 316.9 54.5002 315.9C54.5002 315.8 54.5002 315.8 54.5002 315.7C54.3002 313.5 54.1001 311.3 53.9001 309.1C54.1001 308.7 54.3002 308.3 54.5002 307.9C54.7002 310.5 55.0001 313.1 55.2001 315.7C55.2001 315.8 55.2001 315.9 55.2001 315.9C55.3001 316.9 55.4002 318 55.5002 319C55.5002 319.1 55.5002 319.1 55.5002 319.2C56.3002 328 57.1002 336.8 58.1002 345.5C58.1002 345.7 58.1002 345.9 58.1002 346C58.2002 346.9 58.3001 347.9 58.4001 348.8C58.4001 349 58.4002 349.1 58.5002 349.3C59.4002 356.9 60.4001 364.4 61.7001 371.9C61.7001 372.1 61.8002 372.3 61.8002 372.4C62.0002 373.3 62.1002 374.2 62.3002 375.2C62.3002 375.4 62.3001 375.6 62.4001 375.7C62.5001 376 62.5002 376.4 62.6002 376.7C62.8002 377.1 62.9002 377.5 63.0002 377.9Z" fill="white"/>
<path d="M66.5002 378.9L65.2002 378.5C65.0002 377.5 64.8002 376.5 64.7002 375.5C64.7002 375.3 64.6002 375.1 64.6002 375C64.4002 374.1 64.3002 373.2 64.1002 372.2C64.1002 372 64.0002 371.8 64.0002 371.7C62.8002 364.2 61.8002 356.7 61.0002 349.1C61.0002 348.9 61.0002 348.7 60.9002 348.6C60.8002 347.7 60.7002 346.7 60.6002 345.8C60.6002 345.6 60.6002 345.4 60.5002 345.3C59.6002 336.5 58.9002 327.7 58.1002 319C58.1002 318.9 58.1002 318.8 58.1002 318.8C58.0002 317.8 57.9002 316.8 57.8002 315.7C57.8002 315.6 57.8002 315.5 57.8002 315.4C57.5002 311.4 57.1002 307.4 56.7002 303.4C56.9002 303 57.1002 302.6 57.3002 302.2C57.4002 303.6 57.6002 304.9 57.7002 306.3C58.0002 309.3 58.3002 312.3 58.5002 315.4C58.5002 315.5 58.5002 315.6 58.5002 315.7C58.6002 316.7 58.7002 317.7 58.8002 318.7C58.8002 318.8 58.8002 318.9 58.8002 319C59.6002 327.8 60.4002 336.5 61.4002 345.2C61.4002 345.4 61.4002 345.6 61.5002 345.7C61.6002 346.6 61.7002 347.6 61.8002 348.5C61.8002 348.7 61.8002 348.9 61.9002 349C62.8002 356.6 63.8002 364.1 65.1002 371.6C65.1002 371.8 65.2002 372 65.2002 372.1C65.3002 373 65.5002 373.9 65.7002 374.9C65.7002 375.1 65.7002 375.3 65.8002 375.4C65.9002 375.8 65.9002 376.2 66.0002 376.5C66.2002 377.4 66.4002 378.2 66.5002 378.9Z" fill="white"/>
<path d="M115.1 316.7C114.2 316.7 113.4 316.8 112.5 316.8C112.3 316.8 112 316.8 111.8 316.8C104.8 317.1 97.8002 317.4 90.8002 317.6C90.2002 317.7 89.7002 317.7 89.2002 317.7C89.0002 317.7 88.7002 317.7 88.5002 317.7C87.6002 317.8 86.8002 317.8 85.9002 317.8C85.7002 317.8 85.4002 317.8 85.2002 317.8C76.6002 318.1 67.9002 318.4 59.3002 318.6C59.0002 318.6 58.8002 318.6 58.5002 318.6C57.7002 318.7 56.8002 318.7 56.0002 318.7C55.7002 318.7 55.5002 318.7 55.2002 318.7C53.2002 318.7 51.2003 318.8 49.1003 318.8C49.1003 318.9 49.0002 318.9 49.0002 319C51.0002 319 53.1002 318.9 55.2002 318.9C55.5002 318.9 55.7002 318.9 56.0002 318.9C56.8002 318.9 57.7002 318.9 58.5002 318.9C58.8002 318.9 59.0002 318.9 59.3002 318.9C65.9002 318.8 72.4002 318.8 79.0002 318.6C81.1002 318.6 83.1002 318.5 85.2002 318.4C85.4002 318.4 85.7002 318.4 85.9002 318.4C86.8002 318.4 87.6002 318.3 88.5002 318.3C88.7002 318.3 89.0002 318.3 89.2002 318.3C96.7002 318 104.2 317.7 111.7 317.4C111.9 317.4 112.2 317.4 112.4 317.4C113.3 317.4 114.1 317.3 115 317.3C115.2 317.3 115.5 317.3 115.7 317.3C116.5 317.3 117.3 317.2 118.2 317.2C118.2 317.1 118.3 316.9 118.4 316.7C117.5 316.7 116.5 316.7 115.6 316.8C115.4 316.8 115.1 316.9 115.1 316.7Z" fill="white"/>
<path d="M167.2 315.2C174.8 315 182.5 314.9 190.3 314.7C190.6 314.7 190.8 314.7 191.1 314.7C192 314.6 192.8 314.6 193.7 314.6C194 314.6 194.3 314.6 194.5 314.6C202 314.4 209.5 314.2 217 313.8C217.3 313.8 217.6 313.8 217.8 313.8C218.7 313.8 219.5 313.7 220.4 313.7C220.7 313.7 221 313.7 221.2 313.7C222.5 313.7 223.8 313.6 225.1 313.5C225.1 313.2 225.1 312.9 225.1 312.7C223.8 312.8 222.5 312.9 221.2 313C220.9 313 220.6 313 220.4 313C219.5 313 218.7 313.1 217.8 313.1C217.5 313.1 217.2 313.1 217 313.1C209.5 313.5 202 313.8 194.5 314C194.2 314 193.9 314 193.7 314C192.8 314.1 192 314.1 191.1 314.1C190.8 314.1 190.5 314.1 190.3 314.1C183.1 314.3 175.9 314.5 168.7 314.7C168.2 314.7 167.7 314.7 167.2 314.7C167 314.7 166.7 314.7 166.5 314.7C165.6 314.7 164.8 314.8 163.9 314.8C163.7 314.8 163.4 314.8 163.2 314.8C162.4 314.9 161.7 314.9 161 314.9C161 315 161.1 315.2 161.1 315.4C161.8 315.3 162.5 315.3 163.2 315.3C163.4 315.3 163.7 315.3 163.9 315.3C164 315.3 164.1 315.3 164.1 315.3C164.9 315.2 165.7 315.2 166.5 315.2C166.7 315.2 167 315.2 167.2 315.2Z" fill="white"/>
<path d="M114.6 313.4C113.7 313.4 112.9 313.5 112 313.5C111.8 313.5 111.5 313.5 111.3 313.5C104.5 313.8 97.7002 314.1 90.9002 314.3C90.2002 314.3 89.5002 314.4 88.8002 314.4C88.6002 314.4 88.3003 314.4 88.1003 314.4C87.2002 314.5 86.4002 314.5 85.5002 314.5C85.3002 314.5 85.0002 314.5 84.8002 314.5C76.2002 314.8 67.5002 315.1 58.9002 315.3C58.6002 315.3 58.4003 315.3 58.1003 315.3C57.2003 315.4 56.3002 315.4 55.5002 315.4C55.2002 315.4 55.0002 315.4 54.7002 315.4C53.4002 315.4 52.0003 315.5 50.6003 315.5C50.6003 315.6 50.5002 315.6 50.5002 315.7C51.9002 315.7 53.3002 315.6 54.7002 315.6C55.0002 315.6 55.2002 315.6 55.5002 315.6C56.4002 315.6 57.3003 315.6 58.1003 315.6C58.4003 315.6 58.6002 315.6 58.9002 315.6C65.7002 315.5 72.5002 315.5 79.2002 315.3C81.1002 315.2 83.0002 315.2 84.9002 315.1C85.1002 315.1 85.4002 315.1 85.6003 315.1C86.5003 315.1 87.3002 315 88.2002 315C88.4002 315 88.7002 315 88.9002 315C96.4002 314.7 103.9 314.4 111.4 314.1C111.6 314.1 111.9 314.1 112.1 314.1C113 314.1 113.8 314 114.7 314C114.9 314 115.2 314 115.4 314C116.9 313.9 118.3 313.9 119.8 313.8C119.8 313.6 119.9 313.5 120 313.3C118.5 313.4 116.9 313.4 115.3 313.5C115 313.5 114.8 313.5 114.6 313.4Z" fill="white"/>
<path d="M163.6 311.9C163.8 311.9 164.1 311.9 164.3 311.9C164.9 311.8 165.6 311.8 166.2 311.8C166.5 311.8 166.8 311.8 167 311.8C174.6 311.6 182.3 311.4 190.1 311.3C190.4 311.3 190.7 311.3 190.9 311.3C191.8 311.2 192.6 311.2 193.5 311.2C193.8 311.2 194.1 311.2 194.3 311.2C201.8 311.1 209.3 310.8 216.8 310.5C217.1 310.5 217.4 310.5 217.6 310.5C218.5 310.5 219.3 310.4 220.2 310.4C220.5 310.4 220.8 310.4 221 310.4C222.3 310.4 223.6 310.3 224.9 310.2C224.8 309.9 224.8 309.6 224.8 309.2C223.5 309.3 222.2 309.4 220.9 309.5C220.7 309.6 220.4 309.6 220.2 309.6C219.3 309.6 218.5 309.6 217.6 309.7C217.3 309.7 217 309.7 216.8 309.7C209.3 310.1 201.8 310.4 194.3 310.6C194 310.6 193.7 310.6 193.5 310.6C192.6 310.7 191.8 310.7 190.9 310.7C190.6 310.7 190.3 310.7 190.1 310.7C183 310.8 176 311 169 311.2C168.3 311.3 167.7 311.3 167 311.3C166.7 311.3 166.4 311.3 166.2 311.3C165.3 311.3 164.5 311.4 163.6 311.4C163.3 311.4 163 311.4 162.8 311.4C161.9 311.4 161.1 311.5 160.3 311.5C160.3 311.6 160.4 311.8 160.4 312C161.2 311.9 162 311.9 162.8 311.9C163.1 311.9 163.4 311.9 163.6 311.9Z" fill="white"/>
<path d="M112.1 290.4C111.2 290.4 110.4 290.5 109.5 290.5C109.3 290.5 109 290.5 108.8 290.5C103.3 290.7 97.8002 290.9 92.3002 291.1C90.3002 291.2 88.3002 291.2 86.3002 291.3C86.1002 291.3 85.8002 291.3 85.6002 291.3C84.7002 291.3 83.9002 291.4 83.0002 291.4C82.8002 291.4 82.5002 291.4 82.3002 291.4C75.9002 291.6 69.5002 291.8 63.1002 291.9L62.9001 292.4C68.8001 292.3 74.7002 292.3 80.5002 292.1C81.1002 292.1 81.7002 292.1 82.3002 292C82.5002 292 82.8002 292 83.0002 292C83.9002 292 84.7002 292 85.6002 291.9C85.8002 291.9 86.1002 291.9 86.3002 291.9C93.8002 291.7 101.3 291.4 108.8 291C109 291 109.3 291 109.5 291C110.4 291 111.2 290.9 112.1 290.9C112.3 290.9 112.6 290.9 112.8 290.9C118.1 290.7 123.5 290.4 128.8 290.2C128.9 290 128.9 289.8 129 289.7C123.6 289.9 118.2 290.2 112.8 290.4C112.6 290.4 112.3 290.4 112.1 290.4Z" fill="white"/>
<path d="M161.2 288.7C162.1 288.7 162.9 288.6 163.8 288.6C164 288.6 164.3 288.6 164.5 288.6C164.9 288.6 165.4 288.6 165.8 288.6C173.1 288.4 180.4 288.2 187.8 288.1C188.1 288.1 188.4 288.1 188.6 288.1C189.5 288 190.3 288 191.2 288C191.5 288 191.8 288 192 288C199.5 287.9 207 287.7 214.5 287.4C214.8 287.4 215.1 287.4 215.3 287.4C216.2 287.4 217 287.3 217.9 287.3C218.1 287.3 218.4 287.3 218.6 287.3C219.6 287.3 220.5 287.3 221.5 287.2C221.5 286.9 221.4 286.7 221.3 286.3C220.4 286.4 219.4 286.5 218.5 286.5C218.2 286.5 217.9 286.5 217.7 286.5C216.8 286.5 216 286.6 215.1 286.6C214.8 286.6 214.5 286.6 214.3 286.6C206.8 287 199.3 287.2 191.8 287.4C191.5 287.4 191.2 287.4 191 287.4C190.1 287.5 189.3 287.5 188.4 287.5C188.2 287.5 187.9 287.5 187.7 287.5C181.9 287.6 176.2 287.7 170.4 287.9C168.4 288 166.4 288 164.4 288.1C164.2 288.1 163.9 288.1 163.7 288.1C162.8 288.1 162 288.2 161.1 288.2C160.9 288.2 160.6 288.2 160.4 288.2C158.5 288.3 156.7 288.3 154.8 288.4C154.9 288.5 154.9 288.7 155 288.9C156.9 288.8 158.7 288.8 160.5 288.7C160.7 288.7 161 288.7 161.2 288.7Z" fill="white"/>
<path d="M111.8 287.1C110.9 287.1 110.1 287.2 109.2 287.2C109 287.2 108.7 287.2 108.5 287.2C103.2 287.4 97.9002 287.6 92.6002 287.8C90.4002 287.9 88.2002 287.9 86.0002 288C85.8002 288 85.5002 288 85.3002 288C84.4002 288 83.6001 288.1 82.7001 288.1C82.5001 288.1 82.2002 288.1 82.0002 288.1C76.4002 288.3 70.7002 288.4 65.1002 288.6C65.0002 288.7 65.0001 288.8 64.9001 288.9C70.3001 288.8 75.6001 288.8 80.9001 288.6C81.3001 288.6 81.7002 288.6 82.1002 288.6C82.3002 288.6 82.6002 288.6 82.8002 288.6C83.7002 288.6 84.5001 288.5 85.4001 288.5C85.6001 288.5 85.9002 288.5 86.1002 288.5C93.6002 288.2 101.1 287.9 108.6 287.6C108.8 287.6 109.1 287.6 109.3 287.6C110.2 287.6 111 287.5 111.9 287.5C112.1 287.5 112.4 287.5 112.6 287.5C118.4 287.3 124.2 287 130 286.8C130.1 286.7 130.1 286.5 130.2 286.3C124.3 286.6 118.4 286.9 112.5 287.1C112.3 287.1 112 287.1 111.8 287.1Z" fill="white"/>
<path d="M161 285.4C161.9 285.4 162.7 285.3 163.6 285.3C163.8 285.3 164.1 285.3 164.3 285.3C164.9 285.2 165.6 285.2 166.2 285.2C173.2 285 180.4 284.8 187.6 284.7C187.9 284.7 188.2 284.7 188.4 284.7C189.3 284.7 190.1 284.7 191 284.7C191.3 284.7 191.6 284.7 191.8 284.7C199.3 284.6 206.8 284.4 214.3 284.1C214.5 284.1 214.8 284.1 215 284.1C215.9 284.1 216.7 284 217.6 284C217.9 284 218.2 284 218.4 284C219.2 284 220 283.9 220.9 283.9C220.8 283.7 220.7 283.4 220.4 283.1C219.6 283.1 218.8 283.2 218 283.2C217.8 283.2 217.5 283.2 217.3 283.2C216.4 283.2 215.6 283.3 214.7 283.3C214.5 283.3 214.2 283.3 214 283.3C206.5 283.7 199 283.9 191.5 284.1C191.3 284.1 191 284.1 190.8 284.1C189.9 284.2 189.1 284.2 188.2 284.2C188 284.2 187.7 284.2 187.5 284.2C181.9 284.3 176.3 284.5 170.7 284.6C168.6 284.6 166.4 284.7 164.2 284.8C164 284.8 163.7 284.8 163.5 284.8C162.6 284.8 161.8 284.9 160.9 284.9C160.7 284.9 160.4 284.9 160.2 284.9C158.2 284.9 156.1 285 154.1 285.1C154.1 285.2 154.2 285.4 154.2 285.6C156.3 285.5 158.3 285.5 160.3 285.4C160.5 285.4 160.8 285.4 161 285.4Z" fill="white"/>
<path d="M134.6 264.2L132 264.3C131.8 264.3 131.5 264.3 131.3 264.3C124.2 264.6 117.2 264.9 110.1 265.2C109.9 265.2 109.6 265.2 109.4 265.2C108.5 265.2 107.7 265.3 106.8 265.3C106.6 265.3 106.3 265.3 106.1 265.3C102.1 265.5 98.0002 265.7 94.0002 265.8C90.5002 265.9 87.1003 266 83.6003 266.1C83.4003 266.1 83.1002 266.1 82.9002 266.1C82.0002 266.1 81.2002 266.2 80.3002 266.2C80.1002 266.2 79.8003 266.2 79.6003 266.2C78.1003 266.2 76.6003 266.3 75.1003 266.3C75.1003 266.5 75.0002 266.6 75.0002 266.8C76.6002 266.8 78.1002 266.7 79.7002 266.7C79.9002 266.7 80.2002 266.7 80.4002 266.7C81.0002 266.7 81.7002 266.7 82.3002 266.7C82.5002 266.7 82.8002 266.7 83.0002 266.7C83.2002 266.7 83.5002 266.7 83.7002 266.7C91.2002 266.5 98.7002 266.2 106.2 265.9C106.4 265.9 106.7 265.9 106.9 265.9C107.8 265.9 108.6 265.8 109.5 265.8C109.7 265.8 110 265.8 110.2 265.8C117.3 265.5 124.3 265.2 131.4 264.9C131.6 264.9 131.9 264.9 132.1 264.9C133 264.9 133.8 264.8 134.7 264.8C134.8 264.8 135 264.8 135.2 264.8C135.3 264.8 135.3 264.8 135.4 264.8C135.4 264.6 135.4 264.4 135.3 264.2C135.1 264.2 134.8 264.2 134.6 264.2Z" fill="white"/>
<path d="M158.7 263.8C159.6 263.8 160.4 263.7 161.3 263.7C161.5 263.7 161.8 263.7 162 263.7C163.9 263.6 165.8 263.6 167.7 263.5C173.5 263.3 179.4 263.2 185.3 263.1C185.5 263.1 185.8 263.1 186 263.1C186.9 263 187.7 263 188.6 263C188.8 263 189.1 263 189.3 263C196.8 262.8 204.3 262.7 211.9 262.4C212.1 262.4 212.4 262.4 212.6 262.4L214.4 262.3C214.3 262.1 214.2 261.8 214.2 261.7C213.7 261.8 213.1 261.8 212.6 261.8C212.4 261.8 212.1 261.8 211.9 261.8C204.4 262.1 196.9 262.3 189.4 262.5C189.2 262.5 188.9 262.5 188.7 262.5C187.8 262.6 187 262.6 186.1 262.6C185.9 262.6 185.6 262.6 185.4 262.6C181 262.7 176.7 262.8 172.4 262.9C168.9 263 165.5 263.1 162 263.2C161.8 263.2 161.5 263.2 161.3 263.2C160.4 263.2 159.6 263.3 158.7 263.3C158.5 263.3 158.2 263.3 158 263.3C154.2 263.4 150.5 263.5 146.8 263.7C146.9 263.8 146.9 264 147 264.2C150.6 264.1 154.3 263.9 158 263.8C158.2 263.8 158.5 263.8 158.7 263.8Z" fill="white"/>
<path d="M134.4 260.9C133.5 260.9 132.7 261 131.8 261C131.6 261 131.3 261 131.1 261C124 261.3 117 261.6 109.9 261.9C109.7 261.9 109.4 261.9 109.2 261.9C108.3 261.9 107.5 262 106.6 262C106.4 262 106.1 262 105.9 262C102 262.1 98.2001 262.3 94.3001 262.4C90.6001 262.6 86.9001 262.7 83.3001 262.8C83.1001 262.8 82.8001 262.8 82.6001 262.8C81.7001 262.8 80.9001 262.9 80.0001 262.9C79.8001 262.9 79.5001 262.9 79.3001 262.9C78.3001 262.9 77.2001 263 76.2001 263C76.2001 263.2 76.2001 263.3 76.1001 263.5C77.2001 263.4 78.3001 263.4 79.4001 263.4C79.6001 263.4 79.9001 263.4 80.1001 263.4C80.9001 263.4 81.8001 263.3 82.6001 263.3H82.7001C82.9001 263.3 83.2001 263.3 83.4001 263.3C90.9001 263.1 98.4001 262.8 105.9 262.5C106.1 262.5 106.4 262.5 106.6 262.5C107.5 262.5 108.3 262.4 109.2 262.4C109.4 262.4 109.7 262.4 109.9 262.4C117 262.1 124 261.8 131.1 261.5C131.3 261.5 131.6 261.5 131.8 261.5C132.7 261.5 133.5 261.4 134.4 261.4C134.6 261.4 134.9 261.4 135.1 261.4C135.3 261.4 135.6 261.4 135.8 261.4C135.9 261.3 135.9 261.1 135.9 260.9C135.6 260.9 135.3 260.9 135.1 260.9C134.9 260.9 134.6 260.9 134.4 260.9Z" fill="white"/>
<path d="M158.4 260.5C159.3 260.5 160.1 260.4 161 260.4C161.2 260.4 161.5 260.4 161.7 260.4C163.8 260.3 165.9 260.3 168 260.2C173.7 260 179.4 259.9 185.1 259.8C185.3 259.8 185.6 259.8 185.8 259.8C186.7 259.7 187.5 259.7 188.4 259.7C188.6 259.7 188.9 259.7 189.1 259.7C196.5 259.5 204.1 259.4 211.6 259.1C211.8 259.1 212.1 259.1 212.3 259.1C212.5 259.1 212.8 259.1 213.1 259.1C213 258.8 212.9 258.6 212.7 258.4C212.5 258.4 212.3 258.4 212.1 258.4C211.9 258.4 211.6 258.4 211.4 258.4C203.9 258.7 196.4 258.9 188.9 259.1C188.7 259.1 188.4 259.1 188.2 259.1L185.6 259.2C185.4 259.2 185.1 259.2 184.9 259.2C180.8 259.3 176.6 259.4 172.5 259.5C168.9 259.7 165.2 259.8 161.6 259.9C161.4 259.9 161.1 259.9 160.9 259.9C160 259.9 159.2 260 158.3 260C158.1 260 157.8 260 157.6 260C153.6 260.2 149.5 260.3 145.5 260.5C145.6 260.6 145.6 260.8 145.7 261C149.7 260.8 153.7 260.6 157.7 260.5C157.9 260.5 158.2 260.5 158.4 260.5Z" fill="white"/>
<path d="M84.0002 240.2C90.5002 240 96.9002 239.8 103.4 239.5C103.6 239.5 103.9 239.5 104.1 239.5C105 239.5 105.8 239.4 106.7 239.4C106.9 239.4 107.2 239.4 107.4 239.4C114.5 239.1 121.5 238.8 128.6 238.5C128.8 238.5 129.1 238.5 129.3 238.5C130.2 238.5 131 238.4 131.9 238.4C132.1 238.4 132.4 238.4 132.6 238.4C140.1 238.1 147.6 237.8 155.1 237.5C155.3 237.5 155.6 237.5 155.8 237.5C156.7 237.5 157.5 237.4 158.4 237.4C158.6 237.4 158.9 237.4 159.1 237.4C162.5 237.3 165.9 237.2 169.3 237C173.6 236.9 178 236.8 182.3 236.7C182.5 236.7 182.8 236.7 183 236.7C183.9 236.7 184.7 236.7 185.6 236.6C185.8 236.6 186.1 236.6 186.3 236.6C191.9 236.5 197.5 236.4 203.1 236.2C203 236 202.9 235.7 202.8 235.5C197.3 235.7 191.8 235.8 186.2 235.9C186 235.9 185.7 235.9 185.5 235.9C184.6 235.9 183.8 235.9 182.9 236C182.7 236 182.4 236 182.2 236C179.4 236.1 176.6 236.1 173.8 236.2C168.9 236.3 163.9 236.5 158.9 236.7C158.7 236.7 158.4 236.7 158.2 236.7C157.3 236.7 156.5 236.8 155.6 236.8C155.4 236.8 155.1 236.8 154.9 236.8C147.4 237.1 139.9 237.4 132.4 237.7C132.2 237.7 131.9 237.7 131.7 237.7C130.8 237.7 130 237.8 129.1 237.8C128.9 237.8 128.6 237.8 128.4 237.8C121.3 238.1 114.3 238.4 107.2 238.7C107 238.7 106.7 238.7 106.5 238.7C105.6 238.7 104.8 238.8 103.9 238.8C103.7 238.8 103.4 238.8 103.2 238.8C100.7 238.9 98.1002 239 95.6002 239.1C90.7002 239.3 85.7002 239.4 80.8002 239.6C80.8002 239.6 80.8002 239.6 80.7002 239.6V240.3H80.8002C81.9002 240.3 82.9002 240.2 84.0002 240.2Z" fill="white"/>
<path d="M103.2 236C103.4 236 103.7 236 103.9 236C104.8 236 105.6 235.9 106.5 235.9C106.7 235.9 107 235.9 107.2 235.9C114.3 235.6 121.3 235.3 128.4 235C128.6 235 128.9 235 129.1 235C130 235 130.8 234.9 131.7 234.9C131.9 234.9 132.2 234.9 132.4 234.9C139.9 234.6 147.4 234.3 154.9 234C155.1 234 155.4 234 155.6 234C156.5 234 157.3 233.9 158.2 233.9C158.4 233.9 158.7 233.9 158.9 233.9C162.5 233.7 166.1 233.6 169.7 233.5C173.8 233.4 178 233.3 182.2 233.2C182.4 233.2 182.7 233.2 182.9 233.2C183.8 233.1 184.6 233.1 185.5 233.1C185.7 233.1 186 233.1 186.2 233.1C191.4 233 196.6 232.9 201.9 232.8C201.8 232.6 201.7 232.4 201.5 232.2C196.3 232.4 191.1 232.5 186 232.6C185.8 232.6 185.5 232.6 185.3 232.6C184.4 232.6 183.6 232.7 182.7 232.7C182.5 232.7 182.2 232.7 182 232.7C179.4 232.8 176.8 232.8 174.2 232.9C169.1 233 163.9 233.2 158.8 233.4C158.6 233.4 158.3 233.4 158.1 233.4C157.2 233.4 156.4 233.5 155.5 233.5C155.3 233.5 155 233.5 154.8 233.5C147.3 233.8 139.8 234.1 132.3 234.4C132.1 234.4 131.8 234.4 131.6 234.4C130.7 234.4 129.9 234.5 129 234.5C128.8 234.5 128.5 234.5 128.3 234.5C121.2 234.8 114.2 235.1 107.1 235.4C106.9 235.4 106.6 235.4 106.4 235.4C105.5 235.4 104.7 235.5 103.8 235.5C103.6 235.5 103.3 235.5 103.1 235.5C100.7 235.6 98.4002 235.7 96.0002 235.8C91.2002 236 86.4002 236.1 81.5002 236.3C81.4002 236.4 81.4001 236.6 81.4001 236.8C82.4001 236.8 83.3002 236.7 84.3002 236.7C90.6002 236.5 96.9001 236.2 103.2 236Z" fill="white"/>
<path d="M183.1 208.9C182.3 209 181.4 209 180.5 209C180.3 209 180 209 179.8 209C174 209.1 168.3 209.2 162.5 209.4C160.6 209.5 158.6 209.5 156.7 209.6C156.5 209.6 156.4 209.6 156.2 209.6C155.3 209.6 154.3 209.7 153.4 209.7C153.2 209.7 153.1 209.7 152.9 209.7C145.3 210 137.7 210.3 130.1 210.6C129.9 210.6 129.8 210.6 129.6 210.6C128.7 210.6 127.7 210.7 126.8 210.7C126.7 210.7 126.5 210.7 126.3 210.7C119.2 211 112 211.3 104.9 211.6C104.8 211.6 104.6 211.6 104.4 211.6C103.5 211.6 102.5 211.7 101.6 211.7C101.5 211.7 101.3 211.7 101.1 211.7C95.5002 211.9 89.9002 212.1 84.3002 212.3C84.2002 212.3 84.1002 212.3 84.0002 212.3C84.0002 212.4 84.0002 212.6 84.0002 212.8C89.7002 212.6 95.4003 212.3 101.1 212.1C101.2 212.1 101.4 212.1 101.6 212.1C102.6 212.1 103.5 212 104.4 212C104.5 212 104.7 212 104.9 212C112 211.7 119.2 211.4 126.3 211.1C126.4 211.1 126.6 211.1 126.8 211.1C127.7 211.1 128.7 211 129.6 211C129.8 211 129.9 211 130.1 211C137.6 210.7 145.2 210.4 152.8 210.1C153 210.1 153.1 210.1 153.3 210.1C154.2 210.1 155.2 210 156.1 210C156.3 210 156.4 210 156.6 210C157 210 157.4 210 157.8 210C165.1 209.8 172.4 209.6 179.8 209.5C180 209.5 180.3 209.5 180.5 209.5C181.3 209.5 182.2 209.5 183.1 209.5C183.3 209.5 183.6 209.5 183.8 209.5C186.3 209.4 188.7 209.4 191.2 209.3C191.1 209.1 191 208.9 190.9 208.7C188.5 208.8 186.2 208.8 183.8 208.9C183.6 208.9 183.3 208.9 183.1 208.9Z" fill="white"/>
<path d="M100.8 208.9C101.7 208.9 102.7 208.9 103.6 208.8C103.8 208.8 103.9 208.8 104.1 208.8C111.3 208.5 118.4 208.2 125.6 207.9C125.8 207.9 126 207.9 126.1 207.9C127.1 207.9 128 207.8 129 207.8C129.2 207.8 129.4 207.8 129.5 207.8C137.1 207.5 144.7 207.2 152.3 206.9C152.5 206.9 152.7 206.9 152.8 206.9C153.8 206.9 154.7 206.8 155.7 206.8C155.9 206.8 156.1 206.8 156.2 206.8C156.8 206.7 157.3 206.7 157.9 206.7C165 206.5 172.2 206.3 179.4 206.2C179.7 206.2 179.9 206.2 180.1 206.2C181 206.1 181.9 206.1 182.8 206.1C183.1 206.1 183.3 206.1 183.5 206.1C185.5 206.1 187.5 206 189.6 206C189.5 205.8 189.4 205.6 189.2 205.4C187.2 205.5 185.3 205.6 183.3 205.6C183.1 205.6 182.9 205.6 182.7 205.6C181.8 205.7 180.9 205.7 180 205.7C179.8 205.7 179.6 205.7 179.4 205.7C173.8 205.8 168.2 205.9 162.6 206.1C160.4 206.2 158.3 206.2 156.2 206.3C156 206.3 155.9 206.3 155.7 206.3C154.7 206.3 153.8 206.4 152.8 206.4C152.6 206.4 152.5 206.4 152.3 206.4C144.7 206.7 137.1 207 129.5 207.3C129.3 207.3 129.1 207.3 129 207.3C128 207.3 127 207.4 126.1 207.4C125.9 207.4 125.7 207.4 125.6 207.4C118.4 207.7 111.2 208 104.1 208.3C103.9 208.3 103.8 208.3 103.6 208.3C102.6 208.3 101.7 208.4 100.7 208.4C100.5 208.4 100.4 208.4 100.2 208.4C94.8001 208.6 89.3001 208.8 83.9001 209C83.8001 209 83.7001 209 83.6001 209C83.6001 209.1 83.6001 209.3 83.6001 209.5C89.2001 209.3 94.7001 209.1 100.3 208.9C100.5 208.9 100.6 208.9 100.8 208.9Z" fill="white"/>
<path d="M99.2 185.8C100.1 185.8 101 185.7 101.9 185.7C102.2 185.7 102.4 185.7 102.6 185.7C109.7 185.4 116.7 185.1 123.8 184.8C124 184.8 124.3 184.8 124.5 184.8C125.3 184.8 126.2 184.7 127.1 184.7C127.3 184.7 127.6 184.7 127.8 184.7C135.3 184.4 142.8 184.1 150.3 183.8C150.5 183.8 150.8 183.8 151 183.8C151.8 183.8 152.7 183.7 153.6 183.7C153.8 183.7 154.1 183.7 154.3 183.7C156.1 183.6 157.8 183.6 159.6 183.5C165.6 183.2 171.6 183.1 177.7 183C177.8 183 178 183 178.1 183C178.2 183 178.4 183 178.6 183C178.5 182.8 178.4 182.6 178.3 182.6H178C177.9 182.6 177.7 182.6 177.6 182.6C173.1 182.7 168.6 182.8 164.1 182.9C160.8 183 157.5 183.1 154.2 183.2C154 183.2 153.7 183.2 153.5 183.2C152.6 183.2 151.8 183.3 150.9 183.3C150.7 183.3 150.4 183.3 150.2 183.3C142.7 183.6 135.2 183.9 127.7 184.2C127.5 184.2 127.2 184.2 127 184.2C126.2 184.2 125.3 184.3 124.4 184.3C124.2 184.3 123.9 184.3 123.7 184.3C116.6 184.6 109.6 184.9 102.5 185.2C102.3 185.2 102 185.2 101.8 185.2C101 185.2 100.1 185.3 99.2 185.3C98.9 185.3 98.7 185.3 98.5 185.3C96.9 185.4 95.4 185.4 93.9 185.5L93.3 186C95 185.9 96.7 185.9 98.5 185.8C98.8 185.8 99 185.8 99.2 185.8Z" fill="white"/>
<path d="M98.8002 182.3C99.7002 182.3 100.5 182.2 101.4 182.2C101.6 182.2 101.9 182.2 102.2 182.2C109.2 181.9 116.3 181.6 123.3 181.3C123.5 181.3 123.8 181.3 124.1 181.3C124.9 181.3 125.8 181.2 126.6 181.2C126.8 181.2 127.1 181.2 127.4 181.2C134.9 180.9 142.3 180.6 149.8 180.3C150.1 180.3 150.3 180.3 150.6 180.3C151.4 180.3 152.3 180.2 153.1 180.2C153.4 180.2 153.6 180.2 153.9 180.2C155.9 180.1 157.9 180.1 159.8 180C165.5 179.8 171.2 179.7 177 179.6L176.7 179.1C172.6 179.2 168.5 179.3 164.4 179.4C160.9 179.5 157.3 179.6 153.8 179.7C153.5 179.7 153.3 179.7 153 179.7C152.2 179.7 151.3 179.8 150.5 179.8C150.2 179.8 150 179.8 149.7 179.8C142.2 180.1 134.8 180.4 127.3 180.7C127 180.7 126.8 180.7 126.5 180.7C125.6 180.7 124.8 180.8 124 180.8C123.7 180.8 123.5 180.8 123.2 180.8C116.2 181.1 109.2 181.4 102.1 181.7C101.9 181.7 101.6 181.7 101.3 181.7C100.4 181.7 99.6001 181.8 98.7001 181.8C98.5001 181.8 98.2002 181.8 98.0002 181.8L97.4001 182.3C97.6001 182.3 97.9002 182.3 98.1002 182.3C98.3002 182.3 98.6002 182.3 98.8002 182.3Z" fill="white"/>
<path d="M65.8002 375.1C65.4002 375.1 65.0002 375.1 64.6003 375.1C63.9003 375.2 63.2002 375.2 62.5002 375.2C62.1002 375.2 61.7002 375.2 61.3002 375.2C59.9002 375.2 58.4002 375.3 57.0002 375.3C57.3002 375.5 57.7002 375.6 58.0002 375.8C59.1002 375.8 60.1003 375.7 61.1003 375.7C61.2003 375.7 61.3002 375.7 61.4002 375.7C61.8002 375.7 62.2003 375.7 62.6003 375.7C63.3003 375.6 64.0002 375.6 64.7002 375.6C65.1002 375.6 65.5002 375.6 65.9002 375.6C71.3002 375.4 76.6002 375.2 81.9002 375C82.0002 374.9 82.2002 374.7 82.3002 374.5C79.1002 374.6 76.0002 374.7 72.8002 374.8C70.5002 374.9 68.1002 374.9 65.8002 375.1Z" fill="white"/>
<path d="M222.7 368.3C222.3 368.3 221.8 368.4 221.4 368.4C214.5 369.1 207.7 369.6 200.8 370C200.5 370.1 200.1 370.1 199.7 370.1C199 370.1 198.2 370.2 197.5 370.2C197.2 370.3 196.8 370.3 196.4 370.3C188.7 370.7 180.9 371 173.1 371.2C172.7 371.2 172.4 371.2 172 371.2C171.6 371.2 171.1 371.2 170.7 371.2L171.9 371.8C172.3 371.8 172.6 371.8 173 371.8C180.8 371.6 188.6 371.4 196.4 371.1C196.7 371.1 197.1 371.1 197.5 371.1C198.3 371.1 199 371 199.7 371C200.1 370.9 200.5 370.9 200.9 370.9C208.2 370.5 215.5 370 222.8 369.2C222.8 369.2 222.8 369.2 222.9 369.2L223.8 368.5L224.3 368.1C224.2 368.2 224 368.2 223.8 368.2C223.4 368.2 223.1 368.3 222.7 368.3Z" fill="white"/>
<path d="M65.3002 371.6C64.9002 371.6 64.5002 371.6 64.1002 371.6C63.3002 371.7 62.6001 371.7 61.9001 371.7C61.6001 371.7 61.2002 371.7 60.8002 371.7C57.8002 371.8 54.9001 371.9 51.9001 372L52.5002 372.5C55.3002 372.4 58.0002 372.4 60.8002 372.3C60.9002 372.3 61.1001 372.3 61.2001 372.3C61.4001 372.3 61.7001 372.3 61.9001 372.3C62.7001 372.3 63.4002 372.2 64.1002 372.2C64.5002 372.2 64.9002 372.2 65.3002 372.2C71.7002 372 78.2002 371.8 84.6002 371.5C84.7002 371.4 84.9002 371.2 85.0002 371C81.0002 371.2 77.0002 371.4 73.0002 371.5C70.4002 371.5 67.8002 371.6 65.3002 371.6Z" fill="white"/>
<path d="M223.2 364.7C222.8 364.7 222.5 364.8 222.1 364.8C221.9 364.9 221.7 364.9 221.5 364.9C214.4 365.7 207.3 366.2 200.2 366.6C199.8 366.6 199.5 366.7 199.1 366.7C198.4 366.7 197.6 366.8 196.9 366.8C196.6 366.9 196.2 366.9 195.8 366.9C188.1 367.2 180.4 367.5 172.6 367.7C172.3 367.7 171.9 367.7 171.6 367.7C170.8 367.8 170.1 367.8 169.3 367.8C169 367.8 168.6 367.8 168.3 367.8C168.3 368 168.4 368.2 168.4 368.4C168.7 368.4 169 368.4 169.4 368.4C170.2 368.4 170.9 368.4 171.7 368.4C172 368.4 172.3 368.4 172.7 368.4C180.4 368.2 188.2 368 196 367.7C196.4 367.7 196.7 367.7 197.1 367.7C197.8 367.7 198.6 367.6 199.3 367.6C199.6 367.5 200 367.5 200.4 367.5C207.8 367.2 215.1 366.7 222.4 365.9C222.8 365.9 223.1 365.8 223.5 365.8C223.9 365.8 224.4 365.7 224.8 365.7L224.9 364.7C224.4 364.8 223.9 364.8 223.2 364.7Z" fill="white"/>
<path d="M91.0001 347.5C90.2001 347.5 89.4001 347.6 88.6001 347.6C88.3001 347.6 88.0001 347.6 87.7001 347.6C83.4001 347.8 79.0001 348 74.7001 348.1C70.6001 348.2 66.4001 348.4 62.2001 348.5C61.9001 348.5 61.5001 348.5 61.2001 348.5C60.4001 348.5 59.7001 348.6 58.9001 348.6C58.6001 348.6 58.2001 348.6 57.9001 348.6C51.3001 348.8 44.7001 348.9 38.1001 349.1V349.3C44.7001 349.2 51.3001 349.2 57.9001 349.1C58.2001 349.1 58.6001 349.1 58.9001 349.1C59.7001 349 60.4001 349 61.2001 349C61.5001 349 61.9001 349 62.2001 349C62.4001 349 62.7001 349 62.9001 349C71.2001 348.7 79.4001 348.4 87.7001 348.1C88.0001 348.1 88.3001 348.1 88.6001 348.1C89.4001 348.1 90.2001 348 91.0001 348C91.3001 348 91.6001 348 91.9001 348C95.1001 347.9 98.3001 347.7 101.5 347.6C101.6 347.5 101.7 347.3 101.8 347.1C98.5001 347.2 95.1001 347.4 91.8001 347.5C91.5001 347.5 91.2001 347.5 91.0001 347.5Z" fill="white"/>
<path d="M223.3 341.7C223.2 341.7 223.1 341.7 223 341.7C222.2 341.8 221.4 341.8 220.6 341.9C220.3 341.9 220 342 219.7 342C212.3 342.7 204.9 343.2 197.5 343.6C197.1 343.7 196.8 343.7 196.5 343.7C195.7 343.7 194.9 343.8 194.1 343.8C193.7 343.8 193.4 343.8 193.1 343.8C185.4 344.1 177.8 344.3 170.1 344.5C169.8 344.5 169.5 344.5 169.2 344.5C168.3 344.6 167.5 344.6 166.7 344.6C166.4 344.6 166.1 344.6 165.8 344.6C165.6 344.6 165.4 344.6 165.2 344.6C165.3 344.8 165.3 345 165.3 345.2C165.5 345.2 165.7 345.2 165.9 345.2C166.2 345.2 166.5 345.2 166.8 345.2C167.7 345.2 168.5 345.2 169.3 345.2C169.6 345.2 169.9 345.2 170.2 345.2C177.8 345 185.5 344.9 193.2 344.6C193.6 344.6 193.9 344.6 194.2 344.6C195 344.6 195.8 344.5 196.6 344.5C197 344.5 197.3 344.5 197.6 344.5C205 344.2 212.4 343.8 219.8 343.1C220.1 343.1 220.4 343 220.7 343C221.5 343 222.3 342.9 223.1 342.8C223.4 342.8 223.7 342.7 224 342.7C224.6 342.6 225.3 342.6 226 342.5C226 342.1 226 341.8 226 341.5C225.3 341.5 224.6 341.6 224 341.6C223.8 341.7 223.5 341.7 223.3 341.7Z" fill="white"/>
<path d="M90.7001 344.2C89.8001 344.2 89.0001 344.3 88.2001 344.3C87.9002 344.3 87.6002 344.3 87.3002 344.3C83.1002 344.5 79.0002 344.7 74.8002 344.8C70.5002 344.9 66.1001 345.1 61.7001 345.2C61.3001 345.2 61.0001 345.2 60.7001 345.2C59.9002 345.3 59.1002 345.3 58.3002 345.3C57.9002 345.3 57.6002 345.3 57.3002 345.3C50.7002 345.5 44.0001 345.7 37.4001 345.8V346C44.1001 345.9 50.8001 345.9 57.4001 345.8C57.8001 345.8 58.1001 345.8 58.4001 345.8C59.2001 345.7 60.0002 345.7 60.8002 345.7C61.1002 345.7 61.5002 345.7 61.8002 345.7C62.2002 345.7 62.7002 345.7 63.1002 345.7C71.2002 345.4 79.3001 345.1 87.4001 344.8C87.7001 344.8 88.0002 344.8 88.3002 344.8C89.1002 344.8 89.9002 344.7 90.7001 344.7C91.0001 344.7 91.3002 344.7 91.6002 344.7C95.6002 344.5 99.6002 344.4 103.6 344.2C103.7 344.1 103.8 343.9 103.9 343.7C99.8001 343.8 95.6002 344 91.5002 344.2C91.2002 344.2 90.9002 344.2 90.7001 344.2Z" fill="white"/>
<path d="M223.5 338.4H223.4C223.1 338.5 222.9 338.5 222.6 338.5C221.8 338.6 221 338.6 220.2 338.7C219.9 338.7 219.6 338.8 219.3 338.8C211.9 339.4 204.5 339.9 197.1 340.3C196.8 340.3 196.5 340.3 196.2 340.3C195.4 340.3 194.6 340.4 193.8 340.4C193.5 340.4 193.2 340.4 192.9 340.4C185.2 340.7 177.5 340.9 169.9 341.1C169.7 341.1 169.4 341.1 169.1 341.1C168.3 341.2 167.4 341.2 166.6 341.2C166.3 341.2 166 341.2 165.7 341.2C165.5 341.2 165.3 341.2 165.1 341.2C165.1 341.4 165.1 341.6 165.1 341.8C165.4 341.8 165.6 341.8 165.8 341.8C166 341.8 166.3 341.8 166.6 341.8C167.4 341.8 168.3 341.8 169.1 341.8C169.3 341.8 169.6 341.8 169.9 341.8C177.5 341.6 185.2 341.5 192.9 341.2C193.2 341.2 193.5 341.2 193.8 341.2C194.6 341.2 195.4 341.1 196.2 341.1C196.5 341.1 196.8 341.1 197.1 341.1C204.6 340.8 212 340.4 219.4 339.7C219.7 339.7 220 339.6 220.3 339.6C221.1 339.6 221.9 339.5 222.7 339.4C223 339.4 223.3 339.3 223.6 339.3C224.4 339.3 225.2 339.2 226 339.1C226 338.7 226 338.4 226 338.1C225.2 338.2 224.4 338.3 223.5 338.4Z" fill="white"/>
<path d="M184.6 97.2C183.9 96.7 180.8 87 180.3 87L164.7 58L132.9 69C132.9 69 127.6 69 126.1 70.2C124.6 71.4 107.9 68.5 107.9 68.5L104.9 68.7C104.9 68.7 102.4 68.5 101.2 70.4C100 72.2 98.4001 74.9 98.9001 78.1C98.7001 77.8 88.6001 82.6 88.6001 82.6C88.6001 82.6 39.8001 116.4 41.9001 151.3C43.9001 158.3 56.6001 172.5 79.6001 169.8C79.4001 170 77.9001 189.5 78.3001 193C78.6001 193.8 101 210.2 179 175.3C181.2 172.6 184.8 156.8 185.3 153.5C185.8 150.2 185.3 97.7 184.6 97.2Z" fill="#03A731"/>
<path d="M138 31.2L132.8 24.5C132.8 24.5 127.3 22.1 126.3 21.8C125.3 21.5 119.5 22 119 22C118.5 22 111.2 24.9 110.7 25.2C110.2 25.5 110.7 32.2 110.7 32.2C110.7 32.2 113 42.4 107.7 39.9C102.4 37.4 96.2002 43.2 95.4002 49.7C94.6002 59.7 105.9 58.5 105.9 58.5C105.9 58.5 105.4 71.5 105.2 72C117.4 82.5 126.6 73 126.9 73.2C126.6 71.2 128.6 63.7 128.8 63.5C132.7 63.4 133.9 62.8 135.2 62C148.4 53.3 138 31.2 138 31.2Z" fill="#FBD0CA"/>
<path d="M127.7 52.5C127.4 52.5 127.2 52.3 127.2 52C127.2 51.7 127.4 51.5 127.7 51.5C129.1 51.4 129.9 50.9 130.3 50.1C131.3 48 128.9 43.9 127.9 42.4C127.7 42.2 127.8 41.9 128 41.7C128.2 41.5 128.5 41.6 128.7 41.8C128.9 42 132.6 47.4 131.2 50.5C130.6 51.7 129.5 52.4 127.7 52.5Z" fill="#393532"/>
<path d="M119.9 44.4C120 45.7 119.4 46.8 118.5 46.9C117.6 47 116.7 45.9999 116.6 44.6999C116.5 43.3999 117.1 42.2999 118 42.1999C118.8 42.0999 119.7 43.1 119.9 44.4Z" fill="#393532"/>
<path d="M138 43.6C138.1 44.9 137.4 46 136.5 46C135.6 46 134.8 45 134.7 43.8C134.6 42.5 135.3 41.4 136.2 41.4C137.1 41.3 137.9 42.3 138 43.6Z" fill="#393532"/>
<path d="M126.2 58.2C125.7 58.2 125.3 58.1 124.8 58C121.9 57.2 120.7 54 120.6 53.9C120.5 53.6 120.6 53.4 120.9 53.3C121.2 53.2 121.4 53.3 121.5 53.6C121.5 53.6 122.7 56.5 125 57.1C126.4 57.5 128.1 57.1 129.9 55.7C130.1 55.5 130.4 55.6 130.6 55.8C130.8 56 130.7 56.3 130.5 56.5C129 57.6 127.6 58.2 126.2 58.2Z" fill="#393532"/>
<path d="M119.6 51.8C119.3 53.3 117.7 54.3 116 54C114.3 53.7 113.1 52.2 113.4 50.6C113.7 49.1 115.3 48.1 117 48.4C118.7 48.8 119.8 50.3 119.6 51.8Z" fill="#EC848A"/>
<path d="M141.4 49.5C141.5 50.9 140.3 52.1 138.8 52.2C137.2 52.3 135.9 51.3 135.8 49.9C135.7 48.5 136.9 47.3 138.4 47.2C140 47.1 141.3 48.1 141.4 49.5Z" fill="#EC848A"/>
<path d="M108.8 46.7C108.8 46.7 122.4 40.8 115.8 30.5C115.8 30.2 122.4 22.8 127.9 29.3C130.2 31.1 139.2 36.1 139.7 27.1C139.9 25.3 147.9 23.3 146.9 18.4C145.9 13.5 142.7 3.6 128.2 10.6C127.2 10.4 108.5 -0.399997 104.2 20.4C103.5 19.9 100.4 20.7 101.2 22.7C101.2 22.7 82 27 94.4 43.5C94.1 43.7 95.6 46.7 96.7 46.5C96.5 46.7 102.8 40.7 108.8 46.7Z" fill="#FCE700"/>
<path d="M128.8 63.6C128.8 63.6 123.2 63.5 119.1 61.3C112.1 57.7 122.7 68.2 127.8 67C128.2 66.9 128.8 63.6 128.8 63.6Z" fill="#393532"/>
<path d="M114.9 43C114.8 43 114.7 43 114.6 42.9C114.4 42.7 114.4 42.4 114.6 42.2C114.6 42.2 117.9 38.4 117.3 34.9C117 33.3 116 31.9 114.2 30.8C114 30.7 113.9 30.4 114 30.1C114.1 29.9 114.4 29.8 114.7 29.9C116.8 31.1 118 32.8 118.3 34.7C118.9 38.7 115.5 42.7 115.3 42.9C115.2 42.9 115 43 114.9 43Z" fill="#393532"/>
<path d="M115.7 31.6C115.6 31.6 115.6 31.6 115.5 31.6C115.2 31.5 115.1 31.2 115.2 30.9C117.6 25.4 124.9 25.5 125.2 25.5C125.5 25.5 125.7 25.7 125.7 26C125.7 26.3 125.5 26.5 125.2 26.5C125.1 26.5 118.3 26.4 116.2 31.3C116.1 31.5 115.9 31.6 115.7 31.6Z" fill="#393532"/>
<path d="M127.1 28.2C126.4 28.2 125.7 28.1 124.9 27.8C124.6 27.7 124.5 27.4 124.6 27.2C124.7 26.9 125 26.8 125.2 26.9C128.6 28 130.2 25.9 130.2 25.9C130.4 25.7 130.7 25.6 130.9 25.8C131.1 26 131.2 26.3 131 26.5C130.9 26.6 129.7 28.2 127.1 28.2Z" fill="#393532"/>
<path d="M135.8 32.8C132.3 32.8 127.9 29.9 127.7 29.7C127.5 29.5 127.4 29.2 127.6 29C127.8 28.8 128.1 28.7 128.3 28.9C128.4 28.9 134.4 33 137.5 31.4C138.7 30.8 139.3 29.3 139.3 27.1C139.3 26.8 139.5 26.6 139.8 26.6C140.1 26.6 140.3 26.8 140.3 27.1C140.3 29.7 139.5 31.5 137.9 32.3C137.3 32.6 136.6 32.8 135.8 32.8Z" fill="#393532"/>
<path d="M175.9 408.7C175.7 407.6 178.7 388.2 178.7 388.2C191.9 392.1 201.9 388.1 201.9 388.1C201.9 388.1 201.9 388.1 205.3 389.9C234.3 401.5 234 411.1 233.9 413.7C233.9 413.7 234.6 415.5 232.6 416.2C230.6 416.8 176.2 410.2 176.2 410.2L175.9 408.7Z" fill="#393532"/>
<path d="M219.8 412.7C219.5 412.7 219.3 412.4 219.3 412.2C220.2 402.6 224.7 400.2 224.9 400.1C225.1 400 225.4 400.1 225.6 400.3C225.7 400.5 225.6 400.8 225.4 401C225.3 401 221.2 403.4 220.4 412.3C220.3 412.5 220.1 412.7 219.8 412.7Z" fill="white"/>
<path d="M191.8 409.8C191.6 409.8 191.4 409.6 191.3 409.4C191.3 409.3 188.4 398.5 177.5 395.8C177.2 395.7 177.1 395.5 177.1 395.2C177.2 394.9 177.4 394.8 177.7 394.8C189.3 397.6 192.2 409 192.3 409.2C192.4 409.5 192.2 409.7 191.9 409.8H191.8Z" fill="white"/>
<path d="M212.5 402.4C212.4 402.4 212.2 402.3 212.1 402.2C211.9 402 211.9 401.7 212.2 401.5L218.5 396.1C218.7 395.9 219 395.9 219.2 396.2C219.4 396.4 219.4 396.7 219.1 396.9L212.8 402.3C212.7 402.4 212.6 402.4 212.5 402.4Z" fill="white"/>
<path d="M209.8 401.2C209.7 401.2 209.5 401.1 209.4 401C209.2 400.8 209.2 400.5 209.5 400.3L215.8 394.9C216 394.7 216.3 394.7 216.5 395C216.7 395.2 216.7 395.5 216.4 395.7L210.1 401.1C210 401.2 209.9 401.2 209.8 401.2Z" fill="white"/>
<path d="M279.1 40.9999C259.4 61.1999 260.6 78.1999 260.6 78.1999L286.5 78.5999C286.5 78.5999 304.8 62.6999 307.2 37.9999C306.6 29.4999 298.8 20.8999 279.1 40.9999Z" fill="#FBD0CA"/>
<path d="M174.4 187.4C174.6 196 181.7 202.7 190.3 202.5L266.5 200.6C275.1 200.4 281.8 193.3 281.6 184.7L277.6 24.8C277.4 16.2 270.3 9.49998 261.7 9.69998L185.5 11.6C176.9 11.8 170.2 18.9 170.4 27.5L174.4 187.4Z" fill="white"/>
<path d="M189.9 205.5C179.9 205.5 171.7 197.5 171.4 187.4L167.4 27.5C167.1 17.3 175.2 8.79996 185.4 8.49996L261.6 6.59996C266.6 6.49996 271.2 8.29996 274.8 11.7C278.4 15.1 280.4 19.7 280.5 24.7L284.5 184.6C284.8 194.8 276.7 203.3 266.5 203.6L190.3 205.5C190.2 205.5 190.1 205.5 189.9 205.5ZM177.4 187.3C177.6 194.2 183.3 199.7 190.2 199.5L266.4 197.6C273.3 197.4 278.8 191.7 278.6 184.8L274.6 24.9C274.4 18 268.7 12.5 261.8 12.7L185.6 14.6C178.7 14.8 173.2 20.5 173.4 27.4L177.4 187.3Z" fill="#393532"/>
<path d="M161.7 34.8C147.3 27.5 146.5 46.5 149.8 60.8C153.1 75.1 153.8 101.1 153.7 116C149.8 140.9 169.7 156.1 169.7 156.1L173 116C173 113.7 177 107.4 181.2 92C193.1 59.5 170.3 39.9 161.7 34.8Z" fill="#FBD0CA"/>
<path d="M172.8 115.6C172.7 115.6 172.6 115.6 172.6 115.5C172.4 115.4 172.3 115.1 172.4 114.8C183.8 93.5 186.9 74.8 181.6 59.3C175.3 41 159.2 33.7 159 33.7C158.7 33.6 158.6 33.3 158.7 33C158.8 32.7 159.1 32.6 159.4 32.7C159.6 32.8 176.1 40.3 182.5 59C187.9 74.8 184.8 93.7 173.2 115.3C173.2 115.5 173 115.6 172.8 115.6Z" fill="#393532"/>
<path d="M300.3 80.6C295.1 73.6 283 70.1 278 83.6C275.3 91.1 272.1 97.9 284.5 107C284.4 106.6 266.8 107.7 274.1 129.3C277.6 135.8 282.3 135.5 283.7 136.5L284.7 140.4C284.7 140.4 302.9 124.4 292.6 111.1C292.8 109.8 308.2 97.1 300.3 80.6Z" fill="#FBD0CA"/>
<path d="M283.3 107.1C283.2 107.1 283.1 107.1 283 107C277.7 102.5 274.9 97.5 274.9 92.1C274.9 82.4 283.3 75.1 283.7 74.8C283.9 74.6 284.2 74.6 284.4 74.9C284.6 75.1 284.6 75.4 284.3 75.6C284.2 75.7 275.8 83 275.9 92.2C275.9 97.3 278.5 102.1 283.6 106.4C283.8 106.6 283.8 106.9 283.7 107.1C283.6 107 283.4 107.1 283.3 107.1Z" fill="#393532"/>
<path d="M284.3 137C284.2 137 284.2 137 284.1 137C275.3 134.1 271.6 129.9 271.5 122.2C271.2 111.2 278.6 107.9 278.7 107.8C278.9 107.7 279.2 107.8 279.4 108.1C279.5 108.4 279.4 108.6 279.1 108.8C278.8 108.9 272.2 111.9 272.5 122.2C272.7 130.5 277.4 133.8 284.5 136C284.8 136.1 284.9 136.4 284.8 136.6C284.7 136.9 284.5 137 284.3 137Z" fill="#393532"/>
<path d="M286.4 139.3C286.3 139.3 286.2 139.3 286.1 139.2C285.9 139 285.9 138.7 286 138.5C293.7 129.1 296.6 121.4 294.5 115.6C292.1 109 283.8 107.3 283.7 107.3C283.4 107.2 283.3 107 283.3 106.7C283.4 106.4 283.6 106.3 283.9 106.3C284.3 106.4 292.8 108.1 295.4 115.2C297.6 121.3 294.7 129.3 286.7 139.1C286.7 139.2 286.5 139.3 286.4 139.3Z" fill="#393532"/>
<path d="M293.4 152.6C292.5 151.1 276.4 145.5 280.7 169.4C281 171.4 282.5 174.5 282.5 176L282.9 177.2C282.9 177.2 302.6 168.7 293.4 152.6Z" fill="#FBD0CA"/>
<path d="M294 154.3C293.8 154.3 293.7 154.2 293.6 154C292.8 152.5 291.6 151.7 290.2 151.4C287.4 150.9 284.2 152.8 283 153.6L282.9 153.7C282.4 154 282.2 154.2 281.9 154C281.7 153.9 281.6 153.7 281.7 153.5C281.7 153.4 281.8 153.3 282 153.2C282.9 152.4 285.7 150.8 288.1 150.5C290.9 150.1 293.2 151.1 294.5 153.6C294.6 153.8 294.5 154.1 294.3 154.3C294.2 154.3 294.1 154.3 294 154.3Z" fill="#393532"/>
<path d="M109.8 120.8C109.8 120.8 131.9 105.3 138 106C138.8 106 142.4 108.6 134.9 114.4C135.1 114.4 139.4 116.9 136.1 121.3C136.2 121.7 140.6 123.1 138.5 127.2C138.6 127.4 141.4 128.7 139.4 131.3C137.4 133.9 122.9 143.7 120.3 144.2C120.4 144.2 116.8 130.2 109.8 120.8Z" fill="#FBD0CA"/>
<path d="M61 134.2C60.8 134.2 60.6 134.1 60.6 133.9C60.5 133.7 60.6 133.4 60.8 133.2C62.3 132.4 97.4 114.9 108.9 119.5C109.2 119.6 109.3 119.9 109.2 120.2C109.1 120.5 108.8 120.6 108.5 120.5C97.4 116 61.6 134 61.2 134.2C61.2 134.2 61.1 134.2 61 134.2Z" fill="#393532"/>
<path d="M56.7002 131.5C56.5002 131.5 56.3002 131.4 56.2002 131.1C56.1002 130.8 56.3002 130.6 56.5002 130.5C56.9002 130.4 65.4002 127.8 68.8002 129.2C69.1002 129.3 69.2002 129.6 69.1002 129.9C69.0002 130.2 68.7002 130.3 68.4002 130.2C65.3002 128.9 56.8002 131.5 56.7002 131.5Z" fill="#393532"/>
<path d="M91.7002 121.8C91.6002 121.8 91.5002 121.8 91.5002 121.7C91.3002 121.6 91.2002 121.3 91.3002 121C98.8002 108 95.3002 93.2 95.2002 93.1C95.1002 92.8 95.3002 92.6 95.6002 92.5C95.9002 92.4 96.1002 92.6 96.2002 92.9C96.2002 93.1 99.9002 108.2 92.1002 121.6C92.0002 121.7 91.9002 121.8 91.7002 121.8Z" fill="#393532"/>
<path d="M75 170.5C74.8 170.5 74.5 170.3 74.5 170.1C74.5 169.8 74.6 169.6 74.9 169.5C109.9 164.4 119 151.9 119.8 150.8C121 142.6 113.9 128.6 113.8 128.5C113.7 128.3 113.8 128 114 127.8C114.2 127.7 114.5 127.8 114.7 128C115 128.6 122.1 142.5 120.7 151L120.6 151.2C117.8 156 104.6 166.2 75 170.5Z" fill="#393532"/>
<path d="M151.7 186.1C151.4 186.1 151.2 185.9 151.2 185.6C152.8 117.2 127.9 86.1999 127.7 85.9999L128 85.6999H127.5V85.3999C127.6 84.0999 127.5 82.8999 127.2 81.9999C127.1 81.6999 127.2 81.4999 127.5 81.3999C127.8 81.2999 128 81.3999 128.1 81.6999C128.5 82.7999 128.6 84.0999 128.5 85.5999C131.2 88.9999 153.7 120.3 152.2 185.7C152.2 185.9 152 186.1 151.7 186.1Z" fill="#393532"/>
<path d="M126.2 79.6C126.1 79.6 125.9 79.5 125.8 79.4C124.1 77.3 121.8 76.5 121.8 76.5C121.5 76.4 121.4 76.1 121.5 75.9C121.6 75.7 121.9 75.5 122.1 75.6C122.2 75.6 124.6 76.6 126.5 78.9C126.7 79.1 126.6 79.4 126.4 79.6C126.4 79.6 126.3 79.6 126.2 79.6Z" fill="#393532"/>
<path d="M138.5 77.4C138.2 77.4 138 77.2 138 76.9C137.7 72.3 132.8 71.2 132.6 71.2C132.3 71.1 132.2 70.9 132.2 70.6C132.3 70.3 132.5 70.2 132.8 70.2C132.9 70.2 138.7 71.5 139 76.9C139 77.1 138.8 77.4 138.5 77.4Z" fill="#393532"/>
<path d="M117.1 89.7C116.8 89.7 116.6 89.7 116.3 89.7C106.5 89.3 100.5 81.4 100.2 81C100 80.8 100.1 80.5 100.3 80.3C100.5 80.1 100.8 80.2 101 80.4C101.1 80.5 107 88.3 116.3 88.7C123.4 89 130.7 85 137.9 76.8C138.1 76.6 138.4 76.6 138.6 76.8C138.8 77 138.8 77.3 138.6 77.5C131.6 85.6 124.3 89.7 117.1 89.7Z" fill="#393532"/>
<path d="M106.3 55.5C106.2 55.5 106 55.4 105.9 55.4C105.5 55 103.4 53.9 102.8 54.4C102.6 54.6 102.3 54.5 102.1 54.3C101.9 54.1 102 53.8 102.2 53.6C103.1 52.9 104.5 53.4 105.5 53.9C104.6 51.9 101.9 52 101.8 52C101.5 52 101.3 51.8 101.3 51.5C101.3 51.2 101.5 51 101.8 51C103.4 50.9 106.6 51.7 106.8 55C106.8 55.2 106.7 55.4 106.5 55.5C106.4 55.5 106.4 55.5 106.3 55.5Z" fill="#393532"/>
<path d="M95.8002 225.2C95.6002 225.2 95.4002 225.1 95.3002 224.9C95.2002 224.6 95.3002 224.4 95.6002 224.2C111.3 217.4 111.7 197.2 111.7 197C111.7 196.7 111.9 196.5 112.2 196.5C112.5 196.5 112.7 196.7 112.7 197C112.7 197.2 112.3 218.1 96.0002 225.2C95.9002 225.2 95.9002 225.2 95.8002 225.2Z" fill="#393532"/>
<path d="M51.0002 350.2C50.9002 350.2 50.7002 350.1 50.6002 350C50.4002 349.8 50.4002 349.5 50.6002 349.3C61.9002 339.3 84.5002 292.3 90.8002 271.7C97.0002 250.8 94.7002 198.3 94.7002 197.8C94.7002 197.5 94.9002 197.3 95.2002 197.3C95.4002 197.3 95.7002 197.5 95.7002 197.8C95.7002 198.3 98.0002 251 91.8002 272.1C85.5002 292.8 62.8002 340 51.4002 350.1C51.2002 350.2 51.1002 350.2 51.0002 350.2Z" fill="#393532"/>
<path d="M94.8001 290.3C94.6001 290.3 94.5001 290.2 94.4001 290L82.1001 268.5C82.0001 268.3 82.0001 268 82.3001 267.8C82.5001 267.7 82.8001 267.7 83.0001 268L95.3001 289.5C95.4001 289.7 95.4001 290 95.1001 290.2C95.0001 290.3 94.9001 290.3 94.8001 290.3Z" fill="#393532"/>
<path d="M101.3 285C101.1 285 101 284.9 100.9 284.8L88.8 264.5C88.7 264.3 88.7 264 89 263.8C89.2 263.7 89.5 263.7 89.7 264L101.8 284.3C101.9 284.5 101.9 284.8 101.6 285C101.5 285 101.4 285 101.3 285Z" fill="#393532"/>
<path d="M83.7 372.1C54.8 372.1 41.5 333.4 41.3 333C41.2 332.7 41.4 332.5 41.6 332.4C41.9 332.3 42.1 332.5 42.2 332.7C42.3 333.1 55.4 371.2 83.6 371.2H83.7C84 371.2 84.2 371.4 84.2 371.7C84.3 371.9 84 372.1 83.7 372.1Z" fill="#393532"/>
<path d="M197 366.8C180.4 366.8 166.5 361.3 166.3 361.2C166 361.1 165.9 360.8 166 360.5C166.1 360.2 166.4 360.1 166.7 360.2C167 360.3 200.3 373.4 225.1 358.7C225.3 358.6 225.6 358.6 225.8 358.9C225.9 359.1 225.9 359.4 225.6 359.6C216.5 365.1 206.3 366.8 197 366.8Z" fill="#393532"/>
<path d="M137 245.3C136.6 245.2 136.5 245 136.5 244.7L142 213.7C142 213.4 142.3 213.2 142.6 213.3C142.9 213.3 143.1 213.6 143 213.9L137.5 244.9C137.4 245.1 137.2 245.3 137 245.3Z" fill="#393532"/>
<path d="M116.3 77.5C115.4 77.5 114.5 77.4 113.6 77.2C107.1 75.9 103.6 70.5 103.4 70.3C103.3 70.1 103.3 69.8 103.5 69.6C103.7 69.5 104 69.5 104.2 69.7C104.2 69.8 107.7 75 113.7 76.1C117.8 76.9 122.2 75.7 126.7 72.5C126.9 72.3 127.2 72.4 127.4 72.6C127.6 72.8 127.5 73.1 127.3 73.3C123.6 76.2 119.9 77.5 116.3 77.5Z" fill="#393532"/>
<path d="M92.1001 43.3C91.9001 43.3 91.8 43.2 91.7 43.1C88.8 38.2 88.1001 33.9 89.6001 30.3C91.2001 26.6 95.2 23.8 100.9 22.4C101 22.4 101.1 22.4 101.1 22.3C101.4 22.2 101.6 22.4 101.7 22.6C101.8 22.9 101.7 23.1 101.4 23.2C101.4 23.2 101.2 23.2 101.1 23.3C95.7001 24.6 91.9 27.2 90.5 30.6C89.1 33.8 89.8 37.8 92.5 42.5C92.6 42.7 92.6001 43 92.3001 43.2C92.3001 43.3 92.2001 43.3 92.1001 43.3Z" fill="#FCE700"/>
<path d="M103.5 20.7C103.3 20.7 103.2 20.6 103.1 20.5C102.1 19.1 100.3 20.1 100.3 20.1C100.1 20.2 99.8001 20.2 99.6001 19.9C99.5001 19.7 99.5001 19.4 99.8001 19.2C100.7 18.7 102.7 18.1 104 19.8C104.2 20 104.1 20.3 103.9 20.5C103.7 20.7 103.6 20.7 103.5 20.7Z" fill="#FCE700"/>
<path d="M146 12.3C145.8 12.3 145.7 12.2 145.6 12.1C145.6 12.1 143.3 8.29998 139 7.59998C135.8 6.99998 132.3 8.19998 128.7 11.1C128.5 11.3 128.2 11.2 128 11C127.8 10.8 127.9 10.5 128.1 10.3C132 7.19998 135.8 5.99998 139.3 6.59998C144 7.49998 146.5 11.4 146.6 11.6C146.7 11.8 146.7 12.1 146.4 12.3C146.2 12.3 146.1 12.3 146 12.3Z" fill="#FCE700"/>
<path d="M126.5 119.5C126.3 119.5 126.1 119.4 126.1 119.2C126 119 126.1 118.7 126.3 118.5L134.8 114.1C135 114 135.3 114.1 135.5 114.3C135.6 114.5 135.5 114.8 135.3 115L126.8 119.4C126.7 119.5 126.6 119.5 126.5 119.5Z" fill="#393532"/>
<path d="M128.5 125.9C128.3 125.9 128.2 125.8 128.1 125.7C128 125.5 128.1 125.2 128.3 125.1L135.9 120.9C136.1 120.8 136.4 120.9 136.5 121.1C136.6 121.3 136.5 121.6 136.3 121.7L128.7 125.9C128.6 125.8 128.6 125.9 128.5 125.9Z" fill="#393532"/>
<path d="M131.4 131.8C131.2 131.8 131.1 131.7 131 131.6C130.9 131.4 131 131.1 131.2 131L138.3 126.9C138.5 126.8 138.8 126.9 138.9 127.1C139 127.3 138.9 127.6 138.7 127.7L131.6 131.8C131.5 131.8 131.5 131.8 131.4 131.8Z" fill="#393532"/>
<path d="M59.7001 404.2C59.0001 404.5 60.2001 401.4 57.8001 401.5C57.8001 401.5 58.1001 399.7 56.1001 399.5C56.1001 399.5 56.0001 399.5 55.9001 399.6C55.1001 396.7 54.4001 393.6 53.2001 389.7C52.0001 386.1 52.4001 386.4 52.0001 385.9C52.0001 385.9 42.1001 380.8 36.1001 368C36.1001 368 19.9001 378.7 19.0001 379.4C17.4001 380.7 17.1001 382.1 17.1001 382.1C17.1001 382.1 25.5001 394.6 34.6001 406.7L35.0001 407.3L36.8001 409.7L37.1001 410L42.9001 417.5C42.9001 417.5 43.0001 417.5 43.2001 417.5C44.7001 417.6 51.6001 417.8 58.3001 418.2C58.4001 418.2 57.8001 418.2 58.0001 418.2C64.4001 418.5 71.7001 418.8 72.7001 418.5C72.8001 418.3 75.1001 409.3 59.7001 404.2Z" fill="#393532"/>
<path d="M72.1001 415.1L45.0001 413.9L44.9001 413.7L20.0001 379.2C19.8001 379 19.9001 378.7 20.1001 378.5C20.3001 378.3 20.6001 378.4 20.8001 378.6L45.6001 412.9L72.2001 414.1C72.5001 414.1 72.7001 414.3 72.7001 414.6C72.6001 414.9 72.4001 415.1 72.1001 415.1Z" fill="white"/>
<path d="M45.5 413.6C45.4 413.6 45.3 413.6 45.2 413.5C45 413.3 44.9 413 45.1 412.8C50.5 405.1 58.6 403.7 58.9 403.6C59.2 403.6 59.4 403.7 59.5 404C59.5 404.3 59.4 404.5 59.1 404.6C59 404.6 51 406.1 45.9 413.4C45.8 413.5 45.7 413.6 45.5 413.6Z" fill="white"/>
<path d="M29.6001 391.4C29.5001 391.4 29.4001 391.4 29.3001 391.3C29.1001 391.1 29.0001 390.8 29.2001 390.6C29.3001 390.5 34.9001 382.3 29.6001 372C29.5001 371.8 29.6001 371.5 29.8001 371.3C30.0001 371.2 30.3001 371.3 30.5001 371.5C36.2001 382.3 30.1001 391 30.1001 391.1C29.9001 391.3 29.8001 391.4 29.6001 391.4Z" fill="white"/>
<path d="M46.8 399.7C46.6 399.7 46.4 399.5 46.3 399.3C46.3 399 46.4 398.8 46.7 398.7L55 397.2C55.3 397.2 55.5001 397.3 55.6001 397.6C55.6001 397.9 55.5 398.1 55.2 398.2L46.8 399.7Z" fill="white"/>
<path d="M45.9 396.8C45.7 396.8 45.5 396.6 45.4 396.4C45.3 396.1 45.5 395.9 45.8 395.8L54.3 394C54.6 393.9 54.8 394.1 54.9 394.4C55 394.7 54.8 394.9 54.5 395L46 396.8H45.9Z" fill="white"/>
<path d="M116.883 79.5422C116.729 79.5422 116.576 79.4657 116.576 79.3126C114.817 75.8694 117.648 73.1148 117.648 73.1148C117.801 72.9617 118.03 72.9617 118.183 73.1148C118.336 73.2678 118.336 73.4974 118.183 73.6504C118.107 73.7269 115.735 76.0224 117.265 78.93C117.342 79.0831 117.265 79.3126 117.112 79.4657C117.036 79.5422 116.959 79.5422 116.883 79.5422Z" fill="#FCE700"/>
<path fill-rule="evenodd" clip-rule="evenodd" d="M223.271 73.1518C223.271 71.4028 224.688 69.9861 226.437 69.9861C228.186 69.9861 229.602 71.4028 229.602 73.1518C229.602 74.9008 228.186 76.3175 226.437 76.3175C224.688 76.3175 223.271 74.9008 223.271 73.1518ZM236.477 66.8205H239.099V69.4432L236.477 66.8205ZM239.099 79.4831H236.477L239.099 76.8604V79.4831ZM213.774 79.4831V76.8604L216.397 79.4831H213.774ZM213.774 66.8205H216.397L213.774 69.4432V66.8205ZM232 66.8205L238.332 73.1518L232 79.4831H220.873L214.542 73.1518L220.873 66.8205H232ZM210.608 82.6488H242.265V63.6548H210.608V82.6488Z" fill="#9CF5B5"/>
<path d="M215.562 98.6488V94.7156L212.548 89.5183H214.821L216.673 93.0172L218.486 89.5183H220.491L217.643 94.7156V98.6488H215.562ZM223.511 97.3846C224.545 97.3846 225.146 96.6184 225.146 95.3541V95.2648C225.146 93.9878 224.545 93.2216 223.511 93.2216C222.489 93.2216 221.876 93.9622 221.876 95.2392V95.3414C221.876 96.6184 222.464 97.3846 223.511 97.3846ZM223.498 98.7893C221.506 98.7893 219.986 97.4612 219.986 95.3797V95.2775C219.986 93.1832 221.506 91.8169 223.511 91.8169C225.516 91.8169 227.023 93.1577 227.023 95.2392V95.3414C227.023 97.4484 225.503 98.7893 223.498 98.7893ZM230.486 98.7893C229.184 98.7893 228.213 98.0231 228.213 96.2736V91.9701H230.052V96.0182C230.052 96.9249 230.422 97.359 231.214 97.359C231.993 97.359 232.606 96.8738 232.606 95.8905V91.9701H234.445V98.6488H232.606V97.6017C232.261 98.2785 231.584 98.7893 230.486 98.7893ZM236.083 98.6488V91.9701H237.935V93.2471C238.356 92.3532 239.008 91.8807 240.093 91.8679V93.5919C238.727 93.5791 237.935 94.0261 237.935 95.3031V98.6488H236.083ZM203.42 112.789C201.402 112.789 199.934 111.525 199.934 109.392V109.29C199.934 107.183 201.428 105.817 203.369 105.817C205.093 105.817 206.625 106.826 206.625 109.214V109.724H201.811C201.862 110.835 202.462 111.474 203.471 111.474C204.326 111.474 204.748 111.104 204.863 110.542H206.612C206.395 111.985 205.246 112.789 203.42 112.789ZM201.836 108.588H204.825C204.761 107.579 204.25 107.094 203.369 107.094C202.539 107.094 201.977 107.643 201.836 108.588ZM209.7 112.789C208.487 112.789 207.465 112.202 207.465 110.797C207.465 109.239 208.896 108.652 210.939 108.652H211.692V108.384C211.692 107.592 211.45 107.158 210.607 107.158C209.879 107.158 209.547 107.528 209.47 108.103H207.721C207.836 106.519 209.087 105.817 210.722 105.817C212.356 105.817 213.518 106.481 213.518 108.294V112.649H211.718V111.844C211.335 112.381 210.747 112.789 209.7 112.789ZM210.249 111.5C211.066 111.5 211.692 111.053 211.692 110.312V109.75H210.977C209.904 109.75 209.279 109.98 209.279 110.695C209.279 111.18 209.572 111.5 210.249 111.5ZM215.108 112.649V105.97H216.959V107.247C217.381 106.353 218.032 105.881 219.117 105.868V107.592C217.751 107.579 216.959 108.026 216.959 109.303V112.649H215.108ZM220.333 112.649V105.97H222.184V107.03C222.516 106.366 223.244 105.817 224.355 105.817C225.671 105.817 226.603 106.609 226.603 108.396V112.649H224.751V108.665C224.751 107.758 224.394 107.324 223.576 107.324C222.785 107.324 222.184 107.809 222.184 108.792V112.649H220.333ZM228.24 112.649V105.97H230.079V112.649H228.24ZM229.147 105.063C228.56 105.063 228.1 104.629 228.1 104.055C228.1 103.48 228.56 103.046 229.147 103.046C229.747 103.046 230.207 103.48 230.207 104.055C230.207 104.629 229.747 105.063 229.147 105.063ZM231.781 112.649V105.97H233.633V107.03C233.965 106.366 234.692 105.817 235.803 105.817C237.119 105.817 238.051 106.609 238.051 108.396V112.649H236.199V108.665C236.199 107.758 235.842 107.324 235.024 107.324C234.233 107.324 233.633 107.809 233.633 108.792V112.649H231.781ZM242.6 115.113C240.442 115.113 239.459 114.168 239.28 112.789H241.119C241.234 113.377 241.655 113.76 242.6 113.76C243.724 113.76 244.286 113.172 244.286 112.125V111.116C243.915 111.768 243.124 112.355 242.14 112.355C240.519 112.355 239.229 111.142 239.229 109.163V109.073C239.229 107.158 240.506 105.817 242.166 105.817C243.251 105.817 243.903 106.289 244.286 106.966V105.97H246.125V112.125C246.112 114.105 244.796 115.113 242.6 115.113ZM242.689 110.963C243.66 110.963 244.337 110.274 244.337 109.137V109.048C244.337 107.911 243.737 107.222 242.728 107.222C241.693 107.222 241.119 107.962 241.119 109.06V109.163C241.119 110.274 241.77 110.963 242.689 110.963ZM250.182 112.789C248.382 112.789 247.334 111.998 247.271 110.555H248.995C249.071 111.155 249.365 111.5 250.169 111.5C250.884 111.5 251.217 111.231 251.217 110.772C251.217 110.312 250.821 110.12 249.863 109.98C248.088 109.712 247.398 109.201 247.398 107.898C247.398 106.506 248.675 105.817 250.042 105.817C251.523 105.817 252.634 106.353 252.8 107.886H251.102C250.999 107.336 250.693 107.081 250.054 107.081C249.454 107.081 249.109 107.362 249.109 107.771C249.109 108.192 249.429 108.358 250.399 108.499C252.072 108.741 252.992 109.163 252.992 110.593C252.992 112.036 251.944 112.789 250.182 112.789ZM198.377 126.789C197.164 126.789 196.142 126.202 196.142 124.797C196.142 123.239 197.572 122.652 199.615 122.652H200.369V122.384C200.369 121.592 200.126 121.158 199.283 121.158C198.555 121.158 198.223 121.528 198.147 122.103H196.397C196.512 120.519 197.764 119.817 199.398 119.817C201.033 119.817 202.195 120.481 202.195 122.294V126.649H200.394V125.844C200.011 126.381 199.424 126.789 198.377 126.789ZM198.926 125.5C199.743 125.5 200.369 125.053 200.369 124.312V123.75H199.654C198.581 123.75 197.955 123.98 197.955 124.695C197.955 125.18 198.249 125.5 198.926 125.5ZM203.784 126.649V119.97H205.636V121.247C206.057 120.353 206.708 119.881 207.794 119.868V121.592C206.428 121.579 205.636 122.026 205.636 123.303V126.649H203.784ZM211.962 126.789C209.945 126.789 208.476 125.525 208.476 123.392V123.29C208.476 121.183 209.97 119.817 211.911 119.817C213.635 119.817 215.168 120.826 215.168 123.214V123.724H210.353C210.404 124.835 211.004 125.474 212.013 125.474C212.869 125.474 213.29 125.104 213.405 124.542H215.155C214.938 125.985 213.788 126.789 211.962 126.789ZM210.379 122.588H213.367C213.303 121.579 212.792 121.094 211.911 121.094C211.081 121.094 210.519 121.643 210.379 122.588ZM222.326 125.385C223.361 125.385 223.961 124.618 223.961 123.354V123.265C223.961 121.988 223.361 121.222 222.326 121.222C221.305 121.222 220.692 121.962 220.692 123.239V123.341C220.692 124.618 221.279 125.385 222.326 125.385ZM222.314 126.789C220.321 126.789 218.802 125.461 218.802 123.38V123.278C218.802 121.183 220.321 119.817 222.326 119.817C224.331 119.817 225.838 121.158 225.838 123.239V123.341C225.838 125.448 224.318 126.789 222.314 126.789ZM227.079 126.649V119.97H228.931V121.03C229.263 120.366 229.991 119.817 231.102 119.817C232.417 119.817 233.349 120.609 233.349 122.396V126.649H231.498V122.665C231.498 121.758 231.14 121.324 230.323 121.324C229.531 121.324 228.931 121.809 228.931 122.792V126.649H227.079ZM240.206 126.777C238.801 126.777 238.048 126.061 238.048 124.669V121.285H237.192V119.97H238.048V118.527H239.887V119.97H241.291V121.285H239.887V124.503C239.887 125.04 240.155 125.295 240.627 125.295C240.908 125.295 241.113 125.257 241.33 125.167V126.598C241.074 126.687 240.704 126.777 240.206 126.777ZM242.581 126.649V116.944H244.432V121.03C244.764 120.366 245.492 119.817 246.603 119.817C247.918 119.817 248.851 120.609 248.851 122.396V126.649H246.999V122.665C246.999 121.758 246.641 121.324 245.824 121.324C245.032 121.324 244.432 121.809 244.432 122.792V126.649H242.581ZM253.515 126.789C251.497 126.789 250.028 125.525 250.028 123.392V123.29C250.028 121.183 251.523 119.817 253.464 119.817C255.187 119.817 256.72 120.826 256.72 123.214V123.724H251.906C251.957 124.835 252.557 125.474 253.566 125.474C254.421 125.474 254.843 125.104 254.958 124.542H256.707C256.49 125.985 255.341 126.789 253.515 126.789ZM251.931 122.588H254.919C254.855 121.579 254.345 121.094 253.464 121.094C252.633 121.094 252.072 121.643 251.931 122.588ZM214.368 140.649L212.337 133.97H214.278L215.466 138.465L216.756 133.97H218.275L219.45 138.465L220.714 133.97H222.489L220.382 140.649H218.569L217.432 136.46L216.206 140.649H214.368ZM225.114 140.789C223.901 140.789 222.879 140.202 222.879 138.797C222.879 137.239 224.309 136.652 226.353 136.652H227.106V136.384C227.106 135.592 226.863 135.158 226.021 135.158C225.293 135.158 224.961 135.528 224.884 136.103H223.134C223.249 134.519 224.501 133.817 226.135 133.817C227.77 133.817 228.932 134.481 228.932 136.294V140.649H227.132V139.844C226.748 140.381 226.161 140.789 225.114 140.789ZM225.663 139.5C226.48 139.5 227.106 139.053 227.106 138.312V137.75H226.391C225.318 137.75 224.692 137.98 224.692 138.695C224.692 139.18 224.986 139.5 225.663 139.5ZM231.177 142.922L232.352 139.972L229.696 133.97H231.688L233.31 137.98L234.804 133.97H236.579L232.965 142.922H231.177ZM238.718 140.764C238.079 140.764 237.556 140.278 237.556 139.666C237.556 139.04 238.079 138.555 238.718 138.555C239.356 138.555 239.88 139.04 239.88 139.666C239.88 140.278 239.356 140.764 238.718 140.764ZM237.977 137.801L237.696 131.518H239.765L239.484 137.801H237.977Z" fill="#6F6F6F"/>
<g filter="url(#filter0_d_197_8239)">
<rect x="123" y="52" width="203.938" height="26.709" rx="3.95689" fill="white" shape-rendering="crispEdges"/>
<g clip-path="url(#clip1_197_8239)">
<path fill-rule="evenodd" clip-rule="evenodd" d="M160.314 65.3545C160.314 64.4254 161.067 63.6729 161.996 63.6729C162.925 63.6729 163.678 64.4254 163.678 65.3545C163.678 66.2837 162.925 67.0362 161.996 67.0362C161.067 67.0362 160.314 66.2837 160.314 65.3545ZM167.329 61.9912H168.723V63.3844L167.329 61.9912ZM168.723 68.7179H167.329L168.723 67.3247V68.7179ZM155.269 68.7179V67.3247L156.663 68.7179H155.269ZM155.269 61.9912H156.663L155.269 63.3844V61.9912ZM164.952 61.9912L168.315 65.3545L164.952 68.7179H159.04L155.677 65.3545L159.04 61.9912H164.952ZM153.588 70.3996H170.404V60.3095H153.588V70.3996Z" fill="#77DC93"/>
</g>
<path d="M178.251 68.3545V65.0629L175.729 60.8112H176.763L178.736 64.3138L180.635 60.8112H181.553L179.168 65.0734V68.3545H178.251ZM184.236 67.7215C185.344 67.7215 186.04 66.888 186.04 65.6431V65.5693C186.04 64.2927 185.333 63.4698 184.236 63.4698C183.128 63.4698 182.432 64.2927 182.432 65.5587V65.6431C182.432 66.8986 183.118 67.7215 184.236 67.7215ZM184.226 68.4494C182.654 68.4494 181.525 67.2573 181.525 65.6431V65.5587C181.525 63.9024 182.675 62.7419 184.236 62.7419C185.798 62.7419 186.947 63.8918 186.947 65.5482V65.6326C186.947 67.2995 185.798 68.4494 184.226 68.4494ZM190.171 68.4494C189.073 68.4494 188.251 67.8481 188.251 66.3289V62.8368H189.126V66.2867C189.126 67.2573 189.538 67.6898 190.403 67.6898C191.183 67.6898 191.922 67.1729 191.922 66.1812V62.8368H192.798V68.3545H191.922V67.4788C191.669 67.9958 191.057 68.4494 190.171 68.4494ZM194.715 63.2061L194.177 62.9318L195.116 60.6951L195.949 61.0749L194.715 63.2061ZM196.68 68.3545V62.8368H197.555V63.8285C197.903 63.2061 198.378 62.7735 199.37 62.7419V63.5648C198.262 63.6175 197.555 63.9657 197.555 65.3266V68.3545H196.68ZM202.749 68.4494C201.188 68.4494 200.08 67.3522 200.08 65.6537V65.5693C200.08 63.9024 201.146 62.7419 202.665 62.7419C203.941 62.7419 205.144 63.512 205.144 65.4849V65.7697H200.987C201.03 67.0252 201.631 67.7215 202.76 67.7215C203.614 67.7215 204.11 67.405 204.226 66.7614H205.102C204.912 67.8692 203.994 68.4494 202.749 68.4494ZM201.019 65.0629H204.247C204.163 63.9235 203.572 63.4698 202.665 63.4698C201.768 63.4698 201.167 64.0817 201.019 65.0629ZM210.388 68.3545L208.689 62.8368H209.639L210.926 67.2784L212.265 62.8368H213.025L214.281 67.2784L215.578 62.8368H216.475L214.755 68.3545H213.785L212.635 64.2189L211.348 68.3545H210.388ZM217.677 68.3545V62.8368H218.553V68.3545H217.677ZM218.099 61.6868C217.783 61.6868 217.519 61.4231 217.519 61.1066C217.519 60.7901 217.783 60.5263 218.099 60.5263C218.416 60.5263 218.679 60.7901 218.679 61.1066C218.679 61.4231 218.416 61.6868 218.099 61.6868ZM222.022 68.4283C221.02 68.4283 220.535 67.8375 220.535 66.9724V63.5753H219.744V62.8368H220.535V61.5813H221.411V62.8368H222.698V63.5753H221.411V66.888C221.411 67.4261 221.653 67.6898 222.096 67.6898C222.371 67.6898 222.582 67.6476 222.772 67.5738V68.3123C222.592 68.3756 222.381 68.4283 222.022 68.4283ZM224.095 68.3545V60.1993H224.971V63.7125C225.224 63.1955 225.836 62.7419 226.743 62.7419C227.883 62.7419 228.685 63.3643 228.685 64.9679V68.3545H227.809V64.9046C227.809 63.934 227.397 63.5015 226.511 63.5015C225.699 63.5015 224.971 64.0184 224.971 65.0101V68.3545H224.095ZM232.479 68.4494C231.034 68.4494 229.989 67.4261 229.989 65.7064V65.622C229.989 63.934 231.044 62.7419 232.563 62.7419C233.481 62.7419 234.051 63.185 234.367 63.723V60.1993H235.243V68.3545H234.367V67.405C234.051 67.943 233.281 68.4494 232.479 68.4494ZM232.574 67.7215C233.597 67.7215 234.399 67.0463 234.399 65.6326V65.5482C234.399 64.1345 233.724 63.4698 232.648 63.4698C231.551 63.4698 230.896 64.24 230.896 65.5798V65.6642C230.896 67.0568 231.645 67.7215 232.574 67.7215ZM237.015 68.3545V62.8368H237.891V63.8285C238.239 63.2061 238.714 62.7735 239.705 62.7419V63.5648C238.597 63.6175 237.891 63.9657 237.891 65.3266V68.3545H237.015ZM242.312 68.4494C241.289 68.4494 240.476 67.9536 240.476 66.8247C240.476 65.5482 241.827 65.1156 243.24 65.1156H244.032V64.7147C244.032 63.8391 243.694 63.4698 242.85 63.4698C242.091 63.4698 241.669 63.7863 241.584 64.4615H240.708C240.825 63.2061 241.827 62.7419 242.892 62.7419C243.947 62.7419 244.907 63.1744 244.907 64.7147V68.3545H244.032V67.6582C243.62 68.1751 243.124 68.4494 242.312 68.4494ZM242.396 67.7531C243.325 67.7531 244.032 67.2784 244.032 66.4238V65.7381H243.272C242.164 65.7381 241.352 66.0124 241.352 66.8247C241.352 67.3944 241.626 67.7531 242.396 67.7531ZM247.632 68.3545L245.934 62.8368H246.883L248.17 67.2784L249.51 62.8368H250.27L251.525 67.2784L252.823 62.8368H253.72L252 68.3545H251.029L249.879 64.2189L248.592 68.3545H247.632ZM254.922 68.3545V62.8368H255.797V68.3545H254.922ZM255.344 61.6868C255.027 61.6868 254.763 61.4231 254.763 61.1066C254.763 60.7901 255.027 60.5263 255.344 60.5263C255.66 60.5263 255.924 60.7901 255.924 61.1066C255.924 61.4231 255.66 61.6868 255.344 61.6868ZM257.59 68.3545V62.8368H258.465V63.7125C258.719 63.1955 259.33 62.7419 260.238 62.7419C261.377 62.7419 262.179 63.3643 262.179 64.9679V68.3545H261.303V64.9046C261.303 63.934 260.892 63.5015 260.006 63.5015C259.193 63.5015 258.465 64.0184 258.465 65.0101V68.3545H257.59ZM266.1 70.3696C264.465 70.3696 263.747 69.5994 263.6 68.671H264.496C264.623 69.304 265.15 69.6311 266.089 69.6311C267.176 69.6311 267.862 69.1141 267.862 67.9325V67.1307C267.545 67.6687 266.796 68.1751 265.994 68.1751C264.549 68.1751 263.484 67.0779 263.484 65.5587V65.4849C263.484 63.9868 264.539 62.7419 266.058 62.7419C266.976 62.7419 267.545 63.185 267.862 63.723V62.8368H268.737V67.9852C268.727 69.5889 267.64 70.3696 266.1 70.3696ZM266.089 67.4472C267.113 67.4472 267.893 66.7298 267.893 65.4954V65.4216C267.893 64.1872 267.218 63.4698 266.142 63.4698C265.045 63.4698 264.391 64.2822 264.391 65.4427V65.5271C264.391 66.7298 265.161 67.4472 266.089 67.4472ZM275.422 69.7788V68.4389C273.618 68.3123 273.017 67.2678 272.89 66.0546H273.776C273.882 66.8775 274.135 67.6054 275.422 67.7215V64.7886C274.029 64.5248 273.196 64.029 273.196 62.763C273.196 61.6657 274.103 60.8112 275.422 60.7268V59.7773H276.044V60.7373C277.31 60.8534 278.102 61.5708 278.239 62.7946H277.416C277.258 61.9823 276.825 61.5602 276.044 61.4547V64.0923C277.595 64.3666 278.397 64.8624 278.397 66.2234C278.397 67.4261 277.416 68.3545 276.044 68.4389V69.7788H275.422ZM277.521 66.2867C277.521 65.506 277.194 65.1367 276.044 64.8941V67.7215C276.888 67.6371 277.521 67.0674 277.521 66.2867ZM274.029 62.6786C274.029 63.3432 274.251 63.7441 275.422 63.9868V61.4442C274.536 61.518 274.029 62.0245 274.029 62.6786ZM281.066 68.3545V61.7185L279.378 62.9318V62.0772L281.129 60.8112H281.984V68.3545H281.066ZM283.444 68.3545V68.1435L286.44 64.989C287.126 64.2611 287.527 63.5753 287.527 62.8052C287.527 61.9612 287.031 61.4547 286.176 61.4547C285.301 61.4547 284.731 61.9506 284.583 63.1322H283.729C283.845 61.6552 284.742 60.7162 286.176 60.7162C287.569 60.7162 288.455 61.5391 288.455 62.8368C288.455 63.7652 287.864 64.6725 286.936 65.5798L284.858 67.6054H288.497V68.3545H283.444ZM292.663 67.6898C293.982 67.6898 294.657 66.677 294.657 64.7675V64.3455C294.657 62.5942 293.918 61.4547 292.642 61.4547C291.365 61.4547 290.606 62.5098 290.606 64.3666V64.7886C290.606 66.6981 291.407 67.6898 292.663 67.6898ZM292.663 68.4494C290.859 68.4494 289.667 66.9935 289.667 64.7991V64.3771C289.667 62.1511 290.796 60.7162 292.642 60.7162C294.499 60.7162 295.585 62.2038 295.585 64.356V64.778C295.585 66.9724 294.52 68.4494 292.663 68.4494Z" fill="#6F6F6F"/>
</g>
</g>
<defs>
<filter id="filter0_d_197_8239" x="104.29" y="36.0828" width="241.358" height="64.1284" filterUnits="userSpaceOnUse" color-interpolation-filters="sRGB">
<feFlood flood-opacity="0" result="BackgroundImageFix"/>
<feColorMatrix in="SourceAlpha" type="matrix" values="0 0 0 0 0 0 0 0 0 0 0 0 0 0 0 0 0 0 127 0" result="hardAlpha"/>
<feOffset dy="2.79249"/>
<feGaussianBlur stdDeviation="9.35485"/>
<feComposite in2="hardAlpha" operator="out"/>
<feColorMatrix type="matrix" values="0 0 0 0 0 0 0 0 0 0 0 0 0 0 0 0 0 0 0.1 0"/>
<feBlend mode="normal" in2="BackgroundImageFix" result="effect1_dropShadow_197_8239"/>
<feBlend mode="normal" in="SourceGraphic" in2="effect1_dropShadow_197_8239" result="shape"/>
</filter>
<clipPath id="clip0_197_8239">
<rect width="318" height="405" fill="white" transform="translate(0.5)"/>
</clipPath>
<clipPath id="clip1_197_8239">
<rect width="16.8168" height="16.8168" fill="white" transform="translate(153.588 56.9461)"/>
</clipPath>
</defs>
</svg>
