<svg width="52" height="52" viewBox="0 0 52 52" fill="none" xmlns="http://www.w3.org/2000/svg">
<g clip-path="url(#clip0_107_462)">
<path d="M42.6529 0.77295H9.18202C6.95367 0.77295 4.81659 1.65816 3.24091 3.23383C1.66524 4.80951 0.780029 6.94659 0.780029 9.17494L0.780029 42.6458C0.780029 44.8741 1.66524 47.0112 3.24091 48.5869C4.81659 50.1626 6.95367 51.0478 9.18202 51.0478H42.6529C43.7563 51.0479 44.8489 50.8307 45.8683 50.4085C46.8878 49.9863 47.8141 49.3674 48.5943 48.5872C49.3745 47.807 49.9934 46.8807 50.4156 45.8613C50.8378 44.8418 51.055 43.7492 51.0548 42.6458V9.17494C51.0551 8.07149 50.838 6.97879 50.4159 5.95928C49.9938 4.93977 49.3749 4.01342 48.5946 3.23316C47.8144 2.45291 46.888 1.83403 45.8685 1.4119C44.849 0.989768 43.7563 0.772649 42.6529 0.77295ZM41.9148 39.2594C41.9145 39.9622 41.6351 40.6361 41.1381 41.1329C40.641 41.6298 39.967 41.9089 39.2642 41.9089H12.5764C12.2283 41.909 11.8836 41.8406 11.562 41.7075C11.2403 41.5745 10.948 41.3793 10.7018 41.1333C10.4556 40.8873 10.2602 40.5952 10.1268 40.2736C9.9935 39.9521 9.92479 39.6075 9.92464 39.2594V12.5705C9.92449 12.2222 9.99298 11.8773 10.1262 11.5555C10.2594 11.2337 10.4547 10.9413 10.701 10.6951C10.9473 10.4488 11.2396 10.2535 11.5614 10.1203C11.8832 9.98704 12.2281 9.91856 12.5764 9.91871H39.263C39.6112 9.91871 39.956 9.9873 40.2777 10.1206C40.5993 10.2539 40.8916 10.4492 41.1377 10.6955C41.3839 10.9417 41.5791 11.234 41.7122 11.5558C41.8454 11.8775 41.9138 12.2223 41.9137 12.5705V39.2594H41.9148Z" fill="#2E3B4E"/>
<path d="M20.5831 32.767C20.1785 32.7658 19.7909 32.604 19.5055 32.3171C19.2202 32.0303 19.0604 31.6419 19.0613 31.2372V20.5845C19.0613 19.7402 19.7422 19.0547 20.5831 19.0547H31.2518C32.095 19.0547 32.7736 19.7402 32.7736 20.5845V31.2372C32.7736 32.0804 32.095 32.767 31.2518 32.767H20.5831Z" fill="#2E3B4E"/>
</g>
<defs>
<clipPath id="clip0_107_462">
<rect width="50.2748" height="50.2748" fill="white" transform="translate(0.780029 0.772949)"/>
</clipPath>
</defs>
</svg>
