<svg width="801" height="762" viewBox="0 0 801 762" fill="none" xmlns="http://www.w3.org/2000/svg">
<path d="M863.683 380.878C863.683 590.389 692.467 760.249 481.238 760.249C270.01 760.249 98.7943 590.389 98.7943 380.878C98.7943 171.368 270.01 1.50769 481.238 1.50769C692.467 1.50769 863.683 171.368 863.683 380.878Z" stroke="#83F2A2" stroke-width="2.63452"/>
<path d="M727.127 380.878C727.127 515.459 617.046 624.571 481.239 624.571C345.431 624.571 235.35 515.459 235.35 380.878C235.35 246.298 345.431 137.185 481.239 137.185C617.046 137.185 727.127 246.298 727.127 380.878Z" stroke="#83F2A2" stroke-width="1.75635"/>
<g filter="url(#filter0_b_2001_2485)">
<rect y="356.729" width="178.269" height="179.826" rx="89.1345" fill="#EDEDED"/>
<path d="M83.1547 406.258C83.1547 406.982 82.9419 407.45 82.5164 407.663C82.3461 407.733 81.8709 407.79 81.0907 407.833C80.2821 407.875 79.3671 407.897 78.3457 407.897C77.835 407.897 77.4236 407.897 77.1115 407.897C76.8136 407.897 76.6079 407.904 76.4944 407.918C76.466 408.258 76.4234 408.656 76.3667 409.11C76.3241 409.563 76.2674 410.074 76.1965 410.642C76.0404 411.776 75.934 412.628 75.8773 413.195C75.8489 413.479 75.8276 413.77 75.8134 414.068C75.7993 414.365 75.7922 414.67 75.7922 414.983C75.7922 415.025 75.8489 415.082 75.9624 415.153C76.0759 415.224 76.1397 415.295 76.1539 415.366C76.466 415.55 76.7568 415.727 77.0264 415.898C77.2959 416.054 77.5512 416.21 77.7924 416.366C78.0761 416.564 78.4237 416.756 78.8351 416.94C79.2748 417.125 79.6295 417.302 79.899 417.472C80.1686 417.642 80.3955 417.898 80.58 418.238C80.9062 418.806 81.0694 419.621 81.0694 420.685C81.0694 421.976 80.431 423.033 79.1543 423.856C77.9059 424.679 76.4234 425.338 74.7069 425.835C74.7069 426.019 74.6786 426.409 74.6218 427.005C74.5793 427.587 74.5083 428.374 74.409 429.367C74.3097 430.36 74.2388 431.126 74.1962 431.665C74.1537 432.219 74.1324 432.552 74.1324 432.665C74.1324 432.992 74.2033 433.502 74.3452 434.198C74.5012 434.949 74.5793 435.474 74.5793 435.772C74.5793 435.886 74.5296 435.992 74.4303 436.091C74.3452 436.191 74.2317 436.276 74.0898 436.347C73.9622 436.418 73.8132 436.474 73.643 436.517C73.4728 436.574 73.3025 436.602 73.1323 436.602C72.4372 436.602 71.9619 436.425 71.7066 436.07C71.4371 435.715 71.3023 435.155 71.3023 434.389V433.708C71.3023 433.453 71.3165 433.084 71.3448 432.602C71.3874 432.133 71.4441 431.538 71.5151 430.814C71.586 430.091 71.6428 429.445 71.6853 428.878C71.7279 428.296 71.7491 427.785 71.7491 427.346C71.5931 427.417 71.3874 427.473 71.1321 427.516C70.8909 427.558 70.6214 427.608 70.3235 427.665C70.0255 427.707 69.7135 427.757 69.3872 427.814C69.0609 427.856 68.7417 427.906 68.4296 427.963C68.2168 428.019 67.9757 428.083 67.7061 428.154C67.4366 428.211 67.1387 428.282 66.8124 428.367C66.174 428.523 65.6137 428.658 65.1314 428.771C64.649 428.871 64.266 428.92 63.9823 428.92C63.5 428.92 63.0035 428.828 62.4928 428.644C61.9537 428.445 61.6842 428.176 61.6842 427.835C61.6842 427.452 61.7622 427.112 61.9182 426.814C62.0885 426.516 62.3083 426.253 62.5779 426.026C62.8474 425.799 63.1595 425.615 63.5142 425.473C63.883 425.317 64.2731 425.204 64.6845 425.133C64.9257 425.09 65.2236 425.055 65.5782 425.026C65.9329 424.984 66.3585 424.948 66.855 424.92C67.5359 424.863 68.1104 424.813 68.5786 424.771C69.0609 424.728 69.4368 424.686 69.7064 424.643C70.2312 424.544 70.9973 424.289 72.0045 423.877C72.0187 423.806 72.0471 423.601 72.0896 423.26C72.1322 422.92 72.196 422.43 72.2811 421.792C72.3804 421.153 72.4585 420.586 72.5152 420.089C72.5719 419.579 72.6145 419.139 72.6429 418.77C72.6712 418.401 72.6925 418.018 72.7067 417.621C72.7351 417.21 72.7493 416.791 72.7493 416.366C72.4514 416.139 71.5647 415.734 70.0894 415.153C69.6071 414.997 69.0609 414.784 68.4509 414.514C67.7983 414.231 67.3586 413.997 67.1316 413.812C66.4081 413.245 65.8619 412.677 65.4931 412.11C65.1243 411.528 64.9398 410.854 64.9398 410.088C64.9398 409.379 65.5073 408.691 66.6422 408.024C67.8054 407.343 69.0893 406.79 70.4937 406.365C71.9123 405.925 72.9975 405.691 73.7494 405.662C73.8345 405.137 73.8771 404.598 73.8771 404.045V399.342C73.8771 398.917 74.1182 398.591 74.6005 398.364C75.0829 398.108 75.5368 397.981 75.9624 397.981C76.3596 397.981 76.693 398.172 76.9625 398.555C77.2321 398.938 77.3668 399.534 77.3668 400.343C77.3668 400.853 77.2533 401.655 77.0264 402.747C76.8136 403.854 76.7072 404.62 76.7072 405.045C76.8774 405.017 77.0902 405.003 77.3455 405.003C77.6009 404.988 77.8988 404.974 78.2393 404.96C78.5797 404.946 78.8634 404.939 79.0904 404.939C79.3316 404.939 79.5231 404.932 79.665 404.918C79.7359 404.903 79.8423 404.889 79.9841 404.875C80.126 404.847 80.3175 404.804 80.5587 404.747C80.9984 404.648 81.3886 404.598 81.729 404.598C82.6795 404.598 83.1547 405.152 83.1547 406.258ZM73.5366 408.45C70.6426 409.046 68.9687 409.783 68.5147 410.663C68.5715 411.018 69.1957 411.521 70.3873 412.174C71.5931 412.812 72.4939 413.238 73.0897 413.45L73.5366 408.45ZM78.4521 420.558C78.4521 420.132 78.0974 419.586 77.3881 418.919C76.6646 418.238 76.0475 417.756 75.5368 417.472C75.3524 418.749 75.2176 419.855 75.1325 420.792C75.0474 421.714 75.0048 422.48 75.0048 423.09C75.2318 422.962 75.4588 422.834 75.6858 422.707C75.9269 422.579 76.1681 422.444 76.4093 422.303C76.6504 422.161 76.8845 422.019 77.1115 421.877C77.3526 421.735 77.5796 421.586 77.7924 421.43C78.2322 421.118 78.4521 420.827 78.4521 420.558ZM116.073 414.855C116.073 416.699 115.463 418.564 114.243 420.451C113.023 422.338 111.435 424.069 109.477 425.643C107.548 427.218 105.498 428.53 103.327 429.58C101.171 430.616 99.2062 431.268 97.433 431.538C95.2341 431.836 93.6098 431.984 92.5601 431.984C90.3045 431.984 88.5525 431.211 87.3041 429.665C86.07 428.119 85.4529 426.189 85.4529 423.877C85.4529 422.09 85.8075 420.153 86.5168 418.068C87.2403 415.983 88.2262 414.018 89.4746 412.174C90.7372 410.315 92.0848 408.826 93.5176 407.705C95.2058 406.357 97.0074 405.215 98.9225 404.279C100.838 403.343 102.653 402.875 104.37 402.875C105.76 402.875 107.2 403.208 108.69 403.875C110.193 404.542 111.541 405.393 112.733 406.428C113.428 407.053 113.875 407.478 114.073 407.705C115.407 409.379 116.073 411.762 116.073 414.855ZM112.477 415.536C112.477 414.727 112.343 413.784 112.073 412.706C111.818 411.599 111.484 410.819 111.073 410.365C110.803 410.039 110.513 409.712 110.2 409.386C109.903 409.046 109.583 408.698 109.243 408.343C108.562 407.648 107.994 407.201 107.541 407.003C107.214 407.414 106.704 407.62 106.008 407.62C105.909 407.62 105.64 407.464 105.2 407.152C104.76 406.826 104.349 406.662 103.966 406.662C103.143 406.662 102.313 406.755 101.476 406.939C100.596 407.109 99.9155 407.365 99.4332 407.705C98.653 408.216 97.7663 408.911 96.7733 409.79C94.7305 411.592 93.0211 413.621 91.6451 415.876C90.269 418.118 89.581 420.416 89.581 422.771C89.581 423.721 89.6945 424.629 89.9215 425.494C90.1484 426.388 90.5457 427.005 91.1131 427.346C92.3189 428.083 93.6808 428.452 95.1987 428.452C96.6882 428.452 98.582 427.913 100.88 426.835C102.341 426.097 103.795 425.225 105.242 424.218C105.725 423.863 106.221 423.48 106.732 423.069C107.257 422.643 107.789 422.182 108.328 421.685C109.434 420.692 110.399 419.643 111.222 418.536C112.059 417.401 112.477 416.401 112.477 415.536Z" fill="#434343"/>
<path d="M42.3915 465.385V450H52.0095V452.26H45.2532V456.477H50.6754V458.629H45.2532V463.126H52.3753V465.385H42.3915ZM54.7418 465.385V454.132H57.3453V455.853C57.8832 454.799 59.1097 453.895 60.7665 453.895C62.2296 453.895 63.3916 454.519 63.951 455.917C64.8117 454.519 66.3609 453.895 67.7595 453.895C69.8251 453.895 71.5034 455.164 71.5034 458.263V465.385H68.8999V458.435C68.8999 456.778 68.1898 456.068 66.8988 456.068C65.6078 456.068 64.4244 456.929 64.4244 458.65V465.385H61.8208V458.435C61.8208 456.778 61.0893 456.068 59.8198 456.068C58.5288 456.068 57.3453 456.929 57.3453 458.65V465.385H54.7418ZM74.4936 469.236V454.132H77.0971V455.939C77.7211 454.863 79.1197 453.895 80.7765 453.895C83.5952 453.895 85.7684 455.982 85.7684 459.618V459.791C85.7684 463.405 83.6813 465.6 80.7765 465.6C78.9906 465.6 77.6996 464.718 77.0971 463.621V469.236H74.4936ZM80.131 463.534C82.046 463.534 83.1003 462.243 83.1003 459.834V459.661C83.1003 457.165 81.8093 455.939 80.1095 455.939C78.3021 455.939 77.011 457.165 77.011 459.661V459.834C77.011 462.351 78.2375 463.534 80.131 463.534ZM88.1742 465.385V448.925H90.7778V465.385H88.1742ZM98.9861 463.577C100.923 463.577 102.085 462.136 102.085 459.834V459.683C102.085 457.359 100.923 455.939 98.9861 455.939C97.0496 455.939 95.8662 457.338 95.8662 459.661V459.834C95.8662 462.136 97.0066 463.577 98.9861 463.577ZM98.9646 465.6C95.651 465.6 93.1981 463.298 93.1981 459.877V459.704C93.1981 456.219 95.6725 453.895 98.9861 453.895C102.278 453.895 104.753 456.197 104.753 459.64V459.812C104.753 463.319 102.278 465.6 98.9646 465.6ZM107.933 469.236L109.977 464.244L105.523 454.132H108.342L111.332 461.383L114.087 454.132H116.626L110.493 469.236H107.933ZM123.106 465.6C119.793 465.6 117.405 463.427 117.405 459.877V459.704C117.405 456.219 119.793 453.895 122.999 453.895C125.796 453.895 128.314 455.552 128.314 459.575V460.328H120.073C120.159 462.459 121.235 463.664 123.171 463.664C124.742 463.664 125.559 463.04 125.753 461.942H128.271C127.905 464.309 125.99 465.6 123.106 465.6ZM120.116 458.586H125.732C125.602 456.649 124.613 455.788 122.999 455.788C121.428 455.788 120.374 456.843 120.116 458.586ZM130.639 465.385V454.132H133.243V456.24C133.953 454.82 135.007 453.981 136.9 453.959V456.391C134.62 456.412 133.243 457.144 133.243 459.532V465.385H130.639ZM73.7949 489.6C68.9752 489.6 66.2856 486.523 66.2856 481.789V481.617C66.2856 476.991 69.4701 473.764 73.7519 473.764C77.2807 473.764 80.0133 475.528 80.3576 479.143H77.4528C77.1301 477.099 75.9897 476.044 73.7734 476.044C71.0623 476.044 69.2979 478.153 69.2979 481.596V481.768C69.2979 485.232 70.9547 487.276 73.7949 487.276C75.9251 487.276 77.4313 486.2 77.7325 484.027H80.5297C80.0779 487.728 77.4528 489.6 73.7949 489.6ZM87.8285 487.577C89.765 487.577 90.9269 486.136 90.9269 483.834V483.683C90.9269 481.359 89.765 479.939 87.8285 479.939C85.8919 479.939 84.7085 481.338 84.7085 483.661V483.834C84.7085 486.136 85.8489 487.577 87.8285 487.577ZM87.8069 489.6C84.4934 489.6 82.0404 487.298 82.0404 483.877V483.704C82.0404 480.219 84.5149 477.895 87.8285 477.895C91.1205 477.895 93.595 480.197 93.595 483.64V483.812C93.595 487.319 91.1205 489.6 87.8069 489.6ZM99.7989 489.6C96.8941 489.6 95.1943 488.266 95.0867 485.878H97.5396C97.6687 487.018 98.2497 487.685 99.7774 487.685C101.176 487.685 101.8 487.19 101.8 486.243C101.8 485.318 101.047 484.974 99.3901 484.694C96.4207 484.221 95.3234 483.382 95.3234 481.273C95.3234 479.014 97.432 477.895 99.5407 477.895C101.843 477.895 103.672 478.756 103.952 481.295H101.542C101.327 480.262 100.746 479.788 99.5407 479.788C98.4218 479.788 97.7548 480.326 97.7548 481.122C97.7548 481.94 98.2927 482.263 100.079 482.564C102.725 482.973 104.296 483.618 104.296 486.007C104.296 488.288 102.682 489.6 99.7989 489.6ZM110.41 489.579C108.172 489.579 107.01 488.374 107.01 486.243V480.09H105.504V478.132H107.01V475.657H109.614V478.132H112.088V480.09H109.614V486.007C109.614 486.997 110.087 487.448 110.905 487.448C111.421 487.448 111.808 487.384 112.174 487.233V489.299C111.765 489.449 111.206 489.579 110.41 489.579Z" fill="#434343"/>
</g>
<rect x="408.35" y="78.3479" width="187.919" height="196.711" rx="93.9596" fill="#7D5CF2" fill-opacity="0.9"/>
<path d="M472.454 144.66C472.454 145.201 472.003 146.082 471.102 147.304C470.662 147.904 470.251 148.435 469.871 148.896C469.49 149.356 469.14 149.747 468.819 150.067C468.138 150.808 467.538 151.369 467.017 151.749C466.737 151.95 466.346 152.23 465.845 152.59C465.345 152.931 464.724 153.361 463.983 153.882C463.242 154.403 462.611 154.863 462.09 155.264C461.59 155.664 461.189 156.005 460.889 156.285C461.53 156.546 462.181 156.876 462.841 157.277C463.522 157.657 464.213 158.128 464.914 158.688C465.635 159.249 466.296 159.84 466.897 160.461C467.518 161.082 468.088 161.742 468.609 162.443C469.65 163.805 470.171 165.117 470.171 166.378C470.171 166.839 470.141 167.32 470.081 167.82C470.021 168.301 469.941 168.812 469.841 169.352C469.64 170.394 469.3 171.205 468.819 171.785C468.178 172.586 466.947 173.317 465.124 173.978C463.302 174.619 461.42 175.12 459.477 175.48C458.496 175.681 457.605 175.821 456.804 175.901C456.003 176.001 455.292 176.051 454.671 176.051C453.229 176.051 451.427 175.811 449.264 175.33C447.101 174.809 445.599 174.189 444.758 173.468C443.656 172.486 443.106 170.984 443.106 168.962C443.106 168.001 443.286 167.169 443.646 166.469C443.847 166.128 444.097 165.718 444.397 165.237C444.718 164.756 445.108 164.216 445.569 163.615C446.09 162.934 446.7 162.303 447.401 161.722C448.122 161.122 448.833 160.591 449.534 160.13C450.235 159.65 450.916 159.179 451.577 158.718C452.258 158.258 452.979 157.737 453.74 157.156C453.359 156.936 452.818 156.646 452.117 156.285C451.437 155.905 450.756 155.514 450.075 155.114C449.394 154.713 448.813 154.353 448.333 154.032C447.852 153.692 447.381 153.311 446.921 152.891C446.32 152.35 445.649 151.479 444.908 150.277C444.207 149.096 443.857 148.145 443.857 147.424C443.817 146.202 444.107 145.121 444.728 144.18C445.369 143.238 446.18 142.387 447.161 141.626C448.162 140.865 449.274 140.164 450.495 139.523C451.717 138.863 452.899 138.192 454.04 137.511C455.822 136.409 457.955 135.859 460.438 135.859C460.859 135.839 461.45 135.939 462.211 136.159C462.972 136.379 463.733 136.66 464.494 137C465.275 137.341 465.976 137.701 466.596 138.082C467.237 138.462 467.648 138.813 467.828 139.133C468.168 139.634 468.449 140.595 468.669 142.017C468.769 142.718 468.849 143.268 468.909 143.669C468.969 144.069 469.019 144.32 469.06 144.42C469.16 144.3 469.27 144.149 469.39 143.969C469.53 143.789 469.68 143.569 469.841 143.308C470.141 142.808 470.371 142.457 470.531 142.257C470.992 142.377 471.423 142.698 471.823 143.218C472.244 143.739 472.454 144.22 472.454 144.66ZM465.004 145.772C465.004 144.971 464.874 144.24 464.614 143.579C464.353 142.918 463.983 142.347 463.502 141.867C463.022 141.386 462.451 141.015 461.79 140.755C461.129 140.495 460.398 140.365 459.597 140.365C458.656 140.365 457.484 140.665 456.083 141.266C454.721 141.826 453.409 142.537 452.148 143.399C450.946 144.22 450.085 145.031 449.564 145.832C449.244 146.292 449.084 146.643 449.084 146.883C449.084 147.664 449.394 148.415 450.015 149.136C450.636 149.857 451.437 150.548 452.418 151.209C452.919 151.529 453.429 151.85 453.95 152.17C454.471 152.49 455.021 152.811 455.602 153.131C456.183 153.452 456.653 153.722 457.014 153.942C457.374 154.142 457.635 154.293 457.795 154.393C458.215 154.052 458.676 153.672 459.177 153.251C459.677 152.811 460.218 152.33 460.799 151.809C461.4 151.309 461.95 150.798 462.451 150.277C462.972 149.737 463.412 149.206 463.773 148.685C464.153 148.165 464.454 147.664 464.674 147.183C464.894 146.683 465.004 146.212 465.004 145.772ZM465.425 166.619C465.425 165.738 464.964 164.746 464.043 163.645C463.102 162.523 462.01 161.532 460.769 160.671C459.487 159.79 458.396 159.189 457.494 158.869C455.412 160.25 453.369 161.903 451.367 163.825C449.344 165.728 448.333 167.46 448.333 169.022C448.333 169.863 448.893 170.524 450.015 171.004C451.156 171.485 452.198 171.725 453.139 171.725C453.72 171.725 454.38 171.705 455.121 171.665C455.862 171.625 456.683 171.565 457.585 171.485C458.506 171.405 459.317 171.305 460.018 171.185C460.719 171.044 461.319 170.894 461.82 170.734C462.02 170.654 462.251 170.554 462.511 170.434C462.771 170.294 463.072 170.113 463.412 169.893C464.073 169.472 464.544 169.122 464.824 168.842C465.225 168.441 465.425 167.91 465.425 167.25V166.619ZM522.559 169.382C522.559 169.803 522.439 170.294 522.199 170.854C521.938 171.515 521.187 172.136 519.946 172.717C518.744 173.257 517.723 173.528 516.882 173.528H515.77C513.868 173.528 512.456 173.398 511.535 173.137C508.711 172.396 505.247 172.026 501.141 172.026C500.32 172.026 499.479 172.056 498.618 172.116C497.757 172.176 496.866 172.276 495.945 172.416C494.062 172.657 492.47 173.027 491.168 173.528C488.725 174.469 487.193 175.31 486.572 176.051C485.811 176.972 485.201 177.603 484.74 177.943C484.279 178.304 483.598 178.484 482.697 178.484C481.135 178.484 480.354 177.793 480.354 176.411C480.354 174.889 480.705 173.658 481.406 172.717C482.507 171.195 483.829 169.923 485.371 168.902C486.152 168.381 487.053 167.83 488.074 167.25C489.116 166.649 490.297 166.008 491.619 165.327C492.58 164.846 493.551 164.336 494.533 163.795C495.514 163.234 496.405 162.573 497.206 161.812C497.927 161.172 498.658 160.511 499.399 159.83C500.16 159.129 500.931 158.428 501.712 157.727C503.294 156.285 504.566 154.924 505.527 153.642C506.548 152.32 507.389 151.038 508.05 149.797C508.731 148.535 509.072 147.274 509.072 146.012C509.072 145.091 508.681 144.129 507.9 143.128C507.139 142.127 506.178 141.276 505.016 140.575C503.915 139.894 502.894 139.554 501.952 139.554C500.811 139.554 499.209 140.174 497.146 141.416C496.125 142.037 495.204 142.638 494.383 143.218C493.581 143.779 492.881 144.34 492.28 144.9C492.059 145.101 491.829 145.321 491.589 145.561C491.369 145.782 491.148 146.022 490.928 146.282C490.708 146.543 490.487 146.763 490.267 146.943C490.047 147.123 489.797 147.264 489.516 147.364C489.256 147.464 488.945 147.544 488.585 147.604C488.245 147.644 487.834 147.664 487.353 147.664C486.973 147.664 486.552 147.223 486.092 146.342C485.671 145.481 485.461 144.8 485.461 144.3C485.461 143.799 485.601 143.429 485.881 143.188C486.222 142.908 486.692 142.567 487.293 142.167C487.914 141.746 488.555 141.306 489.216 140.845C490.197 140.144 491.108 139.513 491.949 138.953C492.81 138.372 493.611 137.851 494.352 137.391C495.113 136.93 495.874 136.53 496.635 136.189C497.416 135.829 498.228 135.518 499.069 135.258C500.33 134.877 502.093 134.687 504.355 134.687C506.338 134.687 508.221 135.488 510.003 137.09C511.785 138.692 513.267 140.565 514.449 142.708C515.17 144.149 515.53 144.961 515.53 145.141C515.53 146.723 514.869 148.605 513.547 150.788C512.907 151.89 512.186 152.971 511.385 154.032C510.604 155.094 509.753 156.145 508.831 157.186C507.029 159.229 505.387 160.881 503.905 162.143C501.101 164.586 498.458 166.449 495.975 167.73C496.495 167.69 497.146 167.66 497.927 167.64C498.708 167.62 499.639 167.61 500.721 167.61C502.844 167.61 505.998 167.73 510.183 167.97C510.744 168.011 511.325 168.051 511.925 168.091C512.526 168.111 513.147 168.141 513.788 168.181C515.069 168.241 516.081 168.271 516.822 168.271C517.322 168.271 517.993 168.111 518.834 167.79C519.675 167.47 520.296 167.31 520.697 167.31C521.037 167.31 521.428 167.56 521.868 168.061C522.329 168.581 522.559 169.022 522.559 169.382ZM566.326 164.276C566.326 165.077 566.186 166.008 565.906 167.069C565.645 168.051 565.245 168.782 564.704 169.262C562.962 170.764 561.38 171.866 559.958 172.566C558.596 173.247 556.924 173.588 554.941 173.588C552.799 173.588 551.377 172.967 550.676 171.725C549.935 170.304 549.564 169.012 549.564 167.85C549.564 166.408 549.965 164.876 550.766 163.254C551.567 161.612 552.548 160.23 553.71 159.109C554.831 158.008 555.873 157.457 556.834 157.457C557.915 157.437 559.027 157.577 560.168 157.877C561.31 158.158 562.331 158.588 563.232 159.169C564.153 159.73 564.904 160.441 565.485 161.302C566.066 162.143 566.346 163.134 566.326 164.276ZM559.357 137.271C559.357 138.112 558.786 138.833 557.645 139.433C557.184 140.254 556.724 141.045 556.263 141.806C555.822 142.567 555.362 143.328 554.881 144.089C554.401 144.85 553.9 145.631 553.379 146.432C552.859 147.213 552.318 148.035 551.757 148.896C551.196 149.757 550.606 150.658 549.985 151.599C549.384 152.54 548.743 153.552 548.062 154.633C547.381 155.695 546.771 156.686 546.23 157.607C545.689 158.508 545.209 159.339 544.788 160.1C544.388 160.861 543.937 161.762 543.436 162.804C542.936 163.845 542.375 165.047 541.754 166.408C541.153 167.77 540.613 168.962 540.132 169.983C539.671 170.984 539.271 171.836 538.93 172.536C538.83 172.737 538.52 173.067 537.999 173.528C537.479 174.008 537.138 174.249 536.978 174.249C535.937 174.249 535.416 173.558 535.416 172.176C535.416 171.775 535.646 170.824 536.107 169.322C536.547 167.981 537.058 166.619 537.639 165.237C538.22 163.855 538.84 162.503 539.501 161.182C540.182 159.84 540.893 158.548 541.634 157.307C542.395 156.045 543.176 154.863 543.977 153.762C544.378 153.201 544.788 152.621 545.209 152.02C545.649 151.399 546.09 150.738 546.53 150.037C546.991 149.336 547.502 148.535 548.062 147.634C548.623 146.713 549.254 145.671 549.955 144.51C550.656 143.348 551.257 142.357 551.757 141.536C552.258 140.695 552.678 140.014 553.019 139.493C552.218 139.293 551.517 139.133 550.916 139.013C550.335 138.873 549.855 138.772 549.474 138.712C548.773 138.572 547.662 138.502 546.14 138.502C545.559 138.502 545.048 138.512 544.608 138.532C544.187 138.532 543.837 138.542 543.557 138.562C543.957 139.463 544.157 140.435 544.157 141.476C544.157 143.278 543.597 145.121 542.475 147.003C541.354 148.886 539.992 150.257 538.39 151.119C537.809 151.399 537.278 151.649 536.798 151.87C536.337 152.07 535.917 152.24 535.536 152.38C534.835 152.641 534.064 152.771 533.223 152.771C531.601 152.771 530.51 152.17 529.949 150.968C529.388 149.767 529.108 148.235 529.108 146.372C529.108 145.732 529.348 144.67 529.829 143.188C530.069 142.427 530.289 141.776 530.49 141.236C530.71 140.675 530.9 140.214 531.06 139.854C531.561 138.853 532.142 137.951 532.803 137.15C533.483 136.329 534.214 135.628 534.995 135.048C535.796 134.467 536.658 134.016 537.579 133.696C538.52 133.375 539.521 133.215 540.583 133.215C541.424 133.215 542.355 133.746 543.376 134.807C544.458 134.968 545.709 135.118 547.131 135.258C548.573 135.398 550.205 135.528 552.028 135.648C553.85 135.769 555.332 135.879 556.473 135.979C557.615 136.059 558.436 136.119 558.937 136.159C559.217 136.48 559.357 136.85 559.357 137.271ZM540.583 142.708C540.583 141.726 540.262 140.064 539.621 137.721C539.501 137.721 539.351 137.741 539.171 137.781C538.991 137.801 538.8 137.831 538.6 137.871C538.4 137.891 538.21 137.911 538.029 137.931C537.849 137.951 537.699 137.961 537.579 137.961C536.898 138.001 536.187 138.542 535.446 139.584C534.685 140.645 534.054 141.826 533.553 143.128C533.033 144.45 532.772 145.471 532.772 146.192C532.772 146.352 532.762 146.493 532.742 146.613C532.742 146.733 532.742 146.873 532.742 147.033C532.742 147.834 532.923 148.335 533.283 148.535C534.144 148.996 534.965 149.226 535.746 149.226C536.968 149.226 538.079 148.485 539.081 147.003C540.082 145.481 540.583 144.049 540.583 142.708ZM562.571 164.546C562.571 164.045 562.361 163.575 561.94 163.134C561.54 162.674 561.089 162.383 560.589 162.263C560.448 162.223 560.258 162.153 560.018 162.053C559.798 161.933 559.517 161.772 559.177 161.572C558.496 161.172 558.025 160.971 557.765 160.971C557.324 160.971 556.874 161.132 556.413 161.452C555.953 161.772 555.532 162.233 555.152 162.834C554.771 163.415 554.451 164.105 554.19 164.907C553.95 165.708 553.83 166.589 553.83 167.55C553.83 168.691 554.05 169.472 554.491 169.893C554.991 169.773 555.512 169.713 556.053 169.713C556.193 169.713 556.403 169.733 556.684 169.773C556.964 169.813 557.184 169.833 557.344 169.833C557.745 169.833 558.506 169.512 559.627 168.872C560.188 168.551 560.629 168.281 560.949 168.061C561.29 167.82 561.52 167.63 561.64 167.49C562.261 166.749 562.571 165.768 562.571 164.546Z" fill="#FDFDFD"/>
<path d="M478.395 219.008C472.948 219.008 469.904 215.393 469.904 210.374V210.184C469.904 205.117 473.424 201.502 478.395 201.502C482.035 201.502 485.269 203.167 485.721 207.234H482.558C482.177 204.975 480.655 203.999 478.443 203.999C475.113 203.999 473.186 206.473 473.186 210.207V210.398C473.186 214.037 474.875 216.534 478.443 216.534C481.63 216.534 482.938 214.608 483.034 212.253H478.752V209.874H486.149V211.444C486.149 216.154 483.2 219.008 478.395 219.008ZM494.436 219.008C490.773 219.008 488.133 216.606 488.133 212.681V212.491C488.133 208.638 490.773 206.069 494.317 206.069C497.409 206.069 500.192 207.9 500.192 212.348V213.181H491.082C491.177 215.535 492.367 216.867 494.507 216.867C496.244 216.867 497.148 216.178 497.362 214.965H500.145C499.74 217.581 497.623 219.008 494.436 219.008ZM491.13 211.254H497.338C497.195 209.113 496.101 208.162 494.317 208.162C492.581 208.162 491.415 209.327 491.13 211.254ZM502.763 218.77V206.33H505.641V208.305C506.236 207.092 507.615 206.069 509.661 206.069C512.158 206.069 513.918 207.52 513.918 210.945V218.77H511.04V211.206C511.04 209.327 510.279 208.471 508.567 208.471C506.949 208.471 505.641 209.47 505.641 211.444V218.77H502.763ZM521.712 218.77V218.342L530.394 204.261H522.592V201.764H534.866V202.168L526.374 216.225H534.628V218.77H521.712Z" fill="#FDFDFD"/>
<rect x="192.32" y="179.338" width="141.386" height="141.386" rx="70.6929" fill="#71D9E8"/>
<path d="M252.359 217.958C252.359 218.294 252.165 218.672 251.777 219.091C251.378 219.521 251.006 219.773 250.659 219.847C249.852 220.025 248.755 220.114 247.37 220.114C247.223 220.114 246.961 220.109 246.583 220.099C246.216 220.078 245.723 220.057 245.104 220.036C244.496 220.015 243.94 219.999 243.436 219.988C242.943 219.967 242.502 219.957 242.114 219.957C240.582 219.957 239.376 220.104 238.494 220.398C238.306 220.586 238.122 220.775 237.944 220.964C237.776 221.153 237.618 221.342 237.471 221.531C237.325 221.719 237.157 221.945 236.968 222.207C236.79 222.459 236.59 222.748 236.37 223.073C236.15 223.398 235.966 223.66 235.819 223.86C235.683 224.049 235.588 224.185 235.536 224.269C235.809 224.426 236.144 224.568 236.543 224.694C236.952 224.809 237.456 224.919 238.054 225.024C238.358 225.077 238.652 225.124 238.935 225.166C239.229 225.208 239.517 225.25 239.801 225.292C240.094 225.334 240.346 225.371 240.556 225.402C240.766 225.433 240.939 225.465 241.075 225.496C242.943 225.832 244.359 226.383 245.324 227.149C246.279 227.915 246.757 229.179 246.757 230.942C246.767 231.393 246.678 231.854 246.489 232.326C246.311 232.788 246.064 233.234 245.749 233.664C245.435 234.094 245.078 234.493 244.679 234.86C244.291 235.217 243.898 235.521 243.499 235.773C242.24 236.581 241.033 237.174 239.879 237.551C238.694 237.918 237.398 238.102 235.992 238.102C234.912 238.102 233.941 237.981 233.081 237.74C232.22 237.499 231.397 237.09 230.61 236.513C230.484 236.429 230.358 236.345 230.232 236.261C230.117 236.177 230.012 236.088 229.918 235.993C229.823 235.899 229.744 235.799 229.681 235.694C229.629 235.579 229.603 235.453 229.603 235.317C229.603 234.309 230.238 233.806 231.507 233.806C231.78 233.806 232.084 233.937 232.42 234.199C232.598 234.325 232.74 234.425 232.845 234.498C232.95 234.572 233.028 234.619 233.081 234.64C234.182 235.164 235.3 235.427 236.433 235.427C237.545 235.427 238.699 235.191 239.895 234.719C241.102 234.246 242.109 233.643 242.917 232.909C243.305 232.563 243.567 232.295 243.703 232.106C243.85 231.896 243.924 231.613 243.924 231.256C243.924 230.469 243.73 229.829 243.342 229.336C242.953 228.843 242.444 228.471 241.815 228.219C241.185 227.957 240.53 227.773 239.848 227.668C239.176 227.553 238.426 227.464 237.597 227.401C237.44 227.38 237.241 227.359 236.999 227.338C236.758 227.306 236.475 227.275 236.15 227.243C235.824 227.201 235.536 227.165 235.284 227.133C235.032 227.102 234.817 227.07 234.639 227.039C234.125 226.965 233.574 226.74 232.986 226.362C232.43 225.984 232.152 225.617 232.152 225.26C232.152 224.904 232.346 224.5 232.735 224.049C232.808 223.944 233.264 223.283 234.104 222.066C234.933 220.828 235.625 219.857 236.181 219.154C236.737 218.441 237.146 218.063 237.409 218.021C237.65 217.969 237.944 217.927 238.29 217.895C238.647 217.864 239.061 217.838 239.533 217.817C240.058 217.785 240.787 217.754 241.721 217.722C242.665 217.67 243.536 217.638 244.333 217.628C244.816 217.607 245.314 217.591 245.828 217.581C246.342 217.56 246.798 217.523 247.197 217.47C247.334 217.449 247.522 217.413 247.764 217.36C248.016 217.297 248.325 217.213 248.692 217.108C249.448 216.899 249.93 216.794 250.14 216.794C250.791 216.794 251.357 216.988 251.84 217.376C251.945 217.439 252.029 217.491 252.091 217.533C252.165 217.575 252.223 217.617 252.265 217.659C252.307 217.691 252.333 217.733 252.343 217.785C252.354 217.827 252.359 217.885 252.359 217.958ZM273.62 217.943C273.62 218.215 273.568 218.441 273.463 218.619C273.305 218.829 273.138 219.044 272.959 219.264C272.781 219.485 272.597 219.705 272.408 219.925C272.23 220.146 272.046 220.366 271.858 220.586C271.679 220.796 271.511 220.99 271.354 221.169C271.207 221.337 271.029 221.557 270.819 221.83C270.62 222.102 270.405 222.401 270.174 222.727C269.953 223.052 269.728 223.382 269.497 223.718C269.277 224.054 269.072 224.369 268.883 224.662C268.694 224.946 268.532 225.192 268.395 225.402C268.269 225.601 268.186 225.727 268.144 225.78C267.724 226.42 267.283 227.144 266.822 227.951C266.36 228.759 265.93 229.572 265.531 230.391C265.3 230.873 265.07 231.351 264.839 231.823C264.608 232.284 264.393 232.73 264.194 233.161C264.005 233.591 263.837 234 263.69 234.388C263.543 234.776 263.438 235.133 263.375 235.458C263.312 235.679 263.281 236.04 263.281 236.544C263.281 236.733 263.255 236.927 263.202 237.126C263.15 237.315 263.06 237.488 262.935 237.646C262.819 237.803 262.667 237.934 262.478 238.039C262.3 238.144 262.085 238.196 261.833 238.196C261.581 238.196 261.361 238.128 261.172 237.992C260.983 237.856 260.826 237.682 260.7 237.473C260.574 237.263 260.474 237.037 260.401 236.796C260.338 236.544 260.306 236.313 260.306 236.103C260.306 235.768 260.574 235.007 261.109 233.822C261.487 233.014 261.864 232.232 262.242 231.477C262.62 230.721 263.008 229.982 263.407 229.258C263.805 228.523 264.215 227.799 264.634 227.086C265.064 226.362 265.521 225.638 266.003 224.914C266.119 224.746 266.287 224.494 266.507 224.159C266.738 223.813 266.984 223.451 267.247 223.073C267.509 222.695 267.766 222.333 268.018 221.987C268.28 221.63 268.5 221.358 268.679 221.169C268.868 220.969 269.072 220.739 269.292 220.476C269.523 220.214 269.733 219.957 269.922 219.705L269.623 219.485C269.266 219.506 268.862 219.532 268.411 219.563C267.97 219.584 267.509 219.605 267.026 219.626C266.554 219.647 266.072 219.668 265.578 219.689C265.085 219.71 264.608 219.726 264.146 219.737C263.464 219.758 262.704 219.779 261.864 219.8C261.036 219.81 260.228 219.826 259.441 219.847C258.654 219.868 257.951 219.883 257.332 219.894C256.713 219.904 256.283 219.91 256.042 219.91C255.895 219.91 255.764 219.873 255.648 219.8C255.543 219.726 255.449 219.632 255.365 219.516C255.291 219.39 255.234 219.259 255.192 219.123C255.15 218.976 255.129 218.834 255.129 218.698C255.129 218.541 255.166 218.378 255.239 218.21C255.312 218.042 255.407 217.89 255.522 217.754C255.648 217.607 255.785 217.491 255.931 217.407C256.089 217.313 256.246 217.266 256.404 217.266C256.697 217.266 257.07 217.282 257.521 217.313C257.972 217.334 258.481 217.365 259.047 217.407C259.624 217.439 260.254 217.47 260.936 217.502C261.618 217.523 262.337 217.533 263.092 217.533C263.438 217.533 263.826 217.528 264.256 217.518C264.687 217.507 265.138 217.497 265.61 217.486C266.082 217.465 266.57 217.439 267.073 217.407C267.577 217.376 268.075 217.344 268.569 217.313C268.957 217.282 269.319 217.25 269.654 217.219C270.001 217.177 270.336 217.14 270.662 217.108C270.987 217.077 271.312 217.051 271.637 217.03C271.963 217.009 272.304 216.998 272.66 216.998C272.933 216.998 273.159 217.082 273.337 217.25C273.526 217.407 273.62 217.638 273.62 217.943ZM296.392 231.933C296.392 232.353 296.319 232.841 296.172 233.397C296.035 233.911 295.826 234.294 295.542 234.545C294.63 235.332 293.801 235.909 293.056 236.277C292.342 236.633 291.466 236.812 290.428 236.812C289.305 236.812 288.56 236.486 288.193 235.836C287.805 235.091 287.611 234.414 287.611 233.806C287.611 233.05 287.821 232.248 288.24 231.398C288.66 230.538 289.174 229.814 289.782 229.226C290.37 228.649 290.916 228.361 291.419 228.361C291.986 228.35 292.568 228.424 293.166 228.581C293.764 228.728 294.299 228.953 294.771 229.258C295.254 229.551 295.647 229.924 295.952 230.375C296.256 230.816 296.403 231.335 296.392 231.933ZM292.741 217.785C292.741 218.226 292.442 218.603 291.844 218.918C291.603 219.348 291.361 219.763 291.12 220.161C290.889 220.56 290.648 220.959 290.396 221.358C290.144 221.756 289.882 222.165 289.609 222.585C289.337 222.994 289.053 223.424 288.76 223.875C288.466 224.327 288.156 224.799 287.831 225.292C287.516 225.785 287.181 226.315 286.824 226.881C286.467 227.437 286.147 227.957 285.864 228.439C285.581 228.911 285.329 229.347 285.108 229.746C284.899 230.144 284.663 230.616 284.4 231.162C284.138 231.707 283.844 232.337 283.519 233.05C283.204 233.764 282.921 234.388 282.669 234.923C282.428 235.448 282.218 235.894 282.04 236.261C281.987 236.366 281.825 236.539 281.552 236.78C281.279 237.032 281.101 237.158 281.017 237.158C280.471 237.158 280.198 236.796 280.198 236.072C280.198 235.862 280.319 235.364 280.56 234.577C280.791 233.874 281.059 233.161 281.363 232.437C281.667 231.713 281.992 231.005 282.339 230.312C282.695 229.609 283.068 228.932 283.456 228.282C283.855 227.621 284.264 227.002 284.684 226.425C284.893 226.131 285.108 225.827 285.329 225.512C285.56 225.187 285.79 224.841 286.021 224.474C286.263 224.106 286.53 223.687 286.824 223.215C287.118 222.732 287.448 222.186 287.815 221.578C288.183 220.969 288.497 220.45 288.76 220.02C289.022 219.579 289.242 219.222 289.421 218.95C289.001 218.845 288.634 218.761 288.319 218.698C288.015 218.624 287.763 218.572 287.564 218.541C287.196 218.467 286.614 218.43 285.817 218.43C285.512 218.43 285.245 218.436 285.014 218.446C284.794 218.446 284.61 218.451 284.463 218.462C284.673 218.934 284.778 219.443 284.778 219.988C284.778 220.933 284.484 221.898 283.897 222.884C283.309 223.87 282.596 224.589 281.756 225.04C281.452 225.187 281.174 225.318 280.922 225.433C280.681 225.538 280.461 225.628 280.261 225.701C279.894 225.837 279.49 225.906 279.05 225.906C278.2 225.906 277.628 225.591 277.334 224.961C277.04 224.332 276.894 223.529 276.894 222.554C276.894 222.218 277.019 221.662 277.271 220.885C277.397 220.487 277.513 220.146 277.617 219.862C277.733 219.569 277.833 219.327 277.917 219.139C278.179 218.614 278.483 218.142 278.829 217.722C279.186 217.292 279.569 216.925 279.978 216.621C280.398 216.316 280.849 216.08 281.332 215.912C281.825 215.745 282.349 215.661 282.905 215.661C283.346 215.661 283.834 215.939 284.369 216.495C284.935 216.579 285.591 216.657 286.336 216.731C287.091 216.804 287.946 216.872 288.901 216.935C289.856 216.998 290.632 217.056 291.23 217.108C291.828 217.15 292.258 217.182 292.521 217.203C292.668 217.371 292.741 217.565 292.741 217.785ZM282.905 220.634C282.905 220.12 282.737 219.249 282.402 218.021C282.339 218.021 282.26 218.032 282.166 218.053C282.071 218.063 281.971 218.079 281.867 218.1C281.762 218.11 281.662 218.121 281.568 218.131C281.473 218.142 281.394 218.147 281.332 218.147C280.975 218.168 280.602 218.451 280.214 218.997C279.815 219.553 279.485 220.172 279.223 220.854C278.95 221.546 278.814 222.081 278.814 222.459C278.814 222.543 278.808 222.617 278.798 222.679C278.798 222.742 278.798 222.816 278.798 222.9C278.798 223.319 278.892 223.582 279.081 223.687C279.532 223.928 279.962 224.049 280.372 224.049C281.012 224.049 281.594 223.66 282.118 222.884C282.643 222.087 282.905 221.337 282.905 220.634ZM294.425 232.075C294.425 231.812 294.315 231.566 294.095 231.335C293.885 231.094 293.649 230.942 293.386 230.879C293.313 230.858 293.213 230.821 293.087 230.768C292.972 230.706 292.825 230.622 292.647 230.517C292.29 230.307 292.043 230.202 291.907 230.202C291.676 230.202 291.44 230.286 291.199 230.454C290.958 230.622 290.737 230.863 290.538 231.178C290.339 231.482 290.171 231.844 290.034 232.264C289.908 232.683 289.845 233.145 289.845 233.648C289.845 234.246 289.961 234.656 290.192 234.876C290.454 234.813 290.727 234.781 291.01 234.781C291.083 234.781 291.194 234.792 291.34 234.813C291.487 234.834 291.603 234.844 291.687 234.844C291.897 234.844 292.295 234.677 292.883 234.341C293.177 234.173 293.407 234.031 293.575 233.916C293.754 233.79 293.874 233.69 293.937 233.617C294.262 233.229 294.425 232.715 294.425 232.075Z" fill="#434343"/>
<path d="M237.351 264.202C233.492 264.202 231.334 261.64 231.334 258.084V257.949C231.334 254.36 233.829 251.798 237.351 251.798C239.929 251.798 242.221 252.978 242.541 255.86H240.3C240.03 254.259 238.952 253.568 237.384 253.568C235.025 253.568 233.66 255.321 233.66 257.966V258.101C233.66 260.68 234.857 262.449 237.384 262.449C239.643 262.449 240.569 261.084 240.637 259.416H237.603V257.73H242.844V258.843C242.844 262.179 240.755 264.202 237.351 264.202ZM248.716 264.202C246.12 264.202 244.25 262.5 244.25 259.719V259.584C244.25 256.854 246.12 255.034 248.631 255.034C250.822 255.034 252.794 256.332 252.794 259.483V260.073H246.339C246.407 261.741 247.249 262.685 248.766 262.685C249.996 262.685 250.637 262.196 250.788 261.337H252.76C252.474 263.19 250.974 264.202 248.716 264.202ZM246.373 258.708H250.772C250.67 257.191 249.895 256.517 248.631 256.517C247.401 256.517 246.575 257.343 246.373 258.708ZM254.615 264.033V255.219H256.654V256.618C257.076 255.759 258.053 255.034 259.502 255.034C261.272 255.034 262.519 256.062 262.519 258.489V264.033H260.48V258.674C260.48 257.343 259.94 256.736 258.727 256.736C257.581 256.736 256.654 257.444 256.654 258.843V264.033H254.615ZM268.277 264.033L272.153 257.848L268.546 251.984H271.074L273.636 256.264L276.18 251.984H278.489L274.933 257.798L278.793 264.033H276.231L273.4 259.331L270.569 264.033H268.277ZM294.947 257.798L292.975 261.573L294.997 264.033H292.419L291.408 262.803C290.65 263.578 289.655 264.185 288.105 264.185C285.762 264.185 284.145 262.853 284.145 260.747C284.145 258.977 285.24 257.949 286.858 257.174C286.217 256.332 285.914 255.523 285.914 254.798C285.914 252.894 287.481 251.883 289.234 251.883C290.886 251.883 292.267 252.877 292.267 254.495C292.267 255.894 291.324 256.888 289.756 257.562L291.88 260.157L293.11 257.798H294.947ZM288.341 262.5C289.116 262.5 289.807 262.162 290.363 261.505L287.802 258.388C286.908 258.843 286.268 259.399 286.268 260.528C286.268 261.741 287.026 262.5 288.341 262.5ZM287.903 254.815C287.903 255.371 288.24 255.894 288.813 256.584C289.942 256.062 290.414 255.523 290.414 254.579C290.414 253.888 289.942 253.383 289.234 253.383C288.493 253.383 287.903 253.854 287.903 254.815ZM228.526 283.033V270.984H232.84C235.318 270.984 236.784 271.928 236.784 274.118V274.186C236.784 275.382 236.245 276.326 234.88 276.747C236.514 277.101 237.289 277.994 237.289 279.595V279.663C237.289 281.904 235.806 283.033 233.161 283.033H228.526ZM230.717 281.432H232.891C234.391 281.432 235.082 280.758 235.082 279.511V279.444C235.082 278.197 234.391 277.573 232.739 277.573H230.717V281.432ZM230.717 276.056H232.571C234.054 276.056 234.627 275.517 234.627 274.287V274.219C234.627 273.073 233.969 272.585 232.537 272.585H230.717V276.056ZM243.163 281.618C244.68 281.618 245.59 280.488 245.59 278.685V278.567C245.59 276.747 244.68 275.635 243.163 275.635C241.646 275.635 240.719 276.73 240.719 278.55V278.685C240.719 280.488 241.612 281.618 243.163 281.618ZM243.146 283.202C240.551 283.202 238.63 281.398 238.63 278.719V278.584C238.63 275.854 240.568 274.034 243.163 274.034C245.741 274.034 247.679 275.837 247.679 278.534V278.668C247.679 281.415 245.741 283.202 243.146 283.202ZM253.465 281.618C254.982 281.618 255.892 280.488 255.892 278.685V278.567C255.892 276.747 254.982 275.635 253.465 275.635C251.948 275.635 251.021 276.73 251.021 278.55V278.685C251.021 280.488 251.915 281.618 253.465 281.618ZM253.448 283.202C250.853 283.202 248.932 281.398 248.932 278.719V278.584C248.932 275.854 250.87 274.034 253.465 274.034C256.043 274.034 257.981 275.837 257.981 278.534V278.668C257.981 281.415 256.043 283.202 253.448 283.202ZM259.824 283.033V274.219H261.863V275.568C262.284 274.742 263.245 274.034 264.542 274.034C265.688 274.034 266.598 274.523 267.037 275.618C267.711 274.523 268.924 274.034 270.019 274.034C271.637 274.034 272.952 275.028 272.952 277.455V283.033H270.913V277.59C270.913 276.292 270.356 275.736 269.345 275.736C268.334 275.736 267.407 276.41 267.407 277.758V283.033H265.368V277.59C265.368 276.292 264.795 275.736 263.801 275.736C262.79 275.736 261.863 276.41 261.863 277.758V283.033H259.824ZM279.17 283.202C276.574 283.202 274.704 281.5 274.704 278.719V278.584C274.704 275.854 276.574 274.034 279.085 274.034C281.276 274.034 283.248 275.332 283.248 278.483V279.073H276.793C276.861 280.741 277.703 281.685 279.22 281.685C280.45 281.685 281.091 281.196 281.242 280.337H283.214C282.928 282.19 281.428 283.202 279.17 283.202ZM276.827 277.708H281.226C281.124 276.191 280.349 275.517 279.085 275.517C277.855 275.517 277.029 276.343 276.827 277.708ZM285.069 283.033V274.219H287.108V275.871C287.664 274.759 288.49 274.101 289.973 274.085V275.989C288.187 276.006 287.108 276.579 287.108 278.449V283.033H285.069ZM294.784 283.202C292.509 283.202 291.177 282.157 291.093 280.286H293.014C293.115 281.179 293.57 281.702 294.767 281.702C295.862 281.702 296.351 281.314 296.351 280.573C296.351 279.848 295.761 279.578 294.464 279.359C292.138 278.989 291.278 278.331 291.278 276.68C291.278 274.91 292.93 274.034 294.581 274.034C296.385 274.034 297.817 274.708 298.036 276.697H296.149C295.98 275.888 295.525 275.517 294.581 275.517C293.705 275.517 293.183 275.938 293.183 276.562C293.183 277.202 293.604 277.455 295.003 277.691C297.076 278.011 298.306 278.517 298.306 280.387C298.306 282.174 297.042 283.202 294.784 283.202Z" fill="#434343"/>
<g filter="url(#filter1_b_2001_2485)">
<rect x="258.183" y="437.52" width="250.279" height="262.488" rx="125.14" fill="#9CF5B5"/>
<path d="M348.408 527.171C348.408 527.927 348.115 528.976 347.529 530.318C346.749 532.196 346.078 533.879 345.517 535.367C344.956 536.831 344.505 538.124 344.163 539.246C343.7 540.685 343.139 542.563 342.48 544.881C341.846 547.174 341.102 549.942 340.248 553.187C340.077 553.943 339.894 554.699 339.699 555.455C339.528 556.187 339.382 556.834 339.26 557.395C339.138 557.956 339.016 558.639 338.894 559.444C338.796 560.224 338.748 561.005 338.748 561.785C338.748 565.444 337.918 567.274 336.26 567.274C335.04 567.274 334.198 566.871 333.735 566.067C333.32 565.457 332.991 564.725 332.747 563.871C332.503 563.017 332.381 562.249 332.381 561.566C332.381 560.737 332.686 559.175 333.296 556.882C333.613 555.687 333.942 554.492 334.284 553.296C334.625 552.101 334.967 550.882 335.308 549.637C335.674 548.393 336.003 547.283 336.296 546.308C336.589 545.308 336.833 544.454 337.028 543.746L336.369 543.271C335.418 543.832 334.442 544.381 333.442 544.917C332.466 545.454 331.466 545.978 330.442 546.491C328.441 547.491 326.795 548.125 325.502 548.393C322.965 548.832 320.757 549.052 318.879 549.052C317.928 549.052 316.781 548.515 315.44 547.442C314.147 546.369 313.013 545.1 312.037 543.637C311.11 542.197 310.646 541.027 310.646 540.124C310.646 537.636 311.268 535.343 312.512 533.245C313.781 531.172 315.245 529.415 316.903 527.976C317.757 527.244 318.757 526.427 319.904 525.524C321.075 524.622 322.416 523.622 323.929 522.524C324.66 522.012 325.904 521.463 327.661 520.878C328.539 520.56 329.417 520.292 330.295 520.073C331.173 519.829 332.039 519.609 332.893 519.414C334.65 519.048 336.028 518.865 337.028 518.865C338.004 518.865 338.857 518.975 339.589 519.194C340.345 519.414 341.041 519.731 341.675 520.146C342.334 520.56 342.98 521.06 343.614 521.646C344.248 522.207 344.956 522.829 345.736 523.512C346.297 523.927 346.737 524.268 347.054 524.537C347.371 524.78 347.578 524.963 347.676 525.085C347.871 525.329 348.115 526.025 348.408 527.171ZM342.041 527.939C341.626 526.817 340.821 526.012 339.626 525.524C338.382 525.037 337.089 524.793 335.747 524.793C333.357 524.793 331.32 525.085 329.637 525.671C327.978 526.256 326.197 527.281 324.295 528.744C323.441 529.379 322.599 530.098 321.77 530.903C320.94 531.708 320.111 532.611 319.282 533.611C317.623 535.562 316.794 537.343 316.794 538.953C316.794 540.563 317.306 541.807 318.33 542.685C319.379 543.539 320.721 543.966 322.355 543.966C324.136 543.966 326.368 543.344 329.051 542.1C331.808 540.783 334.186 539.453 336.186 538.112C337.699 537.063 338.601 536.294 338.894 535.806C339.382 534.928 339.748 534.099 339.992 533.318C340.26 532.489 340.565 531.574 340.907 530.574C341.248 529.574 341.626 528.696 342.041 527.939ZM406.074 556.626C406.074 557.578 405.903 558.151 405.562 558.346C404.244 559.029 402.781 559.529 401.171 559.846C399.561 560.163 397.902 560.444 396.194 560.688C394.511 560.907 392.828 561.163 391.145 561.456C389.486 561.749 387.925 562.212 386.461 562.847C386.461 563.09 386.486 563.444 386.535 563.908C386.583 564.371 386.608 564.737 386.608 565.005C386.608 566.274 385.01 566.908 381.814 566.908C381.522 566.884 381.253 566.75 381.009 566.506C380.79 566.237 380.57 565.957 380.351 565.664C380.131 565.371 379.912 565.115 379.692 564.896C379.497 564.676 379.278 564.591 379.034 564.639C378.668 564.639 377.338 564.969 375.045 565.627C373.874 565.945 372.935 566.213 372.228 566.432C371.52 566.628 371.02 566.786 370.728 566.908C367.752 567.859 365.678 568.335 364.507 568.335C363.507 568.335 362.702 568.055 362.092 567.494C361.239 566.64 360.812 565.81 360.812 565.005C360.812 563.81 361.714 562.932 363.519 562.371C365.3 561.785 367.422 561.273 369.886 560.834C371.447 560.517 373.045 560.188 374.679 559.846C376.314 559.505 377.79 559.029 379.107 558.419C379.204 556.931 379.302 555.565 379.4 554.321C379.497 553.077 379.607 551.93 379.729 550.882C379.851 549.833 379.985 548.601 380.131 547.186C380.302 545.771 380.509 544.173 380.753 542.393C381.217 538.856 381.619 535.892 381.961 533.501C382.132 532.306 382.29 531.172 382.436 530.098C382.583 529.001 382.717 527.952 382.839 526.951C381.424 526.951 379.46 527.805 376.948 529.513C376.094 530.074 375.326 530.55 374.643 530.94C373.96 531.306 373.374 531.611 372.886 531.855C371.935 532.318 370.557 532.806 368.752 533.318C367.337 533.708 366.142 533.904 365.166 533.904C364.507 533.904 364.068 533.696 363.849 533.282C363.629 532.867 363.519 532.306 363.519 531.598C363.519 530.428 363.873 529.659 364.58 529.293C365.483 528.83 366.751 528.257 368.386 527.574C369.24 527.208 369.923 526.915 370.435 526.695C370.947 526.476 371.289 526.317 371.459 526.22C372.508 525.707 373.496 525.207 374.423 524.719C375.375 524.207 376.277 523.707 377.131 523.219C377.985 522.731 379.034 522.122 380.278 521.39C381.522 520.634 382.961 519.768 384.595 518.792C386.522 517.645 387.693 517.072 388.108 517.072C388.889 517.072 389.547 517.597 390.084 518.645C390.669 519.719 390.962 520.67 390.962 521.5C390.962 522.183 390.608 522.878 389.901 523.585C389.315 526.098 388.767 528.635 388.254 531.196C387.742 533.757 387.254 536.392 386.791 539.099C385.913 544.49 385.473 548.808 385.473 552.052C385.473 552.199 385.461 552.394 385.437 552.638C385.437 552.882 385.425 553.162 385.4 553.479C385.4 553.772 385.388 554.089 385.364 554.431C385.364 554.748 385.364 555.053 385.364 555.346C385.364 555.76 385.376 556.126 385.4 556.443C385.449 556.76 385.498 557.041 385.547 557.285C387.327 557.212 389.998 556.687 393.56 555.711C395.194 555.272 396.56 554.931 397.658 554.687C398.78 554.419 399.646 554.236 400.256 554.138C401.134 554.016 401.976 553.931 402.781 553.882C403.61 553.809 404.415 553.772 405.196 553.772C405.781 554.919 406.074 555.87 406.074 556.626ZM461.215 553.992C461.215 554.967 461.045 556.102 460.703 557.395C460.386 558.59 459.898 559.48 459.24 560.066C457.117 561.895 455.19 563.237 453.458 564.091C451.799 564.92 449.763 565.335 447.348 565.335C444.738 565.335 443.006 564.579 442.152 563.066C441.249 561.334 440.798 559.761 440.798 558.346C440.798 556.59 441.286 554.724 442.262 552.748C443.237 550.747 444.433 549.064 445.847 547.698C447.214 546.357 448.482 545.686 449.653 545.686C450.97 545.661 452.324 545.832 453.714 546.198C455.105 546.539 456.349 547.064 457.447 547.771C458.569 548.454 459.483 549.32 460.191 550.369C460.898 551.394 461.24 552.601 461.215 553.992ZM452.726 521.097C452.726 522.122 452.031 523 450.641 523.732C450.08 524.732 449.519 525.695 448.958 526.622C448.421 527.549 447.86 528.476 447.274 529.403C446.689 530.33 446.079 531.281 445.445 532.257C444.811 533.208 444.152 534.209 443.469 535.257C442.786 536.306 442.066 537.404 441.31 538.551C440.578 539.697 439.798 540.929 438.968 542.246C438.139 543.539 437.395 544.747 436.736 545.869C436.078 546.966 435.492 547.979 434.98 548.906C434.492 549.833 433.943 550.93 433.334 552.199C432.724 553.467 432.041 554.931 431.285 556.59C430.553 558.248 429.894 559.7 429.309 560.944C428.748 562.164 428.26 563.2 427.845 564.054C427.723 564.298 427.345 564.7 426.711 565.262C426.077 565.847 425.662 566.14 425.467 566.14C424.198 566.14 423.564 565.298 423.564 563.615C423.564 563.127 423.845 561.968 424.406 560.139C424.942 558.505 425.564 556.846 426.272 555.163C426.979 553.479 427.735 551.833 428.54 550.223C429.37 548.589 430.236 547.015 431.138 545.503C432.065 543.966 433.016 542.527 433.992 541.185C434.48 540.502 434.98 539.795 435.492 539.063C436.029 538.307 436.566 537.502 437.102 536.648C437.663 535.794 438.285 534.818 438.968 533.721C439.652 532.599 440.42 531.33 441.274 529.915C442.127 528.5 442.859 527.293 443.469 526.293C444.079 525.268 444.591 524.439 445.006 523.805C444.03 523.561 443.176 523.366 442.445 523.219C441.737 523.049 441.152 522.927 440.688 522.853C439.834 522.683 438.481 522.597 436.627 522.597C435.919 522.597 435.297 522.609 434.761 522.634C434.248 522.634 433.821 522.646 433.48 522.67C433.968 523.768 434.212 524.951 434.212 526.22C434.212 528.415 433.529 530.659 432.163 532.952C430.797 535.245 429.138 536.916 427.186 537.965C426.479 538.307 425.833 538.612 425.247 538.88C424.686 539.124 424.174 539.331 423.71 539.502C422.857 539.819 421.917 539.978 420.893 539.978C418.917 539.978 417.588 539.246 416.905 537.782C416.222 536.319 415.88 534.452 415.88 532.184C415.88 531.403 416.173 530.11 416.758 528.305C417.051 527.378 417.319 526.586 417.563 525.927C417.832 525.244 418.063 524.683 418.258 524.244C418.868 523.024 419.576 521.926 420.381 520.951C421.21 519.951 422.1 519.097 423.052 518.389C424.027 517.682 425.076 517.133 426.198 516.743C427.345 516.353 428.565 516.157 429.858 516.157C430.882 516.157 432.016 516.804 433.26 518.097C434.578 518.292 436.102 518.475 437.834 518.645C439.591 518.816 441.579 518.975 443.798 519.121C446.018 519.268 447.823 519.402 449.214 519.524C450.604 519.621 451.604 519.694 452.214 519.743C452.556 520.133 452.726 520.585 452.726 521.097ZM429.858 527.72C429.858 526.525 429.467 524.5 428.687 521.646C428.54 521.646 428.357 521.67 428.138 521.719C427.918 521.743 427.686 521.78 427.443 521.829C427.199 521.853 426.967 521.878 426.747 521.902C426.528 521.926 426.345 521.939 426.198 521.939C425.369 521.987 424.503 522.646 423.601 523.914C422.674 525.207 421.905 526.647 421.295 528.232C420.661 529.842 420.344 531.086 420.344 531.964C420.344 532.16 420.332 532.33 420.307 532.477C420.307 532.623 420.307 532.794 420.307 532.989C420.307 533.965 420.527 534.574 420.966 534.818C422.015 535.379 423.015 535.66 423.966 535.66C425.454 535.66 426.808 534.757 428.028 532.952C429.248 531.098 429.858 529.354 429.858 527.72ZM456.642 554.321C456.642 553.711 456.385 553.138 455.873 552.601C455.385 552.04 454.836 551.687 454.227 551.54C454.056 551.491 453.824 551.406 453.531 551.284C453.263 551.138 452.922 550.943 452.507 550.699C451.678 550.211 451.104 549.967 450.787 549.967C450.251 549.967 449.702 550.162 449.141 550.552C448.58 550.943 448.067 551.504 447.604 552.235C447.14 552.943 446.75 553.784 446.433 554.76C446.14 555.736 445.994 556.809 445.994 557.98C445.994 559.37 446.262 560.322 446.799 560.834C447.409 560.688 448.043 560.615 448.702 560.615C448.872 560.615 449.128 560.639 449.47 560.688C449.811 560.737 450.08 560.761 450.275 560.761C450.763 560.761 451.69 560.371 453.056 559.59C453.739 559.2 454.275 558.87 454.666 558.602C455.08 558.309 455.361 558.078 455.507 557.907C456.264 557.004 456.642 555.809 456.642 554.321Z" fill="#20575F"/>
<path d="M311.698 614.39V593.675H316.855L322.302 607.814L327.633 593.675H332.732V614.39H328.879V598.745L322.708 614.39H321.462L315.175 598.745V614.39H311.698ZM337.271 614.39V599.238H340.777V614.39H337.271ZM338.98 596.746C337.821 596.746 336.894 595.877 336.894 594.747C336.894 593.588 337.821 592.719 338.98 592.719C340.139 592.719 341.066 593.588 341.066 594.747C341.066 595.877 340.139 596.746 338.98 596.746ZM345.137 614.39V592.226H348.642V614.39H345.137ZM353.002 614.39V592.226H356.508V614.39H353.002ZM367.445 614.68C362.983 614.68 359.767 611.754 359.767 606.973V606.742C359.767 602.048 362.983 598.919 367.3 598.919C371.066 598.919 374.456 601.15 374.456 606.568V607.582H363.36C363.475 610.45 364.924 612.073 367.532 612.073C369.647 612.073 370.748 611.232 371.008 609.755H374.398C373.906 612.942 371.327 614.68 367.445 614.68ZM363.418 605.235H370.979C370.806 602.627 369.473 601.468 367.3 601.468C365.185 601.468 363.765 602.888 363.418 605.235ZM377.588 614.39V599.238H381.093V601.642C381.818 600.165 383.498 598.919 385.99 598.919C389.032 598.919 391.176 600.686 391.176 604.858V614.39H387.67V605.177C387.67 602.888 386.743 601.845 384.657 601.845C382.687 601.845 381.093 603.062 381.093 605.467V614.39H377.588ZM395.215 614.39V599.238H398.72V601.642C399.445 600.165 401.125 598.919 403.617 598.919C406.659 598.919 408.803 600.686 408.803 604.858V614.39H405.297V605.177C405.297 602.888 404.37 601.845 402.284 601.845C400.314 601.845 398.72 603.062 398.72 605.467V614.39H395.215ZM412.928 614.39V599.238H416.434V614.39H412.928ZM414.638 596.746C413.479 596.746 412.552 595.877 412.552 594.747C412.552 593.588 413.479 592.719 414.638 592.719C415.797 592.719 416.724 593.588 416.724 594.747C416.724 595.877 415.797 596.746 414.638 596.746ZM424.677 614.68C421.895 614.68 419.606 613.347 419.606 610.189C419.606 606.655 423.025 605.38 427.371 605.38H429.254V604.598C429.254 602.569 428.559 601.555 426.502 601.555C424.677 601.555 423.778 602.425 423.605 603.931H420.215C420.504 600.396 423.315 598.919 426.705 598.919C430.094 598.919 432.76 600.31 432.76 604.453V614.39H429.312V612.536C428.327 613.84 426.994 614.68 424.677 614.68ZM425.517 612.159C427.661 612.159 429.254 611.03 429.254 609.088V607.582H427.458C424.792 607.582 423.083 608.19 423.083 610.044C423.083 611.319 423.778 612.159 425.517 612.159ZM436.865 614.39V592.226H440.371V614.39H436.865ZM449.83 614.68C445.919 614.68 443.63 612.884 443.485 609.668H446.788C446.962 611.203 447.744 612.102 449.801 612.102C451.684 612.102 452.524 611.435 452.524 610.16C452.524 608.915 451.51 608.451 449.279 608.074C445.281 607.437 443.804 606.307 443.804 603.468C443.804 600.425 446.643 598.919 449.482 598.919C452.582 598.919 455.045 600.078 455.422 603.497H452.177C451.887 602.106 451.105 601.468 449.482 601.468C447.976 601.468 447.078 602.193 447.078 603.265C447.078 604.366 447.802 604.8 450.207 605.206C453.77 605.756 455.885 606.626 455.885 609.842C455.885 612.913 453.712 614.68 449.83 614.68Z" fill="#20575F"/>
</g>
<g clip-path="url(#clip0_2001_2485)">
<path d="M409.02 336.3C414.02 335.9 419.52 336.7 422.72 337.2C424.22 337.5 425.12 338.9 424.82 340.4L417.12 378.2C416.72 380 415.22 381.4 413.42 381.4H407.22L409.82 368.7C409.72 368.7 407.52 370 403.12 370C394.92 370 387.62 363.8 389.22 353.8C391.22 341.6 400.42 336.9 409.02 336.3ZM406.32 364.2C409.22 364.2 410.82 363.7 413.12 362.2L417.02 343.1C417.02 343.1 414.52 341.3 410.32 341.6C406.12 341.9 402.22 345 400.42 353.8C399.32 363.3 403.82 364.2 406.32 364.2Z" fill="#488559"/>
<path d="M423.72 357.3L427.52 338.7C427.82 337.3 429.02 336.3 430.32 336.3H437.22L432.92 357.3C431.52 364.1 432.92 366.1 436.12 366.1C439.32 366.1 444.22 363 444.32 362.9L449.62 336.3H455.32C457.12 336.3 458.52 338.1 458.12 340L453.92 360.7C453.02 365 450.12 368.6 446.12 369.9C441.32 371.5 437.42 371.7 435.12 371.7C426.52 371.7 421.52 367.8 423.72 357.3Z" fill="#488559"/>
<path d="M464.62 336.3H471.22L464.92 367.2C464.52 369 463.02 370.2 461.32 370.2H455.12L461.32 339.1C461.72 337.5 463.02 336.3 464.62 336.3Z" fill="#488559"/>
<path d="M497.72 365.9C497.92 366.8 497.52 367.8 496.62 368.3C493.02 370.2 489.22 371.7 483.72 371.7C475.22 371.7 468.22 364.7 470.72 352.5C473.12 340.6 483.22 336.3 491.12 336.3C494.12 336.3 497.62 337.1 500.52 338C502.02 338.5 502.82 340.2 502.22 341.8L500.82 345.7C500.62 346.3 499.92 346.4 499.52 346C495.82 342.4 492.92 341.3 489.92 341.5C486.92 341.7 481.92 343.5 480.02 352.4C478.12 361.3 482.32 365.3 485.12 365.6C489.42 366 494.62 362.7 496.22 361.5C496.52 361.3 496.82 361.5 496.92 361.8L497.72 365.9Z" fill="#488559"/>
<path d="M513.22 352.9L511.22 354.7L508.82 366.2C508.32 368.6 506.32 370.3 504.02 370.3H498.72L507.32 328C507.72 326.2 509.22 324.9 510.92 324.9H517.22L513.12 345L521.02 337.6C521.92 336.7 523.12 336.3 524.32 336.3H532.92L520.02 347.2L526.42 364.2C527.52 367.2 525.42 370.4 522.42 370.4H519.12L513.22 352.9Z" fill="#488559"/>
<path d="M540.09 389.76L536.79 406.16C536.39 408.06 534.79 409.46 532.89 409.46H526.89L530.89 389.66C532.39 382.46 530.99 380.46 527.79 380.46C524.89 380.46 520.89 383.36 520.79 383.46L516.19 406.36C515.79 408.16 514.29 409.46 512.59 409.46H506.29L510.29 389.66C511.69 382.46 510.39 380.46 507.19 380.46C504.19 380.46 500.39 383.36 500.39 383.16L495.69 406.16C495.29 408.06 493.69 409.46 491.79 409.46H485.89L491.09 383.86C491.59 381.36 493.19 379.26 495.39 378.26C501.29 375.56 505.59 375.36 508.19 375.36C513.09 375.36 517.29 377.56 517.89 378.76C520.79 376.86 525.79 375.36 528.69 375.36C537.49 375.46 542.09 380.36 540.09 389.76Z" fill="#488559"/>
<path d="M567.98 375.56H575.58L553.58 411.56C550.98 415.16 546.38 422.86 535.48 420.16C534.48 419.86 533.88 418.76 534.18 417.66L535.28 413.96C535.48 413.36 536.18 413.06 536.78 413.36C541.18 416.16 541.68 416.16 547.48 406.66L542.68 378.66C542.38 376.96 543.58 375.46 545.28 375.46H551.68L554.38 395.26L565.38 377.06C565.78 376.16 566.88 375.56 567.98 375.56Z" fill="#488559"/>
<path d="M603.29 389.76L599.99 405.96C599.59 408.06 597.79 409.56 595.79 409.56H590.09L594.09 389.76C595.59 382.66 594.19 380.66 590.99 380.66C588.79 380.66 585.99 381.86 584.29 382.76C583.39 383.16 582.79 384.06 582.59 384.96L578.49 405.36C577.99 407.86 575.89 409.66 573.39 409.66H568.29L573.59 383.56C573.99 381.46 575.39 379.66 577.29 378.76C583.69 375.76 588.99 375.66 591.79 375.66C600.49 375.46 605.49 379.26 603.29 389.76Z" fill="#488559"/>
<path d="M621.79 407.26C621.99 408.36 621.39 409.36 620.39 409.66C608.49 412.86 604.29 409.26 606.19 401.06L610.29 381.06H605.89C605.29 381.06 604.79 380.46 604.99 379.86L605.49 377.26C605.69 376.26 606.49 375.56 607.49 375.56H611.29L611.69 373.56C612.09 371.66 613.19 369.96 614.79 368.96L622.09 364.26C622.39 364.06 622.89 364.36 622.79 364.76L620.59 375.56H626.19C627.09 375.56 627.89 376.46 627.69 377.46L627.29 379.66C627.09 380.46 626.39 381.06 625.59 381.06H619.59L615.69 400.36C614.59 405.86 616.09 405.96 619.79 403.76C620.49 403.36 621.29 403.76 621.39 404.56L621.79 407.26Z" fill="#488559"/>
<path d="M470.72 325.3H463.82C463.52 325.3 463.22 325 463.22 324.7V324.6C463.22 324.3 463.52 324 463.82 324H470.72C471.02 324 471.32 324.3 471.32 324.6V324.7C471.32 325.1 471.02 325.3 470.72 325.3Z" fill="#488559"/>
<path d="M470.72 332.8H463.82C463.52 332.8 463.22 332.5 463.22 332.2V332.1C463.22 331.8 463.52 331.5 463.82 331.5H470.72C471.02 331.5 471.32 331.8 471.32 332.1V332.2C471.32 332.5 471.02 332.8 470.72 332.8Z" fill="#488559"/>
<path d="M474.72 329H467.82C467.52 329 467.22 328.7 467.22 328.4V328.3C467.22 328 467.52 327.7 467.82 327.7H474.72C475.02 327.7 475.32 328 475.32 328.3V328.4C475.32 328.8 475.12 329 474.72 329Z" fill="#488559"/>
</g>
<defs>
<filter id="filter0_b_2001_2485" x="-84.3859" y="272.343" width="347.041" height="348.598" filterUnits="userSpaceOnUse" color-interpolation-filters="sRGB">
<feFlood flood-opacity="0" result="BackgroundImageFix"/>
<feGaussianBlur in="BackgroundImageFix" stdDeviation="42.1929"/>
<feComposite in2="SourceAlpha" operator="in" result="effect1_backgroundBlur_2001_2485"/>
<feBlend mode="normal" in="SourceGraphic" in2="effect1_backgroundBlur_2001_2485" result="shape"/>
</filter>
<filter id="filter1_b_2001_2485" x="217.487" y="396.825" width="331.671" height="343.88" filterUnits="userSpaceOnUse" color-interpolation-filters="sRGB">
<feFlood flood-opacity="0" result="BackgroundImageFix"/>
<feGaussianBlur in="BackgroundImageFix" stdDeviation="20.3479"/>
<feComposite in2="SourceAlpha" operator="in" result="effect1_backgroundBlur_2001_2485"/>
<feBlend mode="normal" in="SourceGraphic" in2="effect1_backgroundBlur_2001_2485" result="shape"/>
</filter>
<clipPath id="clip0_2001_2485">
<rect width="238.72" height="96.73" fill="white" transform="translate(389 324)"/>
</clipPath>
</defs>
</svg>
