<svg width="319" height="405" viewBox="0 0 319 405" fill="none" xmlns="http://www.w3.org/2000/svg">
<g clip-path="url(#clip0_553_138)">
<path d="M136.55 6.89386C136.55 6.89386 121.34 41.9965 132.874 42.3665C144.417 42.7365 166.812 48.3069 167.83 39.1062C170.627 13.7844 136.55 6.90386 136.55 6.90386V6.89386Z" fill="#0E1823"/>
<path d="M137.084 328.568C126.835 311.146 116.695 293.765 106.683 276.474L85.6519 293.125C97.7093 309.266 110.202 324.757 123.109 339.539L137.084 328.578V328.568Z" fill="#F27F5C"/>
<path d="M136.204 319.787C134.603 318.647 132.468 318.697 130.926 319.897L119.383 328.898L115.865 324.677C115.113 324.367 114.254 324.587 113.74 325.218L107.75 332.598C107.207 333.268 107.187 334.218 107.711 334.908L112.702 341.539L103.293 353.28C100.121 357.23 99.4091 362.65 101.435 367.311L103.985 373.151C104.578 374.511 106.268 374.941 107.424 374.021L129.671 356.41C130.65 355.63 131.421 354.62 131.905 353.46L133.407 349.899C134.109 348.229 136.323 347.939 137.42 349.369C137.657 349.679 138.102 349.739 138.418 349.489L152.541 338.308C153.579 337.488 153.806 335.968 153.005 334.908C148.578 329.008 140.434 322.807 136.204 319.777V319.787Z" fill="#FFB552"/>
<path d="M103.086 371.111L151.365 332.898" stroke="#0E1823" stroke-width="0.25" stroke-linecap="round" stroke-linejoin="round"/>
<path d="M112.692 341.548C112.692 341.548 102.75 334.818 101.84 340.948C100.931 347.078 112.692 341.548 112.692 341.548Z" stroke="#0E1823" stroke-width="0.25" stroke-linecap="round" stroke-linejoin="round"/>
<path d="M112.692 341.548C112.692 341.548 108.63 330.168 114.738 330.748C120.846 331.328 112.692 341.548 112.692 341.548Z" stroke="#0E1823" stroke-width="0.25" stroke-linecap="round" stroke-linejoin="round"/>
<path d="M112.692 341.549L112.267 354.269" stroke="#0E1823" stroke-width="0.25" stroke-linecap="round" stroke-linejoin="round"/>
<path d="M112.692 341.549L124.997 344.189" stroke="#0E1823" stroke-width="0.25" stroke-linecap="round" stroke-linejoin="round"/>
<path d="M112.099 126.233C112.099 126.233 58.4832 215.449 58.4832 249.552C58.4832 278.244 99.093 322.947 99.093 322.947C117.762 317.947 130.61 306.116 138.161 288.125L115.39 252.942L157.492 141.054L112.099 126.233Z" fill="#504789"/>
<path d="M133.051 280.224C127.201 299.216 114.866 312.116 93.7659 316.757" stroke="#0E1823" stroke-width="0.25" stroke-linecap="round" stroke-linejoin="round"/>
<path d="M115.39 252.942L111.694 261.512" stroke="#0E1823" stroke-width="0.25" stroke-linecap="round" stroke-linejoin="round"/>
<path d="M193.625 387.412C191.145 367.431 188.733 347.559 186.43 327.828L159.558 327.948C164.292 348.029 169.698 367.871 175.816 387.402H193.625V387.412Z" fill="#F27F5C"/>
<path d="M196.086 380.222C195.523 378.331 193.813 377.031 191.856 377.011L177.289 376.901L177.081 371.381C176.686 370.671 175.865 370.311 175.085 370.481L165.874 372.561C165.043 372.751 164.44 373.491 164.431 374.361L164.332 382.692L149.774 386.072C144.872 387.212 141.008 391.032 139.772 395.963L138.22 402.153C137.865 403.593 138.932 404.983 140.395 404.983H168.641C169.886 404.983 171.112 404.663 172.199 404.053L175.549 402.183C177.121 401.303 179.038 402.453 179.038 404.263C179.038 404.663 179.354 404.983 179.749 404.983H197.687C199.002 404.983 200.109 403.933 200.128 402.603C200.237 395.193 197.598 385.232 196.106 380.211L196.086 380.222Z" fill="#FFB552"/>
<path d="M138.754 399.993H200.049" stroke="#0E1823" stroke-width="0.25" stroke-linecap="round" stroke-linejoin="round"/>
<path d="M164.322 382.701C164.322 382.701 160.586 371.201 156.139 375.461C151.681 379.721 164.322 382.701 164.322 382.701Z" stroke="#0E1823" stroke-width="0.25" stroke-linecap="round" stroke-linejoin="round"/>
<path d="M164.322 382.701C164.322 382.701 168.058 371.201 172.505 375.461C176.962 379.721 164.322 382.701 164.322 382.701Z" stroke="#0E1823" stroke-width="0.25" stroke-linecap="round" stroke-linejoin="round"/>
<path d="M164.322 382.702L156.237 392.452" stroke="#0E1823" stroke-width="0.25" stroke-linecap="round" stroke-linejoin="round"/>
<path d="M164.322 382.702L172.406 392.452" stroke="#0E1823" stroke-width="0.25" stroke-linecap="round" stroke-linejoin="round"/>
<path d="M148.627 356.04C164.164 363.69 182.181 359.05 201.196 349.449C190.749 291.745 183.426 235.041 179.502 179.437C177.832 155.685 176.784 132.123 176.379 108.781C176.369 108.271 176.369 107.741 176.35 107.231L131.51 114.402C124.769 185.477 137.044 267.483 148.617 356.03L148.627 356.04Z" fill="#504789"/>
<path d="M147.768 349.449C165.488 354.099 182.873 351.939 199.891 342.139" stroke="#0E1823" stroke-width="0.25" stroke-linecap="round" stroke-linejoin="round"/>
<path d="M192.429 345.939C183.228 295.375 174.156 220.62 172.041 179.357" stroke="#0E1823" stroke-width="0.25" stroke-linecap="round" stroke-linejoin="round"/>
<path d="M50.7249 58.7377L37.353 62.158L46.999 98.7307L67.9018 87.7499L50.7249 58.7377Z" fill="#F27F5C"/>
<path d="M59.0978 34.0059L47.6713 35.4378C46.8479 35.5409 46.2631 36.3 46.3651 37.1332L49.7993 65.1909C49.9013 66.024 50.6515 66.6158 51.4748 66.5126L62.9014 65.0807C63.7248 64.9776 64.3096 64.2185 64.2076 63.3853L60.7733 35.3276C60.6714 34.4945 59.9212 33.9027 59.0978 34.0059Z" fill="#0E1823"/>
<path d="M57.406 49.157C58.6513 47.3669 56.8723 46.2568 56.8723 46.2568C57.8211 45.3567 56.9612 44.4467 56.9612 44.4467C57.406 44.2767 58.1077 43.7666 57.6629 42.4765C57.2182 41.1864 51.7924 40.8364 50.2506 40.8164C48.7088 40.7964 43.1446 45.9468 43.1446 45.9468L38.6873 50.5771C36.5526 52.7973 35.7224 55.9975 36.513 58.9878L37.3531 62.158L50.7151 58.7377C55.9532 56.8176 53.7492 51.9872 53.7492 51.9872C54.8265 51.9272 54.8957 51.5772 54.8957 51.5772C55.5282 52.0772 57.4949 52.3573 57.9594 51.1772C58.4239 50.0071 57.3961 49.157 57.3961 49.157H57.406Z" fill="#F27F5C"/>
<path d="M56.7241 44.3464C55.2614 43.8264 53.6998 43.6264 52.1482 43.7464" stroke="#0E1823" stroke-width="0.25" stroke-linecap="round" stroke-linejoin="round"/>
<path d="M56.6747 46.1668C55.2713 45.7968 53.7591 45.8968 52.415 46.4368" stroke="#0E1823" stroke-width="0.25" stroke-linecap="round" stroke-linejoin="round"/>
<path d="M57.1293 49.057C55.8543 48.607 54.4509 48.527 53.1365 48.847" stroke="#0E1823" stroke-width="0.25" stroke-linecap="round" stroke-linejoin="round"/>
<path d="M55.5184 50.8671C55.2615 51.3071 54.8266 51.6471 54.3423 51.7871C53.8581 51.9271 53.3145 51.8771 52.8599 51.6371" stroke="#0E1823" stroke-width="0.25" stroke-linecap="round" stroke-linejoin="round"/>
<path d="M101.534 45.2767L80.2756 95.6905L68.0897 78.3992L35.1492 101.181C35.1492 101.181 53.3144 143.964 79.8605 147.244C114.313 151.505 139.94 37.5662 139.94 37.5662H114.017C108.759 37.5662 103.936 40.5364 101.534 45.2667V45.2767Z" fill="#03A731"/>
<path d="M116.962 75.0689C116.962 74.6589 117.288 74.3289 117.693 74.3289C118.098 74.3289 118.425 74.6589 118.425 75.0689C118.425 75.479 118.098 75.809 117.693 75.809C117.288 75.809 116.962 75.479 116.962 75.0689ZM117.703 88.85C118.108 88.85 118.434 88.5199 118.434 88.1099C118.434 87.6999 118.108 87.3698 117.703 87.3698C117.298 87.3698 116.972 87.6999 116.972 88.1099C116.972 88.5199 117.298 88.85 117.703 88.85ZM117.703 49.7371C118.108 49.7371 118.434 49.407 118.434 48.997C118.434 48.587 118.108 48.2569 117.703 48.2569C117.298 48.2569 116.972 48.587 116.972 48.997C116.972 49.407 117.298 49.7371 117.703 49.7371ZM132.636 62.028C132.636 61.6179 132.31 61.2879 131.905 61.2879C131.5 61.2879 131.174 61.6179 131.174 62.028C131.174 62.438 131.5 62.768 131.905 62.768C132.31 62.768 132.636 62.438 132.636 62.028ZM131.905 48.2469C131.5 48.2469 131.174 48.577 131.174 48.987C131.174 49.397 131.5 49.7271 131.905 49.7271C132.31 49.7271 132.636 49.397 132.636 48.987C132.636 48.577 132.31 48.2469 131.905 48.2469ZM117.703 101.881C118.108 101.881 118.434 101.551 118.434 101.141C118.434 100.731 118.108 100.401 117.703 100.401C117.298 100.401 116.972 100.731 116.972 101.141C116.972 101.551 117.298 101.881 117.703 101.881ZM117.703 62.778C118.108 62.778 118.434 62.448 118.434 62.038C118.434 61.6279 118.108 61.2979 117.703 61.2979C117.298 61.2979 116.972 61.6279 116.972 62.038C116.972 62.448 117.298 62.778 117.703 62.778ZM103.501 48.2469C103.096 48.2469 102.77 48.577 102.77 48.987C102.77 49.397 103.096 49.7271 103.501 49.7271C103.906 49.7271 104.232 49.397 104.232 48.987C104.232 48.577 103.906 48.2469 103.501 48.2469ZM103.501 87.3598C103.096 87.3598 102.77 87.6899 102.77 88.0999C102.77 88.5099 103.096 88.84 103.501 88.84C103.906 88.84 104.232 88.5099 104.232 88.0999C104.232 87.6899 103.906 87.3598 103.501 87.3598ZM103.501 113.432C103.096 113.432 102.77 113.762 102.77 114.172C102.77 114.582 103.096 114.912 103.501 114.912C103.906 114.912 104.232 114.582 104.232 114.172C104.232 113.762 103.906 113.432 103.501 113.432ZM103.501 100.391C103.096 100.391 102.77 100.721 102.77 101.131C102.77 101.541 103.096 101.871 103.501 101.871C103.906 101.871 104.232 101.541 104.232 101.131C104.232 100.721 103.906 100.391 103.501 100.391ZM89.2989 75.809C89.7041 75.809 90.0302 75.479 90.0302 75.0689C90.0302 74.6589 89.7041 74.3289 89.2989 74.3289C89.2989 74.3289 89.289 74.3289 89.2791 74.3289L88.7553 75.569C88.8937 75.719 89.0815 75.819 89.289 75.819L89.2989 75.809ZM103.501 127.953C103.906 127.953 104.232 127.623 104.232 127.213C104.232 126.803 103.906 126.473 103.501 126.473C103.096 126.473 102.77 126.803 102.77 127.213C102.77 127.623 103.096 127.953 103.501 127.953ZM103.501 61.2879C103.096 61.2879 102.77 61.6179 102.77 62.028C102.77 62.438 103.096 62.768 103.501 62.768C103.906 62.768 104.232 62.438 104.232 62.028C104.232 61.6179 103.906 61.2879 103.501 61.2879ZM103.501 74.3189C103.096 74.3189 102.77 74.6489 102.77 75.0589C102.77 75.469 103.096 75.799 103.501 75.799C103.906 75.799 104.232 75.469 104.232 75.0589C104.232 74.6489 103.906 74.3189 103.501 74.3189ZM74.3655 88.0999C74.3655 88.5099 74.6916 88.84 75.0968 88.84C75.2055 88.84 75.3044 88.82 75.3933 88.7699L74.5631 87.5899C74.4445 87.7199 74.3655 87.8999 74.3655 88.0899V88.0999ZM60.9046 113.432C60.4994 113.432 60.1733 113.762 60.1733 114.172C60.1733 114.582 60.4994 114.912 60.9046 114.912C61.3098 114.912 61.636 114.582 61.636 114.172C61.636 113.762 61.3098 113.432 60.9046 113.432ZM75.1067 113.432C74.7015 113.432 74.3753 113.762 74.3753 114.172C74.3753 114.582 74.7015 114.912 75.1067 114.912C75.5119 114.912 75.838 114.582 75.838 114.172C75.838 113.762 75.5119 113.432 75.1067 113.432ZM60.9046 87.3598C60.4994 87.3598 60.1733 87.6899 60.1733 88.0999C60.1733 88.5099 60.4994 88.84 60.9046 88.84C61.3098 88.84 61.636 88.5099 61.636 88.0999C61.636 87.6899 61.3098 87.3598 60.9046 87.3598ZM60.9046 127.953C61.3098 127.953 61.636 127.623 61.636 127.213C61.636 126.803 61.3098 126.473 60.9046 126.473C60.4994 126.473 60.1733 126.803 60.1733 127.213C60.1733 127.623 60.4994 127.953 60.9046 127.953ZM75.1067 100.391C74.7015 100.391 74.3753 100.721 74.3753 101.131C74.3753 101.541 74.7015 101.871 75.1067 101.871C75.5119 101.871 75.838 101.541 75.838 101.131C75.838 100.721 75.5119 100.391 75.1067 100.391ZM75.1067 140.994C75.5119 140.994 75.838 140.664 75.838 140.254C75.838 139.844 75.5119 139.514 75.1067 139.514C74.7015 139.514 74.3753 139.844 74.3753 140.254C74.3753 140.664 74.7015 140.994 75.1067 140.994ZM75.1067 126.463C74.7015 126.463 74.3753 126.793 74.3753 127.203C74.3753 127.613 74.7015 127.943 75.1067 127.943C75.5119 127.943 75.838 127.613 75.838 127.203C75.838 126.793 75.5119 126.463 75.1067 126.463ZM89.2989 140.994C89.7041 140.994 90.0302 140.664 90.0302 140.254C90.0302 139.844 89.7041 139.514 89.2989 139.514C88.8937 139.514 88.5675 139.844 88.5675 140.254C88.5675 140.664 88.8937 140.994 89.2989 140.994ZM60.9046 100.391C60.4994 100.391 60.1733 100.721 60.1733 101.131C60.1733 101.541 60.4994 101.871 60.9046 101.871C61.3098 101.871 61.636 101.541 61.636 101.131C61.636 100.721 61.3098 100.391 60.9046 100.391ZM89.2989 126.463C88.8937 126.463 88.5675 126.793 88.5675 127.203C88.5675 127.613 88.8937 127.943 89.2989 127.943C89.7041 127.943 90.0302 127.613 90.0302 127.203C90.0302 126.793 89.7041 126.463 89.2989 126.463ZM89.2989 87.3598C88.8937 87.3598 88.5675 87.6899 88.5675 88.0999C88.5675 88.5099 88.8937 88.84 89.2989 88.84C89.7041 88.84 90.0302 88.5099 90.0302 88.0999C90.0302 87.6899 89.7041 87.3598 89.2989 87.3598ZM89.2989 100.391C88.8937 100.391 88.5675 100.721 88.5675 101.131C88.5675 101.541 88.8937 101.871 89.2989 101.871C89.7041 101.871 90.0302 101.541 90.0302 101.131C90.0302 100.721 89.7041 100.391 89.2989 100.391ZM89.2989 113.432C88.8937 113.432 88.5675 113.762 88.5675 114.172C88.5675 114.582 88.8937 114.912 89.2989 114.912C89.7041 114.912 90.0302 114.582 90.0302 114.172C90.0302 113.762 89.7041 113.432 89.2989 113.432ZM46.7025 100.391C46.2973 100.391 45.9712 100.721 45.9712 101.131C45.9712 101.541 46.2973 101.871 46.7025 101.871C47.1078 101.871 47.4339 101.541 47.4339 101.131C47.4339 100.721 47.1078 100.391 46.7025 100.391ZM47.4339 114.172C47.4339 113.762 47.1078 113.432 46.7025 113.432C46.2973 113.432 45.9712 113.762 45.9712 114.172C45.9712 114.582 46.2973 114.912 46.7025 114.912C47.1078 114.912 47.4339 114.582 47.4339 114.172Z" fill="#0F7D2E"/>
<path d="M80.2756 95.7004L84.3969 101.19" stroke="#0E1823" stroke-width="0.25" stroke-linecap="round" stroke-linejoin="round"/>
<path d="M72.8732 85.1997L39.2112 109.462" stroke="#0E1823" stroke-width="0.25" stroke-linecap="round" stroke-linejoin="round"/>
<path d="M123.485 37.5461C101.969 114.362 94.0329 140.994 67.9019 191.598C90.7912 196.898 96.4246 223.21 125.293 229.01C152.511 234.481 168.315 213.329 195.849 214.439C197.243 116.532 170.766 114.782 176.419 37.5361H123.485V37.5461Z" fill="#03A731"/>
<path d="M161.041 192.388C161.041 192.798 160.714 193.128 160.309 193.128C159.904 193.128 159.578 192.798 159.578 192.388C159.578 191.978 159.904 191.648 160.309 191.648C160.714 191.648 161.041 191.978 161.041 192.388ZM160.299 178.617C159.894 178.617 159.568 178.947 159.568 179.357C159.568 179.767 159.894 180.097 160.299 180.097C160.704 180.097 161.031 179.767 161.031 179.357C161.031 178.947 160.704 178.617 160.299 178.617ZM160.299 217.719C159.894 217.719 159.568 218.05 159.568 218.46C159.568 218.87 159.894 219.2 160.299 219.2C160.704 219.2 161.031 218.87 161.031 218.46C161.031 218.05 160.704 217.719 160.299 217.719ZM160.299 152.535C159.894 152.535 159.568 152.865 159.568 153.275C159.568 153.685 159.894 154.015 160.299 154.015C160.704 154.015 161.031 153.685 161.031 153.275C161.031 152.865 160.704 152.535 160.299 152.535ZM160.299 165.576C159.894 165.576 159.568 165.906 159.568 166.316C159.568 166.726 159.894 167.056 160.299 167.056C160.704 167.056 161.031 166.726 161.031 166.316C161.031 165.906 160.704 165.576 160.299 165.576ZM174.501 87.3598C174.096 87.3598 173.77 87.6899 173.77 88.0999C173.77 88.5099 174.096 88.84 174.501 88.84C174.907 88.84 175.233 88.5099 175.233 88.0999C175.233 87.6899 174.907 87.3598 174.501 87.3598ZM160.299 139.504C159.894 139.504 159.568 139.834 159.568 140.244C159.568 140.654 159.894 140.984 160.299 140.984C160.704 140.984 161.031 140.654 161.031 140.244C161.031 139.834 160.704 139.504 160.299 139.504ZM174.501 74.3189C174.096 74.3189 173.77 74.6489 173.77 75.0589C173.77 75.469 174.096 75.799 174.501 75.799C174.907 75.799 175.233 75.469 175.233 75.0589C175.233 74.6489 174.907 74.3189 174.501 74.3189ZM174.501 48.2469C174.096 48.2469 173.77 48.577 173.77 48.987C173.77 49.397 174.096 49.7271 174.501 49.7271C174.907 49.7271 175.233 49.397 175.233 48.987C175.233 48.577 174.907 48.2469 174.501 48.2469ZM160.299 204.689C159.894 204.689 159.568 205.019 159.568 205.429C159.568 205.839 159.894 206.169 160.299 206.169C160.704 206.169 161.031 205.839 161.031 205.429C161.031 205.019 160.704 204.689 160.299 204.689ZM174.501 61.2879C174.096 61.2879 173.77 61.6179 173.77 62.028C173.77 62.438 174.096 62.768 174.501 62.768C174.907 62.768 175.233 62.438 175.233 62.028C175.233 61.6179 174.907 61.2879 174.501 61.2879ZM160.299 113.432C159.894 113.432 159.568 113.762 159.568 114.172C159.568 114.582 159.894 114.912 160.299 114.912C160.704 114.912 161.031 114.582 161.031 114.172C161.031 113.762 160.704 113.432 160.299 113.432ZM160.299 48.2469C159.894 48.2469 159.568 48.577 159.568 48.987C159.568 49.397 159.894 49.7271 160.299 49.7271C160.704 49.7271 161.031 49.397 161.031 48.987C161.031 48.577 160.704 48.2469 160.299 48.2469ZM146.097 165.576C145.692 165.576 145.366 165.906 145.366 166.316C145.366 166.726 145.692 167.056 146.097 167.056C146.502 167.056 146.829 166.726 146.829 166.316C146.829 165.906 146.502 165.576 146.097 165.576ZM146.097 178.617C145.692 178.617 145.366 178.947 145.366 179.357C145.366 179.767 145.692 180.097 146.097 180.097C146.502 180.097 146.829 179.767 146.829 179.357C146.829 178.947 146.502 178.617 146.097 178.617ZM146.097 204.689C145.692 204.689 145.366 205.019 145.366 205.429C145.366 205.839 145.692 206.169 146.097 206.169C146.502 206.169 146.829 205.839 146.829 205.429C146.829 205.019 146.502 204.689 146.097 204.689ZM160.299 126.463C159.894 126.463 159.568 126.793 159.568 127.203C159.568 127.613 159.894 127.943 160.299 127.943C160.704 127.943 161.031 127.613 161.031 127.203C161.031 126.793 160.704 126.463 160.299 126.463ZM160.299 61.2879C159.894 61.2879 159.568 61.6179 159.568 62.028C159.568 62.438 159.894 62.768 160.299 62.768C160.704 62.768 161.031 62.438 161.031 62.028C161.031 61.6179 160.704 61.2879 160.299 61.2879ZM160.299 74.3189C159.894 74.3189 159.568 74.6489 159.568 75.0589C159.568 75.469 159.894 75.799 160.299 75.799C160.704 75.799 161.031 75.469 161.031 75.0589C161.031 74.6489 160.704 74.3189 160.299 74.3189ZM174.501 100.391C174.096 100.391 173.77 100.721 173.77 101.131C173.77 101.541 174.096 101.871 174.501 101.871C174.907 101.871 175.233 101.541 175.233 101.131C175.233 100.721 174.907 100.391 174.501 100.391ZM160.299 100.391C159.894 100.391 159.568 100.721 159.568 101.131C159.568 101.541 159.894 101.871 160.299 101.871C160.704 101.871 161.031 101.541 161.031 101.131C161.031 100.721 160.704 100.391 160.299 100.391ZM160.299 87.3598C159.894 87.3598 159.568 87.6899 159.568 88.0999C159.568 88.5099 159.894 88.84 160.299 88.84C160.704 88.84 161.031 88.5099 161.031 88.0999C161.031 87.6899 160.704 87.3598 160.299 87.3598ZM146.097 191.648C145.692 191.648 145.366 191.978 145.366 192.388C145.366 192.798 145.692 193.128 146.097 193.128C146.502 193.128 146.829 192.798 146.829 192.388C146.829 191.978 146.502 191.648 146.097 191.648ZM131.905 154.025C132.31 154.025 132.636 153.695 132.636 153.285C132.636 152.875 132.31 152.545 131.905 152.545C131.5 152.545 131.174 152.875 131.174 153.285C131.174 153.695 131.5 154.025 131.905 154.025ZM131.905 140.994C132.31 140.994 132.636 140.664 132.636 140.254C132.636 139.844 132.31 139.514 131.905 139.514C131.5 139.514 131.174 139.844 131.174 140.254C131.174 140.664 131.5 140.994 131.905 140.994ZM131.905 127.953C132.31 127.953 132.636 127.623 132.636 127.213C132.636 126.803 132.31 126.473 131.905 126.473C131.5 126.473 131.174 126.803 131.174 127.213C131.174 127.623 131.5 127.953 131.905 127.953ZM131.905 167.066C132.31 167.066 132.636 166.736 132.636 166.326C132.636 165.916 132.31 165.586 131.905 165.586C131.5 165.586 131.174 165.916 131.174 166.326C131.174 166.736 131.5 167.066 131.905 167.066ZM131.905 193.138C132.31 193.138 132.636 192.808 132.636 192.398C132.636 191.988 132.31 191.658 131.905 191.658C131.5 191.658 131.174 191.988 131.174 192.398C131.174 192.808 131.5 193.138 131.905 193.138ZM131.905 180.097C132.31 180.097 132.636 179.767 132.636 179.357C132.636 178.947 132.31 178.617 131.905 178.617C131.5 178.617 131.174 178.947 131.174 179.357C131.174 179.767 131.5 180.097 131.905 180.097ZM131.905 114.922C132.31 114.922 132.636 114.592 132.636 114.182C132.636 113.772 132.31 113.442 131.905 113.442C131.5 113.442 131.174 113.772 131.174 114.182C131.174 114.592 131.5 114.922 131.905 114.922ZM131.905 75.809C132.31 75.809 132.636 75.479 132.636 75.0689C132.636 74.6589 132.31 74.3289 131.905 74.3289C131.5 74.3289 131.174 74.6589 131.174 75.0689C131.174 75.479 131.5 75.809 131.905 75.809ZM131.905 62.778C132.31 62.778 132.636 62.448 132.636 62.038C132.636 61.6279 132.31 61.2979 131.905 61.2979C131.5 61.2979 131.174 61.6279 131.174 62.038C131.174 62.448 131.5 62.778 131.905 62.778ZM131.905 101.881C132.31 101.881 132.636 101.551 132.636 101.141C132.636 100.731 132.31 100.401 131.905 100.401C131.5 100.401 131.174 100.731 131.174 101.141C131.174 101.551 131.5 101.881 131.905 101.881ZM131.905 88.85C132.31 88.85 132.636 88.5199 132.636 88.1099C132.636 87.6999 132.31 87.3698 131.905 87.3698C131.5 87.3698 131.174 87.6999 131.174 88.1099C131.174 88.5199 131.5 88.85 131.905 88.85ZM131.905 206.169C132.31 206.169 132.636 205.839 132.636 205.429C132.636 205.019 132.31 204.689 131.905 204.689C131.5 204.689 131.174 205.019 131.174 205.429C131.174 205.839 131.5 206.169 131.905 206.169ZM174.501 152.535C174.096 152.535 173.77 152.865 173.77 153.275C173.77 153.685 174.096 154.015 174.501 154.015C174.907 154.015 175.233 153.685 175.233 153.275C175.233 152.865 174.907 152.535 174.501 152.535ZM174.501 165.576C174.096 165.576 173.77 165.906 173.77 166.316C173.77 166.726 174.096 167.056 174.501 167.056C174.907 167.056 175.233 166.726 175.233 166.316C175.233 165.906 174.907 165.576 174.501 165.576ZM174.501 126.463C174.096 126.463 173.77 126.793 173.77 127.203C173.77 127.613 174.096 127.943 174.501 127.943C174.907 127.943 175.233 127.613 175.233 127.203C175.233 126.793 174.907 126.463 174.501 126.463ZM174.501 178.617C174.096 178.617 173.77 178.947 173.77 179.357C173.77 179.767 174.096 180.097 174.501 180.097C174.907 180.097 175.233 179.767 175.233 179.357C175.233 178.947 174.907 178.617 174.501 178.617ZM174.501 139.504C174.096 139.504 173.77 139.834 173.77 140.244C173.77 140.654 174.096 140.984 174.501 140.984C174.907 140.984 175.233 140.654 175.233 140.244C175.233 139.834 174.907 139.504 174.501 139.504ZM174.501 113.432C174.096 113.432 173.77 113.762 173.77 114.172C173.77 114.582 174.096 114.912 174.501 114.912C174.907 114.912 175.233 114.582 175.233 114.172C175.233 113.762 174.907 113.432 174.501 113.432ZM131.905 48.2469C131.5 48.2469 131.174 48.577 131.174 48.987C131.174 49.397 131.5 49.7271 131.905 49.7271C132.31 49.7271 132.636 49.397 132.636 48.987C132.636 48.577 132.31 48.2469 131.905 48.2469ZM131.905 219.21C132.31 219.21 132.636 218.88 132.636 218.47C132.636 218.06 132.31 217.729 131.905 217.729C131.5 217.729 131.174 218.06 131.174 218.47C131.174 218.88 131.5 219.21 131.905 219.21ZM174.501 191.648C174.096 191.648 173.77 191.978 173.77 192.388C173.77 192.798 174.096 193.128 174.501 193.128C174.907 193.128 175.233 192.798 175.233 192.388C175.233 191.978 174.907 191.648 174.501 191.648ZM174.501 204.689C174.096 204.689 173.77 205.019 173.77 205.429C173.77 205.839 174.096 206.169 174.501 206.169C174.907 206.169 175.233 205.839 175.233 205.429C175.233 205.019 174.907 204.689 174.501 204.689ZM103.501 191.648C103.096 191.648 102.77 191.978 102.77 192.388C102.77 192.798 103.096 193.128 103.501 193.128C103.906 193.128 104.232 192.798 104.232 192.388C104.232 191.978 103.906 191.648 103.501 191.648ZM117.703 126.463C117.298 126.463 116.972 126.793 116.972 127.203C116.972 127.613 117.298 127.943 117.703 127.943C118.108 127.943 118.434 127.613 118.434 127.203C118.434 126.793 118.108 126.463 117.703 126.463ZM117.703 139.504C117.298 139.504 116.972 139.834 116.972 140.244C116.972 140.654 117.298 140.984 117.703 140.984C118.108 140.984 118.434 140.654 118.434 140.244C118.434 139.834 118.108 139.504 117.703 139.504ZM117.703 100.391C117.298 100.391 116.972 100.721 116.972 101.131C116.972 101.541 117.298 101.871 117.703 101.871C118.108 101.871 118.434 101.541 118.434 101.131C118.434 100.721 118.108 100.391 117.703 100.391ZM117.703 152.535C117.298 152.535 116.972 152.865 116.972 153.275C116.972 153.685 117.298 154.015 117.703 154.015C118.108 154.015 118.434 153.685 118.434 153.275C118.434 152.865 118.108 152.535 117.703 152.535ZM117.703 113.432C117.298 113.432 116.972 113.762 116.972 114.172C116.972 114.582 117.298 114.912 117.703 114.912C118.108 114.912 118.434 114.582 118.434 114.172C118.434 113.762 118.108 113.432 117.703 113.432ZM117.703 204.689C117.298 204.689 116.972 205.019 116.972 205.429C116.972 205.839 117.298 206.169 117.703 206.169C118.108 206.169 118.434 205.839 118.434 205.429C118.434 205.019 118.108 204.689 117.703 204.689ZM89.2988 152.535C88.8936 152.535 88.5674 152.865 88.5674 153.275C88.5674 153.685 88.8936 154.015 89.2988 154.015C89.704 154.015 90.0301 153.685 90.0301 153.275C90.0301 152.865 89.704 152.535 89.2988 152.535ZM117.703 217.719C117.298 217.719 116.972 218.05 116.972 218.46C116.972 218.87 117.298 219.2 117.703 219.2C118.108 219.2 118.434 218.87 118.434 218.46C118.434 218.05 118.108 217.719 117.703 217.719ZM117.703 178.617C117.298 178.617 116.972 178.947 116.972 179.357C116.972 179.767 117.298 180.097 117.703 180.097C118.108 180.097 118.434 179.767 118.434 179.357C118.434 178.947 118.108 178.617 117.703 178.617ZM117.703 165.576C117.298 165.576 116.972 165.906 116.972 166.316C116.972 166.726 117.298 167.056 117.703 167.056C118.108 167.056 118.434 166.726 118.434 166.316C118.434 165.906 118.108 165.576 117.703 165.576ZM117.703 191.648C117.298 191.648 116.972 191.978 116.972 192.388C116.972 192.798 117.298 193.128 117.703 193.128C118.108 193.128 118.434 192.798 118.434 192.388C118.434 191.978 118.108 191.648 117.703 191.648ZM117.703 87.3598C117.298 87.3598 116.972 87.6899 116.972 88.0999C116.972 88.5099 117.298 88.84 117.703 88.84C118.108 88.84 118.434 88.5099 118.434 88.0999C118.434 87.6899 118.108 87.3598 117.703 87.3598ZM103.501 139.504C103.096 139.504 102.77 139.834 102.77 140.244C102.77 140.654 103.096 140.984 103.501 140.984C103.906 140.984 104.232 140.654 104.232 140.244C104.232 139.834 103.906 139.504 103.501 139.504ZM103.501 113.432C103.096 113.432 102.77 113.762 102.77 114.172C102.77 114.582 103.096 114.912 103.501 114.912C103.906 114.912 104.232 114.582 104.232 114.172C104.232 113.762 103.906 113.432 103.501 113.432ZM103.501 126.463C103.096 126.463 102.77 126.793 102.77 127.203C102.77 127.613 103.096 127.943 103.501 127.943C103.906 127.943 104.232 127.613 104.232 127.203C104.232 126.793 103.906 126.463 103.501 126.463ZM117.703 74.3189C117.298 74.3189 116.972 74.6489 116.972 75.0589C116.972 75.469 117.298 75.799 117.703 75.799C118.108 75.799 118.434 75.469 118.434 75.0589C118.434 74.6489 118.108 74.3189 117.703 74.3189ZM104.232 218.47C104.232 218.06 103.906 217.729 103.501 217.729C103.234 217.729 103.017 217.88 102.888 218.09C103.264 218.4 103.629 218.7 104.015 219.01C104.153 218.87 104.232 218.69 104.232 218.48V218.47ZM103.501 206.169C103.906 206.169 104.232 205.839 104.232 205.429C104.232 205.019 103.906 204.689 103.501 204.689C103.096 204.689 102.77 205.019 102.77 205.429C102.77 205.839 103.096 206.169 103.501 206.169ZM103.501 178.617C103.096 178.617 102.77 178.947 102.77 179.357C102.77 179.767 103.096 180.097 103.501 180.097C103.906 180.097 104.232 179.767 104.232 179.357C104.232 178.947 103.906 178.617 103.501 178.617ZM103.501 152.535C103.096 152.535 102.77 152.865 102.77 153.275C102.77 153.685 103.096 154.015 103.501 154.015C103.906 154.015 104.232 153.685 104.232 153.275C104.232 152.865 103.906 152.535 103.501 152.535ZM117.703 61.2879C117.298 61.2879 116.972 61.6179 116.972 62.028C116.972 62.438 117.298 62.768 117.703 62.768C118.108 62.768 118.434 62.438 118.434 62.028C118.434 61.6179 118.108 61.2879 117.703 61.2879ZM103.501 165.576C103.096 165.576 102.77 165.906 102.77 166.316C102.77 166.726 103.096 167.056 103.501 167.056C103.906 167.056 104.232 166.726 104.232 166.316C104.232 165.906 103.906 165.576 103.501 165.576ZM188.703 167.066C189.109 167.066 189.435 166.736 189.435 166.326C189.435 165.916 189.109 165.586 188.703 165.586C188.298 165.586 187.972 165.916 187.972 166.326C187.972 166.736 188.298 167.066 188.703 167.066ZM146.097 61.2879C145.692 61.2879 145.366 61.6179 145.366 62.028C145.366 62.438 145.692 62.768 146.097 62.768C146.502 62.768 146.829 62.438 146.829 62.028C146.829 61.6179 146.502 61.2879 146.097 61.2879ZM146.097 74.3189C145.692 74.3189 145.366 74.6489 145.366 75.0589C145.366 75.469 145.692 75.799 146.097 75.799C146.502 75.799 146.829 75.469 146.829 75.0589C146.829 74.6489 146.502 74.3189 146.097 74.3189ZM146.097 219.21C146.502 219.21 146.829 218.88 146.829 218.47C146.829 218.06 146.502 217.729 146.097 217.729C145.692 217.729 145.366 218.06 145.366 218.47C145.366 218.88 145.692 219.21 146.097 219.21ZM146.097 139.504C145.692 139.504 145.366 139.834 145.366 140.244C145.366 140.654 145.692 140.984 146.097 140.984C146.502 140.984 146.829 140.654 146.829 140.244C146.829 139.834 146.502 139.504 146.097 139.504ZM146.097 87.3598C145.692 87.3598 145.366 87.6899 145.366 88.0999C145.366 88.5099 145.692 88.84 146.097 88.84C146.502 88.84 146.829 88.5099 146.829 88.0999C146.829 87.6899 146.502 87.3598 146.097 87.3598ZM146.097 152.535C145.692 152.535 145.366 152.865 145.366 153.275C145.366 153.685 145.692 154.015 146.097 154.015C146.502 154.015 146.829 153.685 146.829 153.275C146.829 152.865 146.502 152.535 146.097 152.535ZM146.097 126.463C145.692 126.463 145.366 126.793 145.366 127.203C145.366 127.613 145.692 127.943 146.097 127.943C146.502 127.943 146.829 127.613 146.829 127.203C146.829 126.793 146.502 126.463 146.097 126.463ZM146.097 113.432C145.692 113.432 145.366 113.762 145.366 114.172C145.366 114.582 145.692 114.912 146.097 114.912C146.502 114.912 146.829 114.582 146.829 114.172C146.829 113.762 146.502 113.432 146.097 113.432ZM89.2988 204.689C89.2 204.689 89.111 204.709 89.0221 204.749C89.3383 205.069 89.6645 205.379 89.9807 205.699C90.0104 205.619 90.0301 205.529 90.0301 205.439C90.0301 205.029 89.704 204.699 89.2988 204.699V204.689ZM146.097 100.391C145.692 100.391 145.366 100.721 145.366 101.131C145.366 101.541 145.692 101.871 146.097 101.871C146.502 101.871 146.829 101.541 146.829 101.131C146.829 100.721 146.502 100.391 146.097 100.391ZM75.1066 193.138C75.5118 193.138 75.8379 192.808 75.8379 192.398C75.8379 191.988 75.5118 191.658 75.1066 191.658C74.7014 191.658 74.3752 191.988 74.3752 192.398C74.3752 192.808 74.7014 193.138 75.1066 193.138ZM75.1066 180.097C75.5118 180.097 75.8379 179.767 75.8379 179.357C75.8379 178.947 75.5118 178.617 75.1066 178.617C74.7014 178.617 74.3752 178.947 74.3752 179.357C74.3752 179.767 74.7014 180.097 75.1066 180.097ZM89.2988 180.097C89.704 180.097 90.0301 179.767 90.0301 179.357C90.0301 178.947 89.704 178.617 89.2988 178.617C88.8936 178.617 88.5674 178.947 88.5674 179.357C88.5674 179.767 88.8936 180.097 89.2988 180.097ZM188.703 154.025C189.109 154.025 189.435 153.695 189.435 153.285C189.435 152.875 189.109 152.545 188.703 152.545C188.298 152.545 187.972 152.875 187.972 153.285C187.972 153.695 188.298 154.025 188.703 154.025ZM89.2988 193.138C89.704 193.138 90.0301 192.808 90.0301 192.398C90.0301 191.988 89.704 191.658 89.2988 191.658C88.8936 191.658 88.5674 191.988 88.5674 192.398C88.5674 192.808 88.8936 193.138 89.2988 193.138ZM89.2988 167.066C89.704 167.066 90.0301 166.736 90.0301 166.326C90.0301 165.916 89.704 165.586 89.2988 165.586C88.8936 165.586 88.5674 165.916 88.5674 166.326C88.5674 166.736 88.8936 167.066 89.2988 167.066ZM188.703 139.504C188.298 139.504 187.972 139.834 187.972 140.244C187.972 140.654 188.298 140.984 188.703 140.984C189.109 140.984 189.435 140.654 189.435 140.244C189.435 139.834 189.109 139.504 188.703 139.504ZM188.703 180.097C189.109 180.097 189.435 179.767 189.435 179.357C189.435 178.947 189.109 178.617 188.703 178.617C188.298 178.617 187.972 178.947 187.972 179.357C187.972 179.767 188.298 180.097 188.703 180.097ZM188.703 193.138C189.109 193.138 189.435 192.808 189.435 192.398C189.435 191.988 189.109 191.658 188.703 191.658C188.298 191.658 187.972 191.988 187.972 192.398C187.972 192.808 188.298 193.138 188.703 193.138ZM188.703 206.169C189.109 206.169 189.435 205.839 189.435 205.429C189.435 205.019 189.109 204.689 188.703 204.689C188.298 204.689 187.972 205.019 187.972 205.429C187.972 205.839 188.298 206.169 188.703 206.169Z" fill="#0F7D2E"/>
<path d="M195.889 204.748C170.044 205.749 152.383 224.75 125.906 219.43C98.6781 213.959 91.6017 190.717 72.3889 182.777" stroke="#0E1823" stroke-width="0.25" stroke-linecap="round" stroke-linejoin="round"/>
<path d="M128.703 37.5861H114.946L100.684 64.0381C97.2252 69.4285 99.8442 75.919 104.035 78.4091C96.4346 98.2806 86.4822 115.392 76.2729 133.123C84.051 144.274 96.0392 150.374 111.605 152.195C122.506 121.652 138.201 79.9593 138.201 37.5761H128.703V37.5861Z" fill="#504789"/>
<path d="M131.668 37.5861C130.63 79.3992 115.717 120.242 104.687 151.035" stroke="#0E1823" stroke-width="0.25" stroke-linecap="round" stroke-linejoin="round"/>
<path d="M78.9216 128.493C87.4113 139.564 99.1425 145.324 113.602 146.614" stroke="#0E1823" stroke-width="0.25" stroke-linecap="round" stroke-linejoin="round"/>
<path d="M111.862 115.012L105.478 128.613C104.835 129.983 103.491 130.883 101.989 130.953L95.2683 131.243C93.9538 131.303 92.6888 130.703 91.8883 129.653L88.3995 125.093C87.4903 123.903 87.2926 122.312 87.8955 120.932L93.6079 107.721L111.872 115.002L111.862 115.012Z" fill="#D9D9D9"/>
<path d="M111.862 115.011L106.683 118.811C106.021 119.301 105.211 119.541 104.4 119.511L99.6268 119.331C98.7175 119.301 97.8577 118.921 97.2054 118.271L94.1614 115.251C93.351 114.451 92.9557 113.311 93.0841 112.171L93.5981 107.731" stroke="#0E1823" stroke-width="0.25" stroke-linecap="round" stroke-linejoin="round"/>
<path d="M99.0239 116.172C98.9251 116.672 99.2414 117.162 99.7355 117.262C100.23 117.362 100.714 117.042 100.813 116.542C100.912 116.042 100.595 115.552 100.101 115.452C99.607 115.352 99.1228 115.672 99.0239 116.172Z" stroke="#0E1823" stroke-width="0.25" stroke-linecap="round" stroke-linejoin="round"/>
<path d="M151.197 37.5861C145.86 77.119 148.44 115.822 157.601 153.815C175.203 151.505 191.609 148.254 203.607 141.534L180.58 37.5861H151.197Z" fill="#504789"/>
<path d="M164.421 152.855C155.407 115.142 152.66 76.759 157.364 37.5861" stroke="#0E1823" stroke-width="0.25" stroke-linecap="round" stroke-linejoin="round"/>
<path d="M156.109 147.373C172.466 146.413 187.992 142.923 202.392 136.043" stroke="#0E1823" stroke-width="0.25" stroke-linecap="round" stroke-linejoin="round"/>
<path d="M163.966 114.882L167.534 129.503C167.89 130.983 169.036 132.133 170.489 132.503L177.012 134.153C178.287 134.473 179.641 134.153 180.639 133.283L184.958 129.523C186.085 128.543 186.589 127.023 186.282 125.553L183.307 111.452L163.976 114.882H163.966Z" fill="#D9D9D9"/>
<path d="M163.966 114.882L168.295 119.652C168.848 120.262 169.59 120.672 170.4 120.802L175.104 121.592C176.004 121.742 176.923 121.552 177.684 121.052L181.262 118.712C182.21 118.092 182.823 117.052 182.922 115.912L183.297 111.462" stroke="#0E1823" stroke-width="0.25" stroke-linecap="round" stroke-linejoin="round"/>
<path d="M176.31 118.632C176.31 119.142 175.905 119.552 175.401 119.552C174.897 119.552 174.492 119.142 174.492 118.632C174.492 118.122 174.897 117.712 175.401 117.712C175.905 117.712 176.31 118.122 176.31 118.632Z" stroke="#0E1823" stroke-width="0.25" stroke-linecap="round" stroke-linejoin="round"/>
<path d="M204.862 189.507C205.762 188.747 206.256 187.577 206.137 186.367C205.732 182.477 204.625 175.366 201.779 173.526C196.926 170.386 143.33 177.257 143.33 177.257C143.607 177.206 143.874 177.256 144.14 177.347C143.874 177.266 143.607 177.226 143.33 177.257C139.456 177.737 139.782 182.387 139.782 182.387C139.782 182.387 136.619 221 147.441 227.52C156.623 233.051 197.984 230.7 205.396 220.68C210.298 214.049 207.768 199.958 204.853 189.497L204.862 189.507Z" fill="#FFB552"/>
<path d="M180.619 196.357C182.038 196.357 183.189 195.193 183.189 193.757C183.189 192.322 182.038 191.157 180.619 191.157C179.2 191.157 178.05 192.322 178.05 193.757C178.05 195.193 179.2 196.357 180.619 196.357Z" stroke="#0E1823" stroke-width="0.25" stroke-linecap="round" stroke-linejoin="round"/>
<path d="M143.33 177.256C146.651 176.666 148.42 186.377 149.102 191.377C149.339 193.108 150.644 194.498 152.334 194.838L176.547 199.728C179.809 200.388 183.199 199.968 186.213 198.538L204.072 190.037" stroke="#0E1823" stroke-width="0.25" stroke-linecap="round" stroke-linejoin="round"/>
<path d="M140.622 186.367L148.074 185.497" stroke="#0E1823" stroke-width="0.25" stroke-linecap="round" stroke-linejoin="round"/>
<path d="M152.344 194.838C152.344 194.838 152.284 223.93 157.147 225.12C162.009 226.31 195.217 227.29 204.082 217.289C207.136 213.849 202.589 190.727 202.589 190.727" stroke="#0E1823" stroke-width="0.25" stroke-linecap="round" stroke-linejoin="round"/>
<path d="M176.3 199.668L178.524 212.809C178.613 213.349 178.909 213.839 179.354 214.159L182.112 216.209C183.05 216.909 184.375 216.699 185.057 215.739L187.083 212.899C187.409 212.439 187.547 211.859 187.448 211.289L185.324 198.898" stroke="#0E1823" stroke-width="0.25" stroke-linecap="round" stroke-linejoin="round"/>
<path d="M144.111 193.478L131.668 37.5861" stroke="#0E1823" stroke-width="0.5" stroke-linecap="round" stroke-linejoin="round"/>
<path d="M141.423 193.758C141.423 193.758 140.81 206.068 145.366 206.168C149.922 206.268 147.254 193.128 147.254 193.128L141.423 193.758Z" stroke="#0E1823" stroke-width="0.25" stroke-linecap="round" stroke-linejoin="round"/>
<path d="M134.386 37.5862H161.93C161.93 37.5862 161.535 48.2662 148.163 48.8962C134.791 49.5362 134.396 37.5862 134.396 37.5862H134.386Z" fill="#F27F5C"/>
<path d="M211.573 166.316C211.573 166.316 171.092 194.908 170.252 193.978C169.412 193.048 176.439 187.147 176.439 187.147C176.439 187.147 166.743 192.838 165.795 192.008C164.846 191.178 173.978 184.737 173.839 184.787C173.701 184.837 165.043 189.187 164.282 188.087C163.521 186.987 172.555 181.947 172.555 181.947C172.555 181.947 163.986 185.177 163.689 184.367C163.383 183.557 171.942 179.217 174.838 177.447C175.806 176.857 176.883 174.906 176.883 174.906C176.883 174.906 171.072 174.136 171.042 171.826C174.452 171.606 181.341 171.686 183.011 170.046C183.821 169.246 193.932 157.085 193.932 157.085L211.593 166.316H211.573Z" fill="#F27F5C"/>
<path d="M168.315 37.5862H187.221C193.349 37.5862 198.883 41.2565 201.315 46.9469C210.921 69.3985 243.496 113.982 236.034 134.283C226.635 159.855 215.853 175.556 215.853 175.556L179.255 152.205L194.08 131.253C187.696 98.3307 176.636 71.3687 168.325 37.5862H168.315Z" fill="#03A731"/>
<path d="M173.77 48.997C173.77 48.587 174.096 48.2569 174.502 48.2569C174.907 48.2569 175.233 48.587 175.233 48.997C175.233 49.407 174.907 49.7371 174.502 49.7371C174.096 49.7371 173.77 49.407 173.77 48.997ZM231.3 140.994C231.705 140.994 232.031 140.664 232.031 140.254C232.031 139.844 231.705 139.514 231.3 139.514C230.895 139.514 230.569 139.844 230.569 140.254C230.569 140.664 230.895 140.994 231.3 140.994ZM231.3 127.953C231.705 127.953 232.031 127.623 232.031 127.213C232.031 126.803 231.705 126.473 231.3 126.473C230.895 126.473 230.569 126.803 230.569 127.213C230.569 127.623 230.895 127.953 231.3 127.953ZM231.3 113.432C230.895 113.432 230.569 113.762 230.569 114.172C230.569 114.582 230.895 114.912 231.3 114.912C231.705 114.912 232.031 114.582 232.031 114.172C232.031 113.762 231.705 113.432 231.3 113.432ZM174.808 61.3579C174.907 61.7079 175.016 62.058 175.114 62.408C175.184 62.298 175.233 62.168 175.233 62.028C175.233 61.7279 175.055 61.4779 174.808 61.3579ZM188.704 74.3189C188.298 74.3189 187.972 74.6489 187.972 75.0589C187.972 75.469 188.298 75.799 188.704 75.799C189.109 75.799 189.435 75.469 189.435 75.0589C189.435 74.6489 189.109 74.3189 188.704 74.3189ZM217.098 127.953C217.503 127.953 217.829 127.623 217.829 127.213C217.829 126.803 217.503 126.473 217.098 126.473C216.693 126.473 216.367 126.803 216.367 127.213C216.367 127.623 216.693 127.953 217.098 127.953ZM217.098 88.85C217.503 88.85 217.829 88.5199 217.829 88.1099C217.829 87.6999 217.503 87.3699 217.098 87.3699C216.693 87.3699 216.367 87.6999 216.367 88.1099C216.367 88.5199 216.693 88.85 217.098 88.85ZM217.098 114.922C217.503 114.922 217.829 114.592 217.829 114.182C217.829 113.772 217.503 113.442 217.098 113.442C216.693 113.442 216.367 113.772 216.367 114.182C216.367 114.592 216.693 114.922 217.098 114.922ZM217.098 167.066C217.503 167.066 217.829 166.736 217.829 166.326C217.829 165.916 217.503 165.586 217.098 165.586C216.693 165.586 216.367 165.916 216.367 166.326C216.367 166.736 216.693 167.066 217.098 167.066ZM217.098 101.881C217.503 101.881 217.829 101.551 217.829 101.141C217.829 100.731 217.503 100.401 217.098 100.401C216.693 100.401 216.367 100.731 216.367 101.141C216.367 101.551 216.693 101.881 217.098 101.881ZM217.098 154.025C217.503 154.025 217.829 153.695 217.829 153.285C217.829 152.875 217.503 152.545 217.098 152.545C216.693 152.545 216.367 152.875 216.367 153.285C216.367 153.695 216.693 154.025 217.098 154.025ZM217.098 140.994C217.503 140.994 217.829 140.664 217.829 140.254C217.829 139.844 217.503 139.514 217.098 139.514C216.693 139.514 216.367 139.844 216.367 140.254C216.367 140.664 216.693 140.994 217.098 140.994ZM188.704 61.2879C188.298 61.2879 187.972 61.6179 187.972 62.028C187.972 62.438 188.298 62.768 188.704 62.768C189.109 62.768 189.435 62.438 189.435 62.028C189.435 61.6179 189.109 61.2879 188.704 61.2879ZM188.704 87.3598C188.298 87.3598 187.972 87.6899 187.972 88.0999C187.972 88.5099 188.298 88.84 188.704 88.84C189.109 88.84 189.435 88.5099 189.435 88.0999C189.435 87.6899 189.109 87.3598 188.704 87.3598ZM202.896 87.3598C202.491 87.3598 202.165 87.6899 202.165 88.0999C202.165 88.5099 202.491 88.84 202.896 88.84C203.301 88.84 203.627 88.5099 203.627 88.0999C203.627 87.6899 203.301 87.3598 202.896 87.3598ZM202.896 74.3189C202.491 74.3189 202.165 74.6489 202.165 75.0589C202.165 75.469 202.491 75.799 202.896 75.799C203.301 75.799 203.627 75.469 203.627 75.0589C203.627 74.6489 203.301 74.3189 202.896 74.3189ZM202.896 113.432C202.491 113.432 202.165 113.762 202.165 114.172C202.165 114.582 202.491 114.912 202.896 114.912C203.301 114.912 203.627 114.582 203.627 114.172C203.627 113.762 203.301 113.432 202.896 113.432ZM202.896 100.391C202.491 100.391 202.165 100.721 202.165 101.131C202.165 101.541 202.491 101.871 202.896 101.871C203.301 101.871 203.627 101.541 203.627 101.131C203.627 100.721 203.301 100.391 202.896 100.391ZM202.165 48.997C202.165 49.267 202.313 49.487 202.52 49.617C202.412 49.377 202.293 49.137 202.184 48.897C202.184 48.927 202.165 48.957 202.165 48.997ZM202.896 167.066C203.301 167.066 203.627 166.736 203.627 166.326C203.627 165.916 203.301 165.586 202.896 165.586C202.491 165.586 202.165 165.916 202.165 166.326C202.165 166.736 202.491 167.066 202.896 167.066ZM202.896 61.2879C202.491 61.2879 202.165 61.6179 202.165 62.028C202.165 62.438 202.491 62.768 202.896 62.768C203.301 62.768 203.627 62.438 203.627 62.028C203.627 61.6179 203.301 61.2879 202.896 61.2879ZM187.962 140.244C187.962 140.654 188.289 140.984 188.694 140.984C189.099 140.984 189.425 140.654 189.425 140.244C189.425 139.834 189.099 139.504 188.694 139.504C188.289 139.504 187.962 139.834 187.962 140.244ZM188.704 48.2469C188.298 48.2469 187.972 48.577 187.972 48.987C187.972 49.397 188.298 49.7271 188.704 49.7271C189.109 49.7271 189.435 49.397 189.435 48.987C189.435 48.577 189.109 48.2469 188.704 48.2469ZM188.704 101.881C189.109 101.881 189.435 101.551 189.435 101.141C189.435 100.731 189.109 100.401 188.704 100.401C188.298 100.401 187.972 100.731 187.972 101.141C187.972 101.551 188.298 101.881 188.704 101.881ZM188.704 154.025C189.109 154.025 189.435 153.695 189.435 153.285C189.435 152.875 189.109 152.545 188.704 152.545C188.298 152.545 187.972 152.875 187.972 153.285C187.972 153.695 188.298 154.025 188.704 154.025ZM202.896 152.535C202.491 152.535 202.165 152.865 202.165 153.275C202.165 153.685 202.491 154.015 202.896 154.015C203.301 154.015 203.627 153.685 203.627 153.275C203.627 152.865 203.301 152.535 202.896 152.535ZM202.896 139.504C202.491 139.504 202.165 139.834 202.165 140.244C202.165 140.654 202.491 140.984 202.896 140.984C203.301 140.984 203.627 140.654 203.627 140.244C203.627 139.834 203.301 139.504 202.896 139.504ZM202.896 126.463C202.491 126.463 202.165 126.793 202.165 127.203C202.165 127.613 202.491 127.943 202.896 127.943C203.301 127.943 203.627 127.613 203.627 127.203C203.627 126.793 203.301 126.463 202.896 126.463Z" fill="#0F7D2E"/>
<path d="M215.853 175.546L179.255 152.195L194.08 131.243C190.166 111.072 184.503 93.1403 178.791 74.5089" stroke="#0E1823" stroke-width="0.25" stroke-linecap="round" stroke-linejoin="round"/>
<path d="M194.07 131.253C196.412 130.373 198.814 130.223 201.324 131.253" stroke="#0E1823" stroke-width="0.25" stroke-linecap="round" stroke-linejoin="round"/>
<path d="M183.742 145.854L221.002 167.066" stroke="#0E1823" stroke-width="0.25" stroke-linecap="round" stroke-linejoin="round"/>
<path d="M138.626 3.64364C139.742 -0.296655 150.614 -1.42674 155.397 2.18353C160.181 5.7938 159.529 13.3544 154.706 18.7248C149.892 24.0951 136.906 9.9741 136.906 9.9741C136.906 9.9741 133.803 5.76379 138.626 3.64364Z" fill="#0E1823"/>
<path d="M139.94 46.8869L142.391 28.8755C142.391 28.8755 135.028 30.9357 133.506 28.1455C130.601 22.8151 138.863 3.82367 138.863 3.82367L151.256 3.42365L154.113 14.1244L155.348 46.4568L139.94 46.8769V46.8869Z" fill="#F27F5C"/>
<path d="M138.645 11.7842C138.725 13.7042 137.944 16.0342 137.074 16.9142C137.558 17.2742 137.894 17.3742 138.497 17.4242C137.973 17.8842 137.45 18.3342 136.926 18.7942C138.517 19.7442 140.998 20.2142 142.984 18.4042" stroke="#0E1823" stroke-width="0.25" stroke-linecap="round" stroke-linejoin="round"/>
<path d="M132.182 11.0542C132.182 11.0542 130.65 16.4942 134.781 16.4942C138.912 16.4942 137.746 11.0542 137.746 11.0542H132.192H132.182Z" fill="#0E1823"/>
<path d="M139.98 11.0542C139.98 11.0542 138.22 16.4942 142.955 16.4942C147.689 16.4942 146.344 11.0542 146.344 11.0542H139.98Z" fill="#0E1823"/>
<path d="M137.469 12.8142C137.469 12.8142 137.756 11.7842 138.645 11.7842C139.535 11.7842 139.98 12.9542 139.98 12.9542" stroke="#0E1823" stroke-width="0.25" stroke-linecap="round" stroke-linejoin="round"/>
<path d="M138.863 3.83336C145.554 15.5834 154.794 14.1334 154.794 14.1334L152.373 2.57336L138.863 3.84336V3.83336Z" fill="#0E1823"/>
<path d="M167.277 69.3585L163.116 64.6382C162.058 63.4381 162.582 61.5379 164.094 61.0479L166.269 60.3579C167.405 59.9978 168.048 58.7777 167.712 57.6277L161.92 37.5762H151.187C148.133 60.1778 147.688 82.5095 149.556 104.581L167.544 71.8987C167.998 71.0787 167.89 70.0486 167.267 69.3485L167.277 69.3585Z" fill="#D9D9D9"/>
<path d="M125.165 37.5862L117.683 54.3374C117.189 55.4375 117.664 56.7376 118.741 57.2476L121.014 58.3377C122.496 59.0478 122.714 61.0779 121.419 62.088L116.191 66.1683C115.479 66.7283 115.173 67.6684 115.43 68.5385L126.657 107.581C133.081 85.7698 138.201 61.788 138.201 37.5862H125.165Z" fill="#D9D9D9"/>
<path d="M268.717 176.726C269.142 176.036 268.362 175.246 267.68 175.676L261.522 179.567C261.275 179.717 260.969 179.717 260.722 179.567L254.565 175.676C253.883 175.246 253.102 176.036 253.527 176.726L257.372 182.957C257.52 183.207 257.52 183.517 257.372 183.767L253.527 189.997C253.102 190.688 253.883 191.478 254.565 191.048L260.722 187.157C260.969 187.007 261.275 187.007 261.522 187.157L267.68 191.048C268.362 191.478 269.142 190.688 268.717 189.997L264.873 183.767C264.725 183.517 264.725 183.207 264.873 182.957L268.717 176.726Z" fill="white"/>
<path d="M316.127 233.83C316.018 233.66 316.018 233.45 316.127 233.28L318.756 229.02C319.043 228.55 318.509 228.01 318.044 228.3L313.834 230.96C313.666 231.07 313.459 231.07 313.291 230.96L309.08 228.3C308.616 228.01 308.082 228.55 308.369 229.02L310.998 233.28C311.106 233.45 311.106 233.66 310.998 233.83L308.369 238.09C308.082 238.56 308.616 239.1 309.08 238.81L313.291 236.15C313.459 236.04 313.666 236.04 313.834 236.15L318.044 238.81C318.509 239.1 319.043 238.56 318.756 238.09L316.127 233.83Z" fill="white"/>
<path d="M214.548 248.062C214.835 247.592 214.301 247.052 213.836 247.342L209.626 250.002C209.458 250.112 209.251 250.112 209.083 250.002L204.872 247.342C204.408 247.052 203.874 247.592 204.161 248.062L206.79 252.322C206.898 252.492 206.898 252.702 206.79 252.872L204.161 257.132C203.874 257.602 204.408 258.142 204.872 257.852L209.083 255.192C209.251 255.082 209.458 255.082 209.626 255.192L213.836 257.852C214.301 258.142 214.835 257.602 214.548 257.132L211.919 252.872C211.81 252.702 211.81 252.492 211.919 252.322L214.548 248.062Z" fill="white"/>
<path d="M236.4 313.906C236.291 313.736 236.291 313.526 236.4 313.356L239.028 309.096C239.315 308.626 238.781 308.086 238.317 308.376L234.107 311.036C233.939 311.146 233.731 311.146 233.563 311.036L229.353 308.376C228.888 308.086 228.355 308.626 228.641 309.096L231.27 313.356C231.379 313.526 231.379 313.736 231.27 313.906L228.641 318.166C228.355 318.636 228.888 319.176 229.353 318.886L233.563 316.226C233.731 316.116 233.939 316.116 234.107 316.226L238.317 318.886C238.781 319.176 239.315 318.636 239.028 318.166L236.4 313.906Z" fill="white"/>
<path d="M269.548 263.993C269.716 263.723 269.399 263.403 269.133 263.573L266.672 265.123C266.573 265.183 266.454 265.183 266.355 265.123L263.894 263.573C263.628 263.403 263.311 263.723 263.479 263.993L265.011 266.483C265.071 266.583 265.071 266.703 265.011 266.803L263.479 269.293C263.311 269.563 263.628 269.883 263.894 269.713L266.355 268.163C266.454 268.103 266.573 268.103 266.672 268.163L269.133 269.713C269.399 269.883 269.716 269.563 269.548 269.293L268.016 266.803C267.956 266.703 267.956 266.583 268.016 266.483L269.548 263.993Z" fill="white"/>
<path d="M60.6871 305.596C61.1121 304.906 60.3313 304.116 59.6494 304.546L53.4922 308.436C53.2451 308.586 52.9387 308.586 52.6917 308.436L46.5345 304.546C45.8525 304.116 45.0718 304.906 45.4967 305.596L49.3413 311.826C49.4895 312.076 49.4895 312.386 49.3413 312.636L45.4967 318.867C45.0718 319.557 45.8525 320.347 46.5345 319.917L52.6917 316.027C52.9387 315.877 53.2451 315.877 53.4922 316.027L59.6494 319.917C60.3313 320.347 61.1121 319.557 60.6871 318.867L56.8426 312.636C56.6943 312.386 56.6943 312.076 56.8426 311.826L60.6871 305.596Z" fill="white"/>
<path d="M11.3011 270.353C11.5877 269.883 11.054 269.343 10.5895 269.633L6.37932 272.293C6.2113 272.403 6.00376 272.403 5.83574 272.293L1.62553 269.633C1.16102 269.343 0.627328 269.883 0.913939 270.353L3.54286 274.613C3.65157 274.783 3.65157 274.993 3.54286 275.163L0.913939 279.423C0.627328 279.893 1.16102 280.433 1.62553 280.143L5.83574 277.483C6.00376 277.373 6.2113 277.373 6.37932 277.483L10.5895 280.143C11.054 280.433 11.5877 279.893 11.3011 279.423L8.67221 275.163C8.56349 274.993 8.56349 274.783 8.67221 274.613L11.3011 270.353Z" fill="white"/>
<path d="M39.8339 164.755C39.5472 165.225 40.0809 165.765 40.5454 165.475L44.7557 162.815C44.9237 162.705 45.1312 162.705 45.2992 162.815L49.5095 165.475C49.974 165.765 50.5077 165.225 50.221 164.755L47.5921 160.495C47.4834 160.325 47.4834 160.115 47.5921 159.945L50.221 155.685C50.5077 155.215 49.974 154.675 49.5095 154.965L45.2992 157.625C45.1312 157.735 44.9237 157.735 44.7557 157.625L40.5454 154.965C40.0809 154.675 39.5472 155.215 39.8339 155.685L42.4628 159.945C42.5715 160.115 42.5715 160.325 42.4628 160.495L39.8339 164.755Z" fill="white"/>
<path d="M39.1616 235.511C39.3297 235.241 39.0134 234.921 38.7465 235.091L36.2856 236.641C36.1868 236.701 36.0682 236.701 35.9694 236.641L33.5085 235.091C33.2416 234.921 32.9254 235.241 33.0934 235.511L34.6253 238.001C34.6846 238.101 34.6846 238.221 34.6253 238.321L33.0934 240.811C32.9254 241.081 33.2416 241.401 33.5085 241.231L35.9694 239.681C36.0682 239.621 36.1868 239.621 36.2856 239.681L38.7465 241.231C39.0134 241.401 39.3297 241.081 39.1616 240.811L37.6298 238.321C37.5705 238.221 37.5705 238.101 37.6298 238.001L39.1616 235.511Z" fill="white"/>
<path d="M313.468 296.505C313.636 296.235 313.32 295.915 313.053 296.085L310.592 297.635C310.493 297.695 310.375 297.695 310.276 297.635L307.815 296.085C307.548 295.915 307.232 296.235 307.4 296.505L308.932 298.995C308.991 299.095 308.991 299.215 308.932 299.315L307.4 301.805C307.232 302.075 307.548 302.395 307.815 302.225L310.276 300.675C310.375 300.615 310.493 300.615 310.592 300.675L313.053 302.225C313.32 302.395 313.636 302.075 313.468 301.805L311.936 299.315C311.877 299.215 311.877 299.095 311.936 298.995L313.468 296.505Z" fill="white"/>
</g>
<defs>
<clipPath id="clip0_553_138">
<rect width="318" height="405" fill="white" transform="translate(0.833252)"/>
</clipPath>
</defs>
</svg>
